G04 #@! TF.GenerationSoftware,KiCad,Pcbnew,8.0.2*
G04 #@! TF.CreationDate,2024-07-26T13:41:10+02:00*
G04 #@! TF.ProjectId,e07-900m10s-breakout,6530372d-3930-4306-9d31-30732d627265,rev?*
G04 #@! TF.SameCoordinates,Original*
G04 #@! TF.FileFunction,Copper,L1,Top*
G04 #@! TF.FilePolarity,Positive*
%FSLAX46Y46*%
G04 Gerber Fmt 4.6, Leading zero omitted, Abs format (unit mm)*
G04 Created by KiCad (PCBNEW 8.0.2) date 2024-07-26 13:41:10*
%MOMM*%
%LPD*%
G01*
G04 APERTURE LIST*
G04 Aperture macros list*
%AMRoundRect*
0 Rectangle with rounded corners*
0 $1 Rounding radius*
0 $2 $3 $4 $5 $6 $7 $8 $9 X,Y pos of 4 corners*
0 Add a 4 corners polygon primitive as box body*
4,1,4,$2,$3,$4,$5,$6,$7,$8,$9,$2,$3,0*
0 Add four circle primitives for the rounded corners*
1,1,$1+$1,$2,$3*
1,1,$1+$1,$4,$5*
1,1,$1+$1,$6,$7*
1,1,$1+$1,$8,$9*
0 Add four rect primitives between the rounded corners*
20,1,$1+$1,$2,$3,$4,$5,0*
20,1,$1+$1,$4,$5,$6,$7,0*
20,1,$1+$1,$6,$7,$8,$9,0*
20,1,$1+$1,$8,$9,$2,$3,0*%
%AMFreePoly0*
4,1,6,1.000000,0.000000,0.500000,-0.750000,-0.500000,-0.750000,-0.500000,0.750000,0.500000,0.750000,1.000000,0.000000,1.000000,0.000000,$1*%
%AMFreePoly1*
4,1,6,0.500000,-0.750000,-0.650000,-0.750000,-0.150000,0.000000,-0.650000,0.750000,0.500000,0.750000,0.500000,-0.750000,0.500000,-0.750000,$1*%
G04 Aperture macros list end*
G04 #@! TA.AperFunction,SMDPad,CuDef*
%ADD10RoundRect,0.250001X-0.624999X0.462499X-0.624999X-0.462499X0.624999X-0.462499X0.624999X0.462499X0*%
G04 #@! TD*
G04 #@! TA.AperFunction,ComponentPad*
%ADD11C,0.800000*%
G04 #@! TD*
G04 #@! TA.AperFunction,ComponentPad*
%ADD12C,5.000000*%
G04 #@! TD*
G04 #@! TA.AperFunction,ComponentPad*
%ADD13C,2.400000*%
G04 #@! TD*
G04 #@! TA.AperFunction,ComponentPad*
%ADD14O,2.400000X2.400000*%
G04 #@! TD*
G04 #@! TA.AperFunction,SMDPad,CuDef*
%ADD15R,1.800000X0.800000*%
G04 #@! TD*
G04 #@! TA.AperFunction,SMDPad,CuDef*
%ADD16FreePoly0,0.000000*%
G04 #@! TD*
G04 #@! TA.AperFunction,SMDPad,CuDef*
%ADD17FreePoly1,0.000000*%
G04 #@! TD*
G04 #@! TA.AperFunction,ComponentPad*
%ADD18R,1.800000X1.800000*%
G04 #@! TD*
G04 #@! TA.AperFunction,ComponentPad*
%ADD19C,1.800000*%
G04 #@! TD*
G04 #@! TA.AperFunction,SMDPad,CuDef*
%ADD20FreePoly0,180.000000*%
G04 #@! TD*
G04 #@! TA.AperFunction,SMDPad,CuDef*
%ADD21FreePoly1,180.000000*%
G04 #@! TD*
G04 #@! TA.AperFunction,SMDPad,CuDef*
%ADD22RoundRect,0.250000X-0.412500X-1.100000X0.412500X-1.100000X0.412500X1.100000X-0.412500X1.100000X0*%
G04 #@! TD*
G04 #@! TA.AperFunction,ComponentPad*
%ADD23R,1.700000X1.700000*%
G04 #@! TD*
G04 #@! TA.AperFunction,ComponentPad*
%ADD24O,1.700000X1.700000*%
G04 #@! TD*
G04 #@! TA.AperFunction,SMDPad,CuDef*
%ADD25RoundRect,0.101600X0.406400X-0.660400X0.406400X0.660400X-0.406400X0.660400X-0.406400X-0.660400X0*%
G04 #@! TD*
G04 #@! TA.AperFunction,ComponentPad*
%ADD26C,1.270000*%
G04 #@! TD*
G04 #@! TA.AperFunction,SMDPad,CuDef*
%ADD27R,1.524000X4.318000*%
G04 #@! TD*
G04 #@! TA.AperFunction,SMDPad,CuDef*
%ADD28RoundRect,0.250000X-0.625000X0.400000X-0.625000X-0.400000X0.625000X-0.400000X0.625000X0.400000X0*%
G04 #@! TD*
G04 #@! TA.AperFunction,SMDPad,CuDef*
%ADD29RoundRect,0.250000X1.100000X-0.412500X1.100000X0.412500X-1.100000X0.412500X-1.100000X-0.412500X0*%
G04 #@! TD*
G04 #@! TA.AperFunction,ComponentPad*
%ADD30R,2.000000X1.200000*%
G04 #@! TD*
G04 #@! TA.AperFunction,ComponentPad*
%ADD31O,2.000000X1.200000*%
G04 #@! TD*
G04 #@! TA.AperFunction,SMDPad,CuDef*
%ADD32R,1.500000X0.900000*%
G04 #@! TD*
G04 #@! TA.AperFunction,ViaPad*
%ADD33C,0.600000*%
G04 #@! TD*
G04 #@! TA.AperFunction,Conductor*
%ADD34C,0.600000*%
G04 #@! TD*
G04 #@! TA.AperFunction,Conductor*
%ADD35C,1.000000*%
G04 #@! TD*
G04 #@! TA.AperFunction,Conductor*
%ADD36C,0.300000*%
G04 #@! TD*
G04 #@! TA.AperFunction,Conductor*
%ADD37C,0.800000*%
G04 #@! TD*
G04 #@! TA.AperFunction,Conductor*
%ADD38C,0.500000*%
G04 #@! TD*
G04 #@! TA.AperFunction,Conductor*
%ADD39C,0.200000*%
G04 #@! TD*
G04 APERTURE END LIST*
D10*
X150114000Y-75692000D03*
X150114000Y-78667000D03*
D11*
X154390825Y-128579825D03*
X154940000Y-127254000D03*
X154940000Y-129905650D03*
X156265825Y-126704825D03*
D12*
X156265825Y-128579825D03*
D11*
X156265825Y-130454825D03*
X157591650Y-127254000D03*
X157591650Y-129905650D03*
X158140825Y-128579825D03*
D13*
X96486000Y-86106000D03*
D14*
X96486000Y-98806000D03*
D11*
X94589175Y-128833825D03*
X95138350Y-127508000D03*
X95138350Y-130159650D03*
X96464175Y-126958825D03*
D12*
X96464175Y-128833825D03*
D11*
X96464175Y-130708825D03*
X97790000Y-127508000D03*
X97790000Y-130159650D03*
X98339175Y-128833825D03*
D15*
X150622000Y-122664000D03*
X150622000Y-121394000D03*
X150622000Y-120124000D03*
X150622000Y-114554000D03*
X150622000Y-113284000D03*
X150622000Y-112014000D03*
X150622000Y-110744000D03*
X150622000Y-109474000D03*
X150622000Y-108204000D03*
X150622000Y-106934000D03*
X150622000Y-105664000D03*
X136622000Y-105664000D03*
X136622000Y-106934000D03*
X136622000Y-108204000D03*
X136622000Y-109474000D03*
X136622000Y-110744000D03*
X136622000Y-112014000D03*
X136622000Y-113284000D03*
X136622000Y-114554000D03*
X136622000Y-120124000D03*
X136622000Y-121394000D03*
X136622000Y-122664000D03*
D16*
X115824000Y-114554000D03*
D17*
X117274000Y-114554000D03*
D18*
X96520000Y-104648000D03*
D19*
X96520000Y-107188000D03*
D18*
X96520000Y-79502000D03*
D19*
X96520000Y-82042000D03*
D20*
X118110000Y-118872000D03*
D21*
X116660000Y-118872000D03*
D22*
X154432000Y-100330000D03*
X157557000Y-100330000D03*
D10*
X143510000Y-75692000D03*
X143510000Y-78667000D03*
D13*
X96520000Y-110998000D03*
D14*
X96520000Y-123698000D03*
D11*
X154335000Y-72487000D03*
X154884175Y-71161175D03*
X154884175Y-73812825D03*
X156210000Y-70612000D03*
D12*
X156210000Y-72487000D03*
D11*
X156210000Y-74362000D03*
X157535825Y-71161175D03*
X157535825Y-73812825D03*
X158085000Y-72487000D03*
D23*
X111760000Y-114046000D03*
D24*
X111760000Y-111506000D03*
X111760000Y-108966000D03*
X111760000Y-106426000D03*
X111760000Y-103886000D03*
X111760000Y-101346000D03*
X111760000Y-98806000D03*
X111760000Y-96266000D03*
X111760000Y-93726000D03*
D25*
X145288000Y-129253250D03*
D26*
X145288000Y-128016000D03*
D27*
X142748000Y-130746500D03*
X147828000Y-130746500D03*
D23*
X154432000Y-94488000D03*
D24*
X151892000Y-94488000D03*
X149352000Y-94488000D03*
X146812000Y-94488000D03*
X144272000Y-94488000D03*
X141732000Y-94488000D03*
X139192000Y-94488000D03*
X136652000Y-94488000D03*
D28*
X150164000Y-83312000D03*
X150164000Y-86412000D03*
D20*
X122428000Y-118872000D03*
D21*
X120978000Y-118872000D03*
D29*
X157226000Y-111621500D03*
X157226000Y-108496500D03*
D28*
X143510000Y-83312000D03*
X143510000Y-86412000D03*
D17*
X115533000Y-89662000D03*
D16*
X114083000Y-89662000D03*
D30*
X101600000Y-76200000D03*
X104140000Y-76200000D03*
X106630000Y-76220000D03*
D31*
X101600000Y-78740000D03*
X104140000Y-78740000D03*
X106630000Y-78760000D03*
X101600000Y-81280000D03*
X104140000Y-81280000D03*
X106630000Y-81300000D03*
X101600000Y-83820000D03*
X104140000Y-83820000D03*
X106630000Y-83840000D03*
X101600000Y-86360000D03*
X104140000Y-86360000D03*
X106630000Y-86380000D03*
X101600000Y-88900000D03*
X104140000Y-88900000D03*
X106630000Y-88920000D03*
X101600000Y-91440000D03*
X104140000Y-91440000D03*
X106630000Y-91460000D03*
X101600000Y-93980000D03*
X104140000Y-93980000D03*
X106630000Y-94000000D03*
X101600000Y-96520000D03*
X104140000Y-96520000D03*
X106630000Y-96540000D03*
X101600000Y-99060000D03*
X104140000Y-99060000D03*
X106630000Y-99080000D03*
X101600000Y-101600000D03*
X104140000Y-101600000D03*
X106630000Y-101620000D03*
X101600000Y-104140000D03*
X104140000Y-104140000D03*
X106630000Y-104160000D03*
X101600000Y-106680000D03*
X104140000Y-106680000D03*
X106630000Y-106700000D03*
X101600000Y-109220000D03*
X104140000Y-109220000D03*
X106630000Y-109240000D03*
X101600000Y-111760000D03*
X104140000Y-111760000D03*
X106630000Y-111780000D03*
X101600000Y-114300000D03*
X104140000Y-114300000D03*
X106630000Y-114320000D03*
X101600000Y-116840000D03*
X104140000Y-116840000D03*
X106630000Y-116860000D03*
X101600000Y-119380000D03*
X104140000Y-119380000D03*
X106630000Y-119400000D03*
X101600000Y-121920000D03*
X104140000Y-121920000D03*
X106630000Y-121940000D03*
X101596320Y-124457280D03*
X104136320Y-124457280D03*
X106626320Y-124477280D03*
X101596320Y-126997280D03*
X104136320Y-126997280D03*
X106626320Y-127017280D03*
X101596320Y-129537280D03*
X104136320Y-129537280D03*
X106626320Y-129557280D03*
X127000000Y-129540000D03*
X127000000Y-127000000D03*
X127000000Y-124460000D03*
X127000000Y-121920000D03*
X127000000Y-119380000D03*
X127000000Y-116840000D03*
X127000000Y-114300000D03*
X127000000Y-111760000D03*
X127000000Y-109220000D03*
X127000000Y-106680000D03*
X127000000Y-104140000D03*
X127000000Y-101600000D03*
X127000000Y-99060000D03*
X127000000Y-96520000D03*
X127000000Y-93980000D03*
X127000000Y-91440000D03*
X127000000Y-88900000D03*
X127000000Y-86360000D03*
X127000000Y-83820000D03*
D32*
X122265000Y-76545000D03*
D31*
X127000000Y-81280000D03*
X127000000Y-78740000D03*
X127000000Y-76200000D03*
D11*
X95208825Y-72191825D03*
X95758000Y-70866000D03*
X95758000Y-73517650D03*
X97083825Y-70316825D03*
D12*
X97083825Y-72191825D03*
D11*
X97083825Y-74066825D03*
X98409650Y-70866000D03*
X98409650Y-73517650D03*
X98958825Y-72191825D03*
D33*
X118618000Y-114554000D03*
X137668000Y-118110000D03*
X151892000Y-118110000D03*
X157480000Y-115316000D03*
X134366000Y-127254000D03*
X133858000Y-121412000D03*
X133858000Y-118364000D03*
X140462000Y-76200000D03*
X153162000Y-98044000D03*
X129540000Y-127000000D03*
X124968000Y-127000000D03*
X137653000Y-124714000D03*
X140081000Y-127906000D03*
X138049000Y-129938000D03*
X124968000Y-129540000D03*
X145923000Y-118254000D03*
X138557000Y-126382000D03*
X147193000Y-120032000D03*
X151511000Y-125366000D03*
X144653000Y-120032000D03*
X140589000Y-118254000D03*
X143383000Y-118254000D03*
X154559000Y-121556000D03*
X154178000Y-114554000D03*
X148717000Y-118254000D03*
X150241000Y-127144000D03*
X141859000Y-120032000D03*
X151511000Y-124096000D03*
X109474000Y-129540000D03*
X139319000Y-120032000D03*
X147066000Y-75692000D03*
X149987000Y-120032000D03*
X129032000Y-76200000D03*
X125222000Y-76708000D03*
X134874000Y-105664000D03*
X129540000Y-129540000D03*
X147066000Y-113792000D03*
X121920000Y-121920000D03*
X120973097Y-120973097D03*
X154178000Y-113284000D03*
X119380000Y-129540000D03*
X152273000Y-129430000D03*
X138684000Y-105664000D03*
X154051000Y-125366000D03*
X114300000Y-129540000D03*
X154559000Y-118000000D03*
X139954000Y-97282000D03*
X140716000Y-98552000D03*
X141224000Y-86360000D03*
X132588000Y-88900000D03*
X123698000Y-82042000D03*
X98806000Y-125730000D03*
X99568000Y-88392000D03*
X132588000Y-91440000D03*
X150114000Y-88392000D03*
D34*
X114083000Y-104103000D02*
X111760000Y-106426000D01*
X114083000Y-89662000D02*
X114083000Y-104103000D01*
X116078000Y-78760000D02*
X116078000Y-79502000D01*
X115687903Y-79892097D02*
X115687903Y-89662000D01*
X116078000Y-78760000D02*
X121158000Y-78760000D01*
X106630000Y-78760000D02*
X116078000Y-78760000D01*
X116078000Y-79502000D02*
X115687903Y-79892097D01*
X115824000Y-113030000D02*
X111760000Y-108966000D01*
X115824000Y-114554000D02*
X115824000Y-113030000D01*
X118618000Y-114554000D02*
X117278903Y-114554000D01*
D35*
X138415000Y-126382000D02*
X138557000Y-126382000D01*
X137653000Y-125620000D02*
X138415000Y-126382000D01*
X137653000Y-125508000D02*
X137653000Y-125620000D01*
X137653000Y-125224000D02*
X137795000Y-125366000D01*
X137653000Y-123954000D02*
X136622000Y-122923000D01*
X137795000Y-125366000D02*
X137653000Y-125508000D01*
X137653000Y-124714000D02*
X137653000Y-123954000D01*
X137653000Y-124714000D02*
X137653000Y-125224000D01*
D36*
X136622000Y-122664000D02*
X136622000Y-122923000D01*
D34*
X149479000Y-127906000D02*
X149479000Y-128160000D01*
D35*
X141463000Y-129430000D02*
X141971000Y-129938000D01*
D36*
X114282720Y-129557280D02*
X114300000Y-129540000D01*
D37*
X139319000Y-120032000D02*
X139429000Y-120142000D01*
D34*
X150622000Y-114554000D02*
X154178000Y-114554000D01*
X127000000Y-127000000D02*
X121920000Y-121920000D01*
D36*
X136622000Y-105664000D02*
X138684000Y-105664000D01*
D34*
X121920000Y-121920000D02*
X120973097Y-120973097D01*
X149733000Y-127906000D02*
X149479000Y-127906000D01*
X120973097Y-120973097D02*
X120973097Y-118872000D01*
D38*
X125730000Y-76200000D02*
X127000000Y-76200000D01*
D36*
X124950720Y-129557280D02*
X124968000Y-129540000D01*
D34*
X153162000Y-98044000D02*
X153162000Y-99060000D01*
D37*
X137653000Y-120142000D02*
X139209000Y-120142000D01*
X139209000Y-120142000D02*
X139319000Y-120032000D01*
X147303000Y-120142000D02*
X148353000Y-120142000D01*
D36*
X126982720Y-129557280D02*
X127000000Y-129540000D01*
D34*
X151003000Y-126636000D02*
X150495000Y-127144000D01*
X151653000Y-124238000D02*
X151653000Y-125224000D01*
X151653000Y-123954000D02*
X151511000Y-124096000D01*
X150495000Y-127144000D02*
X150241000Y-127144000D01*
D35*
X141463000Y-129430000D02*
X140843000Y-128810000D01*
D34*
X151653000Y-125224000D02*
X151511000Y-125366000D01*
D37*
X139429000Y-120142000D02*
X140479000Y-120142000D01*
D34*
X154432000Y-101854000D02*
X150622000Y-105664000D01*
D36*
X137653000Y-120142000D02*
X137397000Y-120142000D01*
D34*
X152925000Y-122682000D02*
X151653000Y-122682000D01*
D36*
X109474000Y-129540000D02*
X109491280Y-129557280D01*
D34*
X154559000Y-121048000D02*
X154559000Y-121556000D01*
D37*
X146033000Y-120142000D02*
X147083000Y-120142000D01*
D36*
X137653000Y-120142000D02*
X137651000Y-120142000D01*
D37*
X144653000Y-120032000D02*
X144763000Y-120142000D01*
X141859000Y-120032000D02*
X141969000Y-120142000D01*
X147193000Y-120032000D02*
X147303000Y-120142000D01*
X145813000Y-120142000D02*
X145923000Y-120032000D01*
D34*
X151511000Y-125366000D02*
X151653000Y-125508000D01*
D35*
X139319000Y-127144000D02*
X139177000Y-127144000D01*
D36*
X154178000Y-114554000D02*
X154293500Y-114554000D01*
D37*
X143273000Y-120142000D02*
X143383000Y-120032000D01*
D34*
X148717000Y-128668000D02*
X148717000Y-128922000D01*
D36*
X143002000Y-76200000D02*
X143510000Y-75692000D01*
X127000000Y-129540000D02*
X127000000Y-127000000D01*
D34*
X154195000Y-121412000D02*
X151653000Y-121412000D01*
D37*
X143493000Y-120142000D02*
X144543000Y-120142000D01*
X147083000Y-120142000D02*
X147193000Y-120032000D01*
D34*
X154195000Y-121412000D02*
X152925000Y-122682000D01*
D37*
X144543000Y-120142000D02*
X144653000Y-120032000D01*
D38*
X125222000Y-76708000D02*
X125730000Y-76200000D01*
D37*
X150097000Y-120142000D02*
X151653000Y-120142000D01*
D34*
X149479000Y-128160000D02*
X148971000Y-128668000D01*
D36*
X114317280Y-129557280D02*
X119362720Y-129557280D01*
D35*
X138557000Y-126524000D02*
X138557000Y-126382000D01*
D34*
X148971000Y-128668000D02*
X148717000Y-128668000D01*
D37*
X140589000Y-120032000D02*
X140699000Y-120142000D01*
D34*
X154559000Y-118000000D02*
X154431000Y-118128000D01*
X148717000Y-128922000D02*
X147701000Y-129938000D01*
X154178000Y-113284000D02*
X155563500Y-113284000D01*
D37*
X144763000Y-120142000D02*
X145813000Y-120142000D01*
D34*
X151653000Y-125986000D02*
X151257000Y-126382000D01*
D35*
X140843000Y-128668000D02*
X140701000Y-128668000D01*
D34*
X154559000Y-121556000D02*
X154051000Y-121556000D01*
X151003000Y-126382000D02*
X151003000Y-126636000D01*
D37*
X148573000Y-120142000D02*
X149877000Y-120142000D01*
D36*
X147066000Y-75692000D02*
X143510000Y-75692000D01*
D35*
X139319000Y-127286000D02*
X139319000Y-127144000D01*
D34*
X154051000Y-121556000D02*
X154195000Y-121412000D01*
D36*
X154432000Y-100330000D02*
X154432000Y-101854000D01*
X129032000Y-76200000D02*
X140462000Y-76200000D01*
X106606320Y-129537280D02*
X106626320Y-129557280D01*
D37*
X149987000Y-120032000D02*
X150097000Y-120142000D01*
D36*
X142621000Y-129938000D02*
X141971000Y-129938000D01*
D34*
X151653000Y-125508000D02*
X151653000Y-125986000D01*
D35*
X140081000Y-128048000D02*
X140081000Y-127906000D01*
D34*
X150241000Y-127398000D02*
X149733000Y-127906000D01*
D37*
X148353000Y-120142000D02*
X148463000Y-120032000D01*
D36*
X124985280Y-129557280D02*
X126982720Y-129557280D01*
D34*
X151511000Y-124096000D02*
X151653000Y-124238000D01*
X153145000Y-120142000D02*
X151653000Y-120142000D01*
D35*
X140081000Y-127906000D02*
X139939000Y-127906000D01*
D36*
X119380000Y-129540000D02*
X119397280Y-129557280D01*
X119397280Y-129557280D02*
X124950720Y-129557280D01*
X101596320Y-129537280D02*
X106606320Y-129537280D01*
D34*
X151257000Y-126382000D02*
X151003000Y-126382000D01*
D37*
X141969000Y-120142000D02*
X143273000Y-120142000D01*
X145923000Y-120032000D02*
X146033000Y-120142000D01*
D34*
X154305000Y-121302000D02*
X154559000Y-121048000D01*
X153162000Y-99060000D02*
X154432000Y-100330000D01*
D35*
X139939000Y-127906000D02*
X139319000Y-127286000D01*
D34*
X154431000Y-117872000D02*
X154559000Y-118000000D01*
X154305000Y-121302000D02*
X153145000Y-120142000D01*
D35*
X140843000Y-128810000D02*
X140843000Y-128668000D01*
D36*
X109456720Y-129557280D02*
X109474000Y-129540000D01*
D34*
X154293500Y-114554000D02*
X157226000Y-111621500D01*
D39*
X151653000Y-122682000D02*
X151401000Y-122682000D01*
D36*
X127000000Y-76200000D02*
X129032000Y-76200000D01*
D37*
X140699000Y-120142000D02*
X141749000Y-120142000D01*
D34*
X151653000Y-122682000D02*
X151653000Y-123954000D01*
D36*
X106626320Y-129557280D02*
X109456720Y-129557280D01*
D37*
X148463000Y-120032000D02*
X148573000Y-120142000D01*
D36*
X136622000Y-105664000D02*
X134874000Y-105664000D01*
X109491280Y-129557280D02*
X114282720Y-129557280D01*
D37*
X143383000Y-120032000D02*
X143493000Y-120142000D01*
D35*
X140701000Y-128668000D02*
X140081000Y-128048000D01*
D34*
X154431000Y-121176000D02*
X154305000Y-121302000D01*
D37*
X140479000Y-120142000D02*
X140589000Y-120032000D01*
D34*
X155563500Y-113284000D02*
X157226000Y-111621500D01*
D36*
X124968000Y-129540000D02*
X124985280Y-129557280D01*
D34*
X154431000Y-118128000D02*
X154431000Y-121176000D01*
X150241000Y-127144000D02*
X150241000Y-127398000D01*
D37*
X141749000Y-120142000D02*
X141859000Y-120032000D01*
D36*
X140462000Y-76200000D02*
X143002000Y-76200000D01*
D37*
X149877000Y-120142000D02*
X149987000Y-120032000D01*
D36*
X150114000Y-75692000D02*
X147066000Y-75692000D01*
X114300000Y-129540000D02*
X114317280Y-129557280D01*
D34*
X150622000Y-113284000D02*
X154178000Y-113284000D01*
D36*
X119362720Y-129557280D02*
X119380000Y-129540000D01*
D35*
X139177000Y-127144000D02*
X138557000Y-126524000D01*
D34*
X101600000Y-76200000D02*
X104140000Y-76200000D01*
X147828000Y-92963990D02*
X147827990Y-92964000D01*
X121158000Y-78760000D02*
X121021903Y-78896097D01*
X150368000Y-92964000D02*
X151892000Y-94488000D01*
X136144000Y-88392000D02*
X147828000Y-88392000D01*
X106610000Y-78740000D02*
X106630000Y-78760000D01*
X156933500Y-108204000D02*
X157226000Y-108496500D01*
X104140000Y-76200000D02*
X106610000Y-76200000D01*
X157557000Y-94819000D02*
X157557000Y-100330000D01*
X157557000Y-100330000D02*
X151892000Y-94665000D01*
X157226000Y-108496500D02*
X157226000Y-100661000D01*
X152030000Y-89292000D02*
X157557000Y-94819000D01*
X132403990Y-77540000D02*
X132403990Y-84651990D01*
X101600000Y-78740000D02*
X104140000Y-78740000D01*
X106610000Y-76200000D02*
X106630000Y-76220000D01*
X121158000Y-78760000D02*
X124882944Y-78760000D01*
X148728000Y-89292000D02*
X152030000Y-89292000D01*
X126102944Y-77540000D02*
X132403990Y-77540000D01*
X132403990Y-84651990D02*
X136144000Y-88392000D01*
X151892000Y-94665000D02*
X151892000Y-94488000D01*
X157226000Y-100661000D02*
X157557000Y-100330000D01*
X147828000Y-88392000D02*
X148728000Y-89292000D01*
X104140000Y-78740000D02*
X106610000Y-78740000D01*
X147828000Y-88392000D02*
X147828000Y-92963990D01*
X147827990Y-92964000D02*
X150368000Y-92964000D01*
X116505097Y-118371440D02*
X116505097Y-118872000D01*
X121021903Y-78896097D02*
X121021903Y-113854634D01*
X106630000Y-76220000D02*
X106630000Y-78760000D01*
X150622000Y-108204000D02*
X156933500Y-108204000D01*
X124882944Y-78760000D02*
X126102944Y-77540000D01*
X121021903Y-113854634D02*
X116505097Y-118371440D01*
D36*
X127000000Y-101600000D02*
X127000000Y-102000000D01*
X127000000Y-102000000D02*
X135744000Y-110744000D01*
X137822000Y-110744000D02*
X139954000Y-108612000D01*
X136622000Y-110744000D02*
X137822000Y-110744000D01*
X139954000Y-108612000D02*
X139954000Y-97282000D01*
X135744000Y-110744000D02*
X136622000Y-110744000D01*
X141732000Y-110644000D02*
X137822000Y-114554000D01*
X124950000Y-97010000D02*
X124950000Y-90442000D01*
X137822000Y-114554000D02*
X136622000Y-114554000D01*
X124950000Y-90442000D02*
X125002000Y-90390000D01*
X141732000Y-94488000D02*
X141732000Y-110644000D01*
X125002000Y-90390000D02*
X137634000Y-90390000D01*
X137634000Y-90390000D02*
X141732000Y-94488000D01*
X127000000Y-99060000D02*
X124950000Y-97010000D01*
X127000000Y-96520000D02*
X125550000Y-95070000D01*
X127000000Y-96520000D02*
X133004000Y-102524000D01*
X125550000Y-93398000D02*
X126238000Y-92710000D01*
X135636000Y-109474000D02*
X136622000Y-109474000D01*
X125550000Y-95070000D02*
X125550000Y-93398000D01*
X126238000Y-92710000D02*
X137414000Y-92710000D01*
X133004000Y-106842000D02*
X135636000Y-109474000D01*
X133004000Y-102524000D02*
X133004000Y-106842000D01*
X137414000Y-92710000D02*
X139192000Y-94488000D01*
X135636000Y-108204000D02*
X133604000Y-106172000D01*
X136622000Y-108204000D02*
X135636000Y-108204000D01*
X133604000Y-106172000D02*
X133604000Y-94488000D01*
X133096000Y-93980000D02*
X127000000Y-93980000D01*
X133604000Y-94488000D02*
X136652000Y-94488000D01*
X133604000Y-94488000D02*
X133096000Y-93980000D01*
X129540000Y-106680000D02*
X127000000Y-106680000D01*
X136622000Y-112014000D02*
X134874000Y-112014000D01*
X137552000Y-112014000D02*
X140716000Y-108850000D01*
X140716000Y-108850000D02*
X140716000Y-98552000D01*
X134874000Y-112014000D02*
X129540000Y-106680000D01*
X136622000Y-112014000D02*
X137552000Y-112014000D01*
X134875472Y-115404000D02*
X137834000Y-115404000D01*
X132755472Y-113284000D02*
X136622000Y-113284000D01*
X127834924Y-108170000D02*
X130590000Y-110925076D01*
X126492000Y-108170000D02*
X127834924Y-108170000D01*
X132755472Y-113284000D02*
X134875472Y-115404000D01*
X127000000Y-104140000D02*
X125550000Y-105590000D01*
X130590000Y-110925076D02*
X130590000Y-111118528D01*
X125550000Y-107228000D02*
X126492000Y-108170000D01*
X125550000Y-105590000D02*
X125550000Y-107228000D01*
X146812000Y-106426000D02*
X146812000Y-94488000D01*
X137834000Y-115404000D02*
X146812000Y-106426000D01*
X130590000Y-111118528D02*
X132755472Y-113284000D01*
D35*
X145161000Y-127207500D02*
X145161000Y-125620000D01*
X140953000Y-121412000D02*
X137653000Y-121412000D01*
X145161000Y-125620000D02*
X140953000Y-121412000D01*
D36*
X145161000Y-127207500D02*
X145161000Y-128444750D01*
X104140000Y-81280000D02*
X106610000Y-81280000D01*
X101600000Y-81280000D02*
X104140000Y-81280000D01*
X106610000Y-81280000D02*
X106630000Y-81300000D01*
X123698000Y-85598000D02*
X127000000Y-88900000D01*
X143458000Y-86360000D02*
X143510000Y-86412000D01*
X123698000Y-82042000D02*
X123698000Y-85598000D01*
X127000000Y-88900000D02*
X132588000Y-88900000D01*
X98552000Y-125730000D02*
X98806000Y-125730000D01*
X96520000Y-123698000D02*
X98552000Y-125730000D01*
X141224000Y-86360000D02*
X143458000Y-86360000D01*
X101620000Y-109240000D02*
X101600000Y-109220000D01*
X106630000Y-109240000D02*
X101620000Y-109240000D01*
X101600000Y-109220000D02*
X100838000Y-109220000D01*
X106610000Y-104140000D02*
X106630000Y-104160000D01*
X101600000Y-104140000D02*
X106610000Y-104140000D01*
X99568000Y-95724000D02*
X96486000Y-98806000D01*
X99568000Y-88392000D02*
X99568000Y-95724000D01*
X150114000Y-88392000D02*
X150114000Y-86462000D01*
X127000000Y-91440000D02*
X132588000Y-91440000D01*
X150114000Y-86462000D02*
X150164000Y-86412000D01*
X106610000Y-121920000D02*
X106630000Y-121940000D01*
X101600000Y-121920000D02*
X106610000Y-121920000D01*
X106610000Y-93980000D02*
X106630000Y-94000000D01*
X101600000Y-93980000D02*
X106610000Y-93980000D01*
X101600000Y-111760000D02*
X106610000Y-111760000D01*
X106610000Y-111760000D02*
X106630000Y-111780000D01*
X101600000Y-96520000D02*
X106610000Y-96520000D01*
X106610000Y-96520000D02*
X106630000Y-96540000D01*
X106610000Y-116840000D02*
X106630000Y-116860000D01*
X101600000Y-116840000D02*
X106610000Y-116840000D01*
X106610000Y-114300000D02*
X106630000Y-114320000D01*
X101600000Y-114300000D02*
X106610000Y-114300000D01*
X101600000Y-119380000D02*
X106610000Y-119380000D01*
X106610000Y-119380000D02*
X106630000Y-119400000D01*
X106610000Y-99060000D02*
X106630000Y-99080000D01*
X101600000Y-99060000D02*
X106610000Y-99060000D01*
X101600000Y-83820000D02*
X104140000Y-83820000D01*
X106610000Y-83820000D02*
X106630000Y-83840000D01*
X104140000Y-83820000D02*
X106610000Y-83820000D01*
X106606320Y-124457280D02*
X106626320Y-124477280D01*
X101596320Y-124457280D02*
X106606320Y-124457280D01*
X101600000Y-106680000D02*
X106610000Y-106680000D01*
X106610000Y-106680000D02*
X106630000Y-106700000D01*
X106610000Y-101600000D02*
X106630000Y-101620000D01*
X101600000Y-101600000D02*
X106610000Y-101600000D01*
X101600000Y-88900000D02*
X106610000Y-88900000D01*
X106610000Y-88900000D02*
X106630000Y-88920000D01*
X106610000Y-91440000D02*
X106630000Y-91460000D01*
X101600000Y-91440000D02*
X106610000Y-91440000D01*
X106606320Y-126997280D02*
X106626320Y-127017280D01*
X101596320Y-126997280D02*
X106606320Y-126997280D01*
X106630000Y-86380000D02*
X101620000Y-86380000D01*
X101620000Y-86380000D02*
X101600000Y-86360000D01*
D38*
X127000000Y-109220000D02*
X118110000Y-118110000D01*
D36*
X118110000Y-118110000D02*
X118110000Y-118872000D01*
D35*
X122428000Y-116332000D02*
X122428000Y-118872000D01*
D34*
X127000000Y-111760000D02*
X122428000Y-116332000D01*
D36*
X150114000Y-83262000D02*
X150164000Y-83312000D01*
X150114000Y-78667000D02*
X150114000Y-83262000D01*
X143510000Y-78667000D02*
X143510000Y-83312000D01*
X96486000Y-82076000D02*
X96520000Y-82042000D01*
X96486000Y-86106000D02*
X96486000Y-82076000D01*
X96520000Y-110998000D02*
X96520000Y-107188000D01*
G04 #@! TA.AperFunction,Conductor*
G36*
X149165039Y-113303685D02*
G01*
X149210794Y-113356489D01*
X149222000Y-113408000D01*
X149222000Y-113731844D01*
X149228401Y-113791372D01*
X149228404Y-113791383D01*
X149259839Y-113875668D01*
X149264823Y-113945360D01*
X149259839Y-113962332D01*
X149228404Y-114046616D01*
X149228401Y-114046627D01*
X149222000Y-114106155D01*
X149222000Y-115001844D01*
X149228401Y-115061372D01*
X149228403Y-115061379D01*
X149278645Y-115196086D01*
X149278649Y-115196093D01*
X149364808Y-115311185D01*
X149364817Y-115311194D01*
X149448560Y-115373885D01*
X149448561Y-115373885D01*
X150534318Y-114288128D01*
X150595641Y-114254643D01*
X150665333Y-114259627D01*
X150709680Y-114288128D01*
X151795436Y-115373884D01*
X151879190Y-115311186D01*
X151965350Y-115196093D01*
X151965354Y-115196086D01*
X152015596Y-115061379D01*
X152015598Y-115061372D01*
X152021999Y-115001844D01*
X152022000Y-115001827D01*
X152022000Y-114106172D01*
X152021999Y-114106155D01*
X152015598Y-114046627D01*
X152015597Y-114046623D01*
X151984159Y-113962334D01*
X151979175Y-113892642D01*
X151984159Y-113875666D01*
X152015597Y-113791376D01*
X152015598Y-113791372D01*
X152021999Y-113731844D01*
X152022000Y-113731827D01*
X152022000Y-113408000D01*
X152041685Y-113340961D01*
X152094489Y-113295206D01*
X152146000Y-113284000D01*
X159141500Y-113284000D01*
X159208539Y-113303685D01*
X159254294Y-113356489D01*
X159265500Y-113408000D01*
X159265500Y-127357825D01*
X159245815Y-127424864D01*
X159193011Y-127470619D01*
X159123853Y-127480563D01*
X159060297Y-127451538D01*
X159027641Y-127406939D01*
X158990173Y-127320080D01*
X158951714Y-127230921D01*
X158776955Y-126928229D01*
X158776954Y-126928227D01*
X158568240Y-126647875D01*
X158568235Y-126647869D01*
X158443226Y-126515368D01*
X158328383Y-126393642D01*
X158139651Y-126235277D01*
X158060638Y-126168977D01*
X158060630Y-126168971D01*
X157768621Y-125976913D01*
X157456283Y-125820051D01*
X157456277Y-125820048D01*
X157127837Y-125700506D01*
X157127834Y-125700505D01*
X156787740Y-125619902D01*
X156744344Y-125614829D01*
X156440584Y-125579325D01*
X156091066Y-125579325D01*
X155787305Y-125614829D01*
X155743910Y-125619902D01*
X155743908Y-125619902D01*
X155403815Y-125700505D01*
X155403812Y-125700506D01*
X155075372Y-125820048D01*
X155075366Y-125820051D01*
X154763028Y-125976913D01*
X154471019Y-126168971D01*
X154471011Y-126168977D01*
X154203267Y-126393642D01*
X154203265Y-126393644D01*
X153963414Y-126647869D01*
X153963409Y-126647875D01*
X153754695Y-126928227D01*
X153579938Y-127230916D01*
X153579932Y-127230929D01*
X153441499Y-127551852D01*
X153341255Y-127886690D01*
X153341253Y-127886697D01*
X153280564Y-128230886D01*
X153280563Y-128230897D01*
X153260240Y-128579821D01*
X153260240Y-128579828D01*
X153280563Y-128928752D01*
X153280564Y-128928763D01*
X153341253Y-129272952D01*
X153341255Y-129272959D01*
X153441499Y-129607797D01*
X153579932Y-129928720D01*
X153579938Y-129928733D01*
X153754695Y-130231422D01*
X153963409Y-130511774D01*
X153963414Y-130511780D01*
X154056264Y-130610194D01*
X154203267Y-130766008D01*
X154379728Y-130914076D01*
X154471011Y-130990672D01*
X154471019Y-130990678D01*
X154763028Y-131182736D01*
X154763032Y-131182738D01*
X155075374Y-131339602D01*
X155075382Y-131339604D01*
X155078684Y-131341030D01*
X155078144Y-131342280D01*
X155129923Y-131380404D01*
X155154859Y-131445672D01*
X155140550Y-131514061D01*
X155091538Y-131563857D01*
X155031249Y-131579500D01*
X149214000Y-131579500D01*
X149146961Y-131559815D01*
X149101206Y-131507011D01*
X149090000Y-131455500D01*
X149090000Y-130996500D01*
X146566000Y-130996500D01*
X146566000Y-131455500D01*
X146546315Y-131522539D01*
X146493511Y-131568294D01*
X146442000Y-131579500D01*
X146237500Y-131579500D01*
X146170461Y-131559815D01*
X146124706Y-131507011D01*
X146113500Y-131455500D01*
X146113500Y-130398615D01*
X146133185Y-130331576D01*
X146139108Y-130323150D01*
X146220333Y-130217298D01*
X146281002Y-130070830D01*
X146296500Y-129953110D01*
X146296500Y-129156000D01*
X146316185Y-129088961D01*
X146368989Y-129043206D01*
X146420500Y-129032000D01*
X146442000Y-129032000D01*
X146509039Y-129051685D01*
X146554794Y-129104489D01*
X146566000Y-129156000D01*
X146566000Y-130496500D01*
X149090000Y-130496500D01*
X149090000Y-128539672D01*
X149089999Y-128539655D01*
X149083598Y-128480127D01*
X149083596Y-128480120D01*
X149033354Y-128345413D01*
X149033350Y-128345406D01*
X148947190Y-128230312D01*
X148947187Y-128230309D01*
X148880173Y-128180142D01*
X148838302Y-128124208D01*
X148833318Y-128054517D01*
X148866800Y-127993199D01*
X150876000Y-125984000D01*
X150876000Y-123688000D01*
X150895685Y-123620961D01*
X150948489Y-123575206D01*
X151000000Y-123564000D01*
X151168446Y-123564000D01*
X151168446Y-123563999D01*
X150912319Y-123307872D01*
X150878834Y-123246549D01*
X150876000Y-123220191D01*
X150876000Y-122863809D01*
X150895685Y-122796770D01*
X150948489Y-122751015D01*
X151017647Y-122741071D01*
X151081203Y-122770096D01*
X151087681Y-122776128D01*
X151795436Y-123483884D01*
X151879190Y-123421186D01*
X151965350Y-123306093D01*
X151965354Y-123306086D01*
X152015596Y-123171379D01*
X152015598Y-123171372D01*
X152021999Y-123111844D01*
X152022000Y-123111827D01*
X152022000Y-122216172D01*
X152021999Y-122216155D01*
X152015598Y-122156627D01*
X152015597Y-122156623D01*
X151984159Y-122072334D01*
X151979175Y-122002642D01*
X151984159Y-121985666D01*
X152015597Y-121901376D01*
X152015598Y-121901372D01*
X152021999Y-121841844D01*
X152022000Y-121841827D01*
X152022000Y-120946172D01*
X152021999Y-120946155D01*
X152015598Y-120886627D01*
X152015597Y-120886623D01*
X151984159Y-120802334D01*
X151979175Y-120732642D01*
X151984159Y-120715666D01*
X152015597Y-120631376D01*
X152015598Y-120631372D01*
X152021999Y-120571844D01*
X152022000Y-120571827D01*
X152022000Y-119676172D01*
X152021999Y-119676155D01*
X152015598Y-119616627D01*
X152015596Y-119616620D01*
X151965354Y-119481913D01*
X151965350Y-119481906D01*
X151879191Y-119366814D01*
X151879182Y-119366805D01*
X151795438Y-119304113D01*
X151795436Y-119304114D01*
X150709680Y-120389871D01*
X150648357Y-120423356D01*
X150578665Y-120418372D01*
X150534318Y-120389871D01*
X149448561Y-119304114D01*
X149448560Y-119304114D01*
X149364809Y-119366812D01*
X149278649Y-119481906D01*
X149278645Y-119481913D01*
X149228403Y-119616620D01*
X149228401Y-119616627D01*
X149222000Y-119676155D01*
X149222000Y-120526000D01*
X149202315Y-120593039D01*
X149149511Y-120638794D01*
X149098000Y-120650000D01*
X141651055Y-120650000D01*
X141584016Y-120630315D01*
X141582164Y-120629102D01*
X141426920Y-120525371D01*
X141426911Y-120525366D01*
X141343683Y-120490892D01*
X141298165Y-120472038D01*
X141253173Y-120453402D01*
X141244837Y-120449949D01*
X141244833Y-120449947D01*
X141093634Y-120419873D01*
X141093633Y-120419872D01*
X141072587Y-120415686D01*
X141051542Y-120411500D01*
X141051541Y-120411500D01*
X138146000Y-120411500D01*
X138078961Y-120391815D01*
X138033206Y-120339011D01*
X138022000Y-120287500D01*
X138022000Y-119676172D01*
X138021999Y-119676155D01*
X138015598Y-119616627D01*
X138015596Y-119616620D01*
X137965354Y-119481913D01*
X137965350Y-119481906D01*
X137879191Y-119366814D01*
X137879182Y-119366805D01*
X137795438Y-119304113D01*
X137795436Y-119304114D01*
X136709680Y-120389871D01*
X136648357Y-120423356D01*
X136578665Y-120418372D01*
X136534318Y-120389871D01*
X135448561Y-119304114D01*
X135448560Y-119304114D01*
X135364809Y-119366812D01*
X135278649Y-119481906D01*
X135278645Y-119481913D01*
X135228403Y-119616620D01*
X135228401Y-119616627D01*
X135222000Y-119676155D01*
X135222000Y-120571844D01*
X135228401Y-120631372D01*
X135228403Y-120631382D01*
X135259573Y-120714953D01*
X135264557Y-120784644D01*
X135259573Y-120801617D01*
X135227909Y-120886514D01*
X135227908Y-120886516D01*
X135221501Y-120946116D01*
X135221500Y-120946135D01*
X135221500Y-121841870D01*
X135221501Y-121841876D01*
X135227909Y-121901484D01*
X135259573Y-121986382D01*
X135264557Y-122056073D01*
X135259573Y-122073046D01*
X135228404Y-122156616D01*
X135228401Y-122156627D01*
X135222000Y-122216155D01*
X135222000Y-123111844D01*
X135228401Y-123171372D01*
X135228403Y-123171379D01*
X135278645Y-123306086D01*
X135278649Y-123306093D01*
X135364808Y-123421185D01*
X135364817Y-123421194D01*
X135448560Y-123483885D01*
X136534318Y-122398127D01*
X136595641Y-122364642D01*
X136665333Y-122369626D01*
X136709680Y-122398127D01*
X137631681Y-123320128D01*
X137665166Y-123381451D01*
X137668000Y-123407809D01*
X137668000Y-124206000D01*
X137667999Y-124206000D01*
X141502703Y-128253743D01*
X141534519Y-128315948D01*
X141528867Y-128382356D01*
X141492403Y-128480120D01*
X141492401Y-128480127D01*
X141486000Y-128539655D01*
X141486000Y-130496500D01*
X144010000Y-130496500D01*
X144010000Y-129156000D01*
X144029685Y-129088961D01*
X144082489Y-129043206D01*
X144134000Y-129032000D01*
X144155500Y-129032000D01*
X144222539Y-129051685D01*
X144268294Y-129104489D01*
X144279500Y-129156000D01*
X144279500Y-129953103D01*
X144279501Y-129953119D01*
X144294997Y-130070828D01*
X144294999Y-130070833D01*
X144355664Y-130217293D01*
X144355665Y-130217294D01*
X144355667Y-130217298D01*
X144436876Y-130323131D01*
X144462070Y-130388296D01*
X144462500Y-130398615D01*
X144462500Y-131455500D01*
X144442815Y-131522539D01*
X144390011Y-131568294D01*
X144338500Y-131579500D01*
X144134000Y-131579500D01*
X144066961Y-131559815D01*
X144021206Y-131507011D01*
X144010000Y-131455500D01*
X144010000Y-130996500D01*
X141486000Y-130996500D01*
X141486000Y-131455500D01*
X141466315Y-131522539D01*
X141413511Y-131568294D01*
X141362000Y-131579500D01*
X98164098Y-131579500D01*
X98097059Y-131559815D01*
X98051304Y-131507011D01*
X98041360Y-131437853D01*
X98070385Y-131374297D01*
X98095959Y-131351900D01*
X98258980Y-131244678D01*
X98258980Y-131244677D01*
X98258986Y-131244674D01*
X98526733Y-131020008D01*
X98766587Y-130765778D01*
X98975305Y-130485421D01*
X99150064Y-130182729D01*
X99288501Y-129861796D01*
X99388744Y-129526961D01*
X99392684Y-129504619D01*
X99449435Y-129182763D01*
X99449434Y-129182763D01*
X99449437Y-129182752D01*
X99469760Y-128833825D01*
X99464044Y-128735681D01*
X99459357Y-128655210D01*
X99475110Y-128587139D01*
X99525164Y-128538392D01*
X99583147Y-128524000D01*
X100354603Y-128524000D01*
X100421642Y-128543685D01*
X100467397Y-128596489D01*
X100477341Y-128665647D01*
X100448316Y-128729203D01*
X100442284Y-128735681D01*
X100357287Y-128820677D01*
X100255515Y-128960755D01*
X100176911Y-129115024D01*
X100123405Y-129279695D01*
X100122204Y-129287279D01*
X100122205Y-129287280D01*
X101280634Y-129287280D01*
X101276240Y-129291674D01*
X101223579Y-129382886D01*
X101196320Y-129484619D01*
X101196320Y-129589941D01*
X101223579Y-129691674D01*
X101276240Y-129782886D01*
X101280634Y-129787280D01*
X100122205Y-129787280D01*
X100123405Y-129794864D01*
X100176911Y-129959535D01*
X100255515Y-130113804D01*
X100357287Y-130253882D01*
X100479717Y-130376312D01*
X100619795Y-130478084D01*
X100774062Y-130556688D01*
X100938735Y-130610194D01*
X101109749Y-130637280D01*
X101346320Y-130637280D01*
X101346320Y-129852966D01*
X101350714Y-129857360D01*
X101441926Y-129910021D01*
X101543659Y-129937280D01*
X101648981Y-129937280D01*
X101750714Y-129910021D01*
X101841926Y-129857360D01*
X101846320Y-129852966D01*
X101846320Y-130637280D01*
X102082891Y-130637280D01*
X102253904Y-130610194D01*
X102418577Y-130556688D01*
X102572844Y-130478084D01*
X102712922Y-130376312D01*
X102778639Y-130310596D01*
X102839962Y-130277111D01*
X102909654Y-130282095D01*
X102954001Y-130310596D01*
X103019717Y-130376312D01*
X103159795Y-130478084D01*
X103314062Y-130556688D01*
X103478735Y-130610194D01*
X103649749Y-130637280D01*
X103886320Y-130637280D01*
X103886320Y-129852966D01*
X103890714Y-129857360D01*
X103981926Y-129910021D01*
X104083659Y-129937280D01*
X104188981Y-129937280D01*
X104290714Y-129910021D01*
X104381926Y-129857360D01*
X104386320Y-129852966D01*
X104386320Y-130637280D01*
X104622891Y-130637280D01*
X104793904Y-130610194D01*
X104958577Y-130556688D01*
X105112844Y-130478084D01*
X105252917Y-130376315D01*
X105283636Y-130345597D01*
X105344959Y-130312111D01*
X105414651Y-130317095D01*
X105458999Y-130345595D01*
X105509717Y-130396312D01*
X105649795Y-130498084D01*
X105804062Y-130576688D01*
X105968735Y-130630194D01*
X106139749Y-130657280D01*
X106376320Y-130657280D01*
X106376320Y-129872966D01*
X106380714Y-129877360D01*
X106471926Y-129930021D01*
X106573659Y-129957280D01*
X106678981Y-129957280D01*
X106780714Y-129930021D01*
X106871926Y-129877360D01*
X106876320Y-129872966D01*
X106876320Y-130657280D01*
X107112891Y-130657280D01*
X107283904Y-130630194D01*
X107448577Y-130576688D01*
X107602844Y-130498084D01*
X107742922Y-130396312D01*
X107865352Y-130273882D01*
X107967124Y-130133804D01*
X108045728Y-129979535D01*
X108099234Y-129814864D01*
X108100435Y-129807280D01*
X106942006Y-129807280D01*
X106946400Y-129802886D01*
X106999061Y-129711674D01*
X107026320Y-129609941D01*
X107026320Y-129504619D01*
X106999061Y-129402886D01*
X106946400Y-129311674D01*
X106942006Y-129307280D01*
X108100435Y-129307280D01*
X108100435Y-129307279D01*
X108099234Y-129299695D01*
X108096084Y-129289999D01*
X125525884Y-129289999D01*
X125525885Y-129290000D01*
X126684314Y-129290000D01*
X126679920Y-129294394D01*
X126627259Y-129385606D01*
X126600000Y-129487339D01*
X126600000Y-129592661D01*
X126627259Y-129694394D01*
X126679920Y-129785606D01*
X126684314Y-129790000D01*
X125525885Y-129790000D01*
X125527085Y-129797584D01*
X125580591Y-129962255D01*
X125659195Y-130116524D01*
X125760967Y-130256602D01*
X125883397Y-130379032D01*
X126023475Y-130480804D01*
X126177742Y-130559408D01*
X126342415Y-130612914D01*
X126513429Y-130640000D01*
X126750000Y-130640000D01*
X126750000Y-129855686D01*
X126754394Y-129860080D01*
X126845606Y-129912741D01*
X126947339Y-129940000D01*
X127052661Y-129940000D01*
X127154394Y-129912741D01*
X127245606Y-129860080D01*
X127250000Y-129855686D01*
X127250000Y-130640000D01*
X127486571Y-130640000D01*
X127657584Y-130612914D01*
X127822257Y-130559408D01*
X127976524Y-130480804D01*
X128116602Y-130379032D01*
X128239032Y-130256602D01*
X128340804Y-130116524D01*
X128419408Y-129962255D01*
X128472914Y-129797584D01*
X128474115Y-129790000D01*
X127315686Y-129790000D01*
X127320080Y-129785606D01*
X127372741Y-129694394D01*
X127400000Y-129592661D01*
X127400000Y-129487339D01*
X127372741Y-129385606D01*
X127320080Y-129294394D01*
X127315686Y-129290000D01*
X128474115Y-129290000D01*
X128474115Y-129289999D01*
X128472914Y-129282415D01*
X128419408Y-129117744D01*
X128340804Y-128963475D01*
X128239032Y-128823397D01*
X128116602Y-128700967D01*
X127976524Y-128599195D01*
X127822257Y-128520591D01*
X127657584Y-128467085D01*
X127486571Y-128440000D01*
X127250000Y-128440000D01*
X127250000Y-129224314D01*
X127245606Y-129219920D01*
X127154394Y-129167259D01*
X127052661Y-129140000D01*
X126947339Y-129140000D01*
X126845606Y-129167259D01*
X126754394Y-129219920D01*
X126750000Y-129224314D01*
X126750000Y-128440000D01*
X126513429Y-128440000D01*
X126342415Y-128467085D01*
X126177742Y-128520591D01*
X126023475Y-128599195D01*
X125883397Y-128700967D01*
X125760967Y-128823397D01*
X125659195Y-128963475D01*
X125580591Y-129117744D01*
X125527085Y-129282415D01*
X125525884Y-129289999D01*
X108096084Y-129289999D01*
X108045728Y-129135024D01*
X107967124Y-128980755D01*
X107865352Y-128840677D01*
X107760356Y-128735681D01*
X107726871Y-128674358D01*
X107731855Y-128604666D01*
X107773727Y-128548733D01*
X107839191Y-128524316D01*
X107848037Y-128524000D01*
X115823999Y-128524000D01*
X115824000Y-128524000D01*
X123932407Y-125736734D01*
X123972717Y-125730000D01*
X126166079Y-125730000D01*
X126233118Y-125749685D01*
X126278873Y-125802489D01*
X126288817Y-125871647D01*
X126259792Y-125935203D01*
X126204398Y-125971931D01*
X126177742Y-125980591D01*
X126023475Y-126059195D01*
X125883397Y-126160967D01*
X125760967Y-126283397D01*
X125659195Y-126423475D01*
X125580591Y-126577744D01*
X125527085Y-126742415D01*
X125525884Y-126749999D01*
X125525885Y-126750000D01*
X126684314Y-126750000D01*
X126679920Y-126754394D01*
X126627259Y-126845606D01*
X126600000Y-126947339D01*
X126600000Y-127052661D01*
X126627259Y-127154394D01*
X126679920Y-127245606D01*
X126684314Y-127250000D01*
X125525885Y-127250000D01*
X125527085Y-127257584D01*
X125580591Y-127422255D01*
X125659195Y-127576524D01*
X125760967Y-127716602D01*
X125883397Y-127839032D01*
X126023475Y-127940804D01*
X126177742Y-128019408D01*
X126342415Y-128072914D01*
X126513429Y-128100000D01*
X126750000Y-128100000D01*
X126750000Y-127315686D01*
X126754394Y-127320080D01*
X126845606Y-127372741D01*
X126947339Y-127400000D01*
X127052661Y-127400000D01*
X127154394Y-127372741D01*
X127245606Y-127320080D01*
X127250000Y-127315686D01*
X127250000Y-128100000D01*
X127486571Y-128100000D01*
X127657584Y-128072914D01*
X127822257Y-128019408D01*
X127976524Y-127940804D01*
X128116602Y-127839032D01*
X128239032Y-127716602D01*
X128340804Y-127576524D01*
X128419408Y-127422255D01*
X128472914Y-127257584D01*
X128474115Y-127250000D01*
X127315686Y-127250000D01*
X127320080Y-127245606D01*
X127372741Y-127154394D01*
X127400000Y-127052661D01*
X127400000Y-126947339D01*
X127372741Y-126845606D01*
X127320080Y-126754394D01*
X127315686Y-126750000D01*
X128474115Y-126750000D01*
X128474115Y-126749999D01*
X128472914Y-126742415D01*
X128419408Y-126577744D01*
X128340804Y-126423475D01*
X128239032Y-126283397D01*
X128116602Y-126160967D01*
X127976524Y-126059195D01*
X127822257Y-125980591D01*
X127795602Y-125971931D01*
X127737927Y-125932493D01*
X127710729Y-125868134D01*
X127722644Y-125799288D01*
X127769888Y-125747812D01*
X127833921Y-125730000D01*
X132334000Y-125730000D01*
X132334000Y-123563999D01*
X136075553Y-123563999D01*
X136075554Y-123564000D01*
X137168446Y-123564000D01*
X137168446Y-123563999D01*
X136622001Y-123017553D01*
X136621999Y-123017553D01*
X136075553Y-123563999D01*
X132334000Y-123563999D01*
X132334000Y-119224000D01*
X136075553Y-119224000D01*
X136622000Y-119770446D01*
X137168446Y-119224000D01*
X150075553Y-119224000D01*
X150622000Y-119770446D01*
X151168446Y-119224000D01*
X150075553Y-119224000D01*
X137168446Y-119224000D01*
X136075553Y-119224000D01*
X132334000Y-119224000D01*
X132334000Y-117218000D01*
X132353685Y-117150961D01*
X132406489Y-117105206D01*
X132458000Y-117094000D01*
X143510000Y-117094000D01*
X144931334Y-115453999D01*
X150075553Y-115453999D01*
X150075554Y-115454000D01*
X151168446Y-115454000D01*
X151168446Y-115453999D01*
X150622001Y-114907553D01*
X150621999Y-114907553D01*
X150075553Y-115453999D01*
X144931334Y-115453999D01*
X146774916Y-113326788D01*
X146833697Y-113289020D01*
X146868621Y-113284000D01*
X149098000Y-113284000D01*
X149165039Y-113303685D01*
G37*
G04 #@! TD.AperFunction*
G04 #@! TA.AperFunction,Conductor*
G36*
X105674997Y-129306965D02*
G01*
X105675388Y-129307280D01*
X106310634Y-129307280D01*
X106306240Y-129311674D01*
X106253579Y-129402886D01*
X106226320Y-129504619D01*
X106226320Y-129609941D01*
X106253579Y-129711674D01*
X106306240Y-129802886D01*
X106310634Y-129807280D01*
X105154682Y-129807280D01*
X105087643Y-129787595D01*
X105087252Y-129787280D01*
X104452006Y-129787280D01*
X104456400Y-129782886D01*
X104509061Y-129691674D01*
X104536320Y-129589941D01*
X104536320Y-129484619D01*
X104509061Y-129382886D01*
X104456400Y-129291674D01*
X104452006Y-129287280D01*
X105607958Y-129287280D01*
X105674997Y-129306965D01*
G37*
G04 #@! TD.AperFunction*
G04 #@! TA.AperFunction,Conductor*
G36*
X103816240Y-129291674D02*
G01*
X103763579Y-129382886D01*
X103736320Y-129484619D01*
X103736320Y-129589941D01*
X103763579Y-129691674D01*
X103816240Y-129782886D01*
X103820634Y-129787280D01*
X101912006Y-129787280D01*
X101916400Y-129782886D01*
X101969061Y-129691674D01*
X101996320Y-129589941D01*
X101996320Y-129484619D01*
X101969061Y-129382886D01*
X101916400Y-129291674D01*
X101912006Y-129287280D01*
X103820634Y-129287280D01*
X103816240Y-129291674D01*
G37*
G04 #@! TD.AperFunction*
M02*
