G04 #@! TF.GenerationSoftware,KiCad,Pcbnew,8.0.2*
G04 #@! TF.CreationDate,2024-07-26T13:41:10+02:00*
G04 #@! TF.ProjectId,e07-900m10s-breakout,6530372d-3930-4306-9d31-30732d627265,rev?*
G04 #@! TF.SameCoordinates,Original*
G04 #@! TF.FileFunction,Legend,Top*
G04 #@! TF.FilePolarity,Positive*
%FSLAX46Y46*%
G04 Gerber Fmt 4.6, Leading zero omitted, Abs format (unit mm)*
G04 Created by KiCad (PCBNEW 8.0.2) date 2024-07-26 13:41:10*
%MOMM*%
%LPD*%
G01*
G04 APERTURE LIST*
G04 Aperture macros list*
%AMRoundRect*
0 Rectangle with rounded corners*
0 $1 Rounding radius*
0 $2 $3 $4 $5 $6 $7 $8 $9 X,Y pos of 4 corners*
0 Add a 4 corners polygon primitive as box body*
4,1,4,$2,$3,$4,$5,$6,$7,$8,$9,$2,$3,0*
0 Add four circle primitives for the rounded corners*
1,1,$1+$1,$2,$3*
1,1,$1+$1,$4,$5*
1,1,$1+$1,$6,$7*
1,1,$1+$1,$8,$9*
0 Add four rect primitives between the rounded corners*
20,1,$1+$1,$2,$3,$4,$5,0*
20,1,$1+$1,$4,$5,$6,$7,0*
20,1,$1+$1,$6,$7,$8,$9,0*
20,1,$1+$1,$8,$9,$2,$3,0*%
%AMFreePoly0*
4,1,6,1.000000,0.000000,0.500000,-0.750000,-0.500000,-0.750000,-0.500000,0.750000,0.500000,0.750000,1.000000,0.000000,1.000000,0.000000,$1*%
%AMFreePoly1*
4,1,6,0.500000,-0.750000,-0.650000,-0.750000,-0.150000,0.000000,-0.650000,0.750000,0.500000,0.750000,0.500000,-0.750000,0.500000,-0.750000,$1*%
G04 Aperture macros list end*
%ADD10C,0.150000*%
%ADD11C,0.100000*%
%ADD12C,0.120000*%
%ADD13C,0.254000*%
%ADD14RoundRect,0.250001X-0.624999X0.462499X-0.624999X-0.462499X0.624999X-0.462499X0.624999X0.462499X0*%
%ADD15C,0.800000*%
%ADD16C,5.000000*%
%ADD17C,2.400000*%
%ADD18O,2.400000X2.400000*%
%ADD19R,1.800000X0.800000*%
%ADD20FreePoly0,0.000000*%
%ADD21FreePoly1,0.000000*%
%ADD22R,1.800000X1.800000*%
%ADD23C,1.800000*%
%ADD24FreePoly0,180.000000*%
%ADD25FreePoly1,180.000000*%
%ADD26RoundRect,0.250000X-0.412500X-1.100000X0.412500X-1.100000X0.412500X1.100000X-0.412500X1.100000X0*%
%ADD27R,1.700000X1.700000*%
%ADD28O,1.700000X1.700000*%
%ADD29RoundRect,0.109220X0.436880X-0.690880X0.436880X0.690880X-0.436880X0.690880X-0.436880X-0.690880X0*%
%ADD30C,1.346200*%
%ADD31RoundRect,0.038100X-0.762000X2.159000X-0.762000X-2.159000X0.762000X-2.159000X0.762000X2.159000X0*%
%ADD32RoundRect,0.250000X-0.625000X0.400000X-0.625000X-0.400000X0.625000X-0.400000X0.625000X0.400000X0*%
%ADD33RoundRect,0.250000X1.100000X-0.412500X1.100000X0.412500X-1.100000X0.412500X-1.100000X-0.412500X0*%
%ADD34R,2.000000X1.200000*%
%ADD35O,2.000000X1.200000*%
%ADD36R,1.500000X0.900000*%
G04 APERTURE END LIST*
D10*
X129368779Y-107311819D02*
X129368779Y-106311819D01*
X129368779Y-106311819D02*
X129702112Y-107026104D01*
X129702112Y-107026104D02*
X130035445Y-106311819D01*
X130035445Y-106311819D02*
X130035445Y-107311819D01*
X130702112Y-106311819D02*
X130892588Y-106311819D01*
X130892588Y-106311819D02*
X130987826Y-106359438D01*
X130987826Y-106359438D02*
X131083064Y-106454676D01*
X131083064Y-106454676D02*
X131130683Y-106645152D01*
X131130683Y-106645152D02*
X131130683Y-106978485D01*
X131130683Y-106978485D02*
X131083064Y-107168961D01*
X131083064Y-107168961D02*
X130987826Y-107264200D01*
X130987826Y-107264200D02*
X130892588Y-107311819D01*
X130892588Y-107311819D02*
X130702112Y-107311819D01*
X130702112Y-107311819D02*
X130606874Y-107264200D01*
X130606874Y-107264200D02*
X130511636Y-107168961D01*
X130511636Y-107168961D02*
X130464017Y-106978485D01*
X130464017Y-106978485D02*
X130464017Y-106645152D01*
X130464017Y-106645152D02*
X130511636Y-106454676D01*
X130511636Y-106454676D02*
X130606874Y-106359438D01*
X130606874Y-106359438D02*
X130702112Y-106311819D01*
X131511636Y-107264200D02*
X131654493Y-107311819D01*
X131654493Y-107311819D02*
X131892588Y-107311819D01*
X131892588Y-107311819D02*
X131987826Y-107264200D01*
X131987826Y-107264200D02*
X132035445Y-107216580D01*
X132035445Y-107216580D02*
X132083064Y-107121342D01*
X132083064Y-107121342D02*
X132083064Y-107026104D01*
X132083064Y-107026104D02*
X132035445Y-106930866D01*
X132035445Y-106930866D02*
X131987826Y-106883247D01*
X131987826Y-106883247D02*
X131892588Y-106835628D01*
X131892588Y-106835628D02*
X131702112Y-106788009D01*
X131702112Y-106788009D02*
X131606874Y-106740390D01*
X131606874Y-106740390D02*
X131559255Y-106692771D01*
X131559255Y-106692771D02*
X131511636Y-106597533D01*
X131511636Y-106597533D02*
X131511636Y-106502295D01*
X131511636Y-106502295D02*
X131559255Y-106407057D01*
X131559255Y-106407057D02*
X131606874Y-106359438D01*
X131606874Y-106359438D02*
X131702112Y-106311819D01*
X131702112Y-106311819D02*
X131940207Y-106311819D01*
X131940207Y-106311819D02*
X132083064Y-106359438D01*
X132511636Y-107311819D02*
X132511636Y-106311819D01*
X129892588Y-93659438D02*
X129797350Y-93611819D01*
X129797350Y-93611819D02*
X129654493Y-93611819D01*
X129654493Y-93611819D02*
X129511636Y-93659438D01*
X129511636Y-93659438D02*
X129416398Y-93754676D01*
X129416398Y-93754676D02*
X129368779Y-93849914D01*
X129368779Y-93849914D02*
X129321160Y-94040390D01*
X129321160Y-94040390D02*
X129321160Y-94183247D01*
X129321160Y-94183247D02*
X129368779Y-94373723D01*
X129368779Y-94373723D02*
X129416398Y-94468961D01*
X129416398Y-94468961D02*
X129511636Y-94564200D01*
X129511636Y-94564200D02*
X129654493Y-94611819D01*
X129654493Y-94611819D02*
X129749731Y-94611819D01*
X129749731Y-94611819D02*
X129892588Y-94564200D01*
X129892588Y-94564200D02*
X129940207Y-94516580D01*
X129940207Y-94516580D02*
X129940207Y-94183247D01*
X129940207Y-94183247D02*
X129749731Y-94183247D01*
X130368779Y-94611819D02*
X130368779Y-93611819D01*
X130368779Y-93611819D02*
X130606874Y-93611819D01*
X130606874Y-93611819D02*
X130749731Y-93659438D01*
X130749731Y-93659438D02*
X130844969Y-93754676D01*
X130844969Y-93754676D02*
X130892588Y-93849914D01*
X130892588Y-93849914D02*
X130940207Y-94040390D01*
X130940207Y-94040390D02*
X130940207Y-94183247D01*
X130940207Y-94183247D02*
X130892588Y-94373723D01*
X130892588Y-94373723D02*
X130844969Y-94468961D01*
X130844969Y-94468961D02*
X130749731Y-94564200D01*
X130749731Y-94564200D02*
X130606874Y-94611819D01*
X130606874Y-94611819D02*
X130368779Y-94611819D01*
X131559255Y-93611819D02*
X131749731Y-93611819D01*
X131749731Y-93611819D02*
X131844969Y-93659438D01*
X131844969Y-93659438D02*
X131940207Y-93754676D01*
X131940207Y-93754676D02*
X131987826Y-93945152D01*
X131987826Y-93945152D02*
X131987826Y-94278485D01*
X131987826Y-94278485D02*
X131940207Y-94468961D01*
X131940207Y-94468961D02*
X131844969Y-94564200D01*
X131844969Y-94564200D02*
X131749731Y-94611819D01*
X131749731Y-94611819D02*
X131559255Y-94611819D01*
X131559255Y-94611819D02*
X131464017Y-94564200D01*
X131464017Y-94564200D02*
X131368779Y-94468961D01*
X131368779Y-94468961D02*
X131321160Y-94278485D01*
X131321160Y-94278485D02*
X131321160Y-93945152D01*
X131321160Y-93945152D02*
X131368779Y-93754676D01*
X131368779Y-93754676D02*
X131464017Y-93659438D01*
X131464017Y-93659438D02*
X131559255Y-93611819D01*
X132368779Y-93707057D02*
X132416398Y-93659438D01*
X132416398Y-93659438D02*
X132511636Y-93611819D01*
X132511636Y-93611819D02*
X132749731Y-93611819D01*
X132749731Y-93611819D02*
X132844969Y-93659438D01*
X132844969Y-93659438D02*
X132892588Y-93707057D01*
X132892588Y-93707057D02*
X132940207Y-93802295D01*
X132940207Y-93802295D02*
X132940207Y-93897533D01*
X132940207Y-93897533D02*
X132892588Y-94040390D01*
X132892588Y-94040390D02*
X132321160Y-94611819D01*
X132321160Y-94611819D02*
X132940207Y-94611819D01*
X151269819Y-92468458D02*
X151269819Y-91849411D01*
X151269819Y-91849411D02*
X151650771Y-92182744D01*
X151650771Y-92182744D02*
X151650771Y-92039887D01*
X151650771Y-92039887D02*
X151698390Y-91944649D01*
X151698390Y-91944649D02*
X151746009Y-91897030D01*
X151746009Y-91897030D02*
X151841247Y-91849411D01*
X151841247Y-91849411D02*
X152079342Y-91849411D01*
X152079342Y-91849411D02*
X152174580Y-91897030D01*
X152174580Y-91897030D02*
X152222200Y-91944649D01*
X152222200Y-91944649D02*
X152269819Y-92039887D01*
X152269819Y-92039887D02*
X152269819Y-92325601D01*
X152269819Y-92325601D02*
X152222200Y-92420839D01*
X152222200Y-92420839D02*
X152174580Y-92468458D01*
X151269819Y-91563696D02*
X152269819Y-91230363D01*
X152269819Y-91230363D02*
X151269819Y-90897030D01*
X151269819Y-90658934D02*
X151269819Y-90039887D01*
X151269819Y-90039887D02*
X151650771Y-90373220D01*
X151650771Y-90373220D02*
X151650771Y-90230363D01*
X151650771Y-90230363D02*
X151698390Y-90135125D01*
X151698390Y-90135125D02*
X151746009Y-90087506D01*
X151746009Y-90087506D02*
X151841247Y-90039887D01*
X151841247Y-90039887D02*
X152079342Y-90039887D01*
X152079342Y-90039887D02*
X152174580Y-90087506D01*
X152174580Y-90087506D02*
X152222200Y-90135125D01*
X152222200Y-90135125D02*
X152269819Y-90230363D01*
X152269819Y-90230363D02*
X152269819Y-90516077D01*
X152269819Y-90516077D02*
X152222200Y-90611315D01*
X152222200Y-90611315D02*
X152174580Y-90658934D01*
X142014580Y-91801792D02*
X142062200Y-91849411D01*
X142062200Y-91849411D02*
X142109819Y-91992268D01*
X142109819Y-91992268D02*
X142109819Y-92087506D01*
X142109819Y-92087506D02*
X142062200Y-92230363D01*
X142062200Y-92230363D02*
X141966961Y-92325601D01*
X141966961Y-92325601D02*
X141871723Y-92373220D01*
X141871723Y-92373220D02*
X141681247Y-92420839D01*
X141681247Y-92420839D02*
X141538390Y-92420839D01*
X141538390Y-92420839D02*
X141347914Y-92373220D01*
X141347914Y-92373220D02*
X141252676Y-92325601D01*
X141252676Y-92325601D02*
X141157438Y-92230363D01*
X141157438Y-92230363D02*
X141109819Y-92087506D01*
X141109819Y-92087506D02*
X141109819Y-91992268D01*
X141109819Y-91992268D02*
X141157438Y-91849411D01*
X141157438Y-91849411D02*
X141205057Y-91801792D01*
X142062200Y-91420839D02*
X142109819Y-91277982D01*
X142109819Y-91277982D02*
X142109819Y-91039887D01*
X142109819Y-91039887D02*
X142062200Y-90944649D01*
X142062200Y-90944649D02*
X142014580Y-90897030D01*
X142014580Y-90897030D02*
X141919342Y-90849411D01*
X141919342Y-90849411D02*
X141824104Y-90849411D01*
X141824104Y-90849411D02*
X141728866Y-90897030D01*
X141728866Y-90897030D02*
X141681247Y-90944649D01*
X141681247Y-90944649D02*
X141633628Y-91039887D01*
X141633628Y-91039887D02*
X141586009Y-91230363D01*
X141586009Y-91230363D02*
X141538390Y-91325601D01*
X141538390Y-91325601D02*
X141490771Y-91373220D01*
X141490771Y-91373220D02*
X141395533Y-91420839D01*
X141395533Y-91420839D02*
X141300295Y-91420839D01*
X141300295Y-91420839D02*
X141205057Y-91373220D01*
X141205057Y-91373220D02*
X141157438Y-91325601D01*
X141157438Y-91325601D02*
X141109819Y-91230363D01*
X141109819Y-91230363D02*
X141109819Y-90992268D01*
X141109819Y-90992268D02*
X141157438Y-90849411D01*
X142109819Y-90420839D02*
X141109819Y-90420839D01*
X141109819Y-90420839D02*
X142109819Y-89849411D01*
X142109819Y-89849411D02*
X141109819Y-89849411D01*
X147142200Y-92420839D02*
X147189819Y-92277982D01*
X147189819Y-92277982D02*
X147189819Y-92039887D01*
X147189819Y-92039887D02*
X147142200Y-91944649D01*
X147142200Y-91944649D02*
X147094580Y-91897030D01*
X147094580Y-91897030D02*
X146999342Y-91849411D01*
X146999342Y-91849411D02*
X146904104Y-91849411D01*
X146904104Y-91849411D02*
X146808866Y-91897030D01*
X146808866Y-91897030D02*
X146761247Y-91944649D01*
X146761247Y-91944649D02*
X146713628Y-92039887D01*
X146713628Y-92039887D02*
X146666009Y-92230363D01*
X146666009Y-92230363D02*
X146618390Y-92325601D01*
X146618390Y-92325601D02*
X146570771Y-92373220D01*
X146570771Y-92373220D02*
X146475533Y-92420839D01*
X146475533Y-92420839D02*
X146380295Y-92420839D01*
X146380295Y-92420839D02*
X146285057Y-92373220D01*
X146285057Y-92373220D02*
X146237438Y-92325601D01*
X146237438Y-92325601D02*
X146189819Y-92230363D01*
X146189819Y-92230363D02*
X146189819Y-91992268D01*
X146189819Y-91992268D02*
X146237438Y-91849411D01*
X147094580Y-90849411D02*
X147142200Y-90897030D01*
X147142200Y-90897030D02*
X147189819Y-91039887D01*
X147189819Y-91039887D02*
X147189819Y-91135125D01*
X147189819Y-91135125D02*
X147142200Y-91277982D01*
X147142200Y-91277982D02*
X147046961Y-91373220D01*
X147046961Y-91373220D02*
X146951723Y-91420839D01*
X146951723Y-91420839D02*
X146761247Y-91468458D01*
X146761247Y-91468458D02*
X146618390Y-91468458D01*
X146618390Y-91468458D02*
X146427914Y-91420839D01*
X146427914Y-91420839D02*
X146332676Y-91373220D01*
X146332676Y-91373220D02*
X146237438Y-91277982D01*
X146237438Y-91277982D02*
X146189819Y-91135125D01*
X146189819Y-91135125D02*
X146189819Y-91039887D01*
X146189819Y-91039887D02*
X146237438Y-90897030D01*
X146237438Y-90897030D02*
X146285057Y-90849411D01*
X147189819Y-89944649D02*
X147189819Y-90420839D01*
X147189819Y-90420839D02*
X146189819Y-90420839D01*
X147189819Y-89611315D02*
X146189819Y-89611315D01*
X147189819Y-89039887D02*
X146618390Y-89468458D01*
X146189819Y-89039887D02*
X146761247Y-89611315D01*
X138617438Y-91849411D02*
X138569819Y-91944649D01*
X138569819Y-91944649D02*
X138569819Y-92087506D01*
X138569819Y-92087506D02*
X138617438Y-92230363D01*
X138617438Y-92230363D02*
X138712676Y-92325601D01*
X138712676Y-92325601D02*
X138807914Y-92373220D01*
X138807914Y-92373220D02*
X138998390Y-92420839D01*
X138998390Y-92420839D02*
X139141247Y-92420839D01*
X139141247Y-92420839D02*
X139331723Y-92373220D01*
X139331723Y-92373220D02*
X139426961Y-92325601D01*
X139426961Y-92325601D02*
X139522200Y-92230363D01*
X139522200Y-92230363D02*
X139569819Y-92087506D01*
X139569819Y-92087506D02*
X139569819Y-91992268D01*
X139569819Y-91992268D02*
X139522200Y-91849411D01*
X139522200Y-91849411D02*
X139474580Y-91801792D01*
X139474580Y-91801792D02*
X139141247Y-91801792D01*
X139141247Y-91801792D02*
X139141247Y-91992268D01*
X139569819Y-91373220D02*
X138569819Y-91373220D01*
X138569819Y-91373220D02*
X138569819Y-91135125D01*
X138569819Y-91135125D02*
X138617438Y-90992268D01*
X138617438Y-90992268D02*
X138712676Y-90897030D01*
X138712676Y-90897030D02*
X138807914Y-90849411D01*
X138807914Y-90849411D02*
X138998390Y-90801792D01*
X138998390Y-90801792D02*
X139141247Y-90801792D01*
X139141247Y-90801792D02*
X139331723Y-90849411D01*
X139331723Y-90849411D02*
X139426961Y-90897030D01*
X139426961Y-90897030D02*
X139522200Y-90992268D01*
X139522200Y-90992268D02*
X139569819Y-91135125D01*
X139569819Y-91135125D02*
X139569819Y-91373220D01*
X138569819Y-90182744D02*
X138569819Y-89992268D01*
X138569819Y-89992268D02*
X138617438Y-89897030D01*
X138617438Y-89897030D02*
X138712676Y-89801792D01*
X138712676Y-89801792D02*
X138903152Y-89754173D01*
X138903152Y-89754173D02*
X139236485Y-89754173D01*
X139236485Y-89754173D02*
X139426961Y-89801792D01*
X139426961Y-89801792D02*
X139522200Y-89897030D01*
X139522200Y-89897030D02*
X139569819Y-89992268D01*
X139569819Y-89992268D02*
X139569819Y-90182744D01*
X139569819Y-90182744D02*
X139522200Y-90277982D01*
X139522200Y-90277982D02*
X139426961Y-90373220D01*
X139426961Y-90373220D02*
X139236485Y-90420839D01*
X139236485Y-90420839D02*
X138903152Y-90420839D01*
X138903152Y-90420839D02*
X138712676Y-90373220D01*
X138712676Y-90373220D02*
X138617438Y-90277982D01*
X138617438Y-90277982D02*
X138569819Y-90182744D01*
X138569819Y-89135125D02*
X138569819Y-89039887D01*
X138569819Y-89039887D02*
X138617438Y-88944649D01*
X138617438Y-88944649D02*
X138665057Y-88897030D01*
X138665057Y-88897030D02*
X138760295Y-88849411D01*
X138760295Y-88849411D02*
X138950771Y-88801792D01*
X138950771Y-88801792D02*
X139188866Y-88801792D01*
X139188866Y-88801792D02*
X139379342Y-88849411D01*
X139379342Y-88849411D02*
X139474580Y-88897030D01*
X139474580Y-88897030D02*
X139522200Y-88944649D01*
X139522200Y-88944649D02*
X139569819Y-89039887D01*
X139569819Y-89039887D02*
X139569819Y-89135125D01*
X139569819Y-89135125D02*
X139522200Y-89230363D01*
X139522200Y-89230363D02*
X139474580Y-89277982D01*
X139474580Y-89277982D02*
X139379342Y-89325601D01*
X139379342Y-89325601D02*
X139188866Y-89373220D01*
X139188866Y-89373220D02*
X138950771Y-89373220D01*
X138950771Y-89373220D02*
X138760295Y-89325601D01*
X138760295Y-89325601D02*
X138665057Y-89277982D01*
X138665057Y-89277982D02*
X138617438Y-89230363D01*
X138617438Y-89230363D02*
X138569819Y-89135125D01*
X129940207Y-99596580D02*
X129892588Y-99644200D01*
X129892588Y-99644200D02*
X129749731Y-99691819D01*
X129749731Y-99691819D02*
X129654493Y-99691819D01*
X129654493Y-99691819D02*
X129511636Y-99644200D01*
X129511636Y-99644200D02*
X129416398Y-99548961D01*
X129416398Y-99548961D02*
X129368779Y-99453723D01*
X129368779Y-99453723D02*
X129321160Y-99263247D01*
X129321160Y-99263247D02*
X129321160Y-99120390D01*
X129321160Y-99120390D02*
X129368779Y-98929914D01*
X129368779Y-98929914D02*
X129416398Y-98834676D01*
X129416398Y-98834676D02*
X129511636Y-98739438D01*
X129511636Y-98739438D02*
X129654493Y-98691819D01*
X129654493Y-98691819D02*
X129749731Y-98691819D01*
X129749731Y-98691819D02*
X129892588Y-98739438D01*
X129892588Y-98739438D02*
X129940207Y-98787057D01*
X130321160Y-99644200D02*
X130464017Y-99691819D01*
X130464017Y-99691819D02*
X130702112Y-99691819D01*
X130702112Y-99691819D02*
X130797350Y-99644200D01*
X130797350Y-99644200D02*
X130844969Y-99596580D01*
X130844969Y-99596580D02*
X130892588Y-99501342D01*
X130892588Y-99501342D02*
X130892588Y-99406104D01*
X130892588Y-99406104D02*
X130844969Y-99310866D01*
X130844969Y-99310866D02*
X130797350Y-99263247D01*
X130797350Y-99263247D02*
X130702112Y-99215628D01*
X130702112Y-99215628D02*
X130511636Y-99168009D01*
X130511636Y-99168009D02*
X130416398Y-99120390D01*
X130416398Y-99120390D02*
X130368779Y-99072771D01*
X130368779Y-99072771D02*
X130321160Y-98977533D01*
X130321160Y-98977533D02*
X130321160Y-98882295D01*
X130321160Y-98882295D02*
X130368779Y-98787057D01*
X130368779Y-98787057D02*
X130416398Y-98739438D01*
X130416398Y-98739438D02*
X130511636Y-98691819D01*
X130511636Y-98691819D02*
X130749731Y-98691819D01*
X130749731Y-98691819D02*
X130892588Y-98739438D01*
X131321160Y-99691819D02*
X131321160Y-98691819D01*
X131321160Y-98691819D02*
X131892588Y-99691819D01*
X131892588Y-99691819D02*
X131892588Y-98691819D01*
X129321160Y-104724200D02*
X129464017Y-104771819D01*
X129464017Y-104771819D02*
X129702112Y-104771819D01*
X129702112Y-104771819D02*
X129797350Y-104724200D01*
X129797350Y-104724200D02*
X129844969Y-104676580D01*
X129844969Y-104676580D02*
X129892588Y-104581342D01*
X129892588Y-104581342D02*
X129892588Y-104486104D01*
X129892588Y-104486104D02*
X129844969Y-104390866D01*
X129844969Y-104390866D02*
X129797350Y-104343247D01*
X129797350Y-104343247D02*
X129702112Y-104295628D01*
X129702112Y-104295628D02*
X129511636Y-104248009D01*
X129511636Y-104248009D02*
X129416398Y-104200390D01*
X129416398Y-104200390D02*
X129368779Y-104152771D01*
X129368779Y-104152771D02*
X129321160Y-104057533D01*
X129321160Y-104057533D02*
X129321160Y-103962295D01*
X129321160Y-103962295D02*
X129368779Y-103867057D01*
X129368779Y-103867057D02*
X129416398Y-103819438D01*
X129416398Y-103819438D02*
X129511636Y-103771819D01*
X129511636Y-103771819D02*
X129749731Y-103771819D01*
X129749731Y-103771819D02*
X129892588Y-103819438D01*
X130892588Y-104676580D02*
X130844969Y-104724200D01*
X130844969Y-104724200D02*
X130702112Y-104771819D01*
X130702112Y-104771819D02*
X130606874Y-104771819D01*
X130606874Y-104771819D02*
X130464017Y-104724200D01*
X130464017Y-104724200D02*
X130368779Y-104628961D01*
X130368779Y-104628961D02*
X130321160Y-104533723D01*
X130321160Y-104533723D02*
X130273541Y-104343247D01*
X130273541Y-104343247D02*
X130273541Y-104200390D01*
X130273541Y-104200390D02*
X130321160Y-104009914D01*
X130321160Y-104009914D02*
X130368779Y-103914676D01*
X130368779Y-103914676D02*
X130464017Y-103819438D01*
X130464017Y-103819438D02*
X130606874Y-103771819D01*
X130606874Y-103771819D02*
X130702112Y-103771819D01*
X130702112Y-103771819D02*
X130844969Y-103819438D01*
X130844969Y-103819438D02*
X130892588Y-103867057D01*
X131797350Y-104771819D02*
X131321160Y-104771819D01*
X131321160Y-104771819D02*
X131321160Y-103771819D01*
X132130684Y-104771819D02*
X132130684Y-103771819D01*
X132702112Y-104771819D02*
X132273541Y-104200390D01*
X132702112Y-103771819D02*
X132130684Y-104343247D01*
X129368779Y-102231819D02*
X129368779Y-101231819D01*
X129368779Y-101231819D02*
X129702112Y-101946104D01*
X129702112Y-101946104D02*
X130035445Y-101231819D01*
X130035445Y-101231819D02*
X130035445Y-102231819D01*
X130511636Y-102231819D02*
X130511636Y-101231819D01*
X130940207Y-102184200D02*
X131083064Y-102231819D01*
X131083064Y-102231819D02*
X131321159Y-102231819D01*
X131321159Y-102231819D02*
X131416397Y-102184200D01*
X131416397Y-102184200D02*
X131464016Y-102136580D01*
X131464016Y-102136580D02*
X131511635Y-102041342D01*
X131511635Y-102041342D02*
X131511635Y-101946104D01*
X131511635Y-101946104D02*
X131464016Y-101850866D01*
X131464016Y-101850866D02*
X131416397Y-101803247D01*
X131416397Y-101803247D02*
X131321159Y-101755628D01*
X131321159Y-101755628D02*
X131130683Y-101708009D01*
X131130683Y-101708009D02*
X131035445Y-101660390D01*
X131035445Y-101660390D02*
X130987826Y-101612771D01*
X130987826Y-101612771D02*
X130940207Y-101517533D01*
X130940207Y-101517533D02*
X130940207Y-101422295D01*
X130940207Y-101422295D02*
X130987826Y-101327057D01*
X130987826Y-101327057D02*
X131035445Y-101279438D01*
X131035445Y-101279438D02*
X131130683Y-101231819D01*
X131130683Y-101231819D02*
X131368778Y-101231819D01*
X131368778Y-101231819D02*
X131511635Y-101279438D01*
X132130683Y-101231819D02*
X132321159Y-101231819D01*
X132321159Y-101231819D02*
X132416397Y-101279438D01*
X132416397Y-101279438D02*
X132511635Y-101374676D01*
X132511635Y-101374676D02*
X132559254Y-101565152D01*
X132559254Y-101565152D02*
X132559254Y-101898485D01*
X132559254Y-101898485D02*
X132511635Y-102088961D01*
X132511635Y-102088961D02*
X132416397Y-102184200D01*
X132416397Y-102184200D02*
X132321159Y-102231819D01*
X132321159Y-102231819D02*
X132130683Y-102231819D01*
X132130683Y-102231819D02*
X132035445Y-102184200D01*
X132035445Y-102184200D02*
X131940207Y-102088961D01*
X131940207Y-102088961D02*
X131892588Y-101898485D01*
X131892588Y-101898485D02*
X131892588Y-101565152D01*
X131892588Y-101565152D02*
X131940207Y-101374676D01*
X131940207Y-101374676D02*
X132035445Y-101279438D01*
X132035445Y-101279438D02*
X132130683Y-101231819D01*
X136077438Y-91849411D02*
X136029819Y-91944649D01*
X136029819Y-91944649D02*
X136029819Y-92087506D01*
X136029819Y-92087506D02*
X136077438Y-92230363D01*
X136077438Y-92230363D02*
X136172676Y-92325601D01*
X136172676Y-92325601D02*
X136267914Y-92373220D01*
X136267914Y-92373220D02*
X136458390Y-92420839D01*
X136458390Y-92420839D02*
X136601247Y-92420839D01*
X136601247Y-92420839D02*
X136791723Y-92373220D01*
X136791723Y-92373220D02*
X136886961Y-92325601D01*
X136886961Y-92325601D02*
X136982200Y-92230363D01*
X136982200Y-92230363D02*
X137029819Y-92087506D01*
X137029819Y-92087506D02*
X137029819Y-91992268D01*
X137029819Y-91992268D02*
X136982200Y-91849411D01*
X136982200Y-91849411D02*
X136934580Y-91801792D01*
X136934580Y-91801792D02*
X136601247Y-91801792D01*
X136601247Y-91801792D02*
X136601247Y-91992268D01*
X137029819Y-91373220D02*
X136029819Y-91373220D01*
X136029819Y-91373220D02*
X136029819Y-91135125D01*
X136029819Y-91135125D02*
X136077438Y-90992268D01*
X136077438Y-90992268D02*
X136172676Y-90897030D01*
X136172676Y-90897030D02*
X136267914Y-90849411D01*
X136267914Y-90849411D02*
X136458390Y-90801792D01*
X136458390Y-90801792D02*
X136601247Y-90801792D01*
X136601247Y-90801792D02*
X136791723Y-90849411D01*
X136791723Y-90849411D02*
X136886961Y-90897030D01*
X136886961Y-90897030D02*
X136982200Y-90992268D01*
X136982200Y-90992268D02*
X137029819Y-91135125D01*
X137029819Y-91135125D02*
X137029819Y-91373220D01*
X136029819Y-90182744D02*
X136029819Y-89992268D01*
X136029819Y-89992268D02*
X136077438Y-89897030D01*
X136077438Y-89897030D02*
X136172676Y-89801792D01*
X136172676Y-89801792D02*
X136363152Y-89754173D01*
X136363152Y-89754173D02*
X136696485Y-89754173D01*
X136696485Y-89754173D02*
X136886961Y-89801792D01*
X136886961Y-89801792D02*
X136982200Y-89897030D01*
X136982200Y-89897030D02*
X137029819Y-89992268D01*
X137029819Y-89992268D02*
X137029819Y-90182744D01*
X137029819Y-90182744D02*
X136982200Y-90277982D01*
X136982200Y-90277982D02*
X136886961Y-90373220D01*
X136886961Y-90373220D02*
X136696485Y-90420839D01*
X136696485Y-90420839D02*
X136363152Y-90420839D01*
X136363152Y-90420839D02*
X136172676Y-90373220D01*
X136172676Y-90373220D02*
X136077438Y-90277982D01*
X136077438Y-90277982D02*
X136029819Y-90182744D01*
X136125057Y-89373220D02*
X136077438Y-89325601D01*
X136077438Y-89325601D02*
X136029819Y-89230363D01*
X136029819Y-89230363D02*
X136029819Y-88992268D01*
X136029819Y-88992268D02*
X136077438Y-88897030D01*
X136077438Y-88897030D02*
X136125057Y-88849411D01*
X136125057Y-88849411D02*
X136220295Y-88801792D01*
X136220295Y-88801792D02*
X136315533Y-88801792D01*
X136315533Y-88801792D02*
X136458390Y-88849411D01*
X136458390Y-88849411D02*
X137029819Y-89420839D01*
X137029819Y-89420839D02*
X137029819Y-88801792D01*
X149729819Y-92373220D02*
X148729819Y-92373220D01*
X148729819Y-92373220D02*
X149444104Y-92039887D01*
X149444104Y-92039887D02*
X148729819Y-91706554D01*
X148729819Y-91706554D02*
X149729819Y-91706554D01*
X148729819Y-91039887D02*
X148729819Y-90849411D01*
X148729819Y-90849411D02*
X148777438Y-90754173D01*
X148777438Y-90754173D02*
X148872676Y-90658935D01*
X148872676Y-90658935D02*
X149063152Y-90611316D01*
X149063152Y-90611316D02*
X149396485Y-90611316D01*
X149396485Y-90611316D02*
X149586961Y-90658935D01*
X149586961Y-90658935D02*
X149682200Y-90754173D01*
X149682200Y-90754173D02*
X149729819Y-90849411D01*
X149729819Y-90849411D02*
X149729819Y-91039887D01*
X149729819Y-91039887D02*
X149682200Y-91135125D01*
X149682200Y-91135125D02*
X149586961Y-91230363D01*
X149586961Y-91230363D02*
X149396485Y-91277982D01*
X149396485Y-91277982D02*
X149063152Y-91277982D01*
X149063152Y-91277982D02*
X148872676Y-91230363D01*
X148872676Y-91230363D02*
X148777438Y-91135125D01*
X148777438Y-91135125D02*
X148729819Y-91039887D01*
X149682200Y-90230363D02*
X149729819Y-90087506D01*
X149729819Y-90087506D02*
X149729819Y-89849411D01*
X149729819Y-89849411D02*
X149682200Y-89754173D01*
X149682200Y-89754173D02*
X149634580Y-89706554D01*
X149634580Y-89706554D02*
X149539342Y-89658935D01*
X149539342Y-89658935D02*
X149444104Y-89658935D01*
X149444104Y-89658935D02*
X149348866Y-89706554D01*
X149348866Y-89706554D02*
X149301247Y-89754173D01*
X149301247Y-89754173D02*
X149253628Y-89849411D01*
X149253628Y-89849411D02*
X149206009Y-90039887D01*
X149206009Y-90039887D02*
X149158390Y-90135125D01*
X149158390Y-90135125D02*
X149110771Y-90182744D01*
X149110771Y-90182744D02*
X149015533Y-90230363D01*
X149015533Y-90230363D02*
X148920295Y-90230363D01*
X148920295Y-90230363D02*
X148825057Y-90182744D01*
X148825057Y-90182744D02*
X148777438Y-90135125D01*
X148777438Y-90135125D02*
X148729819Y-90039887D01*
X148729819Y-90039887D02*
X148729819Y-89801792D01*
X148729819Y-89801792D02*
X148777438Y-89658935D01*
X149729819Y-89230363D02*
X148729819Y-89230363D01*
X144649819Y-92373220D02*
X143649819Y-92373220D01*
X143649819Y-92373220D02*
X144364104Y-92039887D01*
X144364104Y-92039887D02*
X143649819Y-91706554D01*
X143649819Y-91706554D02*
X144649819Y-91706554D01*
X144649819Y-91230363D02*
X143649819Y-91230363D01*
X144602200Y-90801792D02*
X144649819Y-90658935D01*
X144649819Y-90658935D02*
X144649819Y-90420840D01*
X144649819Y-90420840D02*
X144602200Y-90325602D01*
X144602200Y-90325602D02*
X144554580Y-90277983D01*
X144554580Y-90277983D02*
X144459342Y-90230364D01*
X144459342Y-90230364D02*
X144364104Y-90230364D01*
X144364104Y-90230364D02*
X144268866Y-90277983D01*
X144268866Y-90277983D02*
X144221247Y-90325602D01*
X144221247Y-90325602D02*
X144173628Y-90420840D01*
X144173628Y-90420840D02*
X144126009Y-90611316D01*
X144126009Y-90611316D02*
X144078390Y-90706554D01*
X144078390Y-90706554D02*
X144030771Y-90754173D01*
X144030771Y-90754173D02*
X143935533Y-90801792D01*
X143935533Y-90801792D02*
X143840295Y-90801792D01*
X143840295Y-90801792D02*
X143745057Y-90754173D01*
X143745057Y-90754173D02*
X143697438Y-90706554D01*
X143697438Y-90706554D02*
X143649819Y-90611316D01*
X143649819Y-90611316D02*
X143649819Y-90373221D01*
X143649819Y-90373221D02*
X143697438Y-90230364D01*
X143649819Y-89611316D02*
X143649819Y-89420840D01*
X143649819Y-89420840D02*
X143697438Y-89325602D01*
X143697438Y-89325602D02*
X143792676Y-89230364D01*
X143792676Y-89230364D02*
X143983152Y-89182745D01*
X143983152Y-89182745D02*
X144316485Y-89182745D01*
X144316485Y-89182745D02*
X144506961Y-89230364D01*
X144506961Y-89230364D02*
X144602200Y-89325602D01*
X144602200Y-89325602D02*
X144649819Y-89420840D01*
X144649819Y-89420840D02*
X144649819Y-89611316D01*
X144649819Y-89611316D02*
X144602200Y-89706554D01*
X144602200Y-89706554D02*
X144506961Y-89801792D01*
X144506961Y-89801792D02*
X144316485Y-89849411D01*
X144316485Y-89849411D02*
X143983152Y-89849411D01*
X143983152Y-89849411D02*
X143792676Y-89801792D01*
X143792676Y-89801792D02*
X143697438Y-89706554D01*
X143697438Y-89706554D02*
X143649819Y-89611316D01*
X153857438Y-91849411D02*
X153809819Y-91944649D01*
X153809819Y-91944649D02*
X153809819Y-92087506D01*
X153809819Y-92087506D02*
X153857438Y-92230363D01*
X153857438Y-92230363D02*
X153952676Y-92325601D01*
X153952676Y-92325601D02*
X154047914Y-92373220D01*
X154047914Y-92373220D02*
X154238390Y-92420839D01*
X154238390Y-92420839D02*
X154381247Y-92420839D01*
X154381247Y-92420839D02*
X154571723Y-92373220D01*
X154571723Y-92373220D02*
X154666961Y-92325601D01*
X154666961Y-92325601D02*
X154762200Y-92230363D01*
X154762200Y-92230363D02*
X154809819Y-92087506D01*
X154809819Y-92087506D02*
X154809819Y-91992268D01*
X154809819Y-91992268D02*
X154762200Y-91849411D01*
X154762200Y-91849411D02*
X154714580Y-91801792D01*
X154714580Y-91801792D02*
X154381247Y-91801792D01*
X154381247Y-91801792D02*
X154381247Y-91992268D01*
X154809819Y-91373220D02*
X153809819Y-91373220D01*
X153809819Y-91373220D02*
X154809819Y-90801792D01*
X154809819Y-90801792D02*
X153809819Y-90801792D01*
X154809819Y-90325601D02*
X153809819Y-90325601D01*
X153809819Y-90325601D02*
X153809819Y-90087506D01*
X153809819Y-90087506D02*
X153857438Y-89944649D01*
X153857438Y-89944649D02*
X153952676Y-89849411D01*
X153952676Y-89849411D02*
X154047914Y-89801792D01*
X154047914Y-89801792D02*
X154238390Y-89754173D01*
X154238390Y-89754173D02*
X154381247Y-89754173D01*
X154381247Y-89754173D02*
X154571723Y-89801792D01*
X154571723Y-89801792D02*
X154666961Y-89849411D01*
X154666961Y-89849411D02*
X154762200Y-89944649D01*
X154762200Y-89944649D02*
X154809819Y-90087506D01*
X154809819Y-90087506D02*
X154809819Y-90325601D01*
X129892588Y-96199438D02*
X129797350Y-96151819D01*
X129797350Y-96151819D02*
X129654493Y-96151819D01*
X129654493Y-96151819D02*
X129511636Y-96199438D01*
X129511636Y-96199438D02*
X129416398Y-96294676D01*
X129416398Y-96294676D02*
X129368779Y-96389914D01*
X129368779Y-96389914D02*
X129321160Y-96580390D01*
X129321160Y-96580390D02*
X129321160Y-96723247D01*
X129321160Y-96723247D02*
X129368779Y-96913723D01*
X129368779Y-96913723D02*
X129416398Y-97008961D01*
X129416398Y-97008961D02*
X129511636Y-97104200D01*
X129511636Y-97104200D02*
X129654493Y-97151819D01*
X129654493Y-97151819D02*
X129749731Y-97151819D01*
X129749731Y-97151819D02*
X129892588Y-97104200D01*
X129892588Y-97104200D02*
X129940207Y-97056580D01*
X129940207Y-97056580D02*
X129940207Y-96723247D01*
X129940207Y-96723247D02*
X129749731Y-96723247D01*
X130368779Y-97151819D02*
X130368779Y-96151819D01*
X130368779Y-96151819D02*
X130606874Y-96151819D01*
X130606874Y-96151819D02*
X130749731Y-96199438D01*
X130749731Y-96199438D02*
X130844969Y-96294676D01*
X130844969Y-96294676D02*
X130892588Y-96389914D01*
X130892588Y-96389914D02*
X130940207Y-96580390D01*
X130940207Y-96580390D02*
X130940207Y-96723247D01*
X130940207Y-96723247D02*
X130892588Y-96913723D01*
X130892588Y-96913723D02*
X130844969Y-97008961D01*
X130844969Y-97008961D02*
X130749731Y-97104200D01*
X130749731Y-97104200D02*
X130606874Y-97151819D01*
X130606874Y-97151819D02*
X130368779Y-97151819D01*
X131559255Y-96151819D02*
X131749731Y-96151819D01*
X131749731Y-96151819D02*
X131844969Y-96199438D01*
X131844969Y-96199438D02*
X131940207Y-96294676D01*
X131940207Y-96294676D02*
X131987826Y-96485152D01*
X131987826Y-96485152D02*
X131987826Y-96818485D01*
X131987826Y-96818485D02*
X131940207Y-97008961D01*
X131940207Y-97008961D02*
X131844969Y-97104200D01*
X131844969Y-97104200D02*
X131749731Y-97151819D01*
X131749731Y-97151819D02*
X131559255Y-97151819D01*
X131559255Y-97151819D02*
X131464017Y-97104200D01*
X131464017Y-97104200D02*
X131368779Y-97008961D01*
X131368779Y-97008961D02*
X131321160Y-96818485D01*
X131321160Y-96818485D02*
X131321160Y-96485152D01*
X131321160Y-96485152D02*
X131368779Y-96294676D01*
X131368779Y-96294676D02*
X131464017Y-96199438D01*
X131464017Y-96199438D02*
X131559255Y-96151819D01*
X132606874Y-96151819D02*
X132702112Y-96151819D01*
X132702112Y-96151819D02*
X132797350Y-96199438D01*
X132797350Y-96199438D02*
X132844969Y-96247057D01*
X132844969Y-96247057D02*
X132892588Y-96342295D01*
X132892588Y-96342295D02*
X132940207Y-96532771D01*
X132940207Y-96532771D02*
X132940207Y-96770866D01*
X132940207Y-96770866D02*
X132892588Y-96961342D01*
X132892588Y-96961342D02*
X132844969Y-97056580D01*
X132844969Y-97056580D02*
X132797350Y-97104200D01*
X132797350Y-97104200D02*
X132702112Y-97151819D01*
X132702112Y-97151819D02*
X132606874Y-97151819D01*
X132606874Y-97151819D02*
X132511636Y-97104200D01*
X132511636Y-97104200D02*
X132464017Y-97056580D01*
X132464017Y-97056580D02*
X132416398Y-96961342D01*
X132416398Y-96961342D02*
X132368779Y-96770866D01*
X132368779Y-96770866D02*
X132368779Y-96532771D01*
X132368779Y-96532771D02*
X132416398Y-96342295D01*
X132416398Y-96342295D02*
X132464017Y-96247057D01*
X132464017Y-96247057D02*
X132511636Y-96199438D01*
X132511636Y-96199438D02*
X132606874Y-96151819D01*
X151854819Y-78417594D02*
X151854819Y-77846166D01*
X152854819Y-78131880D02*
X151854819Y-78131880D01*
X151854819Y-77608070D02*
X152854819Y-76941404D01*
X151854819Y-76941404D02*
X152854819Y-77608070D01*
X152854819Y-76036642D02*
X152854819Y-76608070D01*
X152854819Y-76322356D02*
X151854819Y-76322356D01*
X151854819Y-76322356D02*
X151997676Y-76417594D01*
X151997676Y-76417594D02*
X152092914Y-76512832D01*
X152092914Y-76512832D02*
X152140533Y-76608070D01*
X155503920Y-125534644D02*
X155503920Y-124534644D01*
X155503920Y-125010834D02*
X156075348Y-125010834D01*
X156075348Y-125534644D02*
X156075348Y-124534644D01*
X156456301Y-124534644D02*
X157075348Y-124534644D01*
X157075348Y-124534644D02*
X156742015Y-124915596D01*
X156742015Y-124915596D02*
X156884872Y-124915596D01*
X156884872Y-124915596D02*
X156980110Y-124963215D01*
X156980110Y-124963215D02*
X157027729Y-125010834D01*
X157027729Y-125010834D02*
X157075348Y-125106072D01*
X157075348Y-125106072D02*
X157075348Y-125344167D01*
X157075348Y-125344167D02*
X157027729Y-125439405D01*
X157027729Y-125439405D02*
X156980110Y-125487025D01*
X156980110Y-125487025D02*
X156884872Y-125534644D01*
X156884872Y-125534644D02*
X156599158Y-125534644D01*
X156599158Y-125534644D02*
X156503920Y-125487025D01*
X156503920Y-125487025D02*
X156456301Y-125439405D01*
X96940819Y-92622666D02*
X96464628Y-92955999D01*
X96940819Y-93194094D02*
X95940819Y-93194094D01*
X95940819Y-93194094D02*
X95940819Y-92813142D01*
X95940819Y-92813142D02*
X95988438Y-92717904D01*
X95988438Y-92717904D02*
X96036057Y-92670285D01*
X96036057Y-92670285D02*
X96131295Y-92622666D01*
X96131295Y-92622666D02*
X96274152Y-92622666D01*
X96274152Y-92622666D02*
X96369390Y-92670285D01*
X96369390Y-92670285D02*
X96417009Y-92717904D01*
X96417009Y-92717904D02*
X96464628Y-92813142D01*
X96464628Y-92813142D02*
X96464628Y-93194094D01*
X96940819Y-91670285D02*
X96940819Y-92241713D01*
X96940819Y-91955999D02*
X95940819Y-91955999D01*
X95940819Y-91955999D02*
X96083676Y-92051237D01*
X96083676Y-92051237D02*
X96178914Y-92146475D01*
X96178914Y-92146475D02*
X96226533Y-92241713D01*
X95702270Y-125788644D02*
X95702270Y-124788644D01*
X95702270Y-125264834D02*
X96273698Y-125264834D01*
X96273698Y-125788644D02*
X96273698Y-124788644D01*
X96702270Y-124883882D02*
X96749889Y-124836263D01*
X96749889Y-124836263D02*
X96845127Y-124788644D01*
X96845127Y-124788644D02*
X97083222Y-124788644D01*
X97083222Y-124788644D02*
X97178460Y-124836263D01*
X97178460Y-124836263D02*
X97226079Y-124883882D01*
X97226079Y-124883882D02*
X97273698Y-124979120D01*
X97273698Y-124979120D02*
X97273698Y-125074358D01*
X97273698Y-125074358D02*
X97226079Y-125217215D01*
X97226079Y-125217215D02*
X96654651Y-125788644D01*
X96654651Y-125788644D02*
X97273698Y-125788644D01*
D11*
X148737972Y-121651125D02*
X148799877Y-121682077D01*
X148799877Y-121682077D02*
X148892734Y-121682077D01*
X148892734Y-121682077D02*
X148985591Y-121651125D01*
X148985591Y-121651125D02*
X149047496Y-121589220D01*
X149047496Y-121589220D02*
X149078449Y-121527315D01*
X149078449Y-121527315D02*
X149109401Y-121403506D01*
X149109401Y-121403506D02*
X149109401Y-121310649D01*
X149109401Y-121310649D02*
X149078449Y-121186839D01*
X149078449Y-121186839D02*
X149047496Y-121124934D01*
X149047496Y-121124934D02*
X148985591Y-121063030D01*
X148985591Y-121063030D02*
X148892734Y-121032077D01*
X148892734Y-121032077D02*
X148830830Y-121032077D01*
X148830830Y-121032077D02*
X148737972Y-121063030D01*
X148737972Y-121063030D02*
X148707020Y-121093982D01*
X148707020Y-121093982D02*
X148707020Y-121310649D01*
X148707020Y-121310649D02*
X148830830Y-121310649D01*
X148428449Y-121032077D02*
X148428449Y-121682077D01*
X148428449Y-121682077D02*
X148057020Y-121032077D01*
X148057020Y-121032077D02*
X148057020Y-121682077D01*
X147747497Y-121032077D02*
X147747497Y-121682077D01*
X147747497Y-121682077D02*
X147592735Y-121682077D01*
X147592735Y-121682077D02*
X147499878Y-121651125D01*
X147499878Y-121651125D02*
X147437973Y-121589220D01*
X147437973Y-121589220D02*
X147407020Y-121527315D01*
X147407020Y-121527315D02*
X147376068Y-121403506D01*
X147376068Y-121403506D02*
X147376068Y-121310649D01*
X147376068Y-121310649D02*
X147407020Y-121186839D01*
X147407020Y-121186839D02*
X147437973Y-121124934D01*
X147437973Y-121124934D02*
X147499878Y-121063030D01*
X147499878Y-121063030D02*
X147592735Y-121032077D01*
X147592735Y-121032077D02*
X147747497Y-121032077D01*
X139988401Y-113050700D02*
X139895544Y-113019747D01*
X139895544Y-113019747D02*
X139740782Y-113019747D01*
X139740782Y-113019747D02*
X139678877Y-113050700D01*
X139678877Y-113050700D02*
X139647925Y-113081652D01*
X139647925Y-113081652D02*
X139616972Y-113143557D01*
X139616972Y-113143557D02*
X139616972Y-113205461D01*
X139616972Y-113205461D02*
X139647925Y-113267366D01*
X139647925Y-113267366D02*
X139678877Y-113298319D01*
X139678877Y-113298319D02*
X139740782Y-113329271D01*
X139740782Y-113329271D02*
X139864591Y-113360223D01*
X139864591Y-113360223D02*
X139926496Y-113391176D01*
X139926496Y-113391176D02*
X139957449Y-113422128D01*
X139957449Y-113422128D02*
X139988401Y-113484033D01*
X139988401Y-113484033D02*
X139988401Y-113545938D01*
X139988401Y-113545938D02*
X139957449Y-113607842D01*
X139957449Y-113607842D02*
X139926496Y-113638795D01*
X139926496Y-113638795D02*
X139864591Y-113669747D01*
X139864591Y-113669747D02*
X139709830Y-113669747D01*
X139709830Y-113669747D02*
X139616972Y-113638795D01*
X138966972Y-113081652D02*
X138997924Y-113050700D01*
X138997924Y-113050700D02*
X139090782Y-113019747D01*
X139090782Y-113019747D02*
X139152686Y-113019747D01*
X139152686Y-113019747D02*
X139245543Y-113050700D01*
X139245543Y-113050700D02*
X139307448Y-113112604D01*
X139307448Y-113112604D02*
X139338401Y-113174509D01*
X139338401Y-113174509D02*
X139369353Y-113298319D01*
X139369353Y-113298319D02*
X139369353Y-113391176D01*
X139369353Y-113391176D02*
X139338401Y-113514985D01*
X139338401Y-113514985D02*
X139307448Y-113576890D01*
X139307448Y-113576890D02*
X139245543Y-113638795D01*
X139245543Y-113638795D02*
X139152686Y-113669747D01*
X139152686Y-113669747D02*
X139090782Y-113669747D01*
X139090782Y-113669747D02*
X138997924Y-113638795D01*
X138997924Y-113638795D02*
X138966972Y-113607842D01*
X138688401Y-113019747D02*
X138688401Y-113669747D01*
X138316972Y-113019747D02*
X138595543Y-113391176D01*
X138316972Y-113669747D02*
X138688401Y-113298319D01*
X149048449Y-110384297D02*
X149048449Y-111034297D01*
X149048449Y-111034297D02*
X148677020Y-110384297D01*
X148677020Y-110384297D02*
X148677020Y-111034297D01*
X147996068Y-110446202D02*
X148027020Y-110415250D01*
X148027020Y-110415250D02*
X148119878Y-110384297D01*
X148119878Y-110384297D02*
X148181782Y-110384297D01*
X148181782Y-110384297D02*
X148274639Y-110415250D01*
X148274639Y-110415250D02*
X148336544Y-110477154D01*
X148336544Y-110477154D02*
X148367497Y-110539059D01*
X148367497Y-110539059D02*
X148398449Y-110662869D01*
X148398449Y-110662869D02*
X148398449Y-110755726D01*
X148398449Y-110755726D02*
X148367497Y-110879535D01*
X148367497Y-110879535D02*
X148336544Y-110941440D01*
X148336544Y-110941440D02*
X148274639Y-111003345D01*
X148274639Y-111003345D02*
X148181782Y-111034297D01*
X148181782Y-111034297D02*
X148119878Y-111034297D01*
X148119878Y-111034297D02*
X148027020Y-111003345D01*
X148027020Y-111003345D02*
X147996068Y-110972392D01*
X148737972Y-120372235D02*
X148799877Y-120403187D01*
X148799877Y-120403187D02*
X148892734Y-120403187D01*
X148892734Y-120403187D02*
X148985591Y-120372235D01*
X148985591Y-120372235D02*
X149047496Y-120310330D01*
X149047496Y-120310330D02*
X149078449Y-120248425D01*
X149078449Y-120248425D02*
X149109401Y-120124616D01*
X149109401Y-120124616D02*
X149109401Y-120031759D01*
X149109401Y-120031759D02*
X149078449Y-119907949D01*
X149078449Y-119907949D02*
X149047496Y-119846044D01*
X149047496Y-119846044D02*
X148985591Y-119784140D01*
X148985591Y-119784140D02*
X148892734Y-119753187D01*
X148892734Y-119753187D02*
X148830830Y-119753187D01*
X148830830Y-119753187D02*
X148737972Y-119784140D01*
X148737972Y-119784140D02*
X148707020Y-119815092D01*
X148707020Y-119815092D02*
X148707020Y-120031759D01*
X148707020Y-120031759D02*
X148830830Y-120031759D01*
X148428449Y-119753187D02*
X148428449Y-120403187D01*
X148428449Y-120403187D02*
X148057020Y-119753187D01*
X148057020Y-119753187D02*
X148057020Y-120403187D01*
X147747497Y-119753187D02*
X147747497Y-120403187D01*
X147747497Y-120403187D02*
X147592735Y-120403187D01*
X147592735Y-120403187D02*
X147499878Y-120372235D01*
X147499878Y-120372235D02*
X147437973Y-120310330D01*
X147437973Y-120310330D02*
X147407020Y-120248425D01*
X147407020Y-120248425D02*
X147376068Y-120124616D01*
X147376068Y-120124616D02*
X147376068Y-120031759D01*
X147376068Y-120031759D02*
X147407020Y-119907949D01*
X147407020Y-119907949D02*
X147437973Y-119846044D01*
X147437973Y-119846044D02*
X147499878Y-119784140D01*
X147499878Y-119784140D02*
X147592735Y-119753187D01*
X147592735Y-119753187D02*
X147747497Y-119753187D01*
X139632972Y-122930015D02*
X139694877Y-122960967D01*
X139694877Y-122960967D02*
X139787734Y-122960967D01*
X139787734Y-122960967D02*
X139880591Y-122930015D01*
X139880591Y-122930015D02*
X139942496Y-122868110D01*
X139942496Y-122868110D02*
X139973449Y-122806205D01*
X139973449Y-122806205D02*
X140004401Y-122682396D01*
X140004401Y-122682396D02*
X140004401Y-122589539D01*
X140004401Y-122589539D02*
X139973449Y-122465729D01*
X139973449Y-122465729D02*
X139942496Y-122403824D01*
X139942496Y-122403824D02*
X139880591Y-122341920D01*
X139880591Y-122341920D02*
X139787734Y-122310967D01*
X139787734Y-122310967D02*
X139725830Y-122310967D01*
X139725830Y-122310967D02*
X139632972Y-122341920D01*
X139632972Y-122341920D02*
X139602020Y-122372872D01*
X139602020Y-122372872D02*
X139602020Y-122589539D01*
X139602020Y-122589539D02*
X139725830Y-122589539D01*
X139323449Y-122310967D02*
X139323449Y-122960967D01*
X139323449Y-122960967D02*
X138952020Y-122310967D01*
X138952020Y-122310967D02*
X138952020Y-122960967D01*
X138642497Y-122310967D02*
X138642497Y-122960967D01*
X138642497Y-122960967D02*
X138487735Y-122960967D01*
X138487735Y-122960967D02*
X138394878Y-122930015D01*
X138394878Y-122930015D02*
X138332973Y-122868110D01*
X138332973Y-122868110D02*
X138302020Y-122806205D01*
X138302020Y-122806205D02*
X138271068Y-122682396D01*
X138271068Y-122682396D02*
X138271068Y-122589539D01*
X138271068Y-122589539D02*
X138302020Y-122465729D01*
X138302020Y-122465729D02*
X138332973Y-122403824D01*
X138332973Y-122403824D02*
X138394878Y-122341920D01*
X138394878Y-122341920D02*
X138487735Y-122310967D01*
X138487735Y-122310967D02*
X138642497Y-122310967D01*
X149048449Y-111663187D02*
X149048449Y-112313187D01*
X149048449Y-112313187D02*
X148677020Y-111663187D01*
X148677020Y-111663187D02*
X148677020Y-112313187D01*
X147996068Y-111725092D02*
X148027020Y-111694140D01*
X148027020Y-111694140D02*
X148119878Y-111663187D01*
X148119878Y-111663187D02*
X148181782Y-111663187D01*
X148181782Y-111663187D02*
X148274639Y-111694140D01*
X148274639Y-111694140D02*
X148336544Y-111756044D01*
X148336544Y-111756044D02*
X148367497Y-111817949D01*
X148367497Y-111817949D02*
X148398449Y-111941759D01*
X148398449Y-111941759D02*
X148398449Y-112034616D01*
X148398449Y-112034616D02*
X148367497Y-112158425D01*
X148367497Y-112158425D02*
X148336544Y-112220330D01*
X148336544Y-112220330D02*
X148274639Y-112282235D01*
X148274639Y-112282235D02*
X148181782Y-112313187D01*
X148181782Y-112313187D02*
X148119878Y-112313187D01*
X148119878Y-112313187D02*
X148027020Y-112282235D01*
X148027020Y-112282235D02*
X147996068Y-112251282D01*
X139646972Y-106095795D02*
X139708877Y-106126747D01*
X139708877Y-106126747D02*
X139801734Y-106126747D01*
X139801734Y-106126747D02*
X139894591Y-106095795D01*
X139894591Y-106095795D02*
X139956496Y-106033890D01*
X139956496Y-106033890D02*
X139987449Y-105971985D01*
X139987449Y-105971985D02*
X140018401Y-105848176D01*
X140018401Y-105848176D02*
X140018401Y-105755319D01*
X140018401Y-105755319D02*
X139987449Y-105631509D01*
X139987449Y-105631509D02*
X139956496Y-105569604D01*
X139956496Y-105569604D02*
X139894591Y-105507700D01*
X139894591Y-105507700D02*
X139801734Y-105476747D01*
X139801734Y-105476747D02*
X139739830Y-105476747D01*
X139739830Y-105476747D02*
X139646972Y-105507700D01*
X139646972Y-105507700D02*
X139616020Y-105538652D01*
X139616020Y-105538652D02*
X139616020Y-105755319D01*
X139616020Y-105755319D02*
X139739830Y-105755319D01*
X139337449Y-105476747D02*
X139337449Y-106126747D01*
X139337449Y-106126747D02*
X138966020Y-105476747D01*
X138966020Y-105476747D02*
X138966020Y-106126747D01*
X138656497Y-105476747D02*
X138656497Y-106126747D01*
X138656497Y-106126747D02*
X138501735Y-106126747D01*
X138501735Y-106126747D02*
X138408878Y-106095795D01*
X138408878Y-106095795D02*
X138346973Y-106033890D01*
X138346973Y-106033890D02*
X138316020Y-105971985D01*
X138316020Y-105971985D02*
X138285068Y-105848176D01*
X138285068Y-105848176D02*
X138285068Y-105755319D01*
X138285068Y-105755319D02*
X138316020Y-105631509D01*
X138316020Y-105631509D02*
X138346973Y-105569604D01*
X138346973Y-105569604D02*
X138408878Y-105507700D01*
X138408878Y-105507700D02*
X138501735Y-105476747D01*
X138501735Y-105476747D02*
X138656497Y-105476747D01*
X148707972Y-105917795D02*
X148769877Y-105948747D01*
X148769877Y-105948747D02*
X148862734Y-105948747D01*
X148862734Y-105948747D02*
X148955591Y-105917795D01*
X148955591Y-105917795D02*
X149017496Y-105855890D01*
X149017496Y-105855890D02*
X149048449Y-105793985D01*
X149048449Y-105793985D02*
X149079401Y-105670176D01*
X149079401Y-105670176D02*
X149079401Y-105577319D01*
X149079401Y-105577319D02*
X149048449Y-105453509D01*
X149048449Y-105453509D02*
X149017496Y-105391604D01*
X149017496Y-105391604D02*
X148955591Y-105329700D01*
X148955591Y-105329700D02*
X148862734Y-105298747D01*
X148862734Y-105298747D02*
X148800830Y-105298747D01*
X148800830Y-105298747D02*
X148707972Y-105329700D01*
X148707972Y-105329700D02*
X148677020Y-105360652D01*
X148677020Y-105360652D02*
X148677020Y-105577319D01*
X148677020Y-105577319D02*
X148800830Y-105577319D01*
X148398449Y-105298747D02*
X148398449Y-105948747D01*
X148398449Y-105948747D02*
X148027020Y-105298747D01*
X148027020Y-105298747D02*
X148027020Y-105948747D01*
X147717497Y-105298747D02*
X147717497Y-105948747D01*
X147717497Y-105948747D02*
X147562735Y-105948747D01*
X147562735Y-105948747D02*
X147469878Y-105917795D01*
X147469878Y-105917795D02*
X147407973Y-105855890D01*
X147407973Y-105855890D02*
X147377020Y-105793985D01*
X147377020Y-105793985D02*
X147346068Y-105670176D01*
X147346068Y-105670176D02*
X147346068Y-105577319D01*
X147346068Y-105577319D02*
X147377020Y-105453509D01*
X147377020Y-105453509D02*
X147407973Y-105391604D01*
X147407973Y-105391604D02*
X147469878Y-105329700D01*
X147469878Y-105329700D02*
X147562735Y-105298747D01*
X147562735Y-105298747D02*
X147717497Y-105298747D01*
X149048449Y-109105407D02*
X149048449Y-109755407D01*
X149048449Y-109755407D02*
X148677020Y-109105407D01*
X148677020Y-109105407D02*
X148677020Y-109755407D01*
X147996068Y-109167312D02*
X148027020Y-109136360D01*
X148027020Y-109136360D02*
X148119878Y-109105407D01*
X148119878Y-109105407D02*
X148181782Y-109105407D01*
X148181782Y-109105407D02*
X148274639Y-109136360D01*
X148274639Y-109136360D02*
X148336544Y-109198264D01*
X148336544Y-109198264D02*
X148367497Y-109260169D01*
X148367497Y-109260169D02*
X148398449Y-109383979D01*
X148398449Y-109383979D02*
X148398449Y-109476836D01*
X148398449Y-109476836D02*
X148367497Y-109600645D01*
X148367497Y-109600645D02*
X148336544Y-109662550D01*
X148336544Y-109662550D02*
X148274639Y-109724455D01*
X148274639Y-109724455D02*
X148181782Y-109755407D01*
X148181782Y-109755407D02*
X148119878Y-109755407D01*
X148119878Y-109755407D02*
X148027020Y-109724455D01*
X148027020Y-109724455D02*
X147996068Y-109693502D01*
X148707972Y-113561125D02*
X148769877Y-113592077D01*
X148769877Y-113592077D02*
X148862734Y-113592077D01*
X148862734Y-113592077D02*
X148955591Y-113561125D01*
X148955591Y-113561125D02*
X149017496Y-113499220D01*
X149017496Y-113499220D02*
X149048449Y-113437315D01*
X149048449Y-113437315D02*
X149079401Y-113313506D01*
X149079401Y-113313506D02*
X149079401Y-113220649D01*
X149079401Y-113220649D02*
X149048449Y-113096839D01*
X149048449Y-113096839D02*
X149017496Y-113034934D01*
X149017496Y-113034934D02*
X148955591Y-112973030D01*
X148955591Y-112973030D02*
X148862734Y-112942077D01*
X148862734Y-112942077D02*
X148800830Y-112942077D01*
X148800830Y-112942077D02*
X148707972Y-112973030D01*
X148707972Y-112973030D02*
X148677020Y-113003982D01*
X148677020Y-113003982D02*
X148677020Y-113220649D01*
X148677020Y-113220649D02*
X148800830Y-113220649D01*
X148398449Y-112942077D02*
X148398449Y-113592077D01*
X148398449Y-113592077D02*
X148027020Y-112942077D01*
X148027020Y-112942077D02*
X148027020Y-113592077D01*
X147717497Y-112942077D02*
X147717497Y-113592077D01*
X147717497Y-113592077D02*
X147562735Y-113592077D01*
X147562735Y-113592077D02*
X147469878Y-113561125D01*
X147469878Y-113561125D02*
X147407973Y-113499220D01*
X147407973Y-113499220D02*
X147377020Y-113437315D01*
X147377020Y-113437315D02*
X147346068Y-113313506D01*
X147346068Y-113313506D02*
X147346068Y-113220649D01*
X147346068Y-113220649D02*
X147377020Y-113096839D01*
X147377020Y-113096839D02*
X147407973Y-113034934D01*
X147407973Y-113034934D02*
X147469878Y-112973030D01*
X147469878Y-112973030D02*
X147562735Y-112942077D01*
X147562735Y-112942077D02*
X147717497Y-112942077D01*
X139606449Y-106619747D02*
X139606449Y-107269747D01*
X139606449Y-107269747D02*
X139235020Y-106619747D01*
X139235020Y-106619747D02*
X139235020Y-107269747D01*
X138554068Y-106681652D02*
X138585020Y-106650700D01*
X138585020Y-106650700D02*
X138677878Y-106619747D01*
X138677878Y-106619747D02*
X138739782Y-106619747D01*
X138739782Y-106619747D02*
X138832639Y-106650700D01*
X138832639Y-106650700D02*
X138894544Y-106712604D01*
X138894544Y-106712604D02*
X138925497Y-106774509D01*
X138925497Y-106774509D02*
X138956449Y-106898319D01*
X138956449Y-106898319D02*
X138956449Y-106991176D01*
X138956449Y-106991176D02*
X138925497Y-107114985D01*
X138925497Y-107114985D02*
X138894544Y-107176890D01*
X138894544Y-107176890D02*
X138832639Y-107238795D01*
X138832639Y-107238795D02*
X138739782Y-107269747D01*
X138739782Y-107269747D02*
X138677878Y-107269747D01*
X138677878Y-107269747D02*
X138585020Y-107238795D01*
X138585020Y-107238795D02*
X138554068Y-107207842D01*
X149141306Y-108476527D02*
X148924639Y-107826527D01*
X148924639Y-107826527D02*
X148707972Y-108476527D01*
X148119877Y-107888432D02*
X148150829Y-107857480D01*
X148150829Y-107857480D02*
X148243687Y-107826527D01*
X148243687Y-107826527D02*
X148305591Y-107826527D01*
X148305591Y-107826527D02*
X148398448Y-107857480D01*
X148398448Y-107857480D02*
X148460353Y-107919384D01*
X148460353Y-107919384D02*
X148491306Y-107981289D01*
X148491306Y-107981289D02*
X148522258Y-108105099D01*
X148522258Y-108105099D02*
X148522258Y-108197956D01*
X148522258Y-108197956D02*
X148491306Y-108321765D01*
X148491306Y-108321765D02*
X148460353Y-108383670D01*
X148460353Y-108383670D02*
X148398448Y-108445575D01*
X148398448Y-108445575D02*
X148305591Y-108476527D01*
X148305591Y-108476527D02*
X148243687Y-108476527D01*
X148243687Y-108476527D02*
X148150829Y-108445575D01*
X148150829Y-108445575D02*
X148119877Y-108414622D01*
X147469877Y-107888432D02*
X147500829Y-107857480D01*
X147500829Y-107857480D02*
X147593687Y-107826527D01*
X147593687Y-107826527D02*
X147655591Y-107826527D01*
X147655591Y-107826527D02*
X147748448Y-107857480D01*
X147748448Y-107857480D02*
X147810353Y-107919384D01*
X147810353Y-107919384D02*
X147841306Y-107981289D01*
X147841306Y-107981289D02*
X147872258Y-108105099D01*
X147872258Y-108105099D02*
X147872258Y-108197956D01*
X147872258Y-108197956D02*
X147841306Y-108321765D01*
X147841306Y-108321765D02*
X147810353Y-108383670D01*
X147810353Y-108383670D02*
X147748448Y-108445575D01*
X147748448Y-108445575D02*
X147655591Y-108476527D01*
X147655591Y-108476527D02*
X147593687Y-108476527D01*
X147593687Y-108476527D02*
X147500829Y-108445575D01*
X147500829Y-108445575D02*
X147469877Y-108414622D01*
X139632972Y-120372235D02*
X139694877Y-120403187D01*
X139694877Y-120403187D02*
X139787734Y-120403187D01*
X139787734Y-120403187D02*
X139880591Y-120372235D01*
X139880591Y-120372235D02*
X139942496Y-120310330D01*
X139942496Y-120310330D02*
X139973449Y-120248425D01*
X139973449Y-120248425D02*
X140004401Y-120124616D01*
X140004401Y-120124616D02*
X140004401Y-120031759D01*
X140004401Y-120031759D02*
X139973449Y-119907949D01*
X139973449Y-119907949D02*
X139942496Y-119846044D01*
X139942496Y-119846044D02*
X139880591Y-119784140D01*
X139880591Y-119784140D02*
X139787734Y-119753187D01*
X139787734Y-119753187D02*
X139725830Y-119753187D01*
X139725830Y-119753187D02*
X139632972Y-119784140D01*
X139632972Y-119784140D02*
X139602020Y-119815092D01*
X139602020Y-119815092D02*
X139602020Y-120031759D01*
X139602020Y-120031759D02*
X139725830Y-120031759D01*
X139323449Y-119753187D02*
X139323449Y-120403187D01*
X139323449Y-120403187D02*
X138952020Y-119753187D01*
X138952020Y-119753187D02*
X138952020Y-120403187D01*
X138642497Y-119753187D02*
X138642497Y-120403187D01*
X138642497Y-120403187D02*
X138487735Y-120403187D01*
X138487735Y-120403187D02*
X138394878Y-120372235D01*
X138394878Y-120372235D02*
X138332973Y-120310330D01*
X138332973Y-120310330D02*
X138302020Y-120248425D01*
X138302020Y-120248425D02*
X138271068Y-120124616D01*
X138271068Y-120124616D02*
X138271068Y-120031759D01*
X138271068Y-120031759D02*
X138302020Y-119907949D01*
X138302020Y-119907949D02*
X138332973Y-119846044D01*
X138332973Y-119846044D02*
X138394878Y-119784140D01*
X138394878Y-119784140D02*
X138487735Y-119753187D01*
X138487735Y-119753187D02*
X138642497Y-119753187D01*
X139586020Y-114351652D02*
X139616972Y-114320700D01*
X139616972Y-114320700D02*
X139709830Y-114289747D01*
X139709830Y-114289747D02*
X139771734Y-114289747D01*
X139771734Y-114289747D02*
X139864591Y-114320700D01*
X139864591Y-114320700D02*
X139926496Y-114382604D01*
X139926496Y-114382604D02*
X139957449Y-114444509D01*
X139957449Y-114444509D02*
X139988401Y-114568319D01*
X139988401Y-114568319D02*
X139988401Y-114661176D01*
X139988401Y-114661176D02*
X139957449Y-114784985D01*
X139957449Y-114784985D02*
X139926496Y-114846890D01*
X139926496Y-114846890D02*
X139864591Y-114908795D01*
X139864591Y-114908795D02*
X139771734Y-114939747D01*
X139771734Y-114939747D02*
X139709830Y-114939747D01*
X139709830Y-114939747D02*
X139616972Y-114908795D01*
X139616972Y-114908795D02*
X139586020Y-114877842D01*
X139338401Y-114320700D02*
X139245544Y-114289747D01*
X139245544Y-114289747D02*
X139090782Y-114289747D01*
X139090782Y-114289747D02*
X139028877Y-114320700D01*
X139028877Y-114320700D02*
X138997925Y-114351652D01*
X138997925Y-114351652D02*
X138966972Y-114413557D01*
X138966972Y-114413557D02*
X138966972Y-114475461D01*
X138966972Y-114475461D02*
X138997925Y-114537366D01*
X138997925Y-114537366D02*
X139028877Y-114568319D01*
X139028877Y-114568319D02*
X139090782Y-114599271D01*
X139090782Y-114599271D02*
X139214591Y-114630223D01*
X139214591Y-114630223D02*
X139276496Y-114661176D01*
X139276496Y-114661176D02*
X139307449Y-114692128D01*
X139307449Y-114692128D02*
X139338401Y-114754033D01*
X139338401Y-114754033D02*
X139338401Y-114815938D01*
X139338401Y-114815938D02*
X139307449Y-114877842D01*
X139307449Y-114877842D02*
X139276496Y-114908795D01*
X139276496Y-114908795D02*
X139214591Y-114939747D01*
X139214591Y-114939747D02*
X139059830Y-114939747D01*
X139059830Y-114939747D02*
X138966972Y-114908795D01*
X138688401Y-114289747D02*
X138688401Y-114939747D01*
X138688401Y-114939747D02*
X138316972Y-114289747D01*
X138316972Y-114289747D02*
X138316972Y-114939747D01*
X140154972Y-108381795D02*
X140216877Y-108412747D01*
X140216877Y-108412747D02*
X140309734Y-108412747D01*
X140309734Y-108412747D02*
X140402591Y-108381795D01*
X140402591Y-108381795D02*
X140464496Y-108319890D01*
X140464496Y-108319890D02*
X140495449Y-108257985D01*
X140495449Y-108257985D02*
X140526401Y-108134176D01*
X140526401Y-108134176D02*
X140526401Y-108041319D01*
X140526401Y-108041319D02*
X140495449Y-107917509D01*
X140495449Y-107917509D02*
X140464496Y-107855604D01*
X140464496Y-107855604D02*
X140402591Y-107793700D01*
X140402591Y-107793700D02*
X140309734Y-107762747D01*
X140309734Y-107762747D02*
X140247830Y-107762747D01*
X140247830Y-107762747D02*
X140154972Y-107793700D01*
X140154972Y-107793700D02*
X140124020Y-107824652D01*
X140124020Y-107824652D02*
X140124020Y-108041319D01*
X140124020Y-108041319D02*
X140247830Y-108041319D01*
X139845449Y-107762747D02*
X139845449Y-108412747D01*
X139845449Y-108412747D02*
X139690687Y-108412747D01*
X139690687Y-108412747D02*
X139597830Y-108381795D01*
X139597830Y-108381795D02*
X139535925Y-108319890D01*
X139535925Y-108319890D02*
X139504972Y-108257985D01*
X139504972Y-108257985D02*
X139474020Y-108134176D01*
X139474020Y-108134176D02*
X139474020Y-108041319D01*
X139474020Y-108041319D02*
X139504972Y-107917509D01*
X139504972Y-107917509D02*
X139535925Y-107855604D01*
X139535925Y-107855604D02*
X139597830Y-107793700D01*
X139597830Y-107793700D02*
X139690687Y-107762747D01*
X139690687Y-107762747D02*
X139845449Y-107762747D01*
X139071639Y-108412747D02*
X139009734Y-108412747D01*
X139009734Y-108412747D02*
X138947830Y-108381795D01*
X138947830Y-108381795D02*
X138916877Y-108350842D01*
X138916877Y-108350842D02*
X138885925Y-108288938D01*
X138885925Y-108288938D02*
X138854972Y-108165128D01*
X138854972Y-108165128D02*
X138854972Y-108010366D01*
X138854972Y-108010366D02*
X138885925Y-107886557D01*
X138885925Y-107886557D02*
X138916877Y-107824652D01*
X138916877Y-107824652D02*
X138947830Y-107793700D01*
X138947830Y-107793700D02*
X139009734Y-107762747D01*
X139009734Y-107762747D02*
X139071639Y-107762747D01*
X139071639Y-107762747D02*
X139133544Y-107793700D01*
X139133544Y-107793700D02*
X139164496Y-107824652D01*
X139164496Y-107824652D02*
X139195449Y-107886557D01*
X139195449Y-107886557D02*
X139226401Y-108010366D01*
X139226401Y-108010366D02*
X139226401Y-108165128D01*
X139226401Y-108165128D02*
X139195449Y-108288938D01*
X139195449Y-108288938D02*
X139164496Y-108350842D01*
X139164496Y-108350842D02*
X139133544Y-108381795D01*
X139133544Y-108381795D02*
X139071639Y-108412747D01*
X138607353Y-108350842D02*
X138576401Y-108381795D01*
X138576401Y-108381795D02*
X138514496Y-108412747D01*
X138514496Y-108412747D02*
X138359734Y-108412747D01*
X138359734Y-108412747D02*
X138297829Y-108381795D01*
X138297829Y-108381795D02*
X138266877Y-108350842D01*
X138266877Y-108350842D02*
X138235924Y-108288938D01*
X138235924Y-108288938D02*
X138235924Y-108227033D01*
X138235924Y-108227033D02*
X138266877Y-108134176D01*
X138266877Y-108134176D02*
X138638305Y-107762747D01*
X138638305Y-107762747D02*
X138235924Y-107762747D01*
X148737972Y-122930015D02*
X148799877Y-122960967D01*
X148799877Y-122960967D02*
X148892734Y-122960967D01*
X148892734Y-122960967D02*
X148985591Y-122930015D01*
X148985591Y-122930015D02*
X149047496Y-122868110D01*
X149047496Y-122868110D02*
X149078449Y-122806205D01*
X149078449Y-122806205D02*
X149109401Y-122682396D01*
X149109401Y-122682396D02*
X149109401Y-122589539D01*
X149109401Y-122589539D02*
X149078449Y-122465729D01*
X149078449Y-122465729D02*
X149047496Y-122403824D01*
X149047496Y-122403824D02*
X148985591Y-122341920D01*
X148985591Y-122341920D02*
X148892734Y-122310967D01*
X148892734Y-122310967D02*
X148830830Y-122310967D01*
X148830830Y-122310967D02*
X148737972Y-122341920D01*
X148737972Y-122341920D02*
X148707020Y-122372872D01*
X148707020Y-122372872D02*
X148707020Y-122589539D01*
X148707020Y-122589539D02*
X148830830Y-122589539D01*
X148428449Y-122310967D02*
X148428449Y-122960967D01*
X148428449Y-122960967D02*
X148057020Y-122310967D01*
X148057020Y-122310967D02*
X148057020Y-122960967D01*
X147747497Y-122310967D02*
X147747497Y-122960967D01*
X147747497Y-122960967D02*
X147592735Y-122960967D01*
X147592735Y-122960967D02*
X147499878Y-122930015D01*
X147499878Y-122930015D02*
X147437973Y-122868110D01*
X147437973Y-122868110D02*
X147407020Y-122806205D01*
X147407020Y-122806205D02*
X147376068Y-122682396D01*
X147376068Y-122682396D02*
X147376068Y-122589539D01*
X147376068Y-122589539D02*
X147407020Y-122465729D01*
X147407020Y-122465729D02*
X147437973Y-122403824D01*
X147437973Y-122403824D02*
X147499878Y-122341920D01*
X147499878Y-122341920D02*
X147592735Y-122310967D01*
X147592735Y-122310967D02*
X147747497Y-122310967D01*
X140390639Y-111749747D02*
X140390639Y-112399747D01*
X140390639Y-112399747D02*
X140173972Y-111935461D01*
X140173972Y-111935461D02*
X139957305Y-112399747D01*
X139957305Y-112399747D02*
X139957305Y-111749747D01*
X139523972Y-112399747D02*
X139400163Y-112399747D01*
X139400163Y-112399747D02*
X139338258Y-112368795D01*
X139338258Y-112368795D02*
X139276353Y-112306890D01*
X139276353Y-112306890D02*
X139245401Y-112183080D01*
X139245401Y-112183080D02*
X139245401Y-111966414D01*
X139245401Y-111966414D02*
X139276353Y-111842604D01*
X139276353Y-111842604D02*
X139338258Y-111780700D01*
X139338258Y-111780700D02*
X139400163Y-111749747D01*
X139400163Y-111749747D02*
X139523972Y-111749747D01*
X139523972Y-111749747D02*
X139585877Y-111780700D01*
X139585877Y-111780700D02*
X139647782Y-111842604D01*
X139647782Y-111842604D02*
X139678734Y-111966414D01*
X139678734Y-111966414D02*
X139678734Y-112183080D01*
X139678734Y-112183080D02*
X139647782Y-112306890D01*
X139647782Y-112306890D02*
X139585877Y-112368795D01*
X139585877Y-112368795D02*
X139523972Y-112399747D01*
X138997782Y-111780700D02*
X138904925Y-111749747D01*
X138904925Y-111749747D02*
X138750163Y-111749747D01*
X138750163Y-111749747D02*
X138688258Y-111780700D01*
X138688258Y-111780700D02*
X138657306Y-111811652D01*
X138657306Y-111811652D02*
X138626353Y-111873557D01*
X138626353Y-111873557D02*
X138626353Y-111935461D01*
X138626353Y-111935461D02*
X138657306Y-111997366D01*
X138657306Y-111997366D02*
X138688258Y-112028319D01*
X138688258Y-112028319D02*
X138750163Y-112059271D01*
X138750163Y-112059271D02*
X138873972Y-112090223D01*
X138873972Y-112090223D02*
X138935877Y-112121176D01*
X138935877Y-112121176D02*
X138966830Y-112152128D01*
X138966830Y-112152128D02*
X138997782Y-112214033D01*
X138997782Y-112214033D02*
X138997782Y-112275938D01*
X138997782Y-112275938D02*
X138966830Y-112337842D01*
X138966830Y-112337842D02*
X138935877Y-112368795D01*
X138935877Y-112368795D02*
X138873972Y-112399747D01*
X138873972Y-112399747D02*
X138719211Y-112399747D01*
X138719211Y-112399747D02*
X138626353Y-112368795D01*
X138347782Y-111749747D02*
X138347782Y-112399747D01*
X145175152Y-109839265D02*
X145175152Y-110105931D01*
X144756104Y-110220217D02*
X144756104Y-109839265D01*
X144756104Y-109839265D02*
X145556104Y-109839265D01*
X145556104Y-109839265D02*
X145556104Y-110220217D01*
X145556104Y-110715456D02*
X145556104Y-110791646D01*
X145556104Y-110791646D02*
X145518009Y-110867837D01*
X145518009Y-110867837D02*
X145479914Y-110905932D01*
X145479914Y-110905932D02*
X145403723Y-110944027D01*
X145403723Y-110944027D02*
X145251342Y-110982122D01*
X145251342Y-110982122D02*
X145060866Y-110982122D01*
X145060866Y-110982122D02*
X144908485Y-110944027D01*
X144908485Y-110944027D02*
X144832295Y-110905932D01*
X144832295Y-110905932D02*
X144794200Y-110867837D01*
X144794200Y-110867837D02*
X144756104Y-110791646D01*
X144756104Y-110791646D02*
X144756104Y-110715456D01*
X144756104Y-110715456D02*
X144794200Y-110639265D01*
X144794200Y-110639265D02*
X144832295Y-110601170D01*
X144832295Y-110601170D02*
X144908485Y-110563075D01*
X144908485Y-110563075D02*
X145060866Y-110524979D01*
X145060866Y-110524979D02*
X145251342Y-110524979D01*
X145251342Y-110524979D02*
X145403723Y-110563075D01*
X145403723Y-110563075D02*
X145479914Y-110601170D01*
X145479914Y-110601170D02*
X145518009Y-110639265D01*
X145518009Y-110639265D02*
X145556104Y-110715456D01*
X145556104Y-111248789D02*
X145556104Y-111782123D01*
X145556104Y-111782123D02*
X144756104Y-111439265D01*
X145060866Y-112086885D02*
X145060866Y-112696409D01*
X144756104Y-113115456D02*
X144756104Y-113267837D01*
X144756104Y-113267837D02*
X144794200Y-113344027D01*
X144794200Y-113344027D02*
X144832295Y-113382123D01*
X144832295Y-113382123D02*
X144946580Y-113458313D01*
X144946580Y-113458313D02*
X145098961Y-113496408D01*
X145098961Y-113496408D02*
X145403723Y-113496408D01*
X145403723Y-113496408D02*
X145479914Y-113458313D01*
X145479914Y-113458313D02*
X145518009Y-113420218D01*
X145518009Y-113420218D02*
X145556104Y-113344027D01*
X145556104Y-113344027D02*
X145556104Y-113191646D01*
X145556104Y-113191646D02*
X145518009Y-113115456D01*
X145518009Y-113115456D02*
X145479914Y-113077361D01*
X145479914Y-113077361D02*
X145403723Y-113039265D01*
X145403723Y-113039265D02*
X145213247Y-113039265D01*
X145213247Y-113039265D02*
X145137057Y-113077361D01*
X145137057Y-113077361D02*
X145098961Y-113115456D01*
X145098961Y-113115456D02*
X145060866Y-113191646D01*
X145060866Y-113191646D02*
X145060866Y-113344027D01*
X145060866Y-113344027D02*
X145098961Y-113420218D01*
X145098961Y-113420218D02*
X145137057Y-113458313D01*
X145137057Y-113458313D02*
X145213247Y-113496408D01*
X145556104Y-113991647D02*
X145556104Y-114067837D01*
X145556104Y-114067837D02*
X145518009Y-114144028D01*
X145518009Y-114144028D02*
X145479914Y-114182123D01*
X145479914Y-114182123D02*
X145403723Y-114220218D01*
X145403723Y-114220218D02*
X145251342Y-114258313D01*
X145251342Y-114258313D02*
X145060866Y-114258313D01*
X145060866Y-114258313D02*
X144908485Y-114220218D01*
X144908485Y-114220218D02*
X144832295Y-114182123D01*
X144832295Y-114182123D02*
X144794200Y-114144028D01*
X144794200Y-114144028D02*
X144756104Y-114067837D01*
X144756104Y-114067837D02*
X144756104Y-113991647D01*
X144756104Y-113991647D02*
X144794200Y-113915456D01*
X144794200Y-113915456D02*
X144832295Y-113877361D01*
X144832295Y-113877361D02*
X144908485Y-113839266D01*
X144908485Y-113839266D02*
X145060866Y-113801170D01*
X145060866Y-113801170D02*
X145251342Y-113801170D01*
X145251342Y-113801170D02*
X145403723Y-113839266D01*
X145403723Y-113839266D02*
X145479914Y-113877361D01*
X145479914Y-113877361D02*
X145518009Y-113915456D01*
X145518009Y-113915456D02*
X145556104Y-113991647D01*
X145556104Y-114753552D02*
X145556104Y-114829742D01*
X145556104Y-114829742D02*
X145518009Y-114905933D01*
X145518009Y-114905933D02*
X145479914Y-114944028D01*
X145479914Y-114944028D02*
X145403723Y-114982123D01*
X145403723Y-114982123D02*
X145251342Y-115020218D01*
X145251342Y-115020218D02*
X145060866Y-115020218D01*
X145060866Y-115020218D02*
X144908485Y-114982123D01*
X144908485Y-114982123D02*
X144832295Y-114944028D01*
X144832295Y-114944028D02*
X144794200Y-114905933D01*
X144794200Y-114905933D02*
X144756104Y-114829742D01*
X144756104Y-114829742D02*
X144756104Y-114753552D01*
X144756104Y-114753552D02*
X144794200Y-114677361D01*
X144794200Y-114677361D02*
X144832295Y-114639266D01*
X144832295Y-114639266D02*
X144908485Y-114601171D01*
X144908485Y-114601171D02*
X145060866Y-114563075D01*
X145060866Y-114563075D02*
X145251342Y-114563075D01*
X145251342Y-114563075D02*
X145403723Y-114601171D01*
X145403723Y-114601171D02*
X145479914Y-114639266D01*
X145479914Y-114639266D02*
X145518009Y-114677361D01*
X145518009Y-114677361D02*
X145556104Y-114753552D01*
X144756104Y-115363076D02*
X145556104Y-115363076D01*
X145556104Y-115363076D02*
X144984676Y-115629742D01*
X144984676Y-115629742D02*
X145556104Y-115896409D01*
X145556104Y-115896409D02*
X144756104Y-115896409D01*
X144756104Y-116696409D02*
X144756104Y-116239266D01*
X144756104Y-116467838D02*
X145556104Y-116467838D01*
X145556104Y-116467838D02*
X145441819Y-116391647D01*
X145441819Y-116391647D02*
X145365628Y-116315457D01*
X145365628Y-116315457D02*
X145327533Y-116239266D01*
X145556104Y-117191648D02*
X145556104Y-117267838D01*
X145556104Y-117267838D02*
X145518009Y-117344029D01*
X145518009Y-117344029D02*
X145479914Y-117382124D01*
X145479914Y-117382124D02*
X145403723Y-117420219D01*
X145403723Y-117420219D02*
X145251342Y-117458314D01*
X145251342Y-117458314D02*
X145060866Y-117458314D01*
X145060866Y-117458314D02*
X144908485Y-117420219D01*
X144908485Y-117420219D02*
X144832295Y-117382124D01*
X144832295Y-117382124D02*
X144794200Y-117344029D01*
X144794200Y-117344029D02*
X144756104Y-117267838D01*
X144756104Y-117267838D02*
X144756104Y-117191648D01*
X144756104Y-117191648D02*
X144794200Y-117115457D01*
X144794200Y-117115457D02*
X144832295Y-117077362D01*
X144832295Y-117077362D02*
X144908485Y-117039267D01*
X144908485Y-117039267D02*
X145060866Y-117001171D01*
X145060866Y-117001171D02*
X145251342Y-117001171D01*
X145251342Y-117001171D02*
X145403723Y-117039267D01*
X145403723Y-117039267D02*
X145479914Y-117077362D01*
X145479914Y-117077362D02*
X145518009Y-117115457D01*
X145518009Y-117115457D02*
X145556104Y-117191648D01*
X144794200Y-117763076D02*
X144756104Y-117877362D01*
X144756104Y-117877362D02*
X144756104Y-118067838D01*
X144756104Y-118067838D02*
X144794200Y-118144029D01*
X144794200Y-118144029D02*
X144832295Y-118182124D01*
X144832295Y-118182124D02*
X144908485Y-118220219D01*
X144908485Y-118220219D02*
X144984676Y-118220219D01*
X144984676Y-118220219D02*
X145060866Y-118182124D01*
X145060866Y-118182124D02*
X145098961Y-118144029D01*
X145098961Y-118144029D02*
X145137057Y-118067838D01*
X145137057Y-118067838D02*
X145175152Y-117915457D01*
X145175152Y-117915457D02*
X145213247Y-117839267D01*
X145213247Y-117839267D02*
X145251342Y-117801172D01*
X145251342Y-117801172D02*
X145327533Y-117763076D01*
X145327533Y-117763076D02*
X145403723Y-117763076D01*
X145403723Y-117763076D02*
X145479914Y-117801172D01*
X145479914Y-117801172D02*
X145518009Y-117839267D01*
X145518009Y-117839267D02*
X145556104Y-117915457D01*
X145556104Y-117915457D02*
X145556104Y-118105934D01*
X145556104Y-118105934D02*
X145518009Y-118220219D01*
X148707972Y-114840015D02*
X148769877Y-114870967D01*
X148769877Y-114870967D02*
X148862734Y-114870967D01*
X148862734Y-114870967D02*
X148955591Y-114840015D01*
X148955591Y-114840015D02*
X149017496Y-114778110D01*
X149017496Y-114778110D02*
X149048449Y-114716205D01*
X149048449Y-114716205D02*
X149079401Y-114592396D01*
X149079401Y-114592396D02*
X149079401Y-114499539D01*
X149079401Y-114499539D02*
X149048449Y-114375729D01*
X149048449Y-114375729D02*
X149017496Y-114313824D01*
X149017496Y-114313824D02*
X148955591Y-114251920D01*
X148955591Y-114251920D02*
X148862734Y-114220967D01*
X148862734Y-114220967D02*
X148800830Y-114220967D01*
X148800830Y-114220967D02*
X148707972Y-114251920D01*
X148707972Y-114251920D02*
X148677020Y-114282872D01*
X148677020Y-114282872D02*
X148677020Y-114499539D01*
X148677020Y-114499539D02*
X148800830Y-114499539D01*
X148398449Y-114220967D02*
X148398449Y-114870967D01*
X148398449Y-114870967D02*
X148027020Y-114220967D01*
X148027020Y-114220967D02*
X148027020Y-114870967D01*
X147717497Y-114220967D02*
X147717497Y-114870967D01*
X147717497Y-114870967D02*
X147562735Y-114870967D01*
X147562735Y-114870967D02*
X147469878Y-114840015D01*
X147469878Y-114840015D02*
X147407973Y-114778110D01*
X147407973Y-114778110D02*
X147377020Y-114716205D01*
X147377020Y-114716205D02*
X147346068Y-114592396D01*
X147346068Y-114592396D02*
X147346068Y-114499539D01*
X147346068Y-114499539D02*
X147377020Y-114375729D01*
X147377020Y-114375729D02*
X147407973Y-114313824D01*
X147407973Y-114313824D02*
X147469878Y-114251920D01*
X147469878Y-114251920D02*
X147562735Y-114220967D01*
X147562735Y-114220967D02*
X147717497Y-114220967D01*
X140004401Y-121217791D02*
X139694877Y-121217791D01*
X140066306Y-121032077D02*
X139849639Y-121682077D01*
X139849639Y-121682077D02*
X139632972Y-121032077D01*
X139416306Y-121032077D02*
X139416306Y-121682077D01*
X139416306Y-121682077D02*
X139044877Y-121032077D01*
X139044877Y-121032077D02*
X139044877Y-121682077D01*
X138828211Y-121682077D02*
X138456782Y-121682077D01*
X138642496Y-121032077D02*
X138642496Y-121682077D01*
X140154972Y-109778795D02*
X140216877Y-109809747D01*
X140216877Y-109809747D02*
X140309734Y-109809747D01*
X140309734Y-109809747D02*
X140402591Y-109778795D01*
X140402591Y-109778795D02*
X140464496Y-109716890D01*
X140464496Y-109716890D02*
X140495449Y-109654985D01*
X140495449Y-109654985D02*
X140526401Y-109531176D01*
X140526401Y-109531176D02*
X140526401Y-109438319D01*
X140526401Y-109438319D02*
X140495449Y-109314509D01*
X140495449Y-109314509D02*
X140464496Y-109252604D01*
X140464496Y-109252604D02*
X140402591Y-109190700D01*
X140402591Y-109190700D02*
X140309734Y-109159747D01*
X140309734Y-109159747D02*
X140247830Y-109159747D01*
X140247830Y-109159747D02*
X140154972Y-109190700D01*
X140154972Y-109190700D02*
X140124020Y-109221652D01*
X140124020Y-109221652D02*
X140124020Y-109438319D01*
X140124020Y-109438319D02*
X140247830Y-109438319D01*
X139845449Y-109159747D02*
X139845449Y-109809747D01*
X139845449Y-109809747D02*
X139690687Y-109809747D01*
X139690687Y-109809747D02*
X139597830Y-109778795D01*
X139597830Y-109778795D02*
X139535925Y-109716890D01*
X139535925Y-109716890D02*
X139504972Y-109654985D01*
X139504972Y-109654985D02*
X139474020Y-109531176D01*
X139474020Y-109531176D02*
X139474020Y-109438319D01*
X139474020Y-109438319D02*
X139504972Y-109314509D01*
X139504972Y-109314509D02*
X139535925Y-109252604D01*
X139535925Y-109252604D02*
X139597830Y-109190700D01*
X139597830Y-109190700D02*
X139690687Y-109159747D01*
X139690687Y-109159747D02*
X139845449Y-109159747D01*
X139071639Y-109809747D02*
X139009734Y-109809747D01*
X139009734Y-109809747D02*
X138947830Y-109778795D01*
X138947830Y-109778795D02*
X138916877Y-109747842D01*
X138916877Y-109747842D02*
X138885925Y-109685938D01*
X138885925Y-109685938D02*
X138854972Y-109562128D01*
X138854972Y-109562128D02*
X138854972Y-109407366D01*
X138854972Y-109407366D02*
X138885925Y-109283557D01*
X138885925Y-109283557D02*
X138916877Y-109221652D01*
X138916877Y-109221652D02*
X138947830Y-109190700D01*
X138947830Y-109190700D02*
X139009734Y-109159747D01*
X139009734Y-109159747D02*
X139071639Y-109159747D01*
X139071639Y-109159747D02*
X139133544Y-109190700D01*
X139133544Y-109190700D02*
X139164496Y-109221652D01*
X139164496Y-109221652D02*
X139195449Y-109283557D01*
X139195449Y-109283557D02*
X139226401Y-109407366D01*
X139226401Y-109407366D02*
X139226401Y-109562128D01*
X139226401Y-109562128D02*
X139195449Y-109685938D01*
X139195449Y-109685938D02*
X139164496Y-109747842D01*
X139164496Y-109747842D02*
X139133544Y-109778795D01*
X139133544Y-109778795D02*
X139071639Y-109809747D01*
X138452591Y-109809747D02*
X138390686Y-109809747D01*
X138390686Y-109809747D02*
X138328782Y-109778795D01*
X138328782Y-109778795D02*
X138297829Y-109747842D01*
X138297829Y-109747842D02*
X138266877Y-109685938D01*
X138266877Y-109685938D02*
X138235924Y-109562128D01*
X138235924Y-109562128D02*
X138235924Y-109407366D01*
X138235924Y-109407366D02*
X138266877Y-109283557D01*
X138266877Y-109283557D02*
X138297829Y-109221652D01*
X138297829Y-109221652D02*
X138328782Y-109190700D01*
X138328782Y-109190700D02*
X138390686Y-109159747D01*
X138390686Y-109159747D02*
X138452591Y-109159747D01*
X138452591Y-109159747D02*
X138514496Y-109190700D01*
X138514496Y-109190700D02*
X138545448Y-109221652D01*
X138545448Y-109221652D02*
X138576401Y-109283557D01*
X138576401Y-109283557D02*
X138607353Y-109407366D01*
X138607353Y-109407366D02*
X138607353Y-109562128D01*
X138607353Y-109562128D02*
X138576401Y-109685938D01*
X138576401Y-109685938D02*
X138545448Y-109747842D01*
X138545448Y-109747842D02*
X138514496Y-109778795D01*
X138514496Y-109778795D02*
X138452591Y-109809747D01*
X142781449Y-110429747D02*
X142781449Y-111079747D01*
X142781449Y-111079747D02*
X142564782Y-110615461D01*
X142564782Y-110615461D02*
X142348115Y-111079747D01*
X142348115Y-111079747D02*
X142348115Y-110429747D01*
X142038592Y-110429747D02*
X142038592Y-111079747D01*
X141760020Y-110460700D02*
X141667163Y-110429747D01*
X141667163Y-110429747D02*
X141512401Y-110429747D01*
X141512401Y-110429747D02*
X141450496Y-110460700D01*
X141450496Y-110460700D02*
X141419544Y-110491652D01*
X141419544Y-110491652D02*
X141388591Y-110553557D01*
X141388591Y-110553557D02*
X141388591Y-110615461D01*
X141388591Y-110615461D02*
X141419544Y-110677366D01*
X141419544Y-110677366D02*
X141450496Y-110708319D01*
X141450496Y-110708319D02*
X141512401Y-110739271D01*
X141512401Y-110739271D02*
X141636210Y-110770223D01*
X141636210Y-110770223D02*
X141698115Y-110801176D01*
X141698115Y-110801176D02*
X141729068Y-110832128D01*
X141729068Y-110832128D02*
X141760020Y-110894033D01*
X141760020Y-110894033D02*
X141760020Y-110955938D01*
X141760020Y-110955938D02*
X141729068Y-111017842D01*
X141729068Y-111017842D02*
X141698115Y-111048795D01*
X141698115Y-111048795D02*
X141636210Y-111079747D01*
X141636210Y-111079747D02*
X141481449Y-111079747D01*
X141481449Y-111079747D02*
X141388591Y-111048795D01*
X140986210Y-111079747D02*
X140862401Y-111079747D01*
X140862401Y-111079747D02*
X140800496Y-111048795D01*
X140800496Y-111048795D02*
X140738591Y-110986890D01*
X140738591Y-110986890D02*
X140707639Y-110863080D01*
X140707639Y-110863080D02*
X140707639Y-110646414D01*
X140707639Y-110646414D02*
X140738591Y-110522604D01*
X140738591Y-110522604D02*
X140800496Y-110460700D01*
X140800496Y-110460700D02*
X140862401Y-110429747D01*
X140862401Y-110429747D02*
X140986210Y-110429747D01*
X140986210Y-110429747D02*
X141048115Y-110460700D01*
X141048115Y-110460700D02*
X141110020Y-110522604D01*
X141110020Y-110522604D02*
X141140972Y-110646414D01*
X141140972Y-110646414D02*
X141140972Y-110863080D01*
X141140972Y-110863080D02*
X141110020Y-110986890D01*
X141110020Y-110986890D02*
X141048115Y-111048795D01*
X141048115Y-111048795D02*
X140986210Y-111079747D01*
X139964782Y-111110700D02*
X140521925Y-110274985D01*
X139407639Y-111048795D02*
X139469544Y-111079747D01*
X139469544Y-111079747D02*
X139562401Y-111079747D01*
X139562401Y-111079747D02*
X139655258Y-111048795D01*
X139655258Y-111048795D02*
X139717163Y-110986890D01*
X139717163Y-110986890D02*
X139748116Y-110924985D01*
X139748116Y-110924985D02*
X139779068Y-110801176D01*
X139779068Y-110801176D02*
X139779068Y-110708319D01*
X139779068Y-110708319D02*
X139748116Y-110584509D01*
X139748116Y-110584509D02*
X139717163Y-110522604D01*
X139717163Y-110522604D02*
X139655258Y-110460700D01*
X139655258Y-110460700D02*
X139562401Y-110429747D01*
X139562401Y-110429747D02*
X139500497Y-110429747D01*
X139500497Y-110429747D02*
X139407639Y-110460700D01*
X139407639Y-110460700D02*
X139376687Y-110491652D01*
X139376687Y-110491652D02*
X139376687Y-110708319D01*
X139376687Y-110708319D02*
X139500497Y-110708319D01*
X139098116Y-110429747D02*
X139098116Y-111079747D01*
X139098116Y-111079747D02*
X138943354Y-111079747D01*
X138943354Y-111079747D02*
X138850497Y-111048795D01*
X138850497Y-111048795D02*
X138788592Y-110986890D01*
X138788592Y-110986890D02*
X138757639Y-110924985D01*
X138757639Y-110924985D02*
X138726687Y-110801176D01*
X138726687Y-110801176D02*
X138726687Y-110708319D01*
X138726687Y-110708319D02*
X138757639Y-110584509D01*
X138757639Y-110584509D02*
X138788592Y-110522604D01*
X138788592Y-110522604D02*
X138850497Y-110460700D01*
X138850497Y-110460700D02*
X138943354Y-110429747D01*
X138943354Y-110429747D02*
X139098116Y-110429747D01*
X138324306Y-111079747D02*
X138262401Y-111079747D01*
X138262401Y-111079747D02*
X138200497Y-111048795D01*
X138200497Y-111048795D02*
X138169544Y-111017842D01*
X138169544Y-111017842D02*
X138138592Y-110955938D01*
X138138592Y-110955938D02*
X138107639Y-110832128D01*
X138107639Y-110832128D02*
X138107639Y-110677366D01*
X138107639Y-110677366D02*
X138138592Y-110553557D01*
X138138592Y-110553557D02*
X138169544Y-110491652D01*
X138169544Y-110491652D02*
X138200497Y-110460700D01*
X138200497Y-110460700D02*
X138262401Y-110429747D01*
X138262401Y-110429747D02*
X138324306Y-110429747D01*
X138324306Y-110429747D02*
X138386211Y-110460700D01*
X138386211Y-110460700D02*
X138417163Y-110491652D01*
X138417163Y-110491652D02*
X138448116Y-110553557D01*
X138448116Y-110553557D02*
X138479068Y-110677366D01*
X138479068Y-110677366D02*
X138479068Y-110832128D01*
X138479068Y-110832128D02*
X138448116Y-110955938D01*
X138448116Y-110955938D02*
X138417163Y-111017842D01*
X138417163Y-111017842D02*
X138386211Y-111048795D01*
X138386211Y-111048795D02*
X138324306Y-111079747D01*
X137488591Y-110429747D02*
X137860020Y-110429747D01*
X137674306Y-110429747D02*
X137674306Y-111079747D01*
X137674306Y-111079747D02*
X137736210Y-110986890D01*
X137736210Y-110986890D02*
X137798115Y-110924985D01*
X137798115Y-110924985D02*
X137860020Y-110894033D01*
X149028449Y-106608747D02*
X149028449Y-107258747D01*
X149028449Y-107258747D02*
X148657020Y-106608747D01*
X148657020Y-106608747D02*
X148657020Y-107258747D01*
X147976068Y-106670652D02*
X148007020Y-106639700D01*
X148007020Y-106639700D02*
X148099878Y-106608747D01*
X148099878Y-106608747D02*
X148161782Y-106608747D01*
X148161782Y-106608747D02*
X148254639Y-106639700D01*
X148254639Y-106639700D02*
X148316544Y-106701604D01*
X148316544Y-106701604D02*
X148347497Y-106763509D01*
X148347497Y-106763509D02*
X148378449Y-106887319D01*
X148378449Y-106887319D02*
X148378449Y-106980176D01*
X148378449Y-106980176D02*
X148347497Y-107103985D01*
X148347497Y-107103985D02*
X148316544Y-107165890D01*
X148316544Y-107165890D02*
X148254639Y-107227795D01*
X148254639Y-107227795D02*
X148161782Y-107258747D01*
X148161782Y-107258747D02*
X148099878Y-107258747D01*
X148099878Y-107258747D02*
X148007020Y-107227795D01*
X148007020Y-107227795D02*
X147976068Y-107196842D01*
D10*
X114292380Y-116945580D02*
X114244761Y-116993200D01*
X114244761Y-116993200D02*
X114101904Y-117040819D01*
X114101904Y-117040819D02*
X114006666Y-117040819D01*
X114006666Y-117040819D02*
X113863809Y-116993200D01*
X113863809Y-116993200D02*
X113768571Y-116897961D01*
X113768571Y-116897961D02*
X113720952Y-116802723D01*
X113720952Y-116802723D02*
X113673333Y-116612247D01*
X113673333Y-116612247D02*
X113673333Y-116469390D01*
X113673333Y-116469390D02*
X113720952Y-116278914D01*
X113720952Y-116278914D02*
X113768571Y-116183676D01*
X113768571Y-116183676D02*
X113863809Y-116088438D01*
X113863809Y-116088438D02*
X114006666Y-116040819D01*
X114006666Y-116040819D02*
X114101904Y-116040819D01*
X114101904Y-116040819D02*
X114244761Y-116088438D01*
X114244761Y-116088438D02*
X114292380Y-116136057D01*
X114625714Y-116040819D02*
X115244761Y-116040819D01*
X115244761Y-116040819D02*
X114911428Y-116421771D01*
X114911428Y-116421771D02*
X115054285Y-116421771D01*
X115054285Y-116421771D02*
X115149523Y-116469390D01*
X115149523Y-116469390D02*
X115197142Y-116517009D01*
X115197142Y-116517009D02*
X115244761Y-116612247D01*
X115244761Y-116612247D02*
X115244761Y-116850342D01*
X115244761Y-116850342D02*
X115197142Y-116945580D01*
X115197142Y-116945580D02*
X115149523Y-116993200D01*
X115149523Y-116993200D02*
X115054285Y-117040819D01*
X115054285Y-117040819D02*
X114768571Y-117040819D01*
X114768571Y-117040819D02*
X114673333Y-116993200D01*
X114673333Y-116993200D02*
X114625714Y-116945580D01*
X115435238Y-117136057D02*
X116197142Y-117136057D01*
X116959047Y-116088438D02*
X116863809Y-116040819D01*
X116863809Y-116040819D02*
X116720952Y-116040819D01*
X116720952Y-116040819D02*
X116578095Y-116088438D01*
X116578095Y-116088438D02*
X116482857Y-116183676D01*
X116482857Y-116183676D02*
X116435238Y-116278914D01*
X116435238Y-116278914D02*
X116387619Y-116469390D01*
X116387619Y-116469390D02*
X116387619Y-116612247D01*
X116387619Y-116612247D02*
X116435238Y-116802723D01*
X116435238Y-116802723D02*
X116482857Y-116897961D01*
X116482857Y-116897961D02*
X116578095Y-116993200D01*
X116578095Y-116993200D02*
X116720952Y-117040819D01*
X116720952Y-117040819D02*
X116816190Y-117040819D01*
X116816190Y-117040819D02*
X116959047Y-116993200D01*
X116959047Y-116993200D02*
X117006666Y-116945580D01*
X117006666Y-116945580D02*
X117006666Y-116612247D01*
X117006666Y-116612247D02*
X116816190Y-116612247D01*
X117435238Y-117040819D02*
X117435238Y-116040819D01*
X117435238Y-116040819D02*
X118006666Y-117040819D01*
X118006666Y-117040819D02*
X118006666Y-116040819D01*
X118482857Y-117040819D02*
X118482857Y-116040819D01*
X118482857Y-116040819D02*
X118720952Y-116040819D01*
X118720952Y-116040819D02*
X118863809Y-116088438D01*
X118863809Y-116088438D02*
X118959047Y-116183676D01*
X118959047Y-116183676D02*
X119006666Y-116278914D01*
X119006666Y-116278914D02*
X119054285Y-116469390D01*
X119054285Y-116469390D02*
X119054285Y-116612247D01*
X119054285Y-116612247D02*
X119006666Y-116802723D01*
X119006666Y-116802723D02*
X118959047Y-116897961D01*
X118959047Y-116897961D02*
X118863809Y-116993200D01*
X118863809Y-116993200D02*
X118720952Y-117040819D01*
X118720952Y-117040819D02*
X118482857Y-117040819D01*
X120006666Y-117040819D02*
X119435238Y-117040819D01*
X119720952Y-117040819D02*
X119720952Y-116040819D01*
X119720952Y-116040819D02*
X119625714Y-116183676D01*
X119625714Y-116183676D02*
X119530476Y-116278914D01*
X119530476Y-116278914D02*
X119435238Y-116326533D01*
X95877142Y-102562819D02*
X95543809Y-102086628D01*
X95305714Y-102562819D02*
X95305714Y-101562819D01*
X95305714Y-101562819D02*
X95686666Y-101562819D01*
X95686666Y-101562819D02*
X95781904Y-101610438D01*
X95781904Y-101610438D02*
X95829523Y-101658057D01*
X95829523Y-101658057D02*
X95877142Y-101753295D01*
X95877142Y-101753295D02*
X95877142Y-101896152D01*
X95877142Y-101896152D02*
X95829523Y-101991390D01*
X95829523Y-101991390D02*
X95781904Y-102039009D01*
X95781904Y-102039009D02*
X95686666Y-102086628D01*
X95686666Y-102086628D02*
X95305714Y-102086628D01*
X96210476Y-101562819D02*
X96877142Y-102562819D01*
X96877142Y-101562819D02*
X96210476Y-102562819D01*
X97448571Y-101562819D02*
X97543809Y-101562819D01*
X97543809Y-101562819D02*
X97639047Y-101610438D01*
X97639047Y-101610438D02*
X97686666Y-101658057D01*
X97686666Y-101658057D02*
X97734285Y-101753295D01*
X97734285Y-101753295D02*
X97781904Y-101943771D01*
X97781904Y-101943771D02*
X97781904Y-102181866D01*
X97781904Y-102181866D02*
X97734285Y-102372342D01*
X97734285Y-102372342D02*
X97686666Y-102467580D01*
X97686666Y-102467580D02*
X97639047Y-102515200D01*
X97639047Y-102515200D02*
X97543809Y-102562819D01*
X97543809Y-102562819D02*
X97448571Y-102562819D01*
X97448571Y-102562819D02*
X97353333Y-102515200D01*
X97353333Y-102515200D02*
X97305714Y-102467580D01*
X97305714Y-102467580D02*
X97258095Y-102372342D01*
X97258095Y-102372342D02*
X97210476Y-102181866D01*
X97210476Y-102181866D02*
X97210476Y-101943771D01*
X97210476Y-101943771D02*
X97258095Y-101753295D01*
X97258095Y-101753295D02*
X97305714Y-101658057D01*
X97305714Y-101658057D02*
X97353333Y-101610438D01*
X97353333Y-101610438D02*
X97448571Y-101562819D01*
X95281905Y-76416819D02*
X95853333Y-76416819D01*
X95567619Y-77416819D02*
X95567619Y-76416819D01*
X96091429Y-76416819D02*
X96758095Y-77416819D01*
X96758095Y-76416819D02*
X96091429Y-77416819D01*
X97329524Y-76416819D02*
X97424762Y-76416819D01*
X97424762Y-76416819D02*
X97520000Y-76464438D01*
X97520000Y-76464438D02*
X97567619Y-76512057D01*
X97567619Y-76512057D02*
X97615238Y-76607295D01*
X97615238Y-76607295D02*
X97662857Y-76797771D01*
X97662857Y-76797771D02*
X97662857Y-77035866D01*
X97662857Y-77035866D02*
X97615238Y-77226342D01*
X97615238Y-77226342D02*
X97567619Y-77321580D01*
X97567619Y-77321580D02*
X97520000Y-77369200D01*
X97520000Y-77369200D02*
X97424762Y-77416819D01*
X97424762Y-77416819D02*
X97329524Y-77416819D01*
X97329524Y-77416819D02*
X97234286Y-77369200D01*
X97234286Y-77369200D02*
X97186667Y-77321580D01*
X97186667Y-77321580D02*
X97139048Y-77226342D01*
X97139048Y-77226342D02*
X97091429Y-77035866D01*
X97091429Y-77035866D02*
X97091429Y-76797771D01*
X97091429Y-76797771D02*
X97139048Y-76607295D01*
X97139048Y-76607295D02*
X97186667Y-76512057D01*
X97186667Y-76512057D02*
X97234286Y-76464438D01*
X97234286Y-76464438D02*
X97329524Y-76416819D01*
X114316190Y-121565200D02*
X114459047Y-121612819D01*
X114459047Y-121612819D02*
X114697142Y-121612819D01*
X114697142Y-121612819D02*
X114792380Y-121565200D01*
X114792380Y-121565200D02*
X114839999Y-121517580D01*
X114839999Y-121517580D02*
X114887618Y-121422342D01*
X114887618Y-121422342D02*
X114887618Y-121327104D01*
X114887618Y-121327104D02*
X114839999Y-121231866D01*
X114839999Y-121231866D02*
X114792380Y-121184247D01*
X114792380Y-121184247D02*
X114697142Y-121136628D01*
X114697142Y-121136628D02*
X114506666Y-121089009D01*
X114506666Y-121089009D02*
X114411428Y-121041390D01*
X114411428Y-121041390D02*
X114363809Y-120993771D01*
X114363809Y-120993771D02*
X114316190Y-120898533D01*
X114316190Y-120898533D02*
X114316190Y-120803295D01*
X114316190Y-120803295D02*
X114363809Y-120708057D01*
X114363809Y-120708057D02*
X114411428Y-120660438D01*
X114411428Y-120660438D02*
X114506666Y-120612819D01*
X114506666Y-120612819D02*
X114744761Y-120612819D01*
X114744761Y-120612819D02*
X114887618Y-120660438D01*
X115220952Y-120612819D02*
X115839999Y-120612819D01*
X115839999Y-120612819D02*
X115506666Y-120993771D01*
X115506666Y-120993771D02*
X115649523Y-120993771D01*
X115649523Y-120993771D02*
X115744761Y-121041390D01*
X115744761Y-121041390D02*
X115792380Y-121089009D01*
X115792380Y-121089009D02*
X115839999Y-121184247D01*
X115839999Y-121184247D02*
X115839999Y-121422342D01*
X115839999Y-121422342D02*
X115792380Y-121517580D01*
X115792380Y-121517580D02*
X115744761Y-121565200D01*
X115744761Y-121565200D02*
X115649523Y-121612819D01*
X115649523Y-121612819D02*
X115363809Y-121612819D01*
X115363809Y-121612819D02*
X115268571Y-121565200D01*
X115268571Y-121565200D02*
X115220952Y-121517580D01*
X116030476Y-121708057D02*
X116792380Y-121708057D01*
X116935238Y-120612819D02*
X117554285Y-120612819D01*
X117554285Y-120612819D02*
X117220952Y-120993771D01*
X117220952Y-120993771D02*
X117363809Y-120993771D01*
X117363809Y-120993771D02*
X117459047Y-121041390D01*
X117459047Y-121041390D02*
X117506666Y-121089009D01*
X117506666Y-121089009D02*
X117554285Y-121184247D01*
X117554285Y-121184247D02*
X117554285Y-121422342D01*
X117554285Y-121422342D02*
X117506666Y-121517580D01*
X117506666Y-121517580D02*
X117459047Y-121565200D01*
X117459047Y-121565200D02*
X117363809Y-121612819D01*
X117363809Y-121612819D02*
X117078095Y-121612819D01*
X117078095Y-121612819D02*
X116982857Y-121565200D01*
X116982857Y-121565200D02*
X116935238Y-121517580D01*
X117840000Y-120612819D02*
X118173333Y-121612819D01*
X118173333Y-121612819D02*
X118506666Y-120612819D01*
X118744762Y-120612819D02*
X119363809Y-120612819D01*
X119363809Y-120612819D02*
X119030476Y-120993771D01*
X119030476Y-120993771D02*
X119173333Y-120993771D01*
X119173333Y-120993771D02*
X119268571Y-121041390D01*
X119268571Y-121041390D02*
X119316190Y-121089009D01*
X119316190Y-121089009D02*
X119363809Y-121184247D01*
X119363809Y-121184247D02*
X119363809Y-121422342D01*
X119363809Y-121422342D02*
X119316190Y-121517580D01*
X119316190Y-121517580D02*
X119268571Y-121565200D01*
X119268571Y-121565200D02*
X119173333Y-121612819D01*
X119173333Y-121612819D02*
X118887619Y-121612819D01*
X118887619Y-121612819D02*
X118792381Y-121565200D01*
X118792381Y-121565200D02*
X118744762Y-121517580D01*
X152056333Y-100435580D02*
X152008714Y-100483200D01*
X152008714Y-100483200D02*
X151865857Y-100530819D01*
X151865857Y-100530819D02*
X151770619Y-100530819D01*
X151770619Y-100530819D02*
X151627762Y-100483200D01*
X151627762Y-100483200D02*
X151532524Y-100387961D01*
X151532524Y-100387961D02*
X151484905Y-100292723D01*
X151484905Y-100292723D02*
X151437286Y-100102247D01*
X151437286Y-100102247D02*
X151437286Y-99959390D01*
X151437286Y-99959390D02*
X151484905Y-99768914D01*
X151484905Y-99768914D02*
X151532524Y-99673676D01*
X151532524Y-99673676D02*
X151627762Y-99578438D01*
X151627762Y-99578438D02*
X151770619Y-99530819D01*
X151770619Y-99530819D02*
X151865857Y-99530819D01*
X151865857Y-99530819D02*
X152008714Y-99578438D01*
X152008714Y-99578438D02*
X152056333Y-99626057D01*
X153008714Y-100530819D02*
X152437286Y-100530819D01*
X152723000Y-100530819D02*
X152723000Y-99530819D01*
X152723000Y-99530819D02*
X152627762Y-99673676D01*
X152627762Y-99673676D02*
X152532524Y-99768914D01*
X152532524Y-99768914D02*
X152437286Y-99816533D01*
X146250819Y-77822357D02*
X145774628Y-78155690D01*
X146250819Y-78393785D02*
X145250819Y-78393785D01*
X145250819Y-78393785D02*
X145250819Y-78012833D01*
X145250819Y-78012833D02*
X145298438Y-77917595D01*
X145298438Y-77917595D02*
X145346057Y-77869976D01*
X145346057Y-77869976D02*
X145441295Y-77822357D01*
X145441295Y-77822357D02*
X145584152Y-77822357D01*
X145584152Y-77822357D02*
X145679390Y-77869976D01*
X145679390Y-77869976D02*
X145727009Y-77917595D01*
X145727009Y-77917595D02*
X145774628Y-78012833D01*
X145774628Y-78012833D02*
X145774628Y-78393785D01*
X145250819Y-77489023D02*
X146250819Y-76822357D01*
X145250819Y-76822357D02*
X146250819Y-77489023D01*
X146250819Y-75917595D02*
X146250819Y-76489023D01*
X146250819Y-76203309D02*
X145250819Y-76203309D01*
X145250819Y-76203309D02*
X145393676Y-76298547D01*
X145393676Y-76298547D02*
X145488914Y-76393785D01*
X145488914Y-76393785D02*
X145536533Y-76489023D01*
X96974819Y-117514666D02*
X96498628Y-117847999D01*
X96974819Y-118086094D02*
X95974819Y-118086094D01*
X95974819Y-118086094D02*
X95974819Y-117705142D01*
X95974819Y-117705142D02*
X96022438Y-117609904D01*
X96022438Y-117609904D02*
X96070057Y-117562285D01*
X96070057Y-117562285D02*
X96165295Y-117514666D01*
X96165295Y-117514666D02*
X96308152Y-117514666D01*
X96308152Y-117514666D02*
X96403390Y-117562285D01*
X96403390Y-117562285D02*
X96451009Y-117609904D01*
X96451009Y-117609904D02*
X96498628Y-117705142D01*
X96498628Y-117705142D02*
X96498628Y-118086094D01*
X96070057Y-117133713D02*
X96022438Y-117086094D01*
X96022438Y-117086094D02*
X95974819Y-116990856D01*
X95974819Y-116990856D02*
X95974819Y-116752761D01*
X95974819Y-116752761D02*
X96022438Y-116657523D01*
X96022438Y-116657523D02*
X96070057Y-116609904D01*
X96070057Y-116609904D02*
X96165295Y-116562285D01*
X96165295Y-116562285D02*
X96260533Y-116562285D01*
X96260533Y-116562285D02*
X96403390Y-116609904D01*
X96403390Y-116609904D02*
X96974819Y-117181332D01*
X96974819Y-117181332D02*
X96974819Y-116562285D01*
X151185920Y-73139994D02*
X151185920Y-72139994D01*
X151185920Y-72616184D02*
X151757348Y-72616184D01*
X151757348Y-73139994D02*
X151757348Y-72139994D01*
X152662110Y-72473327D02*
X152662110Y-73139994D01*
X152424015Y-72092375D02*
X152185920Y-72806660D01*
X152185920Y-72806660D02*
X152804967Y-72806660D01*
X109325580Y-99504094D02*
X109373200Y-99551713D01*
X109373200Y-99551713D02*
X109420819Y-99694570D01*
X109420819Y-99694570D02*
X109420819Y-99789808D01*
X109420819Y-99789808D02*
X109373200Y-99932665D01*
X109373200Y-99932665D02*
X109277961Y-100027903D01*
X109277961Y-100027903D02*
X109182723Y-100075522D01*
X109182723Y-100075522D02*
X108992247Y-100123141D01*
X108992247Y-100123141D02*
X108849390Y-100123141D01*
X108849390Y-100123141D02*
X108658914Y-100075522D01*
X108658914Y-100075522D02*
X108563676Y-100027903D01*
X108563676Y-100027903D02*
X108468438Y-99932665D01*
X108468438Y-99932665D02*
X108420819Y-99789808D01*
X108420819Y-99789808D02*
X108420819Y-99694570D01*
X108420819Y-99694570D02*
X108468438Y-99551713D01*
X108468438Y-99551713D02*
X108516057Y-99504094D01*
X108420819Y-99170760D02*
X108420819Y-98551713D01*
X108420819Y-98551713D02*
X108801771Y-98885046D01*
X108801771Y-98885046D02*
X108801771Y-98742189D01*
X108801771Y-98742189D02*
X108849390Y-98646951D01*
X108849390Y-98646951D02*
X108897009Y-98599332D01*
X108897009Y-98599332D02*
X108992247Y-98551713D01*
X108992247Y-98551713D02*
X109230342Y-98551713D01*
X109230342Y-98551713D02*
X109325580Y-98599332D01*
X109325580Y-98599332D02*
X109373200Y-98646951D01*
X109373200Y-98646951D02*
X109420819Y-98742189D01*
X109420819Y-98742189D02*
X109420819Y-99027903D01*
X109420819Y-99027903D02*
X109373200Y-99123141D01*
X109373200Y-99123141D02*
X109325580Y-99170760D01*
X108373200Y-97408856D02*
X109658914Y-98265998D01*
X109373200Y-97123141D02*
X109420819Y-96980284D01*
X109420819Y-96980284D02*
X109420819Y-96742189D01*
X109420819Y-96742189D02*
X109373200Y-96646951D01*
X109373200Y-96646951D02*
X109325580Y-96599332D01*
X109325580Y-96599332D02*
X109230342Y-96551713D01*
X109230342Y-96551713D02*
X109135104Y-96551713D01*
X109135104Y-96551713D02*
X109039866Y-96599332D01*
X109039866Y-96599332D02*
X108992247Y-96646951D01*
X108992247Y-96646951D02*
X108944628Y-96742189D01*
X108944628Y-96742189D02*
X108897009Y-96932665D01*
X108897009Y-96932665D02*
X108849390Y-97027903D01*
X108849390Y-97027903D02*
X108801771Y-97075522D01*
X108801771Y-97075522D02*
X108706533Y-97123141D01*
X108706533Y-97123141D02*
X108611295Y-97123141D01*
X108611295Y-97123141D02*
X108516057Y-97075522D01*
X108516057Y-97075522D02*
X108468438Y-97027903D01*
X108468438Y-97027903D02*
X108420819Y-96932665D01*
X108420819Y-96932665D02*
X108420819Y-96694570D01*
X108420819Y-96694570D02*
X108468438Y-96551713D01*
X108420819Y-96218379D02*
X108420819Y-95599332D01*
X108420819Y-95599332D02*
X108801771Y-95932665D01*
X108801771Y-95932665D02*
X108801771Y-95789808D01*
X108801771Y-95789808D02*
X108849390Y-95694570D01*
X108849390Y-95694570D02*
X108897009Y-95646951D01*
X108897009Y-95646951D02*
X108992247Y-95599332D01*
X108992247Y-95599332D02*
X109230342Y-95599332D01*
X109230342Y-95599332D02*
X109325580Y-95646951D01*
X109325580Y-95646951D02*
X109373200Y-95694570D01*
X109373200Y-95694570D02*
X109420819Y-95789808D01*
X109420819Y-95789808D02*
X109420819Y-96075522D01*
X109420819Y-96075522D02*
X109373200Y-96170760D01*
X109373200Y-96170760D02*
X109325580Y-96218379D01*
X109420819Y-95170760D02*
X108754152Y-95170760D01*
X108849390Y-95170760D02*
X108801771Y-95123141D01*
X108801771Y-95123141D02*
X108754152Y-95027903D01*
X108754152Y-95027903D02*
X108754152Y-94885046D01*
X108754152Y-94885046D02*
X108801771Y-94789808D01*
X108801771Y-94789808D02*
X108897009Y-94742189D01*
X108897009Y-94742189D02*
X109420819Y-94742189D01*
X108897009Y-94742189D02*
X108801771Y-94694570D01*
X108801771Y-94694570D02*
X108754152Y-94599332D01*
X108754152Y-94599332D02*
X108754152Y-94456475D01*
X108754152Y-94456475D02*
X108801771Y-94361236D01*
X108801771Y-94361236D02*
X108897009Y-94313617D01*
X108897009Y-94313617D02*
X109420819Y-94313617D01*
X109420819Y-93837427D02*
X108754152Y-93837427D01*
X108420819Y-93837427D02*
X108468438Y-93885046D01*
X108468438Y-93885046D02*
X108516057Y-93837427D01*
X108516057Y-93837427D02*
X108468438Y-93789808D01*
X108468438Y-93789808D02*
X108420819Y-93837427D01*
X108420819Y-93837427D02*
X108516057Y-93837427D01*
X108754152Y-93361237D02*
X109420819Y-93361237D01*
X108849390Y-93361237D02*
X108801771Y-93313618D01*
X108801771Y-93313618D02*
X108754152Y-93218380D01*
X108754152Y-93218380D02*
X108754152Y-93075523D01*
X108754152Y-93075523D02*
X108801771Y-92980285D01*
X108801771Y-92980285D02*
X108897009Y-92932666D01*
X108897009Y-92932666D02*
X109420819Y-92932666D01*
X109420819Y-92456475D02*
X108754152Y-92456475D01*
X108420819Y-92456475D02*
X108468438Y-92504094D01*
X108468438Y-92504094D02*
X108516057Y-92456475D01*
X108516057Y-92456475D02*
X108468438Y-92408856D01*
X108468438Y-92408856D02*
X108420819Y-92456475D01*
X108420819Y-92456475D02*
X108516057Y-92456475D01*
X156216819Y-94821333D02*
X156931104Y-94821333D01*
X156931104Y-94821333D02*
X157073961Y-94868952D01*
X157073961Y-94868952D02*
X157169200Y-94964190D01*
X157169200Y-94964190D02*
X157216819Y-95107047D01*
X157216819Y-95107047D02*
X157216819Y-95202285D01*
X157216819Y-93821333D02*
X157216819Y-94392761D01*
X157216819Y-94107047D02*
X156216819Y-94107047D01*
X156216819Y-94107047D02*
X156359676Y-94202285D01*
X156359676Y-94202285D02*
X156454914Y-94297523D01*
X156454914Y-94297523D02*
X156502533Y-94392761D01*
X152438819Y-85028666D02*
X151962628Y-85361999D01*
X152438819Y-85600094D02*
X151438819Y-85600094D01*
X151438819Y-85600094D02*
X151438819Y-85219142D01*
X151438819Y-85219142D02*
X151486438Y-85123904D01*
X151486438Y-85123904D02*
X151534057Y-85076285D01*
X151534057Y-85076285D02*
X151629295Y-85028666D01*
X151629295Y-85028666D02*
X151772152Y-85028666D01*
X151772152Y-85028666D02*
X151867390Y-85076285D01*
X151867390Y-85076285D02*
X151915009Y-85123904D01*
X151915009Y-85123904D02*
X151962628Y-85219142D01*
X151962628Y-85219142D02*
X151962628Y-85600094D01*
X151438819Y-84695332D02*
X151438819Y-84076285D01*
X151438819Y-84076285D02*
X151819771Y-84409618D01*
X151819771Y-84409618D02*
X151819771Y-84266761D01*
X151819771Y-84266761D02*
X151867390Y-84171523D01*
X151867390Y-84171523D02*
X151915009Y-84123904D01*
X151915009Y-84123904D02*
X152010247Y-84076285D01*
X152010247Y-84076285D02*
X152248342Y-84076285D01*
X152248342Y-84076285D02*
X152343580Y-84123904D01*
X152343580Y-84123904D02*
X152391200Y-84171523D01*
X152391200Y-84171523D02*
X152438819Y-84266761D01*
X152438819Y-84266761D02*
X152438819Y-84552475D01*
X152438819Y-84552475D02*
X152391200Y-84647713D01*
X152391200Y-84647713D02*
X152343580Y-84695332D01*
X118269143Y-122835200D02*
X118412000Y-122882819D01*
X118412000Y-122882819D02*
X118650095Y-122882819D01*
X118650095Y-122882819D02*
X118745333Y-122835200D01*
X118745333Y-122835200D02*
X118792952Y-122787580D01*
X118792952Y-122787580D02*
X118840571Y-122692342D01*
X118840571Y-122692342D02*
X118840571Y-122597104D01*
X118840571Y-122597104D02*
X118792952Y-122501866D01*
X118792952Y-122501866D02*
X118745333Y-122454247D01*
X118745333Y-122454247D02*
X118650095Y-122406628D01*
X118650095Y-122406628D02*
X118459619Y-122359009D01*
X118459619Y-122359009D02*
X118364381Y-122311390D01*
X118364381Y-122311390D02*
X118316762Y-122263771D01*
X118316762Y-122263771D02*
X118269143Y-122168533D01*
X118269143Y-122168533D02*
X118269143Y-122073295D01*
X118269143Y-122073295D02*
X118316762Y-121978057D01*
X118316762Y-121978057D02*
X118364381Y-121930438D01*
X118364381Y-121930438D02*
X118459619Y-121882819D01*
X118459619Y-121882819D02*
X118697714Y-121882819D01*
X118697714Y-121882819D02*
X118840571Y-121930438D01*
X119173905Y-121882819D02*
X119792952Y-121882819D01*
X119792952Y-121882819D02*
X119459619Y-122263771D01*
X119459619Y-122263771D02*
X119602476Y-122263771D01*
X119602476Y-122263771D02*
X119697714Y-122311390D01*
X119697714Y-122311390D02*
X119745333Y-122359009D01*
X119745333Y-122359009D02*
X119792952Y-122454247D01*
X119792952Y-122454247D02*
X119792952Y-122692342D01*
X119792952Y-122692342D02*
X119745333Y-122787580D01*
X119745333Y-122787580D02*
X119697714Y-122835200D01*
X119697714Y-122835200D02*
X119602476Y-122882819D01*
X119602476Y-122882819D02*
X119316762Y-122882819D01*
X119316762Y-122882819D02*
X119221524Y-122835200D01*
X119221524Y-122835200D02*
X119173905Y-122787580D01*
X119983429Y-122978057D02*
X120745333Y-122978057D01*
X121507238Y-121930438D02*
X121412000Y-121882819D01*
X121412000Y-121882819D02*
X121269143Y-121882819D01*
X121269143Y-121882819D02*
X121126286Y-121930438D01*
X121126286Y-121930438D02*
X121031048Y-122025676D01*
X121031048Y-122025676D02*
X120983429Y-122120914D01*
X120983429Y-122120914D02*
X120935810Y-122311390D01*
X120935810Y-122311390D02*
X120935810Y-122454247D01*
X120935810Y-122454247D02*
X120983429Y-122644723D01*
X120983429Y-122644723D02*
X121031048Y-122739961D01*
X121031048Y-122739961D02*
X121126286Y-122835200D01*
X121126286Y-122835200D02*
X121269143Y-122882819D01*
X121269143Y-122882819D02*
X121364381Y-122882819D01*
X121364381Y-122882819D02*
X121507238Y-122835200D01*
X121507238Y-122835200D02*
X121554857Y-122787580D01*
X121554857Y-122787580D02*
X121554857Y-122454247D01*
X121554857Y-122454247D02*
X121364381Y-122454247D01*
X121983429Y-122882819D02*
X121983429Y-121882819D01*
X121983429Y-121882819D02*
X122554857Y-122882819D01*
X122554857Y-122882819D02*
X122554857Y-121882819D01*
X123031048Y-122882819D02*
X123031048Y-121882819D01*
X123031048Y-121882819D02*
X123269143Y-121882819D01*
X123269143Y-121882819D02*
X123412000Y-121930438D01*
X123412000Y-121930438D02*
X123507238Y-122025676D01*
X123507238Y-122025676D02*
X123554857Y-122120914D01*
X123554857Y-122120914D02*
X123602476Y-122311390D01*
X123602476Y-122311390D02*
X123602476Y-122454247D01*
X123602476Y-122454247D02*
X123554857Y-122644723D01*
X123554857Y-122644723D02*
X123507238Y-122739961D01*
X123507238Y-122739961D02*
X123412000Y-122835200D01*
X123412000Y-122835200D02*
X123269143Y-122882819D01*
X123269143Y-122882819D02*
X123031048Y-122882819D01*
X124554857Y-122882819D02*
X123983429Y-122882819D01*
X124269143Y-122882819D02*
X124269143Y-121882819D01*
X124269143Y-121882819D02*
X124173905Y-122025676D01*
X124173905Y-122025676D02*
X124078667Y-122120914D01*
X124078667Y-122120914D02*
X123983429Y-122168533D01*
X155045580Y-110402666D02*
X155093200Y-110450285D01*
X155093200Y-110450285D02*
X155140819Y-110593142D01*
X155140819Y-110593142D02*
X155140819Y-110688380D01*
X155140819Y-110688380D02*
X155093200Y-110831237D01*
X155093200Y-110831237D02*
X154997961Y-110926475D01*
X154997961Y-110926475D02*
X154902723Y-110974094D01*
X154902723Y-110974094D02*
X154712247Y-111021713D01*
X154712247Y-111021713D02*
X154569390Y-111021713D01*
X154569390Y-111021713D02*
X154378914Y-110974094D01*
X154378914Y-110974094D02*
X154283676Y-110926475D01*
X154283676Y-110926475D02*
X154188438Y-110831237D01*
X154188438Y-110831237D02*
X154140819Y-110688380D01*
X154140819Y-110688380D02*
X154140819Y-110593142D01*
X154140819Y-110593142D02*
X154188438Y-110450285D01*
X154188438Y-110450285D02*
X154236057Y-110402666D01*
X154236057Y-110021713D02*
X154188438Y-109974094D01*
X154188438Y-109974094D02*
X154140819Y-109878856D01*
X154140819Y-109878856D02*
X154140819Y-109640761D01*
X154140819Y-109640761D02*
X154188438Y-109545523D01*
X154188438Y-109545523D02*
X154236057Y-109497904D01*
X154236057Y-109497904D02*
X154331295Y-109450285D01*
X154331295Y-109450285D02*
X154426533Y-109450285D01*
X154426533Y-109450285D02*
X154569390Y-109497904D01*
X154569390Y-109497904D02*
X155140819Y-110069332D01*
X155140819Y-110069332D02*
X155140819Y-109450285D01*
X145784819Y-85028666D02*
X145308628Y-85361999D01*
X145784819Y-85600094D02*
X144784819Y-85600094D01*
X144784819Y-85600094D02*
X144784819Y-85219142D01*
X144784819Y-85219142D02*
X144832438Y-85123904D01*
X144832438Y-85123904D02*
X144880057Y-85076285D01*
X144880057Y-85076285D02*
X144975295Y-85028666D01*
X144975295Y-85028666D02*
X145118152Y-85028666D01*
X145118152Y-85028666D02*
X145213390Y-85076285D01*
X145213390Y-85076285D02*
X145261009Y-85123904D01*
X145261009Y-85123904D02*
X145308628Y-85219142D01*
X145308628Y-85219142D02*
X145308628Y-85600094D01*
X145118152Y-84171523D02*
X145784819Y-84171523D01*
X144737200Y-84409618D02*
X145451485Y-84647713D01*
X145451485Y-84647713D02*
X145451485Y-84028666D01*
X112879428Y-88221580D02*
X112831809Y-88269200D01*
X112831809Y-88269200D02*
X112688952Y-88316819D01*
X112688952Y-88316819D02*
X112593714Y-88316819D01*
X112593714Y-88316819D02*
X112450857Y-88269200D01*
X112450857Y-88269200D02*
X112355619Y-88173961D01*
X112355619Y-88173961D02*
X112308000Y-88078723D01*
X112308000Y-88078723D02*
X112260381Y-87888247D01*
X112260381Y-87888247D02*
X112260381Y-87745390D01*
X112260381Y-87745390D02*
X112308000Y-87554914D01*
X112308000Y-87554914D02*
X112355619Y-87459676D01*
X112355619Y-87459676D02*
X112450857Y-87364438D01*
X112450857Y-87364438D02*
X112593714Y-87316819D01*
X112593714Y-87316819D02*
X112688952Y-87316819D01*
X112688952Y-87316819D02*
X112831809Y-87364438D01*
X112831809Y-87364438D02*
X112879428Y-87412057D01*
X113212762Y-87316819D02*
X113831809Y-87316819D01*
X113831809Y-87316819D02*
X113498476Y-87697771D01*
X113498476Y-87697771D02*
X113641333Y-87697771D01*
X113641333Y-87697771D02*
X113736571Y-87745390D01*
X113736571Y-87745390D02*
X113784190Y-87793009D01*
X113784190Y-87793009D02*
X113831809Y-87888247D01*
X113831809Y-87888247D02*
X113831809Y-88126342D01*
X113831809Y-88126342D02*
X113784190Y-88221580D01*
X113784190Y-88221580D02*
X113736571Y-88269200D01*
X113736571Y-88269200D02*
X113641333Y-88316819D01*
X113641333Y-88316819D02*
X113355619Y-88316819D01*
X113355619Y-88316819D02*
X113260381Y-88269200D01*
X113260381Y-88269200D02*
X113212762Y-88221580D01*
X114022286Y-88412057D02*
X114784190Y-88412057D01*
X114927048Y-87316819D02*
X115546095Y-87316819D01*
X115546095Y-87316819D02*
X115212762Y-87697771D01*
X115212762Y-87697771D02*
X115355619Y-87697771D01*
X115355619Y-87697771D02*
X115450857Y-87745390D01*
X115450857Y-87745390D02*
X115498476Y-87793009D01*
X115498476Y-87793009D02*
X115546095Y-87888247D01*
X115546095Y-87888247D02*
X115546095Y-88126342D01*
X115546095Y-88126342D02*
X115498476Y-88221580D01*
X115498476Y-88221580D02*
X115450857Y-88269200D01*
X115450857Y-88269200D02*
X115355619Y-88316819D01*
X115355619Y-88316819D02*
X115069905Y-88316819D01*
X115069905Y-88316819D02*
X114974667Y-88269200D01*
X114974667Y-88269200D02*
X114927048Y-88221580D01*
X115831810Y-87316819D02*
X116165143Y-88316819D01*
X116165143Y-88316819D02*
X116498476Y-87316819D01*
X116736572Y-87316819D02*
X117355619Y-87316819D01*
X117355619Y-87316819D02*
X117022286Y-87697771D01*
X117022286Y-87697771D02*
X117165143Y-87697771D01*
X117165143Y-87697771D02*
X117260381Y-87745390D01*
X117260381Y-87745390D02*
X117308000Y-87793009D01*
X117308000Y-87793009D02*
X117355619Y-87888247D01*
X117355619Y-87888247D02*
X117355619Y-88126342D01*
X117355619Y-88126342D02*
X117308000Y-88221580D01*
X117308000Y-88221580D02*
X117260381Y-88269200D01*
X117260381Y-88269200D02*
X117165143Y-88316819D01*
X117165143Y-88316819D02*
X116879429Y-88316819D01*
X116879429Y-88316819D02*
X116784191Y-88269200D01*
X116784191Y-88269200D02*
X116736572Y-88221580D01*
X114808095Y-73554819D02*
X114808095Y-74364342D01*
X114808095Y-74364342D02*
X114855714Y-74459580D01*
X114855714Y-74459580D02*
X114903333Y-74507200D01*
X114903333Y-74507200D02*
X114998571Y-74554819D01*
X114998571Y-74554819D02*
X115189047Y-74554819D01*
X115189047Y-74554819D02*
X115284285Y-74507200D01*
X115284285Y-74507200D02*
X115331904Y-74459580D01*
X115331904Y-74459580D02*
X115379523Y-74364342D01*
X115379523Y-74364342D02*
X115379523Y-73554819D01*
X115808095Y-73650057D02*
X115855714Y-73602438D01*
X115855714Y-73602438D02*
X115950952Y-73554819D01*
X115950952Y-73554819D02*
X116189047Y-73554819D01*
X116189047Y-73554819D02*
X116284285Y-73602438D01*
X116284285Y-73602438D02*
X116331904Y-73650057D01*
X116331904Y-73650057D02*
X116379523Y-73745295D01*
X116379523Y-73745295D02*
X116379523Y-73840533D01*
X116379523Y-73840533D02*
X116331904Y-73983390D01*
X116331904Y-73983390D02*
X115760476Y-74554819D01*
X115760476Y-74554819D02*
X116379523Y-74554819D01*
X107133333Y-134551009D02*
X107466666Y-134551009D01*
X107609523Y-135074819D02*
X107133333Y-135074819D01*
X107133333Y-135074819D02*
X107133333Y-134074819D01*
X107133333Y-134074819D02*
X107609523Y-134074819D01*
X107990476Y-135027200D02*
X108133333Y-135074819D01*
X108133333Y-135074819D02*
X108371428Y-135074819D01*
X108371428Y-135074819D02*
X108466666Y-135027200D01*
X108466666Y-135027200D02*
X108514285Y-134979580D01*
X108514285Y-134979580D02*
X108561904Y-134884342D01*
X108561904Y-134884342D02*
X108561904Y-134789104D01*
X108561904Y-134789104D02*
X108514285Y-134693866D01*
X108514285Y-134693866D02*
X108466666Y-134646247D01*
X108466666Y-134646247D02*
X108371428Y-134598628D01*
X108371428Y-134598628D02*
X108180952Y-134551009D01*
X108180952Y-134551009D02*
X108085714Y-134503390D01*
X108085714Y-134503390D02*
X108038095Y-134455771D01*
X108038095Y-134455771D02*
X107990476Y-134360533D01*
X107990476Y-134360533D02*
X107990476Y-134265295D01*
X107990476Y-134265295D02*
X108038095Y-134170057D01*
X108038095Y-134170057D02*
X108085714Y-134122438D01*
X108085714Y-134122438D02*
X108180952Y-134074819D01*
X108180952Y-134074819D02*
X108419047Y-134074819D01*
X108419047Y-134074819D02*
X108561904Y-134122438D01*
X108990476Y-135074819D02*
X108990476Y-134074819D01*
X108990476Y-134074819D02*
X109371428Y-134074819D01*
X109371428Y-134074819D02*
X109466666Y-134122438D01*
X109466666Y-134122438D02*
X109514285Y-134170057D01*
X109514285Y-134170057D02*
X109561904Y-134265295D01*
X109561904Y-134265295D02*
X109561904Y-134408152D01*
X109561904Y-134408152D02*
X109514285Y-134503390D01*
X109514285Y-134503390D02*
X109466666Y-134551009D01*
X109466666Y-134551009D02*
X109371428Y-134598628D01*
X109371428Y-134598628D02*
X108990476Y-134598628D01*
X109895238Y-134074819D02*
X110514285Y-134074819D01*
X110514285Y-134074819D02*
X110180952Y-134455771D01*
X110180952Y-134455771D02*
X110323809Y-134455771D01*
X110323809Y-134455771D02*
X110419047Y-134503390D01*
X110419047Y-134503390D02*
X110466666Y-134551009D01*
X110466666Y-134551009D02*
X110514285Y-134646247D01*
X110514285Y-134646247D02*
X110514285Y-134884342D01*
X110514285Y-134884342D02*
X110466666Y-134979580D01*
X110466666Y-134979580D02*
X110419047Y-135027200D01*
X110419047Y-135027200D02*
X110323809Y-135074819D01*
X110323809Y-135074819D02*
X110038095Y-135074819D01*
X110038095Y-135074819D02*
X109942857Y-135027200D01*
X109942857Y-135027200D02*
X109895238Y-134979580D01*
X110895238Y-134170057D02*
X110942857Y-134122438D01*
X110942857Y-134122438D02*
X111038095Y-134074819D01*
X111038095Y-134074819D02*
X111276190Y-134074819D01*
X111276190Y-134074819D02*
X111371428Y-134122438D01*
X111371428Y-134122438D02*
X111419047Y-134170057D01*
X111419047Y-134170057D02*
X111466666Y-134265295D01*
X111466666Y-134265295D02*
X111466666Y-134360533D01*
X111466666Y-134360533D02*
X111419047Y-134503390D01*
X111419047Y-134503390D02*
X110847619Y-135074819D01*
X110847619Y-135074819D02*
X111466666Y-135074819D01*
X111895238Y-134693866D02*
X112657143Y-134693866D01*
X113085714Y-135027200D02*
X113228571Y-135074819D01*
X113228571Y-135074819D02*
X113466666Y-135074819D01*
X113466666Y-135074819D02*
X113561904Y-135027200D01*
X113561904Y-135027200D02*
X113609523Y-134979580D01*
X113609523Y-134979580D02*
X113657142Y-134884342D01*
X113657142Y-134884342D02*
X113657142Y-134789104D01*
X113657142Y-134789104D02*
X113609523Y-134693866D01*
X113609523Y-134693866D02*
X113561904Y-134646247D01*
X113561904Y-134646247D02*
X113466666Y-134598628D01*
X113466666Y-134598628D02*
X113276190Y-134551009D01*
X113276190Y-134551009D02*
X113180952Y-134503390D01*
X113180952Y-134503390D02*
X113133333Y-134455771D01*
X113133333Y-134455771D02*
X113085714Y-134360533D01*
X113085714Y-134360533D02*
X113085714Y-134265295D01*
X113085714Y-134265295D02*
X113133333Y-134170057D01*
X113133333Y-134170057D02*
X113180952Y-134122438D01*
X113180952Y-134122438D02*
X113276190Y-134074819D01*
X113276190Y-134074819D02*
X113514285Y-134074819D01*
X113514285Y-134074819D02*
X113657142Y-134122438D01*
X113990476Y-134074819D02*
X114609523Y-134074819D01*
X114609523Y-134074819D02*
X114276190Y-134455771D01*
X114276190Y-134455771D02*
X114419047Y-134455771D01*
X114419047Y-134455771D02*
X114514285Y-134503390D01*
X114514285Y-134503390D02*
X114561904Y-134551009D01*
X114561904Y-134551009D02*
X114609523Y-134646247D01*
X114609523Y-134646247D02*
X114609523Y-134884342D01*
X114609523Y-134884342D02*
X114561904Y-134979580D01*
X114561904Y-134979580D02*
X114514285Y-135027200D01*
X114514285Y-135027200D02*
X114419047Y-135074819D01*
X114419047Y-135074819D02*
X114133333Y-135074819D01*
X114133333Y-135074819D02*
X114038095Y-135027200D01*
X114038095Y-135027200D02*
X113990476Y-134979580D01*
X115038095Y-134693866D02*
X115800000Y-134693866D01*
X116276190Y-135074819D02*
X116276190Y-134074819D01*
X116276190Y-134074819D02*
X116514285Y-134074819D01*
X116514285Y-134074819D02*
X116657142Y-134122438D01*
X116657142Y-134122438D02*
X116752380Y-134217676D01*
X116752380Y-134217676D02*
X116799999Y-134312914D01*
X116799999Y-134312914D02*
X116847618Y-134503390D01*
X116847618Y-134503390D02*
X116847618Y-134646247D01*
X116847618Y-134646247D02*
X116799999Y-134836723D01*
X116799999Y-134836723D02*
X116752380Y-134931961D01*
X116752380Y-134931961D02*
X116657142Y-135027200D01*
X116657142Y-135027200D02*
X116514285Y-135074819D01*
X116514285Y-135074819D02*
X116276190Y-135074819D01*
X117657142Y-135027200D02*
X117561904Y-135074819D01*
X117561904Y-135074819D02*
X117371428Y-135074819D01*
X117371428Y-135074819D02*
X117276190Y-135027200D01*
X117276190Y-135027200D02*
X117228571Y-134931961D01*
X117228571Y-134931961D02*
X117228571Y-134551009D01*
X117228571Y-134551009D02*
X117276190Y-134455771D01*
X117276190Y-134455771D02*
X117371428Y-134408152D01*
X117371428Y-134408152D02*
X117561904Y-134408152D01*
X117561904Y-134408152D02*
X117657142Y-134455771D01*
X117657142Y-134455771D02*
X117704761Y-134551009D01*
X117704761Y-134551009D02*
X117704761Y-134646247D01*
X117704761Y-134646247D02*
X117228571Y-134741485D01*
X118038095Y-134408152D02*
X118276190Y-135074819D01*
X118276190Y-135074819D02*
X118514285Y-134408152D01*
X118895238Y-135074819D02*
X118895238Y-134074819D01*
X119466666Y-135074819D02*
X119038095Y-134503390D01*
X119466666Y-134074819D02*
X118895238Y-134646247D01*
X119895238Y-135074819D02*
X119895238Y-134408152D01*
X119895238Y-134074819D02*
X119847619Y-134122438D01*
X119847619Y-134122438D02*
X119895238Y-134170057D01*
X119895238Y-134170057D02*
X119942857Y-134122438D01*
X119942857Y-134122438D02*
X119895238Y-134074819D01*
X119895238Y-134074819D02*
X119895238Y-134170057D01*
X120228571Y-134408152D02*
X120609523Y-134408152D01*
X120371428Y-134074819D02*
X120371428Y-134931961D01*
X120371428Y-134931961D02*
X120419047Y-135027200D01*
X120419047Y-135027200D02*
X120514285Y-135074819D01*
X120514285Y-135074819D02*
X120609523Y-135074819D01*
X121514285Y-134979580D02*
X121466666Y-135027200D01*
X121466666Y-135027200D02*
X121323809Y-135074819D01*
X121323809Y-135074819D02*
X121228571Y-135074819D01*
X121228571Y-135074819D02*
X121085714Y-135027200D01*
X121085714Y-135027200D02*
X120990476Y-134931961D01*
X120990476Y-134931961D02*
X120942857Y-134836723D01*
X120942857Y-134836723D02*
X120895238Y-134646247D01*
X120895238Y-134646247D02*
X120895238Y-134503390D01*
X120895238Y-134503390D02*
X120942857Y-134312914D01*
X120942857Y-134312914D02*
X120990476Y-134217676D01*
X120990476Y-134217676D02*
X121085714Y-134122438D01*
X121085714Y-134122438D02*
X121228571Y-134074819D01*
X121228571Y-134074819D02*
X121323809Y-134074819D01*
X121323809Y-134074819D02*
X121466666Y-134122438D01*
X121466666Y-134122438D02*
X121514285Y-134170057D01*
X109383541Y-75728819D02*
X110002588Y-75728819D01*
X110002588Y-75728819D02*
X109669255Y-76109771D01*
X109669255Y-76109771D02*
X109812112Y-76109771D01*
X109812112Y-76109771D02*
X109907350Y-76157390D01*
X109907350Y-76157390D02*
X109954969Y-76205009D01*
X109954969Y-76205009D02*
X110002588Y-76300247D01*
X110002588Y-76300247D02*
X110002588Y-76538342D01*
X110002588Y-76538342D02*
X109954969Y-76633580D01*
X109954969Y-76633580D02*
X109907350Y-76681200D01*
X109907350Y-76681200D02*
X109812112Y-76728819D01*
X109812112Y-76728819D02*
X109526398Y-76728819D01*
X109526398Y-76728819D02*
X109431160Y-76681200D01*
X109431160Y-76681200D02*
X109383541Y-76633580D01*
X110288303Y-75728819D02*
X110621636Y-76728819D01*
X110621636Y-76728819D02*
X110954969Y-75728819D01*
X111193065Y-75728819D02*
X111812112Y-75728819D01*
X111812112Y-75728819D02*
X111478779Y-76109771D01*
X111478779Y-76109771D02*
X111621636Y-76109771D01*
X111621636Y-76109771D02*
X111716874Y-76157390D01*
X111716874Y-76157390D02*
X111764493Y-76205009D01*
X111764493Y-76205009D02*
X111812112Y-76300247D01*
X111812112Y-76300247D02*
X111812112Y-76538342D01*
X111812112Y-76538342D02*
X111764493Y-76633580D01*
X111764493Y-76633580D02*
X111716874Y-76681200D01*
X111716874Y-76681200D02*
X111621636Y-76728819D01*
X111621636Y-76728819D02*
X111335922Y-76728819D01*
X111335922Y-76728819D02*
X111240684Y-76681200D01*
X111240684Y-76681200D02*
X111193065Y-76633580D01*
X122075601Y-126502438D02*
X121980363Y-126454819D01*
X121980363Y-126454819D02*
X121837506Y-126454819D01*
X121837506Y-126454819D02*
X121694649Y-126502438D01*
X121694649Y-126502438D02*
X121599411Y-126597676D01*
X121599411Y-126597676D02*
X121551792Y-126692914D01*
X121551792Y-126692914D02*
X121504173Y-126883390D01*
X121504173Y-126883390D02*
X121504173Y-127026247D01*
X121504173Y-127026247D02*
X121551792Y-127216723D01*
X121551792Y-127216723D02*
X121599411Y-127311961D01*
X121599411Y-127311961D02*
X121694649Y-127407200D01*
X121694649Y-127407200D02*
X121837506Y-127454819D01*
X121837506Y-127454819D02*
X121932744Y-127454819D01*
X121932744Y-127454819D02*
X122075601Y-127407200D01*
X122075601Y-127407200D02*
X122123220Y-127359580D01*
X122123220Y-127359580D02*
X122123220Y-127026247D01*
X122123220Y-127026247D02*
X121932744Y-127026247D01*
X122551792Y-127454819D02*
X122551792Y-126454819D01*
X122551792Y-126454819D02*
X123123220Y-127454819D01*
X123123220Y-127454819D02*
X123123220Y-126454819D01*
X123599411Y-127454819D02*
X123599411Y-126454819D01*
X123599411Y-126454819D02*
X123837506Y-126454819D01*
X123837506Y-126454819D02*
X123980363Y-126502438D01*
X123980363Y-126502438D02*
X124075601Y-126597676D01*
X124075601Y-126597676D02*
X124123220Y-126692914D01*
X124123220Y-126692914D02*
X124170839Y-126883390D01*
X124170839Y-126883390D02*
X124170839Y-127026247D01*
X124170839Y-127026247D02*
X124123220Y-127216723D01*
X124123220Y-127216723D02*
X124075601Y-127311961D01*
X124075601Y-127311961D02*
X123980363Y-127407200D01*
X123980363Y-127407200D02*
X123837506Y-127454819D01*
X123837506Y-127454819D02*
X123599411Y-127454819D01*
X109331541Y-78214819D02*
X109950588Y-78214819D01*
X109950588Y-78214819D02*
X109617255Y-78595771D01*
X109617255Y-78595771D02*
X109760112Y-78595771D01*
X109760112Y-78595771D02*
X109855350Y-78643390D01*
X109855350Y-78643390D02*
X109902969Y-78691009D01*
X109902969Y-78691009D02*
X109950588Y-78786247D01*
X109950588Y-78786247D02*
X109950588Y-79024342D01*
X109950588Y-79024342D02*
X109902969Y-79119580D01*
X109902969Y-79119580D02*
X109855350Y-79167200D01*
X109855350Y-79167200D02*
X109760112Y-79214819D01*
X109760112Y-79214819D02*
X109474398Y-79214819D01*
X109474398Y-79214819D02*
X109379160Y-79167200D01*
X109379160Y-79167200D02*
X109331541Y-79119580D01*
X110236303Y-78214819D02*
X110569636Y-79214819D01*
X110569636Y-79214819D02*
X110902969Y-78214819D01*
X111141065Y-78214819D02*
X111760112Y-78214819D01*
X111760112Y-78214819D02*
X111426779Y-78595771D01*
X111426779Y-78595771D02*
X111569636Y-78595771D01*
X111569636Y-78595771D02*
X111664874Y-78643390D01*
X111664874Y-78643390D02*
X111712493Y-78691009D01*
X111712493Y-78691009D02*
X111760112Y-78786247D01*
X111760112Y-78786247D02*
X111760112Y-79024342D01*
X111760112Y-79024342D02*
X111712493Y-79119580D01*
X111712493Y-79119580D02*
X111664874Y-79167200D01*
X111664874Y-79167200D02*
X111569636Y-79214819D01*
X111569636Y-79214819D02*
X111283922Y-79214819D01*
X111283922Y-79214819D02*
X111188684Y-79167200D01*
X111188684Y-79167200D02*
X111141065Y-79119580D01*
X122075601Y-75702438D02*
X121980363Y-75654819D01*
X121980363Y-75654819D02*
X121837506Y-75654819D01*
X121837506Y-75654819D02*
X121694649Y-75702438D01*
X121694649Y-75702438D02*
X121599411Y-75797676D01*
X121599411Y-75797676D02*
X121551792Y-75892914D01*
X121551792Y-75892914D02*
X121504173Y-76083390D01*
X121504173Y-76083390D02*
X121504173Y-76226247D01*
X121504173Y-76226247D02*
X121551792Y-76416723D01*
X121551792Y-76416723D02*
X121599411Y-76511961D01*
X121599411Y-76511961D02*
X121694649Y-76607200D01*
X121694649Y-76607200D02*
X121837506Y-76654819D01*
X121837506Y-76654819D02*
X121932744Y-76654819D01*
X121932744Y-76654819D02*
X122075601Y-76607200D01*
X122075601Y-76607200D02*
X122123220Y-76559580D01*
X122123220Y-76559580D02*
X122123220Y-76226247D01*
X122123220Y-76226247D02*
X121932744Y-76226247D01*
X122551792Y-76654819D02*
X122551792Y-75654819D01*
X122551792Y-75654819D02*
X123123220Y-76654819D01*
X123123220Y-76654819D02*
X123123220Y-75654819D01*
X123599411Y-76654819D02*
X123599411Y-75654819D01*
X123599411Y-75654819D02*
X123837506Y-75654819D01*
X123837506Y-75654819D02*
X123980363Y-75702438D01*
X123980363Y-75702438D02*
X124075601Y-75797676D01*
X124075601Y-75797676D02*
X124123220Y-75892914D01*
X124123220Y-75892914D02*
X124170839Y-76083390D01*
X124170839Y-76083390D02*
X124170839Y-76226247D01*
X124170839Y-76226247D02*
X124123220Y-76416723D01*
X124123220Y-76416723D02*
X124075601Y-76511961D01*
X124075601Y-76511961D02*
X123980363Y-76607200D01*
X123980363Y-76607200D02*
X123837506Y-76654819D01*
X123837506Y-76654819D02*
X123599411Y-76654819D01*
X109192969Y-126528819D02*
X108716779Y-126528819D01*
X108716779Y-126528819D02*
X108669160Y-127005009D01*
X108669160Y-127005009D02*
X108716779Y-126957390D01*
X108716779Y-126957390D02*
X108812017Y-126909771D01*
X108812017Y-126909771D02*
X109050112Y-126909771D01*
X109050112Y-126909771D02*
X109145350Y-126957390D01*
X109145350Y-126957390D02*
X109192969Y-127005009D01*
X109192969Y-127005009D02*
X109240588Y-127100247D01*
X109240588Y-127100247D02*
X109240588Y-127338342D01*
X109240588Y-127338342D02*
X109192969Y-127433580D01*
X109192969Y-127433580D02*
X109145350Y-127481200D01*
X109145350Y-127481200D02*
X109050112Y-127528819D01*
X109050112Y-127528819D02*
X108812017Y-127528819D01*
X108812017Y-127528819D02*
X108716779Y-127481200D01*
X108716779Y-127481200D02*
X108669160Y-127433580D01*
X109526303Y-126528819D02*
X109859636Y-127528819D01*
X109859636Y-127528819D02*
X110192969Y-126528819D01*
X108986588Y-129116438D02*
X108891350Y-129068819D01*
X108891350Y-129068819D02*
X108748493Y-129068819D01*
X108748493Y-129068819D02*
X108605636Y-129116438D01*
X108605636Y-129116438D02*
X108510398Y-129211676D01*
X108510398Y-129211676D02*
X108462779Y-129306914D01*
X108462779Y-129306914D02*
X108415160Y-129497390D01*
X108415160Y-129497390D02*
X108415160Y-129640247D01*
X108415160Y-129640247D02*
X108462779Y-129830723D01*
X108462779Y-129830723D02*
X108510398Y-129925961D01*
X108510398Y-129925961D02*
X108605636Y-130021200D01*
X108605636Y-130021200D02*
X108748493Y-130068819D01*
X108748493Y-130068819D02*
X108843731Y-130068819D01*
X108843731Y-130068819D02*
X108986588Y-130021200D01*
X108986588Y-130021200D02*
X109034207Y-129973580D01*
X109034207Y-129973580D02*
X109034207Y-129640247D01*
X109034207Y-129640247D02*
X108843731Y-129640247D01*
X109462779Y-130068819D02*
X109462779Y-129068819D01*
X109462779Y-129068819D02*
X110034207Y-130068819D01*
X110034207Y-130068819D02*
X110034207Y-129068819D01*
X110510398Y-130068819D02*
X110510398Y-129068819D01*
X110510398Y-129068819D02*
X110748493Y-129068819D01*
X110748493Y-129068819D02*
X110891350Y-129116438D01*
X110891350Y-129116438D02*
X110986588Y-129211676D01*
X110986588Y-129211676D02*
X111034207Y-129306914D01*
X111034207Y-129306914D02*
X111081826Y-129497390D01*
X111081826Y-129497390D02*
X111081826Y-129640247D01*
X111081826Y-129640247D02*
X111034207Y-129830723D01*
X111034207Y-129830723D02*
X110986588Y-129925961D01*
X110986588Y-129925961D02*
X110891350Y-130021200D01*
X110891350Y-130021200D02*
X110748493Y-130068819D01*
X110748493Y-130068819D02*
X110510398Y-130068819D01*
X109123601Y-81285009D02*
X109456934Y-81285009D01*
X109599791Y-81808819D02*
X109123601Y-81808819D01*
X109123601Y-81808819D02*
X109123601Y-80808819D01*
X109123601Y-80808819D02*
X109599791Y-80808819D01*
X110028363Y-81808819D02*
X110028363Y-80808819D01*
X110028363Y-80808819D02*
X110599791Y-81808819D01*
X110599791Y-81808819D02*
X110599791Y-80808819D01*
X111790267Y-80761200D02*
X110933125Y-82046914D01*
X112695029Y-81808819D02*
X112361696Y-81332628D01*
X112123601Y-81808819D02*
X112123601Y-80808819D01*
X112123601Y-80808819D02*
X112504553Y-80808819D01*
X112504553Y-80808819D02*
X112599791Y-80856438D01*
X112599791Y-80856438D02*
X112647410Y-80904057D01*
X112647410Y-80904057D02*
X112695029Y-80999295D01*
X112695029Y-80999295D02*
X112695029Y-81142152D01*
X112695029Y-81142152D02*
X112647410Y-81237390D01*
X112647410Y-81237390D02*
X112599791Y-81285009D01*
X112599791Y-81285009D02*
X112504553Y-81332628D01*
X112504553Y-81332628D02*
X112123601Y-81332628D01*
X113123601Y-81285009D02*
X113456934Y-81285009D01*
X113599791Y-81808819D02*
X113123601Y-81808819D01*
X113123601Y-81808819D02*
X113123601Y-80808819D01*
X113123601Y-80808819D02*
X113599791Y-80808819D01*
X113980744Y-81761200D02*
X114123601Y-81808819D01*
X114123601Y-81808819D02*
X114361696Y-81808819D01*
X114361696Y-81808819D02*
X114456934Y-81761200D01*
X114456934Y-81761200D02*
X114504553Y-81713580D01*
X114504553Y-81713580D02*
X114552172Y-81618342D01*
X114552172Y-81618342D02*
X114552172Y-81523104D01*
X114552172Y-81523104D02*
X114504553Y-81427866D01*
X114504553Y-81427866D02*
X114456934Y-81380247D01*
X114456934Y-81380247D02*
X114361696Y-81332628D01*
X114361696Y-81332628D02*
X114171220Y-81285009D01*
X114171220Y-81285009D02*
X114075982Y-81237390D01*
X114075982Y-81237390D02*
X114028363Y-81189771D01*
X114028363Y-81189771D02*
X113980744Y-81094533D01*
X113980744Y-81094533D02*
X113980744Y-80999295D01*
X113980744Y-80999295D02*
X114028363Y-80904057D01*
X114028363Y-80904057D02*
X114075982Y-80856438D01*
X114075982Y-80856438D02*
X114171220Y-80808819D01*
X114171220Y-80808819D02*
X114409315Y-80808819D01*
X114409315Y-80808819D02*
X114552172Y-80856438D01*
X114980744Y-81285009D02*
X115314077Y-81285009D01*
X115456934Y-81808819D02*
X114980744Y-81808819D01*
X114980744Y-81808819D02*
X114980744Y-80808819D01*
X114980744Y-80808819D02*
X115456934Y-80808819D01*
X115742649Y-80808819D02*
X116314077Y-80808819D01*
X116028363Y-81808819D02*
X116028363Y-80808819D01*
X119594649Y-93592438D02*
X119499411Y-93544819D01*
X119499411Y-93544819D02*
X119356554Y-93544819D01*
X119356554Y-93544819D02*
X119213697Y-93592438D01*
X119213697Y-93592438D02*
X119118459Y-93687676D01*
X119118459Y-93687676D02*
X119070840Y-93782914D01*
X119070840Y-93782914D02*
X119023221Y-93973390D01*
X119023221Y-93973390D02*
X119023221Y-94116247D01*
X119023221Y-94116247D02*
X119070840Y-94306723D01*
X119070840Y-94306723D02*
X119118459Y-94401961D01*
X119118459Y-94401961D02*
X119213697Y-94497200D01*
X119213697Y-94497200D02*
X119356554Y-94544819D01*
X119356554Y-94544819D02*
X119451792Y-94544819D01*
X119451792Y-94544819D02*
X119594649Y-94497200D01*
X119594649Y-94497200D02*
X119642268Y-94449580D01*
X119642268Y-94449580D02*
X119642268Y-94116247D01*
X119642268Y-94116247D02*
X119451792Y-94116247D01*
X120070840Y-94544819D02*
X120070840Y-93544819D01*
X120070840Y-93544819D02*
X120451792Y-93544819D01*
X120451792Y-93544819D02*
X120547030Y-93592438D01*
X120547030Y-93592438D02*
X120594649Y-93640057D01*
X120594649Y-93640057D02*
X120642268Y-93735295D01*
X120642268Y-93735295D02*
X120642268Y-93878152D01*
X120642268Y-93878152D02*
X120594649Y-93973390D01*
X120594649Y-93973390D02*
X120547030Y-94021009D01*
X120547030Y-94021009D02*
X120451792Y-94068628D01*
X120451792Y-94068628D02*
X120070840Y-94068628D01*
X121070840Y-94544819D02*
X121070840Y-93544819D01*
X121737506Y-93544819D02*
X121927982Y-93544819D01*
X121927982Y-93544819D02*
X122023220Y-93592438D01*
X122023220Y-93592438D02*
X122118458Y-93687676D01*
X122118458Y-93687676D02*
X122166077Y-93878152D01*
X122166077Y-93878152D02*
X122166077Y-94211485D01*
X122166077Y-94211485D02*
X122118458Y-94401961D01*
X122118458Y-94401961D02*
X122023220Y-94497200D01*
X122023220Y-94497200D02*
X121927982Y-94544819D01*
X121927982Y-94544819D02*
X121737506Y-94544819D01*
X121737506Y-94544819D02*
X121642268Y-94497200D01*
X121642268Y-94497200D02*
X121547030Y-94401961D01*
X121547030Y-94401961D02*
X121499411Y-94211485D01*
X121499411Y-94211485D02*
X121499411Y-93878152D01*
X121499411Y-93878152D02*
X121547030Y-93687676D01*
X121547030Y-93687676D02*
X121642268Y-93592438D01*
X121642268Y-93592438D02*
X121737506Y-93544819D01*
X123023220Y-93878152D02*
X123023220Y-94544819D01*
X122785125Y-93497200D02*
X122547030Y-94211485D01*
X122547030Y-94211485D02*
X123166077Y-94211485D01*
X123737506Y-93544819D02*
X123832744Y-93544819D01*
X123832744Y-93544819D02*
X123927982Y-93592438D01*
X123927982Y-93592438D02*
X123975601Y-93640057D01*
X123975601Y-93640057D02*
X124023220Y-93735295D01*
X124023220Y-93735295D02*
X124070839Y-93925771D01*
X124070839Y-93925771D02*
X124070839Y-94163866D01*
X124070839Y-94163866D02*
X124023220Y-94354342D01*
X124023220Y-94354342D02*
X123975601Y-94449580D01*
X123975601Y-94449580D02*
X123927982Y-94497200D01*
X123927982Y-94497200D02*
X123832744Y-94544819D01*
X123832744Y-94544819D02*
X123737506Y-94544819D01*
X123737506Y-94544819D02*
X123642268Y-94497200D01*
X123642268Y-94497200D02*
X123594649Y-94449580D01*
X123594649Y-94449580D02*
X123547030Y-94354342D01*
X123547030Y-94354342D02*
X123499411Y-94163866D01*
X123499411Y-94163866D02*
X123499411Y-93925771D01*
X123499411Y-93925771D02*
X123547030Y-93735295D01*
X123547030Y-93735295D02*
X123594649Y-93640057D01*
X123594649Y-93640057D02*
X123642268Y-93592438D01*
X123642268Y-93592438D02*
X123737506Y-93544819D01*
X119694649Y-103642438D02*
X119599411Y-103594819D01*
X119599411Y-103594819D02*
X119456554Y-103594819D01*
X119456554Y-103594819D02*
X119313697Y-103642438D01*
X119313697Y-103642438D02*
X119218459Y-103737676D01*
X119218459Y-103737676D02*
X119170840Y-103832914D01*
X119170840Y-103832914D02*
X119123221Y-104023390D01*
X119123221Y-104023390D02*
X119123221Y-104166247D01*
X119123221Y-104166247D02*
X119170840Y-104356723D01*
X119170840Y-104356723D02*
X119218459Y-104451961D01*
X119218459Y-104451961D02*
X119313697Y-104547200D01*
X119313697Y-104547200D02*
X119456554Y-104594819D01*
X119456554Y-104594819D02*
X119551792Y-104594819D01*
X119551792Y-104594819D02*
X119694649Y-104547200D01*
X119694649Y-104547200D02*
X119742268Y-104499580D01*
X119742268Y-104499580D02*
X119742268Y-104166247D01*
X119742268Y-104166247D02*
X119551792Y-104166247D01*
X120170840Y-104594819D02*
X120170840Y-103594819D01*
X120170840Y-103594819D02*
X120551792Y-103594819D01*
X120551792Y-103594819D02*
X120647030Y-103642438D01*
X120647030Y-103642438D02*
X120694649Y-103690057D01*
X120694649Y-103690057D02*
X120742268Y-103785295D01*
X120742268Y-103785295D02*
X120742268Y-103928152D01*
X120742268Y-103928152D02*
X120694649Y-104023390D01*
X120694649Y-104023390D02*
X120647030Y-104071009D01*
X120647030Y-104071009D02*
X120551792Y-104118628D01*
X120551792Y-104118628D02*
X120170840Y-104118628D01*
X121170840Y-104594819D02*
X121170840Y-103594819D01*
X121837506Y-103594819D02*
X122027982Y-103594819D01*
X122027982Y-103594819D02*
X122123220Y-103642438D01*
X122123220Y-103642438D02*
X122218458Y-103737676D01*
X122218458Y-103737676D02*
X122266077Y-103928152D01*
X122266077Y-103928152D02*
X122266077Y-104261485D01*
X122266077Y-104261485D02*
X122218458Y-104451961D01*
X122218458Y-104451961D02*
X122123220Y-104547200D01*
X122123220Y-104547200D02*
X122027982Y-104594819D01*
X122027982Y-104594819D02*
X121837506Y-104594819D01*
X121837506Y-104594819D02*
X121742268Y-104547200D01*
X121742268Y-104547200D02*
X121647030Y-104451961D01*
X121647030Y-104451961D02*
X121599411Y-104261485D01*
X121599411Y-104261485D02*
X121599411Y-103928152D01*
X121599411Y-103928152D02*
X121647030Y-103737676D01*
X121647030Y-103737676D02*
X121742268Y-103642438D01*
X121742268Y-103642438D02*
X121837506Y-103594819D01*
X122599411Y-103594819D02*
X123218458Y-103594819D01*
X123218458Y-103594819D02*
X122885125Y-103975771D01*
X122885125Y-103975771D02*
X123027982Y-103975771D01*
X123027982Y-103975771D02*
X123123220Y-104023390D01*
X123123220Y-104023390D02*
X123170839Y-104071009D01*
X123170839Y-104071009D02*
X123218458Y-104166247D01*
X123218458Y-104166247D02*
X123218458Y-104404342D01*
X123218458Y-104404342D02*
X123170839Y-104499580D01*
X123170839Y-104499580D02*
X123123220Y-104547200D01*
X123123220Y-104547200D02*
X123027982Y-104594819D01*
X123027982Y-104594819D02*
X122742268Y-104594819D01*
X122742268Y-104594819D02*
X122647030Y-104547200D01*
X122647030Y-104547200D02*
X122599411Y-104499580D01*
X124075601Y-103594819D02*
X123885125Y-103594819D01*
X123885125Y-103594819D02*
X123789887Y-103642438D01*
X123789887Y-103642438D02*
X123742268Y-103690057D01*
X123742268Y-103690057D02*
X123647030Y-103832914D01*
X123647030Y-103832914D02*
X123599411Y-104023390D01*
X123599411Y-104023390D02*
X123599411Y-104404342D01*
X123599411Y-104404342D02*
X123647030Y-104499580D01*
X123647030Y-104499580D02*
X123694649Y-104547200D01*
X123694649Y-104547200D02*
X123789887Y-104594819D01*
X123789887Y-104594819D02*
X123980363Y-104594819D01*
X123980363Y-104594819D02*
X124075601Y-104547200D01*
X124075601Y-104547200D02*
X124123220Y-104499580D01*
X124123220Y-104499580D02*
X124170839Y-104404342D01*
X124170839Y-104404342D02*
X124170839Y-104166247D01*
X124170839Y-104166247D02*
X124123220Y-104071009D01*
X124123220Y-104071009D02*
X124075601Y-104023390D01*
X124075601Y-104023390D02*
X123980363Y-103975771D01*
X123980363Y-103975771D02*
X123789887Y-103975771D01*
X123789887Y-103975771D02*
X123694649Y-104023390D01*
X123694649Y-104023390D02*
X123647030Y-104071009D01*
X123647030Y-104071009D02*
X123599411Y-104166247D01*
X119694649Y-101102438D02*
X119599411Y-101054819D01*
X119599411Y-101054819D02*
X119456554Y-101054819D01*
X119456554Y-101054819D02*
X119313697Y-101102438D01*
X119313697Y-101102438D02*
X119218459Y-101197676D01*
X119218459Y-101197676D02*
X119170840Y-101292914D01*
X119170840Y-101292914D02*
X119123221Y-101483390D01*
X119123221Y-101483390D02*
X119123221Y-101626247D01*
X119123221Y-101626247D02*
X119170840Y-101816723D01*
X119170840Y-101816723D02*
X119218459Y-101911961D01*
X119218459Y-101911961D02*
X119313697Y-102007200D01*
X119313697Y-102007200D02*
X119456554Y-102054819D01*
X119456554Y-102054819D02*
X119551792Y-102054819D01*
X119551792Y-102054819D02*
X119694649Y-102007200D01*
X119694649Y-102007200D02*
X119742268Y-101959580D01*
X119742268Y-101959580D02*
X119742268Y-101626247D01*
X119742268Y-101626247D02*
X119551792Y-101626247D01*
X120170840Y-102054819D02*
X120170840Y-101054819D01*
X120170840Y-101054819D02*
X120551792Y-101054819D01*
X120551792Y-101054819D02*
X120647030Y-101102438D01*
X120647030Y-101102438D02*
X120694649Y-101150057D01*
X120694649Y-101150057D02*
X120742268Y-101245295D01*
X120742268Y-101245295D02*
X120742268Y-101388152D01*
X120742268Y-101388152D02*
X120694649Y-101483390D01*
X120694649Y-101483390D02*
X120647030Y-101531009D01*
X120647030Y-101531009D02*
X120551792Y-101578628D01*
X120551792Y-101578628D02*
X120170840Y-101578628D01*
X121170840Y-102054819D02*
X121170840Y-101054819D01*
X121837506Y-101054819D02*
X122027982Y-101054819D01*
X122027982Y-101054819D02*
X122123220Y-101102438D01*
X122123220Y-101102438D02*
X122218458Y-101197676D01*
X122218458Y-101197676D02*
X122266077Y-101388152D01*
X122266077Y-101388152D02*
X122266077Y-101721485D01*
X122266077Y-101721485D02*
X122218458Y-101911961D01*
X122218458Y-101911961D02*
X122123220Y-102007200D01*
X122123220Y-102007200D02*
X122027982Y-102054819D01*
X122027982Y-102054819D02*
X121837506Y-102054819D01*
X121837506Y-102054819D02*
X121742268Y-102007200D01*
X121742268Y-102007200D02*
X121647030Y-101911961D01*
X121647030Y-101911961D02*
X121599411Y-101721485D01*
X121599411Y-101721485D02*
X121599411Y-101388152D01*
X121599411Y-101388152D02*
X121647030Y-101197676D01*
X121647030Y-101197676D02*
X121742268Y-101102438D01*
X121742268Y-101102438D02*
X121837506Y-101054819D01*
X122599411Y-101054819D02*
X123218458Y-101054819D01*
X123218458Y-101054819D02*
X122885125Y-101435771D01*
X122885125Y-101435771D02*
X123027982Y-101435771D01*
X123027982Y-101435771D02*
X123123220Y-101483390D01*
X123123220Y-101483390D02*
X123170839Y-101531009D01*
X123170839Y-101531009D02*
X123218458Y-101626247D01*
X123218458Y-101626247D02*
X123218458Y-101864342D01*
X123218458Y-101864342D02*
X123170839Y-101959580D01*
X123170839Y-101959580D02*
X123123220Y-102007200D01*
X123123220Y-102007200D02*
X123027982Y-102054819D01*
X123027982Y-102054819D02*
X122742268Y-102054819D01*
X122742268Y-102054819D02*
X122647030Y-102007200D01*
X122647030Y-102007200D02*
X122599411Y-101959580D01*
X123551792Y-101054819D02*
X124218458Y-101054819D01*
X124218458Y-101054819D02*
X123789887Y-102054819D01*
X122075601Y-129042438D02*
X121980363Y-128994819D01*
X121980363Y-128994819D02*
X121837506Y-128994819D01*
X121837506Y-128994819D02*
X121694649Y-129042438D01*
X121694649Y-129042438D02*
X121599411Y-129137676D01*
X121599411Y-129137676D02*
X121551792Y-129232914D01*
X121551792Y-129232914D02*
X121504173Y-129423390D01*
X121504173Y-129423390D02*
X121504173Y-129566247D01*
X121504173Y-129566247D02*
X121551792Y-129756723D01*
X121551792Y-129756723D02*
X121599411Y-129851961D01*
X121599411Y-129851961D02*
X121694649Y-129947200D01*
X121694649Y-129947200D02*
X121837506Y-129994819D01*
X121837506Y-129994819D02*
X121932744Y-129994819D01*
X121932744Y-129994819D02*
X122075601Y-129947200D01*
X122075601Y-129947200D02*
X122123220Y-129899580D01*
X122123220Y-129899580D02*
X122123220Y-129566247D01*
X122123220Y-129566247D02*
X121932744Y-129566247D01*
X122551792Y-129994819D02*
X122551792Y-128994819D01*
X122551792Y-128994819D02*
X123123220Y-129994819D01*
X123123220Y-129994819D02*
X123123220Y-128994819D01*
X123599411Y-129994819D02*
X123599411Y-128994819D01*
X123599411Y-128994819D02*
X123837506Y-128994819D01*
X123837506Y-128994819D02*
X123980363Y-129042438D01*
X123980363Y-129042438D02*
X124075601Y-129137676D01*
X124075601Y-129137676D02*
X124123220Y-129232914D01*
X124123220Y-129232914D02*
X124170839Y-129423390D01*
X124170839Y-129423390D02*
X124170839Y-129566247D01*
X124170839Y-129566247D02*
X124123220Y-129756723D01*
X124123220Y-129756723D02*
X124075601Y-129851961D01*
X124075601Y-129851961D02*
X123980363Y-129947200D01*
X123980363Y-129947200D02*
X123837506Y-129994819D01*
X123837506Y-129994819D02*
X123599411Y-129994819D01*
X119694649Y-106182438D02*
X119599411Y-106134819D01*
X119599411Y-106134819D02*
X119456554Y-106134819D01*
X119456554Y-106134819D02*
X119313697Y-106182438D01*
X119313697Y-106182438D02*
X119218459Y-106277676D01*
X119218459Y-106277676D02*
X119170840Y-106372914D01*
X119170840Y-106372914D02*
X119123221Y-106563390D01*
X119123221Y-106563390D02*
X119123221Y-106706247D01*
X119123221Y-106706247D02*
X119170840Y-106896723D01*
X119170840Y-106896723D02*
X119218459Y-106991961D01*
X119218459Y-106991961D02*
X119313697Y-107087200D01*
X119313697Y-107087200D02*
X119456554Y-107134819D01*
X119456554Y-107134819D02*
X119551792Y-107134819D01*
X119551792Y-107134819D02*
X119694649Y-107087200D01*
X119694649Y-107087200D02*
X119742268Y-107039580D01*
X119742268Y-107039580D02*
X119742268Y-106706247D01*
X119742268Y-106706247D02*
X119551792Y-106706247D01*
X120170840Y-107134819D02*
X120170840Y-106134819D01*
X120170840Y-106134819D02*
X120551792Y-106134819D01*
X120551792Y-106134819D02*
X120647030Y-106182438D01*
X120647030Y-106182438D02*
X120694649Y-106230057D01*
X120694649Y-106230057D02*
X120742268Y-106325295D01*
X120742268Y-106325295D02*
X120742268Y-106468152D01*
X120742268Y-106468152D02*
X120694649Y-106563390D01*
X120694649Y-106563390D02*
X120647030Y-106611009D01*
X120647030Y-106611009D02*
X120551792Y-106658628D01*
X120551792Y-106658628D02*
X120170840Y-106658628D01*
X121170840Y-107134819D02*
X121170840Y-106134819D01*
X121837506Y-106134819D02*
X122027982Y-106134819D01*
X122027982Y-106134819D02*
X122123220Y-106182438D01*
X122123220Y-106182438D02*
X122218458Y-106277676D01*
X122218458Y-106277676D02*
X122266077Y-106468152D01*
X122266077Y-106468152D02*
X122266077Y-106801485D01*
X122266077Y-106801485D02*
X122218458Y-106991961D01*
X122218458Y-106991961D02*
X122123220Y-107087200D01*
X122123220Y-107087200D02*
X122027982Y-107134819D01*
X122027982Y-107134819D02*
X121837506Y-107134819D01*
X121837506Y-107134819D02*
X121742268Y-107087200D01*
X121742268Y-107087200D02*
X121647030Y-106991961D01*
X121647030Y-106991961D02*
X121599411Y-106801485D01*
X121599411Y-106801485D02*
X121599411Y-106468152D01*
X121599411Y-106468152D02*
X121647030Y-106277676D01*
X121647030Y-106277676D02*
X121742268Y-106182438D01*
X121742268Y-106182438D02*
X121837506Y-106134819D01*
X122599411Y-106134819D02*
X123218458Y-106134819D01*
X123218458Y-106134819D02*
X122885125Y-106515771D01*
X122885125Y-106515771D02*
X123027982Y-106515771D01*
X123027982Y-106515771D02*
X123123220Y-106563390D01*
X123123220Y-106563390D02*
X123170839Y-106611009D01*
X123170839Y-106611009D02*
X123218458Y-106706247D01*
X123218458Y-106706247D02*
X123218458Y-106944342D01*
X123218458Y-106944342D02*
X123170839Y-107039580D01*
X123170839Y-107039580D02*
X123123220Y-107087200D01*
X123123220Y-107087200D02*
X123027982Y-107134819D01*
X123027982Y-107134819D02*
X122742268Y-107134819D01*
X122742268Y-107134819D02*
X122647030Y-107087200D01*
X122647030Y-107087200D02*
X122599411Y-107039580D01*
X124123220Y-106134819D02*
X123647030Y-106134819D01*
X123647030Y-106134819D02*
X123599411Y-106611009D01*
X123599411Y-106611009D02*
X123647030Y-106563390D01*
X123647030Y-106563390D02*
X123742268Y-106515771D01*
X123742268Y-106515771D02*
X123980363Y-106515771D01*
X123980363Y-106515771D02*
X124075601Y-106563390D01*
X124075601Y-106563390D02*
X124123220Y-106611009D01*
X124123220Y-106611009D02*
X124170839Y-106706247D01*
X124170839Y-106706247D02*
X124170839Y-106944342D01*
X124170839Y-106944342D02*
X124123220Y-107039580D01*
X124123220Y-107039580D02*
X124075601Y-107087200D01*
X124075601Y-107087200D02*
X123980363Y-107134819D01*
X123980363Y-107134819D02*
X123742268Y-107134819D01*
X123742268Y-107134819D02*
X123647030Y-107087200D01*
X123647030Y-107087200D02*
X123599411Y-107039580D01*
X119654649Y-96172438D02*
X119559411Y-96124819D01*
X119559411Y-96124819D02*
X119416554Y-96124819D01*
X119416554Y-96124819D02*
X119273697Y-96172438D01*
X119273697Y-96172438D02*
X119178459Y-96267676D01*
X119178459Y-96267676D02*
X119130840Y-96362914D01*
X119130840Y-96362914D02*
X119083221Y-96553390D01*
X119083221Y-96553390D02*
X119083221Y-96696247D01*
X119083221Y-96696247D02*
X119130840Y-96886723D01*
X119130840Y-96886723D02*
X119178459Y-96981961D01*
X119178459Y-96981961D02*
X119273697Y-97077200D01*
X119273697Y-97077200D02*
X119416554Y-97124819D01*
X119416554Y-97124819D02*
X119511792Y-97124819D01*
X119511792Y-97124819D02*
X119654649Y-97077200D01*
X119654649Y-97077200D02*
X119702268Y-97029580D01*
X119702268Y-97029580D02*
X119702268Y-96696247D01*
X119702268Y-96696247D02*
X119511792Y-96696247D01*
X120130840Y-97124819D02*
X120130840Y-96124819D01*
X120130840Y-96124819D02*
X120511792Y-96124819D01*
X120511792Y-96124819D02*
X120607030Y-96172438D01*
X120607030Y-96172438D02*
X120654649Y-96220057D01*
X120654649Y-96220057D02*
X120702268Y-96315295D01*
X120702268Y-96315295D02*
X120702268Y-96458152D01*
X120702268Y-96458152D02*
X120654649Y-96553390D01*
X120654649Y-96553390D02*
X120607030Y-96601009D01*
X120607030Y-96601009D02*
X120511792Y-96648628D01*
X120511792Y-96648628D02*
X120130840Y-96648628D01*
X121130840Y-97124819D02*
X121130840Y-96124819D01*
X121797506Y-96124819D02*
X121987982Y-96124819D01*
X121987982Y-96124819D02*
X122083220Y-96172438D01*
X122083220Y-96172438D02*
X122178458Y-96267676D01*
X122178458Y-96267676D02*
X122226077Y-96458152D01*
X122226077Y-96458152D02*
X122226077Y-96791485D01*
X122226077Y-96791485D02*
X122178458Y-96981961D01*
X122178458Y-96981961D02*
X122083220Y-97077200D01*
X122083220Y-97077200D02*
X121987982Y-97124819D01*
X121987982Y-97124819D02*
X121797506Y-97124819D01*
X121797506Y-97124819D02*
X121702268Y-97077200D01*
X121702268Y-97077200D02*
X121607030Y-96981961D01*
X121607030Y-96981961D02*
X121559411Y-96791485D01*
X121559411Y-96791485D02*
X121559411Y-96458152D01*
X121559411Y-96458152D02*
X121607030Y-96267676D01*
X121607030Y-96267676D02*
X121702268Y-96172438D01*
X121702268Y-96172438D02*
X121797506Y-96124819D01*
X122559411Y-96124819D02*
X123178458Y-96124819D01*
X123178458Y-96124819D02*
X122845125Y-96505771D01*
X122845125Y-96505771D02*
X122987982Y-96505771D01*
X122987982Y-96505771D02*
X123083220Y-96553390D01*
X123083220Y-96553390D02*
X123130839Y-96601009D01*
X123130839Y-96601009D02*
X123178458Y-96696247D01*
X123178458Y-96696247D02*
X123178458Y-96934342D01*
X123178458Y-96934342D02*
X123130839Y-97029580D01*
X123130839Y-97029580D02*
X123083220Y-97077200D01*
X123083220Y-97077200D02*
X122987982Y-97124819D01*
X122987982Y-97124819D02*
X122702268Y-97124819D01*
X122702268Y-97124819D02*
X122607030Y-97077200D01*
X122607030Y-97077200D02*
X122559411Y-97029580D01*
X123654649Y-97124819D02*
X123845125Y-97124819D01*
X123845125Y-97124819D02*
X123940363Y-97077200D01*
X123940363Y-97077200D02*
X123987982Y-97029580D01*
X123987982Y-97029580D02*
X124083220Y-96886723D01*
X124083220Y-96886723D02*
X124130839Y-96696247D01*
X124130839Y-96696247D02*
X124130839Y-96315295D01*
X124130839Y-96315295D02*
X124083220Y-96220057D01*
X124083220Y-96220057D02*
X124035601Y-96172438D01*
X124035601Y-96172438D02*
X123940363Y-96124819D01*
X123940363Y-96124819D02*
X123749887Y-96124819D01*
X123749887Y-96124819D02*
X123654649Y-96172438D01*
X123654649Y-96172438D02*
X123607030Y-96220057D01*
X123607030Y-96220057D02*
X123559411Y-96315295D01*
X123559411Y-96315295D02*
X123559411Y-96553390D01*
X123559411Y-96553390D02*
X123607030Y-96648628D01*
X123607030Y-96648628D02*
X123654649Y-96696247D01*
X123654649Y-96696247D02*
X123749887Y-96743866D01*
X123749887Y-96743866D02*
X123940363Y-96743866D01*
X123940363Y-96743866D02*
X124035601Y-96696247D01*
X124035601Y-96696247D02*
X124083220Y-96648628D01*
X124083220Y-96648628D02*
X124130839Y-96553390D01*
X119694649Y-98562438D02*
X119599411Y-98514819D01*
X119599411Y-98514819D02*
X119456554Y-98514819D01*
X119456554Y-98514819D02*
X119313697Y-98562438D01*
X119313697Y-98562438D02*
X119218459Y-98657676D01*
X119218459Y-98657676D02*
X119170840Y-98752914D01*
X119170840Y-98752914D02*
X119123221Y-98943390D01*
X119123221Y-98943390D02*
X119123221Y-99086247D01*
X119123221Y-99086247D02*
X119170840Y-99276723D01*
X119170840Y-99276723D02*
X119218459Y-99371961D01*
X119218459Y-99371961D02*
X119313697Y-99467200D01*
X119313697Y-99467200D02*
X119456554Y-99514819D01*
X119456554Y-99514819D02*
X119551792Y-99514819D01*
X119551792Y-99514819D02*
X119694649Y-99467200D01*
X119694649Y-99467200D02*
X119742268Y-99419580D01*
X119742268Y-99419580D02*
X119742268Y-99086247D01*
X119742268Y-99086247D02*
X119551792Y-99086247D01*
X120170840Y-99514819D02*
X120170840Y-98514819D01*
X120170840Y-98514819D02*
X120551792Y-98514819D01*
X120551792Y-98514819D02*
X120647030Y-98562438D01*
X120647030Y-98562438D02*
X120694649Y-98610057D01*
X120694649Y-98610057D02*
X120742268Y-98705295D01*
X120742268Y-98705295D02*
X120742268Y-98848152D01*
X120742268Y-98848152D02*
X120694649Y-98943390D01*
X120694649Y-98943390D02*
X120647030Y-98991009D01*
X120647030Y-98991009D02*
X120551792Y-99038628D01*
X120551792Y-99038628D02*
X120170840Y-99038628D01*
X121170840Y-99514819D02*
X121170840Y-98514819D01*
X121837506Y-98514819D02*
X122027982Y-98514819D01*
X122027982Y-98514819D02*
X122123220Y-98562438D01*
X122123220Y-98562438D02*
X122218458Y-98657676D01*
X122218458Y-98657676D02*
X122266077Y-98848152D01*
X122266077Y-98848152D02*
X122266077Y-99181485D01*
X122266077Y-99181485D02*
X122218458Y-99371961D01*
X122218458Y-99371961D02*
X122123220Y-99467200D01*
X122123220Y-99467200D02*
X122027982Y-99514819D01*
X122027982Y-99514819D02*
X121837506Y-99514819D01*
X121837506Y-99514819D02*
X121742268Y-99467200D01*
X121742268Y-99467200D02*
X121647030Y-99371961D01*
X121647030Y-99371961D02*
X121599411Y-99181485D01*
X121599411Y-99181485D02*
X121599411Y-98848152D01*
X121599411Y-98848152D02*
X121647030Y-98657676D01*
X121647030Y-98657676D02*
X121742268Y-98562438D01*
X121742268Y-98562438D02*
X121837506Y-98514819D01*
X122599411Y-98514819D02*
X123218458Y-98514819D01*
X123218458Y-98514819D02*
X122885125Y-98895771D01*
X122885125Y-98895771D02*
X123027982Y-98895771D01*
X123027982Y-98895771D02*
X123123220Y-98943390D01*
X123123220Y-98943390D02*
X123170839Y-98991009D01*
X123170839Y-98991009D02*
X123218458Y-99086247D01*
X123218458Y-99086247D02*
X123218458Y-99324342D01*
X123218458Y-99324342D02*
X123170839Y-99419580D01*
X123170839Y-99419580D02*
X123123220Y-99467200D01*
X123123220Y-99467200D02*
X123027982Y-99514819D01*
X123027982Y-99514819D02*
X122742268Y-99514819D01*
X122742268Y-99514819D02*
X122647030Y-99467200D01*
X122647030Y-99467200D02*
X122599411Y-99419580D01*
X123789887Y-98943390D02*
X123694649Y-98895771D01*
X123694649Y-98895771D02*
X123647030Y-98848152D01*
X123647030Y-98848152D02*
X123599411Y-98752914D01*
X123599411Y-98752914D02*
X123599411Y-98705295D01*
X123599411Y-98705295D02*
X123647030Y-98610057D01*
X123647030Y-98610057D02*
X123694649Y-98562438D01*
X123694649Y-98562438D02*
X123789887Y-98514819D01*
X123789887Y-98514819D02*
X123980363Y-98514819D01*
X123980363Y-98514819D02*
X124075601Y-98562438D01*
X124075601Y-98562438D02*
X124123220Y-98610057D01*
X124123220Y-98610057D02*
X124170839Y-98705295D01*
X124170839Y-98705295D02*
X124170839Y-98752914D01*
X124170839Y-98752914D02*
X124123220Y-98848152D01*
X124123220Y-98848152D02*
X124075601Y-98895771D01*
X124075601Y-98895771D02*
X123980363Y-98943390D01*
X123980363Y-98943390D02*
X123789887Y-98943390D01*
X123789887Y-98943390D02*
X123694649Y-98991009D01*
X123694649Y-98991009D02*
X123647030Y-99038628D01*
X123647030Y-99038628D02*
X123599411Y-99133866D01*
X123599411Y-99133866D02*
X123599411Y-99324342D01*
X123599411Y-99324342D02*
X123647030Y-99419580D01*
X123647030Y-99419580D02*
X123694649Y-99467200D01*
X123694649Y-99467200D02*
X123789887Y-99514819D01*
X123789887Y-99514819D02*
X123980363Y-99514819D01*
X123980363Y-99514819D02*
X124075601Y-99467200D01*
X124075601Y-99467200D02*
X124123220Y-99419580D01*
X124123220Y-99419580D02*
X124170839Y-99324342D01*
X124170839Y-99324342D02*
X124170839Y-99133866D01*
X124170839Y-99133866D02*
X124123220Y-99038628D01*
X124123220Y-99038628D02*
X124075601Y-98991009D01*
X124075601Y-98991009D02*
X123980363Y-98943390D01*
X100584095Y-72590819D02*
X100584095Y-71590819D01*
X100584095Y-72067009D02*
X101155523Y-72067009D01*
X101155523Y-72590819D02*
X101155523Y-71590819D01*
X102155523Y-72590819D02*
X101584095Y-72590819D01*
X101869809Y-72590819D02*
X101869809Y-71590819D01*
X101869809Y-71590819D02*
X101774571Y-71733676D01*
X101774571Y-71733676D02*
X101679333Y-71828914D01*
X101679333Y-71828914D02*
X101584095Y-71876533D01*
D12*
X148979000Y-74719500D02*
X148979000Y-78779500D01*
X151249000Y-74719500D02*
X148979000Y-74719500D01*
X151249000Y-78779500D02*
X151249000Y-74719500D01*
X94566000Y-87386000D02*
X94566000Y-97526000D01*
X94566000Y-97526000D02*
X95046000Y-97526000D01*
X95046000Y-87386000D02*
X94566000Y-87386000D01*
X97926000Y-87386000D02*
X98406000Y-87386000D01*
X98406000Y-87386000D02*
X98406000Y-97526000D01*
X98406000Y-97526000D02*
X97926000Y-97526000D01*
D11*
X136622000Y-103664000D02*
X136622000Y-123664000D01*
X136622000Y-103664000D02*
X150622000Y-103664000D01*
X136622000Y-123664000D02*
X150622000Y-123664000D01*
X150622000Y-103664000D02*
X150622000Y-123664000D01*
D12*
X115149000Y-113554000D02*
X117949000Y-113554000D01*
X115149000Y-115554000D02*
X115149000Y-113554000D01*
X117949000Y-113554000D02*
X117949000Y-115554000D01*
X117949000Y-115554000D02*
X115149000Y-115554000D01*
X95440000Y-103858000D02*
X95121000Y-103858000D01*
X97919000Y-103858000D02*
X97600000Y-103858000D01*
X95439039Y-107600713D02*
G75*
G02*
X95440000Y-104234670I1080961J1682713D01*
G01*
X95439276Y-108161242D02*
G75*
G02*
X95121251Y-103858000I1080724J2243242D01*
G01*
X97600000Y-104234670D02*
G75*
G02*
X97600961Y-107600713I-1080000J-1683330D01*
G01*
X97918749Y-103858000D02*
G75*
G02*
X97600724Y-108161242I-1398749J-2060000D01*
G01*
X95440000Y-78712000D02*
X95121000Y-78712000D01*
X97919000Y-78712000D02*
X97600000Y-78712000D01*
X95439039Y-82454713D02*
G75*
G02*
X95440000Y-79088670I1080961J1682713D01*
G01*
X95439276Y-83015242D02*
G75*
G02*
X95121251Y-78712000I1080724J2243242D01*
G01*
X97600000Y-79088670D02*
G75*
G02*
X97600961Y-82454713I-1080000J-1683330D01*
G01*
X97918749Y-78712000D02*
G75*
G02*
X97600724Y-83015242I-1398749J-2060000D01*
G01*
X115985000Y-117872000D02*
X118785000Y-117872000D01*
X115985000Y-119872000D02*
X115985000Y-117872000D01*
X118785000Y-117872000D02*
X118785000Y-119872000D01*
X118785000Y-119872000D02*
X115985000Y-119872000D01*
X155283248Y-98970000D02*
X156705752Y-98970000D01*
X155283248Y-101690000D02*
X156705752Y-101690000D01*
X142375000Y-74719500D02*
X142375000Y-78779500D01*
X144645000Y-74719500D02*
X142375000Y-74719500D01*
X144645000Y-78779500D02*
X144645000Y-74719500D01*
X94600000Y-112278000D02*
X94600000Y-122418000D01*
X94600000Y-122418000D02*
X95080000Y-122418000D01*
X95080000Y-112278000D02*
X94600000Y-112278000D01*
X97960000Y-112278000D02*
X98440000Y-112278000D01*
X98440000Y-112278000D02*
X98440000Y-122418000D01*
X98440000Y-122418000D02*
X97960000Y-122418000D01*
X113090000Y-112776000D02*
X113090000Y-92396000D01*
X113090000Y-112776000D02*
X110430000Y-112776000D01*
X113090000Y-92396000D02*
X110430000Y-92396000D01*
X111760000Y-115376000D02*
X110430000Y-115376000D01*
X110430000Y-115376000D02*
X110430000Y-114046000D01*
X110430000Y-112776000D02*
X110430000Y-92396000D01*
D13*
X144462500Y-128651000D02*
X143319500Y-128651000D01*
X147256500Y-128651000D02*
X146113500Y-128651000D01*
D12*
X135322000Y-93158000D02*
X135322000Y-95818000D01*
X153162000Y-93158000D02*
X135322000Y-93158000D01*
X153162000Y-93158000D02*
X153162000Y-95818000D01*
X153162000Y-95818000D02*
X135322000Y-95818000D01*
X154432000Y-93158000D02*
X155762000Y-93158000D01*
X155762000Y-93158000D02*
X155762000Y-94488000D01*
X149254000Y-84134936D02*
X149254000Y-85589064D01*
X151074000Y-84134936D02*
X151074000Y-85589064D01*
X120303000Y-117872000D02*
X123103000Y-117872000D01*
X120303000Y-119872000D02*
X120303000Y-117872000D01*
X123103000Y-117872000D02*
X123103000Y-119872000D01*
X123103000Y-119872000D02*
X120303000Y-119872000D01*
X155866000Y-110770252D02*
X155866000Y-109347748D01*
X158586000Y-110770252D02*
X158586000Y-109347748D01*
X142600000Y-84134936D02*
X142600000Y-85589064D01*
X144420000Y-84134936D02*
X144420000Y-85589064D01*
X116208000Y-90662000D02*
X113408000Y-90662000D01*
X116208000Y-88662000D02*
X116208000Y-90662000D01*
X113408000Y-90662000D02*
X113408000Y-88662000D01*
X113408000Y-88662000D02*
X116208000Y-88662000D01*
X100140000Y-75100000D02*
X100140000Y-138997280D01*
X100140000Y-138997280D02*
X128499999Y-138997280D01*
X105330120Y-69186880D02*
X123313320Y-69186880D01*
X105330120Y-75079680D02*
X105330120Y-69186880D01*
X123313320Y-69186880D02*
X123313320Y-75079680D01*
X128499999Y-138997280D02*
X128500000Y-75100000D01*
X128500000Y-75100000D02*
X100140000Y-75100000D01*
X104515000Y-75745000D02*
X104015000Y-75745000D01*
X104515000Y-75245000D01*
X104515000Y-75745000D01*
G36*
X104515000Y-75745000D02*
G01*
X104015000Y-75745000D01*
X104515000Y-75245000D01*
X104515000Y-75745000D01*
G37*
X107005000Y-75765000D02*
X106505000Y-75765000D01*
X107005000Y-75265000D01*
X107005000Y-75765000D01*
G36*
X107005000Y-75765000D02*
G01*
X106505000Y-75765000D01*
X107005000Y-75265000D01*
X107005000Y-75765000D01*
G37*
%LPC*%
D14*
X150114000Y-75692000D03*
X150114000Y-78667000D03*
D15*
X154390825Y-128579825D03*
X154940000Y-127254000D03*
X154940000Y-129905650D03*
X156265825Y-126704825D03*
D16*
X156265825Y-128579825D03*
D15*
X156265825Y-130454825D03*
X157591650Y-127254000D03*
X157591650Y-129905650D03*
X158140825Y-128579825D03*
D17*
X96486000Y-86106000D03*
D18*
X96486000Y-98806000D03*
D15*
X94589175Y-128833825D03*
X95138350Y-127508000D03*
X95138350Y-130159650D03*
X96464175Y-126958825D03*
D16*
X96464175Y-128833825D03*
D15*
X96464175Y-130708825D03*
X97790000Y-127508000D03*
X97790000Y-130159650D03*
X98339175Y-128833825D03*
D19*
X150622000Y-122664000D03*
X150622000Y-121394000D03*
X150622000Y-120124000D03*
X150622000Y-114554000D03*
X150622000Y-113284000D03*
X150622000Y-112014000D03*
X150622000Y-110744000D03*
X150622000Y-109474000D03*
X150622000Y-108204000D03*
X150622000Y-106934000D03*
X150622000Y-105664000D03*
X136622000Y-105664000D03*
X136622000Y-106934000D03*
X136622000Y-108204000D03*
X136622000Y-109474000D03*
X136622000Y-110744000D03*
X136622000Y-112014000D03*
X136622000Y-113284000D03*
X136622000Y-114554000D03*
X136622000Y-120124000D03*
X136622000Y-121394000D03*
X136622000Y-122664000D03*
D20*
X115824000Y-114554000D03*
D21*
X117274000Y-114554000D03*
D22*
X96520000Y-104648000D03*
D23*
X96520000Y-107188000D03*
D22*
X96520000Y-79502000D03*
D23*
X96520000Y-82042000D03*
D24*
X118110000Y-118872000D03*
D25*
X116660000Y-118872000D03*
D26*
X154432000Y-100330000D03*
X157557000Y-100330000D03*
D14*
X143510000Y-75692000D03*
X143510000Y-78667000D03*
D17*
X96520000Y-110998000D03*
D18*
X96520000Y-123698000D03*
D15*
X154335000Y-72487000D03*
X154884175Y-71161175D03*
X154884175Y-73812825D03*
X156210000Y-70612000D03*
D16*
X156210000Y-72487000D03*
D15*
X156210000Y-74362000D03*
X157535825Y-71161175D03*
X157535825Y-73812825D03*
X158085000Y-72487000D03*
D27*
X111760000Y-114046000D03*
D28*
X111760000Y-111506000D03*
X111760000Y-108966000D03*
X111760000Y-106426000D03*
X111760000Y-103886000D03*
X111760000Y-101346000D03*
X111760000Y-98806000D03*
X111760000Y-96266000D03*
X111760000Y-93726000D03*
D29*
X145288000Y-129253250D03*
D30*
X145288000Y-128016000D03*
D31*
X142748000Y-130746500D03*
X147828000Y-130746500D03*
D27*
X154432000Y-94488000D03*
D28*
X151892000Y-94488000D03*
X149352000Y-94488000D03*
X146812000Y-94488000D03*
X144272000Y-94488000D03*
X141732000Y-94488000D03*
X139192000Y-94488000D03*
X136652000Y-94488000D03*
D32*
X150164000Y-83312000D03*
X150164000Y-86412000D03*
D24*
X122428000Y-118872000D03*
D25*
X120978000Y-118872000D03*
D33*
X157226000Y-111621500D03*
X157226000Y-108496500D03*
D32*
X143510000Y-83312000D03*
X143510000Y-86412000D03*
D21*
X115533000Y-89662000D03*
D20*
X114083000Y-89662000D03*
D34*
X101600000Y-76200000D03*
X104140000Y-76200000D03*
X106630000Y-76220000D03*
D35*
X101600000Y-78740000D03*
X104140000Y-78740000D03*
X106630000Y-78760000D03*
X101600000Y-81280000D03*
X104140000Y-81280000D03*
X106630000Y-81300000D03*
X101600000Y-83820000D03*
X104140000Y-83820000D03*
X106630000Y-83840000D03*
X101600000Y-86360000D03*
X104140000Y-86360000D03*
X106630000Y-86380000D03*
X101600000Y-88900000D03*
X104140000Y-88900000D03*
X106630000Y-88920000D03*
X101600000Y-91440000D03*
X104140000Y-91440000D03*
X106630000Y-91460000D03*
X101600000Y-93980000D03*
X104140000Y-93980000D03*
X106630000Y-94000000D03*
X101600000Y-96520000D03*
X104140000Y-96520000D03*
X106630000Y-96540000D03*
X101600000Y-99060000D03*
X104140000Y-99060000D03*
X106630000Y-99080000D03*
X101600000Y-101600000D03*
X104140000Y-101600000D03*
X106630000Y-101620000D03*
X101600000Y-104140000D03*
X104140000Y-104140000D03*
X106630000Y-104160000D03*
X101600000Y-106680000D03*
X104140000Y-106680000D03*
X106630000Y-106700000D03*
X101600000Y-109220000D03*
X104140000Y-109220000D03*
X106630000Y-109240000D03*
X101600000Y-111760000D03*
X104140000Y-111760000D03*
X106630000Y-111780000D03*
X101600000Y-114300000D03*
X104140000Y-114300000D03*
X106630000Y-114320000D03*
X101600000Y-116840000D03*
X104140000Y-116840000D03*
X106630000Y-116860000D03*
X101600000Y-119380000D03*
X104140000Y-119380000D03*
X106630000Y-119400000D03*
X101600000Y-121920000D03*
X104140000Y-121920000D03*
X106630000Y-121940000D03*
X101596320Y-124457280D03*
X104136320Y-124457280D03*
X106626320Y-124477280D03*
X101596320Y-126997280D03*
X104136320Y-126997280D03*
X106626320Y-127017280D03*
X101596320Y-129537280D03*
X104136320Y-129537280D03*
X106626320Y-129557280D03*
X127000000Y-129540000D03*
X127000000Y-127000000D03*
X127000000Y-124460000D03*
X127000000Y-121920000D03*
X127000000Y-119380000D03*
X127000000Y-116840000D03*
X127000000Y-114300000D03*
X127000000Y-111760000D03*
X127000000Y-109220000D03*
X127000000Y-106680000D03*
X127000000Y-104140000D03*
X127000000Y-101600000D03*
X127000000Y-99060000D03*
X127000000Y-96520000D03*
X127000000Y-93980000D03*
X127000000Y-91440000D03*
X127000000Y-88900000D03*
X127000000Y-86360000D03*
X127000000Y-83820000D03*
D36*
X122265000Y-76545000D03*
D35*
X127000000Y-81280000D03*
X127000000Y-78740000D03*
X127000000Y-76200000D03*
D15*
X95208825Y-72191825D03*
X95758000Y-70866000D03*
X95758000Y-73517650D03*
X97083825Y-70316825D03*
D16*
X97083825Y-72191825D03*
D15*
X97083825Y-74066825D03*
X98409650Y-70866000D03*
X98409650Y-73517650D03*
X98958825Y-72191825D03*
%LPD*%
M02*
