G04 #@! TF.GenerationSoftware,KiCad,Pcbnew,8.0.2*
G04 #@! TF.CreationDate,2024-07-26T13:41:10+02:00*
G04 #@! TF.ProjectId,e07-900m10s-breakout,6530372d-3930-4306-9d31-30732d627265,rev?*
G04 #@! TF.SameCoordinates,Original*
G04 #@! TF.FileFunction,Soldermask,Bot*
G04 #@! TF.FilePolarity,Negative*
%FSLAX46Y46*%
G04 Gerber Fmt 4.6, Leading zero omitted, Abs format (unit mm)*
G04 Created by KiCad (PCBNEW 8.0.2) date 2024-07-26 13:41:10*
%MOMM*%
%LPD*%
G01*
G04 APERTURE LIST*
G04 Aperture macros list*
%AMRoundRect*
0 Rectangle with rounded corners*
0 $1 Rounding radius*
0 $2 $3 $4 $5 $6 $7 $8 $9 X,Y pos of 4 corners*
0 Add a 4 corners polygon primitive as box body*
4,1,4,$2,$3,$4,$5,$6,$7,$8,$9,$2,$3,0*
0 Add four circle primitives for the rounded corners*
1,1,$1+$1,$2,$3*
1,1,$1+$1,$4,$5*
1,1,$1+$1,$6,$7*
1,1,$1+$1,$8,$9*
0 Add four rect primitives between the rounded corners*
20,1,$1+$1,$2,$3,$4,$5,0*
20,1,$1+$1,$4,$5,$6,$7,0*
20,1,$1+$1,$6,$7,$8,$9,0*
20,1,$1+$1,$8,$9,$2,$3,0*%
G04 Aperture macros list end*
%ADD10C,0.800000*%
%ADD11C,5.000000*%
%ADD12C,2.400000*%
%ADD13O,2.400000X2.400000*%
%ADD14R,1.800000X1.800000*%
%ADD15C,1.800000*%
%ADD16R,1.700000X1.700000*%
%ADD17O,1.700000X1.700000*%
%ADD18RoundRect,0.060960X-0.548640X0.993140X-0.548640X-0.993140X0.548640X-0.993140X0.548640X0.993140X0*%
%ADD19C,1.346200*%
%ADD20RoundRect,0.038100X0.762000X-2.159000X0.762000X2.159000X-0.762000X2.159000X-0.762000X-2.159000X0*%
%ADD21R,2.000000X1.200000*%
%ADD22O,2.000000X1.200000*%
G04 APERTURE END LIST*
D10*
X154390825Y-128579825D03*
X154940000Y-127254000D03*
X154940000Y-129905650D03*
X156265825Y-126704825D03*
D11*
X156265825Y-128579825D03*
D10*
X156265825Y-130454825D03*
X157591650Y-127254000D03*
X157591650Y-129905650D03*
X158140825Y-128579825D03*
D12*
X96486000Y-86106000D03*
D13*
X96486000Y-98806000D03*
D10*
X94589175Y-128833825D03*
X95138350Y-127508000D03*
X95138350Y-130159650D03*
X96464175Y-126958825D03*
D11*
X96464175Y-128833825D03*
D10*
X96464175Y-130708825D03*
X97790000Y-127508000D03*
X97790000Y-130159650D03*
X98339175Y-128833825D03*
D14*
X96520000Y-104648000D03*
D15*
X96520000Y-107188000D03*
D14*
X96520000Y-79502000D03*
D15*
X96520000Y-82042000D03*
D12*
X96520000Y-110998000D03*
D13*
X96520000Y-123698000D03*
D10*
X154335000Y-72487000D03*
X154884175Y-71161175D03*
X154884175Y-73812825D03*
X156210000Y-70612000D03*
D11*
X156210000Y-72487000D03*
D10*
X156210000Y-74362000D03*
X157535825Y-71161175D03*
X157535825Y-73812825D03*
X158085000Y-72487000D03*
D16*
X111760000Y-114046000D03*
D17*
X111760000Y-111506000D03*
X111760000Y-108966000D03*
X111760000Y-106426000D03*
X111760000Y-103886000D03*
X111760000Y-101346000D03*
X111760000Y-98806000D03*
X111760000Y-96266000D03*
X111760000Y-93726000D03*
D18*
X145288000Y-129507250D03*
D19*
X145288000Y-128016000D03*
D20*
X147828000Y-130746500D03*
X142748000Y-130746500D03*
D16*
X154432000Y-94488000D03*
D17*
X151892000Y-94488000D03*
X149352000Y-94488000D03*
X146812000Y-94488000D03*
X144272000Y-94488000D03*
X141732000Y-94488000D03*
X139192000Y-94488000D03*
X136652000Y-94488000D03*
D21*
X101600000Y-76200000D03*
X104140000Y-76200000D03*
X106630000Y-76220000D03*
D22*
X101600000Y-78740000D03*
X104140000Y-78740000D03*
X106630000Y-78760000D03*
X101600000Y-81280000D03*
X104140000Y-81280000D03*
X106630000Y-81300000D03*
X101600000Y-83820000D03*
X104140000Y-83820000D03*
X106630000Y-83840000D03*
X101600000Y-86360000D03*
X104140000Y-86360000D03*
X106630000Y-86380000D03*
X101600000Y-88900000D03*
X104140000Y-88900000D03*
X106630000Y-88920000D03*
X101600000Y-91440000D03*
X104140000Y-91440000D03*
X106630000Y-91460000D03*
X101600000Y-93980000D03*
X104140000Y-93980000D03*
X106630000Y-94000000D03*
X101600000Y-96520000D03*
X104140000Y-96520000D03*
X106630000Y-96540000D03*
X101600000Y-99060000D03*
X104140000Y-99060000D03*
X106630000Y-99080000D03*
X101600000Y-101600000D03*
X104140000Y-101600000D03*
X106630000Y-101620000D03*
X101600000Y-104140000D03*
X104140000Y-104140000D03*
X106630000Y-104160000D03*
X101600000Y-106680000D03*
X104140000Y-106680000D03*
X106630000Y-106700000D03*
X101600000Y-109220000D03*
X104140000Y-109220000D03*
X106630000Y-109240000D03*
X101600000Y-111760000D03*
X104140000Y-111760000D03*
X106630000Y-111780000D03*
X101600000Y-114300000D03*
X104140000Y-114300000D03*
X106630000Y-114320000D03*
X101600000Y-116840000D03*
X104140000Y-116840000D03*
X106630000Y-116860000D03*
X101600000Y-119380000D03*
X104140000Y-119380000D03*
X106630000Y-119400000D03*
X101600000Y-121920000D03*
X104140000Y-121920000D03*
X106630000Y-121940000D03*
X101596320Y-124457280D03*
X104136320Y-124457280D03*
X106626320Y-124477280D03*
X101596320Y-126997280D03*
X104136320Y-126997280D03*
X106626320Y-127017280D03*
X101596320Y-129537280D03*
X104136320Y-129537280D03*
X106626320Y-129557280D03*
X127000000Y-129540000D03*
X127000000Y-127000000D03*
X127000000Y-124460000D03*
X127000000Y-121920000D03*
X127000000Y-119380000D03*
X127000000Y-116840000D03*
X127000000Y-114300000D03*
X127000000Y-111760000D03*
X127000000Y-109220000D03*
X127000000Y-106680000D03*
X127000000Y-104140000D03*
X127000000Y-101600000D03*
X127000000Y-99060000D03*
X127000000Y-96520000D03*
X127000000Y-93980000D03*
X127000000Y-91440000D03*
X127000000Y-88900000D03*
X127000000Y-86360000D03*
X127000000Y-83820000D03*
X127000000Y-81280000D03*
X127000000Y-78740000D03*
X127000000Y-76200000D03*
D10*
X95208825Y-72191825D03*
X95758000Y-70866000D03*
X95758000Y-73517650D03*
X97083825Y-70316825D03*
D11*
X97083825Y-72191825D03*
D10*
X97083825Y-74066825D03*
X98409650Y-70866000D03*
X98409650Y-73517650D03*
X98958825Y-72191825D03*
M02*
