%TF.GenerationSoftware,KiCad,Pcbnew,8.0.2*%
%TF.CreationDate,2024-07-26T13:42:35+02:00*%
%TF.ProjectId,e07-900m10s-breakout,6530372d-3930-4306-9d31-30732d627265,rev?*%
%TF.SameCoordinates,Original*%
%TF.FileFunction,Drillmap*%
%TF.FilePolarity,Positive*%
%FSLAX45Y45*%
G04 Gerber Fmt 4.5, Leading zero omitted, Abs format (unit mm)*
G04 Created by KiCad (PCBNEW 8.0.2) date 2024-07-26 13:42:35*
%MOMM*%
%LPD*%
G01*
G04 APERTURE LIST*
%ADD10C,0.050000*%
%ADD11C,0.200000*%
%ADD12C,0.100000*%
%ADD13C,0.120000*%
%ADD14C,0.250000*%
G04 APERTURE END LIST*
D10*
X9321800Y-6883400D02*
X15976600Y-6883400D01*
X15976600Y-13208000D01*
X9321800Y-13208000D01*
X9321800Y-6883400D01*
D11*
D12*
X9865600Y-12558000D02*
X9895600Y-12588000D01*
X9895600Y-12558000D02*
X9865600Y-12588000D01*
X9941800Y-8824200D02*
X9971800Y-8854200D01*
X9971800Y-8824200D02*
X9941800Y-8854200D01*
X10932400Y-12939000D02*
X10962400Y-12969000D01*
X10962400Y-12939000D02*
X10932400Y-12969000D01*
X11415000Y-12939000D02*
X11445000Y-12969000D01*
X11445000Y-12939000D02*
X11415000Y-12969000D01*
X11846800Y-11440400D02*
X11876800Y-11470400D01*
X11876800Y-11440400D02*
X11846800Y-11470400D01*
X11923000Y-12939000D02*
X11953000Y-12969000D01*
X11953000Y-12939000D02*
X11923000Y-12969000D01*
X12082310Y-12082310D02*
X12112310Y-12112310D01*
X12112310Y-12082310D02*
X12082310Y-12112310D01*
X12177000Y-12177000D02*
X12207000Y-12207000D01*
X12207000Y-12177000D02*
X12177000Y-12207000D01*
X12354800Y-8189200D02*
X12384800Y-8219200D01*
X12384800Y-8189200D02*
X12354800Y-8219200D01*
X12481800Y-12685000D02*
X12511800Y-12715000D01*
X12511800Y-12685000D02*
X12481800Y-12715000D01*
X12481800Y-12939000D02*
X12511800Y-12969000D01*
X12511800Y-12939000D02*
X12481800Y-12969000D01*
X12507200Y-7655800D02*
X12537200Y-7685800D01*
X12537200Y-7655800D02*
X12507200Y-7685800D01*
X12888200Y-7605000D02*
X12918200Y-7635000D01*
X12918200Y-7605000D02*
X12888200Y-7635000D01*
X12939000Y-12685000D02*
X12969000Y-12715000D01*
X12969000Y-12685000D02*
X12939000Y-12715000D01*
X12939000Y-12939000D02*
X12969000Y-12969000D01*
X12969000Y-12939000D02*
X12939000Y-12969000D01*
X13243800Y-8875000D02*
X13273800Y-8905000D01*
X13273800Y-8875000D02*
X13243800Y-8905000D01*
X13243800Y-9129000D02*
X13273800Y-9159000D01*
X13273800Y-9129000D02*
X13243800Y-9159000D01*
X13370800Y-11821400D02*
X13400800Y-11851400D01*
X13400800Y-11821400D02*
X13370800Y-11851400D01*
X13370800Y-12126200D02*
X13400800Y-12156200D01*
X13400800Y-12126200D02*
X13370800Y-12156200D01*
X13421600Y-12710400D02*
X13451600Y-12740400D01*
X13451600Y-12710400D02*
X13421600Y-12740400D01*
X13472400Y-10551400D02*
X13502400Y-10581400D01*
X13502400Y-10551400D02*
X13472400Y-10581400D01*
X13750300Y-12456400D02*
X13780300Y-12486400D01*
X13780300Y-12456400D02*
X13750300Y-12486400D01*
X13751800Y-11796000D02*
X13781800Y-11826000D01*
X13781800Y-11796000D02*
X13751800Y-11826000D01*
X13789900Y-12978800D02*
X13819900Y-13008800D01*
X13819900Y-12978800D02*
X13789900Y-13008800D01*
X13840700Y-12623200D02*
X13870700Y-12653200D01*
X13870700Y-12623200D02*
X13840700Y-12653200D01*
X13853400Y-10551400D02*
X13883400Y-10581400D01*
X13883400Y-10551400D02*
X13853400Y-10581400D01*
X13916900Y-11988200D02*
X13946900Y-12018200D01*
X13946900Y-11988200D02*
X13916900Y-12018200D01*
X13980400Y-9713200D02*
X14010400Y-9743200D01*
X14010400Y-9713200D02*
X13980400Y-9743200D01*
X13993100Y-12775600D02*
X14023100Y-12805600D01*
X14023100Y-12775600D02*
X13993100Y-12805600D01*
X14031200Y-7605000D02*
X14061200Y-7635000D01*
X14061200Y-7605000D02*
X14031200Y-7635000D01*
X14043900Y-11810400D02*
X14073900Y-11840400D01*
X14073900Y-11810400D02*
X14043900Y-11840400D01*
X14056600Y-9840200D02*
X14086600Y-9870200D01*
X14086600Y-9840200D02*
X14056600Y-9870200D01*
X14107400Y-8621000D02*
X14137400Y-8651000D01*
X14137400Y-8621000D02*
X14107400Y-8651000D01*
X14170900Y-11988200D02*
X14200900Y-12018200D01*
X14200900Y-11988200D02*
X14170900Y-12018200D01*
X14323300Y-11810400D02*
X14353300Y-11840400D01*
X14353300Y-11810400D02*
X14323300Y-11840400D01*
X14450300Y-11988200D02*
X14480300Y-12018200D01*
X14480300Y-11988200D02*
X14450300Y-12018200D01*
X14577300Y-11810400D02*
X14607300Y-11840400D01*
X14607300Y-11810400D02*
X14577300Y-11840400D01*
X14691600Y-7554200D02*
X14721600Y-7584200D01*
X14721600Y-7554200D02*
X14691600Y-7584200D01*
X14691600Y-11364200D02*
X14721600Y-11394200D01*
X14721600Y-11364200D02*
X14691600Y-11394200D01*
X14704300Y-11988200D02*
X14734300Y-12018200D01*
X14734300Y-11988200D02*
X14704300Y-12018200D01*
X14856700Y-11810400D02*
X14886700Y-11840400D01*
X14886700Y-11810400D02*
X14856700Y-11840400D01*
X14983700Y-11988200D02*
X15013700Y-12018200D01*
X15013700Y-11988200D02*
X14983700Y-12018200D01*
X14996400Y-8824200D02*
X15026400Y-8854200D01*
X15026400Y-8824200D02*
X14996400Y-8854200D01*
X15009100Y-12699400D02*
X15039100Y-12729400D01*
X15039100Y-12699400D02*
X15009100Y-12729400D01*
X15136100Y-12394600D02*
X15166100Y-12424600D01*
X15166100Y-12394600D02*
X15136100Y-12424600D01*
X15136100Y-12521600D02*
X15166100Y-12551600D01*
X15166100Y-12521600D02*
X15136100Y-12551600D01*
X15174200Y-11796000D02*
X15204200Y-11826000D01*
X15204200Y-11796000D02*
X15174200Y-11826000D01*
X15212300Y-12928000D02*
X15242300Y-12958000D01*
X15242300Y-12928000D02*
X15212300Y-12958000D01*
X15301200Y-9789400D02*
X15331200Y-9819400D01*
X15331200Y-9789400D02*
X15301200Y-9819400D01*
X15390100Y-12521600D02*
X15420100Y-12551600D01*
X15420100Y-12521600D02*
X15390100Y-12551600D01*
X15402800Y-11313400D02*
X15432800Y-11343400D01*
X15432800Y-11313400D02*
X15402800Y-11343400D01*
X15402800Y-11440400D02*
X15432800Y-11470400D01*
X15432800Y-11440400D02*
X15402800Y-11470400D01*
X15440900Y-11785000D02*
X15470900Y-11815000D01*
X15470900Y-11785000D02*
X15440900Y-11815000D01*
X15440900Y-12140600D02*
X15470900Y-12170600D01*
X15470900Y-12140600D02*
X15440900Y-12170600D01*
X15733000Y-11516600D02*
X15763000Y-11546600D01*
X15763000Y-11516600D02*
X15733000Y-11546600D01*
X9483918Y-12883382D02*
G75*
G02*
X9433918Y-12883382I-25000J0D01*
G01*
X9433918Y-12883382D02*
G75*
G02*
X9483918Y-12883382I25000J0D01*
G01*
X9538835Y-12750800D02*
G75*
G02*
X9488835Y-12750800I-25000J0D01*
G01*
X9488835Y-12750800D02*
G75*
G02*
X9538835Y-12750800I25000J0D01*
G01*
X9538835Y-13015965D02*
G75*
G02*
X9488835Y-13015965I-25000J0D01*
G01*
X9488835Y-13015965D02*
G75*
G02*
X9538835Y-13015965I25000J0D01*
G01*
X9545883Y-7219182D02*
G75*
G02*
X9495883Y-7219182I-25000J0D01*
G01*
X9495883Y-7219182D02*
G75*
G02*
X9545883Y-7219182I25000J0D01*
G01*
X9600800Y-7086600D02*
G75*
G02*
X9550800Y-7086600I-25000J0D01*
G01*
X9550800Y-7086600D02*
G75*
G02*
X9600800Y-7086600I25000J0D01*
G01*
X9600800Y-7351765D02*
G75*
G02*
X9550800Y-7351765I-25000J0D01*
G01*
X9550800Y-7351765D02*
G75*
G02*
X9600800Y-7351765I25000J0D01*
G01*
X9671418Y-12695882D02*
G75*
G02*
X9621418Y-12695882I-25000J0D01*
G01*
X9621418Y-12695882D02*
G75*
G02*
X9671418Y-12695882I25000J0D01*
G01*
X9671418Y-13070882D02*
G75*
G02*
X9621418Y-13070882I-25000J0D01*
G01*
X9621418Y-13070882D02*
G75*
G02*
X9671418Y-13070882I25000J0D01*
G01*
X9733383Y-7031682D02*
G75*
G02*
X9683383Y-7031682I-25000J0D01*
G01*
X9683383Y-7031682D02*
G75*
G02*
X9733383Y-7031682I25000J0D01*
G01*
X9733383Y-7406682D02*
G75*
G02*
X9683383Y-7406682I-25000J0D01*
G01*
X9683383Y-7406682D02*
G75*
G02*
X9733383Y-7406682I25000J0D01*
G01*
X9804000Y-12750800D02*
G75*
G02*
X9754000Y-12750800I-25000J0D01*
G01*
X9754000Y-12750800D02*
G75*
G02*
X9804000Y-12750800I25000J0D01*
G01*
X9804000Y-13015965D02*
G75*
G02*
X9754000Y-13015965I-25000J0D01*
G01*
X9754000Y-13015965D02*
G75*
G02*
X9804000Y-13015965I25000J0D01*
G01*
X9858918Y-12883382D02*
G75*
G02*
X9808918Y-12883382I-25000J0D01*
G01*
X9808918Y-12883382D02*
G75*
G02*
X9858918Y-12883382I25000J0D01*
G01*
X9865965Y-7086600D02*
G75*
G02*
X9815965Y-7086600I-25000J0D01*
G01*
X9815965Y-7086600D02*
G75*
G02*
X9865965Y-7086600I25000J0D01*
G01*
X9865965Y-7351765D02*
G75*
G02*
X9815965Y-7351765I-25000J0D01*
G01*
X9815965Y-7351765D02*
G75*
G02*
X9865965Y-7351765I25000J0D01*
G01*
X9920883Y-7219182D02*
G75*
G02*
X9870883Y-7219182I-25000J0D01*
G01*
X9870883Y-7219182D02*
G75*
G02*
X9920883Y-7219182I25000J0D01*
G01*
X15458500Y-7248700D02*
G75*
G02*
X15408500Y-7248700I-25000J0D01*
G01*
X15408500Y-7248700D02*
G75*
G02*
X15458500Y-7248700I25000J0D01*
G01*
X15464082Y-12857982D02*
G75*
G02*
X15414082Y-12857982I-25000J0D01*
G01*
X15414082Y-12857982D02*
G75*
G02*
X15464082Y-12857982I25000J0D01*
G01*
X15513417Y-7116117D02*
G75*
G02*
X15463417Y-7116117I-25000J0D01*
G01*
X15463417Y-7116117D02*
G75*
G02*
X15513417Y-7116117I25000J0D01*
G01*
X15513417Y-7381282D02*
G75*
G02*
X15463417Y-7381282I-25000J0D01*
G01*
X15463417Y-7381282D02*
G75*
G02*
X15513417Y-7381282I25000J0D01*
G01*
X15519000Y-12725400D02*
G75*
G02*
X15469000Y-12725400I-25000J0D01*
G01*
X15469000Y-12725400D02*
G75*
G02*
X15519000Y-12725400I25000J0D01*
G01*
X15519000Y-12990565D02*
G75*
G02*
X15469000Y-12990565I-25000J0D01*
G01*
X15469000Y-12990565D02*
G75*
G02*
X15519000Y-12990565I25000J0D01*
G01*
X15646000Y-7061200D02*
G75*
G02*
X15596000Y-7061200I-25000J0D01*
G01*
X15596000Y-7061200D02*
G75*
G02*
X15646000Y-7061200I25000J0D01*
G01*
X15646000Y-7436200D02*
G75*
G02*
X15596000Y-7436200I-25000J0D01*
G01*
X15596000Y-7436200D02*
G75*
G02*
X15646000Y-7436200I25000J0D01*
G01*
X15651582Y-12670482D02*
G75*
G02*
X15601582Y-12670482I-25000J0D01*
G01*
X15601582Y-12670482D02*
G75*
G02*
X15651582Y-12670482I25000J0D01*
G01*
X15651582Y-13045482D02*
G75*
G02*
X15601582Y-13045482I-25000J0D01*
G01*
X15601582Y-13045482D02*
G75*
G02*
X15651582Y-13045482I25000J0D01*
G01*
X15778582Y-7116117D02*
G75*
G02*
X15728582Y-7116117I-25000J0D01*
G01*
X15728582Y-7116117D02*
G75*
G02*
X15778582Y-7116117I25000J0D01*
G01*
X15778582Y-7381282D02*
G75*
G02*
X15728582Y-7381282I-25000J0D01*
G01*
X15728582Y-7381282D02*
G75*
G02*
X15778582Y-7381282I25000J0D01*
G01*
X15784165Y-12725400D02*
G75*
G02*
X15734165Y-12725400I-25000J0D01*
G01*
X15734165Y-12725400D02*
G75*
G02*
X15784165Y-12725400I25000J0D01*
G01*
X15784165Y-12990565D02*
G75*
G02*
X15734165Y-12990565I-25000J0D01*
G01*
X15734165Y-12990565D02*
G75*
G02*
X15784165Y-12990565I25000J0D01*
G01*
X15833500Y-7248700D02*
G75*
G02*
X15783500Y-7248700I-25000J0D01*
G01*
X15783500Y-7248700D02*
G75*
G02*
X15833500Y-7248700I25000J0D01*
G01*
X15839082Y-12857982D02*
G75*
G02*
X15789082Y-12857982I-25000J0D01*
G01*
X15789082Y-12857982D02*
G75*
G02*
X15839082Y-12857982I25000J0D01*
G01*
X14528800Y-12773660D02*
X14528800Y-12829540D01*
X14500860Y-12801600D02*
X14556740Y-12801600D01*
X10187917Y-12474012D02*
X10187917Y-12417443D01*
X10131348Y-12417443D01*
X10131348Y-12474012D01*
X10187917Y-12474012D01*
X10187917Y-12728012D02*
X10187917Y-12671443D01*
X10131348Y-12671443D01*
X10131348Y-12728012D01*
X10187917Y-12728012D01*
X10187917Y-12982012D02*
X10187917Y-12925443D01*
X10131348Y-12925443D01*
X10131348Y-12982012D01*
X10187917Y-12982012D01*
X10188285Y-7648284D02*
X10188285Y-7591715D01*
X10131716Y-7591715D01*
X10131716Y-7648284D01*
X10188285Y-7648284D01*
X10188285Y-7902284D02*
X10188285Y-7845715D01*
X10131716Y-7845715D01*
X10131716Y-7902284D01*
X10188285Y-7902284D01*
X10188285Y-8156284D02*
X10188285Y-8099715D01*
X10131716Y-8099715D01*
X10131716Y-8156284D01*
X10188285Y-8156284D01*
X10188285Y-8410285D02*
X10188285Y-8353715D01*
X10131716Y-8353715D01*
X10131716Y-8410285D01*
X10188285Y-8410285D01*
X10188285Y-8664285D02*
X10188285Y-8607716D01*
X10131716Y-8607716D01*
X10131716Y-8664285D01*
X10188285Y-8664285D01*
X10188285Y-8918285D02*
X10188285Y-8861716D01*
X10131716Y-8861716D01*
X10131716Y-8918285D01*
X10188285Y-8918285D01*
X10188285Y-9172285D02*
X10188285Y-9115716D01*
X10131716Y-9115716D01*
X10131716Y-9172285D01*
X10188285Y-9172285D01*
X10188285Y-9426285D02*
X10188285Y-9369716D01*
X10131716Y-9369716D01*
X10131716Y-9426285D01*
X10188285Y-9426285D01*
X10188285Y-9680285D02*
X10188285Y-9623716D01*
X10131716Y-9623716D01*
X10131716Y-9680285D01*
X10188285Y-9680285D01*
X10188285Y-9934285D02*
X10188285Y-9877716D01*
X10131716Y-9877716D01*
X10131716Y-9934285D01*
X10188285Y-9934285D01*
X10188285Y-10188285D02*
X10188285Y-10131716D01*
X10131716Y-10131716D01*
X10131716Y-10188285D01*
X10188285Y-10188285D01*
X10188285Y-10442285D02*
X10188285Y-10385716D01*
X10131716Y-10385716D01*
X10131716Y-10442285D01*
X10188285Y-10442285D01*
X10188285Y-10696285D02*
X10188285Y-10639716D01*
X10131716Y-10639716D01*
X10131716Y-10696285D01*
X10188285Y-10696285D01*
X10188285Y-10950285D02*
X10188285Y-10893716D01*
X10131716Y-10893716D01*
X10131716Y-10950285D01*
X10188285Y-10950285D01*
X10188285Y-11204284D02*
X10188285Y-11147716D01*
X10131716Y-11147716D01*
X10131716Y-11204284D01*
X10188285Y-11204284D01*
X10188285Y-11458284D02*
X10188285Y-11401715D01*
X10131716Y-11401715D01*
X10131716Y-11458284D01*
X10188285Y-11458284D01*
X10188285Y-11712284D02*
X10188285Y-11655715D01*
X10131716Y-11655715D01*
X10131716Y-11712284D01*
X10188285Y-11712284D01*
X10188285Y-11966284D02*
X10188285Y-11909715D01*
X10131716Y-11909715D01*
X10131716Y-11966284D01*
X10188285Y-11966284D01*
X10188285Y-12220284D02*
X10188285Y-12163715D01*
X10131716Y-12163715D01*
X10131716Y-12220284D01*
X10188285Y-12220284D01*
X10441917Y-12474012D02*
X10441917Y-12417443D01*
X10385348Y-12417443D01*
X10385348Y-12474012D01*
X10441917Y-12474012D01*
X10441917Y-12728012D02*
X10441917Y-12671443D01*
X10385348Y-12671443D01*
X10385348Y-12728012D01*
X10441917Y-12728012D01*
X10441917Y-12982012D02*
X10441917Y-12925443D01*
X10385348Y-12925443D01*
X10385348Y-12982012D01*
X10441917Y-12982012D01*
X10442285Y-7648284D02*
X10442285Y-7591715D01*
X10385716Y-7591715D01*
X10385716Y-7648284D01*
X10442285Y-7648284D01*
X10442285Y-7902284D02*
X10442285Y-7845715D01*
X10385716Y-7845715D01*
X10385716Y-7902284D01*
X10442285Y-7902284D01*
X10442285Y-8156284D02*
X10442285Y-8099715D01*
X10385716Y-8099715D01*
X10385716Y-8156284D01*
X10442285Y-8156284D01*
X10442285Y-8410285D02*
X10442285Y-8353715D01*
X10385716Y-8353715D01*
X10385716Y-8410285D01*
X10442285Y-8410285D01*
X10442285Y-8664285D02*
X10442285Y-8607716D01*
X10385716Y-8607716D01*
X10385716Y-8664285D01*
X10442285Y-8664285D01*
X10442285Y-8918285D02*
X10442285Y-8861716D01*
X10385716Y-8861716D01*
X10385716Y-8918285D01*
X10442285Y-8918285D01*
X10442285Y-9172285D02*
X10442285Y-9115716D01*
X10385716Y-9115716D01*
X10385716Y-9172285D01*
X10442285Y-9172285D01*
X10442285Y-9426285D02*
X10442285Y-9369716D01*
X10385716Y-9369716D01*
X10385716Y-9426285D01*
X10442285Y-9426285D01*
X10442285Y-9680285D02*
X10442285Y-9623716D01*
X10385716Y-9623716D01*
X10385716Y-9680285D01*
X10442285Y-9680285D01*
X10442285Y-9934285D02*
X10442285Y-9877716D01*
X10385716Y-9877716D01*
X10385716Y-9934285D01*
X10442285Y-9934285D01*
X10442285Y-10188285D02*
X10442285Y-10131716D01*
X10385716Y-10131716D01*
X10385716Y-10188285D01*
X10442285Y-10188285D01*
X10442285Y-10442285D02*
X10442285Y-10385716D01*
X10385716Y-10385716D01*
X10385716Y-10442285D01*
X10442285Y-10442285D01*
X10442285Y-10696285D02*
X10442285Y-10639716D01*
X10385716Y-10639716D01*
X10385716Y-10696285D01*
X10442285Y-10696285D01*
X10442285Y-10950285D02*
X10442285Y-10893716D01*
X10385716Y-10893716D01*
X10385716Y-10950285D01*
X10442285Y-10950285D01*
X10442285Y-11204284D02*
X10442285Y-11147716D01*
X10385716Y-11147716D01*
X10385716Y-11204284D01*
X10442285Y-11204284D01*
X10442285Y-11458284D02*
X10442285Y-11401715D01*
X10385716Y-11401715D01*
X10385716Y-11458284D01*
X10442285Y-11458284D01*
X10442285Y-11712284D02*
X10442285Y-11655715D01*
X10385716Y-11655715D01*
X10385716Y-11712284D01*
X10442285Y-11712284D01*
X10442285Y-11966284D02*
X10442285Y-11909715D01*
X10385716Y-11909715D01*
X10385716Y-11966284D01*
X10442285Y-11966284D01*
X10442285Y-12220284D02*
X10442285Y-12163715D01*
X10385716Y-12163715D01*
X10385716Y-12220284D01*
X10442285Y-12220284D01*
X10690917Y-12476012D02*
X10690917Y-12419443D01*
X10634348Y-12419443D01*
X10634348Y-12476012D01*
X10690917Y-12476012D01*
X10690917Y-12730012D02*
X10690917Y-12673443D01*
X10634348Y-12673443D01*
X10634348Y-12730012D01*
X10690917Y-12730012D01*
X10690917Y-12984012D02*
X10690917Y-12927443D01*
X10634348Y-12927443D01*
X10634348Y-12984012D01*
X10690917Y-12984012D01*
X10691285Y-7650284D02*
X10691285Y-7593715D01*
X10634716Y-7593715D01*
X10634716Y-7650284D01*
X10691285Y-7650284D01*
X10691285Y-7904284D02*
X10691285Y-7847715D01*
X10634716Y-7847715D01*
X10634716Y-7904284D01*
X10691285Y-7904284D01*
X10691285Y-8158284D02*
X10691285Y-8101715D01*
X10634716Y-8101715D01*
X10634716Y-8158284D01*
X10691285Y-8158284D01*
X10691285Y-8412285D02*
X10691285Y-8355715D01*
X10634716Y-8355715D01*
X10634716Y-8412285D01*
X10691285Y-8412285D01*
X10691285Y-8666285D02*
X10691285Y-8609716D01*
X10634716Y-8609716D01*
X10634716Y-8666285D01*
X10691285Y-8666285D01*
X10691285Y-8920285D02*
X10691285Y-8863716D01*
X10634716Y-8863716D01*
X10634716Y-8920285D01*
X10691285Y-8920285D01*
X10691285Y-9174285D02*
X10691285Y-9117716D01*
X10634716Y-9117716D01*
X10634716Y-9174285D01*
X10691285Y-9174285D01*
X10691285Y-9428285D02*
X10691285Y-9371716D01*
X10634716Y-9371716D01*
X10634716Y-9428285D01*
X10691285Y-9428285D01*
X10691285Y-9682285D02*
X10691285Y-9625716D01*
X10634716Y-9625716D01*
X10634716Y-9682285D01*
X10691285Y-9682285D01*
X10691285Y-9936285D02*
X10691285Y-9879716D01*
X10634716Y-9879716D01*
X10634716Y-9936285D01*
X10691285Y-9936285D01*
X10691285Y-10190285D02*
X10691285Y-10133716D01*
X10634716Y-10133716D01*
X10634716Y-10190285D01*
X10691285Y-10190285D01*
X10691285Y-10444285D02*
X10691285Y-10387716D01*
X10634716Y-10387716D01*
X10634716Y-10444285D01*
X10691285Y-10444285D01*
X10691285Y-10698285D02*
X10691285Y-10641716D01*
X10634716Y-10641716D01*
X10634716Y-10698285D01*
X10691285Y-10698285D01*
X10691285Y-10952285D02*
X10691285Y-10895716D01*
X10634716Y-10895716D01*
X10634716Y-10952285D01*
X10691285Y-10952285D01*
X10691285Y-11206284D02*
X10691285Y-11149716D01*
X10634716Y-11149716D01*
X10634716Y-11206284D01*
X10691285Y-11206284D01*
X10691285Y-11460284D02*
X10691285Y-11403715D01*
X10634716Y-11403715D01*
X10634716Y-11460284D01*
X10691285Y-11460284D01*
X10691285Y-11714284D02*
X10691285Y-11657715D01*
X10634716Y-11657715D01*
X10634716Y-11714284D01*
X10691285Y-11714284D01*
X10691285Y-11968284D02*
X10691285Y-11911715D01*
X10634716Y-11911715D01*
X10634716Y-11968284D01*
X10691285Y-11968284D01*
X10691285Y-12222284D02*
X10691285Y-12165715D01*
X10634716Y-12165715D01*
X10634716Y-12222284D01*
X10691285Y-12222284D01*
X12728284Y-7648284D02*
X12728284Y-7591715D01*
X12671715Y-7591715D01*
X12671715Y-7648284D01*
X12728284Y-7648284D01*
X12728284Y-7902284D02*
X12728284Y-7845715D01*
X12671715Y-7845715D01*
X12671715Y-7902284D01*
X12728284Y-7902284D01*
X12728284Y-8156284D02*
X12728284Y-8099715D01*
X12671715Y-8099715D01*
X12671715Y-8156284D01*
X12728284Y-8156284D01*
X12728284Y-8410285D02*
X12728284Y-8353715D01*
X12671715Y-8353715D01*
X12671715Y-8410285D01*
X12728284Y-8410285D01*
X12728284Y-8664285D02*
X12728284Y-8607716D01*
X12671715Y-8607716D01*
X12671715Y-8664285D01*
X12728284Y-8664285D01*
X12728284Y-8918285D02*
X12728284Y-8861716D01*
X12671715Y-8861716D01*
X12671715Y-8918285D01*
X12728284Y-8918285D01*
X12728284Y-9172285D02*
X12728284Y-9115716D01*
X12671715Y-9115716D01*
X12671715Y-9172285D01*
X12728284Y-9172285D01*
X12728284Y-9426285D02*
X12728284Y-9369716D01*
X12671715Y-9369716D01*
X12671715Y-9426285D01*
X12728284Y-9426285D01*
X12728284Y-9680285D02*
X12728284Y-9623716D01*
X12671715Y-9623716D01*
X12671715Y-9680285D01*
X12728284Y-9680285D01*
X12728284Y-9934285D02*
X12728284Y-9877716D01*
X12671715Y-9877716D01*
X12671715Y-9934285D01*
X12728284Y-9934285D01*
X12728284Y-10188285D02*
X12728284Y-10131716D01*
X12671715Y-10131716D01*
X12671715Y-10188285D01*
X12728284Y-10188285D01*
X12728284Y-10442285D02*
X12728284Y-10385716D01*
X12671715Y-10385716D01*
X12671715Y-10442285D01*
X12728284Y-10442285D01*
X12728284Y-10696285D02*
X12728284Y-10639716D01*
X12671715Y-10639716D01*
X12671715Y-10696285D01*
X12728284Y-10696285D01*
X12728284Y-10950285D02*
X12728284Y-10893716D01*
X12671715Y-10893716D01*
X12671715Y-10950285D01*
X12728284Y-10950285D01*
X12728284Y-11204284D02*
X12728284Y-11147716D01*
X12671715Y-11147716D01*
X12671715Y-11204284D01*
X12728284Y-11204284D01*
X12728284Y-11458284D02*
X12728284Y-11401715D01*
X12671715Y-11401715D01*
X12671715Y-11458284D01*
X12728284Y-11458284D01*
X12728284Y-11712284D02*
X12728284Y-11655715D01*
X12671715Y-11655715D01*
X12671715Y-11712284D01*
X12728284Y-11712284D01*
X12728284Y-11966284D02*
X12728284Y-11909715D01*
X12671715Y-11909715D01*
X12671715Y-11966284D01*
X12728284Y-11966284D01*
X12728284Y-12220284D02*
X12728284Y-12163715D01*
X12671715Y-12163715D01*
X12671715Y-12220284D01*
X12728284Y-12220284D01*
X12728284Y-12474284D02*
X12728284Y-12417715D01*
X12671715Y-12417715D01*
X12671715Y-12474284D01*
X12728284Y-12474284D01*
X12728284Y-12728284D02*
X12728284Y-12671715D01*
X12671715Y-12671715D01*
X12671715Y-12728284D01*
X12728284Y-12728284D01*
X12728284Y-12982284D02*
X12728284Y-12925715D01*
X12671715Y-12925715D01*
X12671715Y-12982284D01*
X12728284Y-12982284D01*
X9652000Y-7995200D02*
X9697000Y-7950200D01*
X9652000Y-7905200D01*
X9607000Y-7950200D01*
X9652000Y-7995200D01*
X9652000Y-8249200D02*
X9697000Y-8204200D01*
X9652000Y-8159200D01*
X9607000Y-8204200D01*
X9652000Y-8249200D01*
X9652000Y-10509800D02*
X9697000Y-10464800D01*
X9652000Y-10419800D01*
X9607000Y-10464800D01*
X9652000Y-10509800D01*
X9652000Y-10763800D02*
X9697000Y-10718800D01*
X9652000Y-10673800D01*
X9607000Y-10718800D01*
X9652000Y-10763800D01*
X11126000Y-9322600D02*
X11226000Y-9422600D01*
X11226000Y-9322600D02*
X11126000Y-9422600D01*
X11226000Y-9372600D02*
G75*
G02*
X11126000Y-9372600I-50000J0D01*
G01*
X11126000Y-9372600D02*
G75*
G02*
X11226000Y-9372600I50000J0D01*
G01*
X11126000Y-9576600D02*
X11226000Y-9676600D01*
X11226000Y-9576600D02*
X11126000Y-9676600D01*
X11226000Y-9626600D02*
G75*
G02*
X11126000Y-9626600I-50000J0D01*
G01*
X11126000Y-9626600D02*
G75*
G02*
X11226000Y-9626600I50000J0D01*
G01*
X11126000Y-9830600D02*
X11226000Y-9930600D01*
X11226000Y-9830600D02*
X11126000Y-9930600D01*
X11226000Y-9880600D02*
G75*
G02*
X11126000Y-9880600I-50000J0D01*
G01*
X11126000Y-9880600D02*
G75*
G02*
X11226000Y-9880600I50000J0D01*
G01*
X11126000Y-10084600D02*
X11226000Y-10184600D01*
X11226000Y-10084600D02*
X11126000Y-10184600D01*
X11226000Y-10134600D02*
G75*
G02*
X11126000Y-10134600I-50000J0D01*
G01*
X11126000Y-10134600D02*
G75*
G02*
X11226000Y-10134600I50000J0D01*
G01*
X11126000Y-10338600D02*
X11226000Y-10438600D01*
X11226000Y-10338600D02*
X11126000Y-10438600D01*
X11226000Y-10388600D02*
G75*
G02*
X11126000Y-10388600I-50000J0D01*
G01*
X11126000Y-10388600D02*
G75*
G02*
X11226000Y-10388600I50000J0D01*
G01*
X11126000Y-10592600D02*
X11226000Y-10692600D01*
X11226000Y-10592600D02*
X11126000Y-10692600D01*
X11226000Y-10642600D02*
G75*
G02*
X11126000Y-10642600I-50000J0D01*
G01*
X11126000Y-10642600D02*
G75*
G02*
X11226000Y-10642600I50000J0D01*
G01*
X11126000Y-10846600D02*
X11226000Y-10946600D01*
X11226000Y-10846600D02*
X11126000Y-10946600D01*
X11226000Y-10896600D02*
G75*
G02*
X11126000Y-10896600I-50000J0D01*
G01*
X11126000Y-10896600D02*
G75*
G02*
X11226000Y-10896600I50000J0D01*
G01*
X11126000Y-11100600D02*
X11226000Y-11200600D01*
X11226000Y-11100600D02*
X11126000Y-11200600D01*
X11226000Y-11150600D02*
G75*
G02*
X11126000Y-11150600I-50000J0D01*
G01*
X11126000Y-11150600D02*
G75*
G02*
X11226000Y-11150600I50000J0D01*
G01*
X11126000Y-11354600D02*
X11226000Y-11454600D01*
X11226000Y-11354600D02*
X11126000Y-11454600D01*
X11226000Y-11404600D02*
G75*
G02*
X11126000Y-11404600I-50000J0D01*
G01*
X11126000Y-11404600D02*
G75*
G02*
X11226000Y-11404600I50000J0D01*
G01*
X13615200Y-9398800D02*
X13715200Y-9498800D01*
X13715200Y-9398800D02*
X13615200Y-9498800D01*
X13715200Y-9448800D02*
G75*
G02*
X13615200Y-9448800I-50000J0D01*
G01*
X13615200Y-9448800D02*
G75*
G02*
X13715200Y-9448800I50000J0D01*
G01*
X13869200Y-9398800D02*
X13969200Y-9498800D01*
X13969200Y-9398800D02*
X13869200Y-9498800D01*
X13969200Y-9448800D02*
G75*
G02*
X13869200Y-9448800I-50000J0D01*
G01*
X13869200Y-9448800D02*
G75*
G02*
X13969200Y-9448800I50000J0D01*
G01*
X14123200Y-9398800D02*
X14223200Y-9498800D01*
X14223200Y-9398800D02*
X14123200Y-9498800D01*
X14223200Y-9448800D02*
G75*
G02*
X14123200Y-9448800I-50000J0D01*
G01*
X14123200Y-9448800D02*
G75*
G02*
X14223200Y-9448800I50000J0D01*
G01*
X14377200Y-9398800D02*
X14477200Y-9498800D01*
X14477200Y-9398800D02*
X14377200Y-9498800D01*
X14477200Y-9448800D02*
G75*
G02*
X14377200Y-9448800I-50000J0D01*
G01*
X14377200Y-9448800D02*
G75*
G02*
X14477200Y-9448800I50000J0D01*
G01*
X14631200Y-9398800D02*
X14731200Y-9498800D01*
X14731200Y-9398800D02*
X14631200Y-9498800D01*
X14731200Y-9448800D02*
G75*
G02*
X14631200Y-9448800I-50000J0D01*
G01*
X14631200Y-9448800D02*
G75*
G02*
X14731200Y-9448800I50000J0D01*
G01*
X14885200Y-9398800D02*
X14985200Y-9498800D01*
X14985200Y-9398800D02*
X14885200Y-9498800D01*
X14985200Y-9448800D02*
G75*
G02*
X14885200Y-9448800I-50000J0D01*
G01*
X14885200Y-9448800D02*
G75*
G02*
X14985200Y-9448800I50000J0D01*
G01*
X15139200Y-9398800D02*
X15239200Y-9498800D01*
X15239200Y-9398800D02*
X15139200Y-9498800D01*
X15239200Y-9448800D02*
G75*
G02*
X15139200Y-9448800I-50000J0D01*
G01*
X15139200Y-9448800D02*
G75*
G02*
X15239200Y-9448800I50000J0D01*
G01*
X15393200Y-9398800D02*
X15493200Y-9498800D01*
X15493200Y-9398800D02*
X15393200Y-9498800D01*
X15493200Y-9448800D02*
G75*
G02*
X15393200Y-9448800I-50000J0D01*
G01*
X15393200Y-9448800D02*
G75*
G02*
X15493200Y-9448800I50000J0D01*
G01*
D13*
X9588600Y-8550600D02*
X9708600Y-8670600D01*
X9708600Y-8550600D02*
X9588600Y-8670600D01*
X9648600Y-8550600D02*
X9648600Y-8670600D01*
X9588600Y-8610600D02*
X9708600Y-8610600D01*
X9588600Y-9820600D02*
X9708600Y-9940600D01*
X9708600Y-9820600D02*
X9588600Y-9940600D01*
X9648600Y-9820600D02*
X9648600Y-9940600D01*
X9588600Y-9880600D02*
X9708600Y-9880600D01*
X9592000Y-11039800D02*
X9712000Y-11159800D01*
X9712000Y-11039800D02*
X9592000Y-11159800D01*
X9652000Y-11039800D02*
X9652000Y-11159800D01*
X9592000Y-11099800D02*
X9712000Y-11099800D01*
X9592000Y-12309800D02*
X9712000Y-12429800D01*
X9712000Y-12309800D02*
X9592000Y-12429800D01*
X9652000Y-12309800D02*
X9652000Y-12429800D01*
X9592000Y-12369800D02*
X9712000Y-12369800D01*
D14*
X9521418Y-12758382D02*
X9771418Y-13008382D01*
X9771418Y-12758382D02*
X9521418Y-13008382D01*
X9734807Y-12971772D02*
X9734807Y-12794993D01*
X9558028Y-12794993D01*
X9558028Y-12971772D01*
X9734807Y-12971772D01*
X9583383Y-7094182D02*
X9833383Y-7344182D01*
X9833383Y-7094182D02*
X9583383Y-7344182D01*
X9796772Y-7307572D02*
X9796772Y-7130793D01*
X9619993Y-7130793D01*
X9619993Y-7307572D01*
X9796772Y-7307572D01*
X15496000Y-7123700D02*
X15746000Y-7373700D01*
X15746000Y-7123700D02*
X15496000Y-7373700D01*
X15709389Y-7337089D02*
X15709389Y-7160311D01*
X15532611Y-7160311D01*
X15532611Y-7337089D01*
X15709389Y-7337089D01*
X15501582Y-12732982D02*
X15751582Y-12982982D01*
X15751582Y-12732982D02*
X15501582Y-12982982D01*
X15714972Y-12946372D02*
X15714972Y-12769593D01*
X15538193Y-12769593D01*
X15538193Y-12946372D01*
X15714972Y-12946372D01*
D11*
X9580077Y-13521984D02*
X9580077Y-13321984D01*
X9580077Y-13321984D02*
X9627696Y-13321984D01*
X9627696Y-13321984D02*
X9656267Y-13331508D01*
X9656267Y-13331508D02*
X9675315Y-13350555D01*
X9675315Y-13350555D02*
X9684839Y-13369603D01*
X9684839Y-13369603D02*
X9694363Y-13407698D01*
X9694363Y-13407698D02*
X9694363Y-13436269D01*
X9694363Y-13436269D02*
X9684839Y-13474365D01*
X9684839Y-13474365D02*
X9675315Y-13493412D01*
X9675315Y-13493412D02*
X9656267Y-13512460D01*
X9656267Y-13512460D02*
X9627696Y-13521984D01*
X9627696Y-13521984D02*
X9580077Y-13521984D01*
X9780077Y-13521984D02*
X9780077Y-13388650D01*
X9780077Y-13426746D02*
X9789601Y-13407698D01*
X9789601Y-13407698D02*
X9799124Y-13398174D01*
X9799124Y-13398174D02*
X9818172Y-13388650D01*
X9818172Y-13388650D02*
X9837220Y-13388650D01*
X9903886Y-13521984D02*
X9903886Y-13388650D01*
X9903886Y-13321984D02*
X9894363Y-13331508D01*
X9894363Y-13331508D02*
X9903886Y-13341031D01*
X9903886Y-13341031D02*
X9913410Y-13331508D01*
X9913410Y-13331508D02*
X9903886Y-13321984D01*
X9903886Y-13321984D02*
X9903886Y-13341031D01*
X10027696Y-13521984D02*
X10008648Y-13512460D01*
X10008648Y-13512460D02*
X9999124Y-13493412D01*
X9999124Y-13493412D02*
X9999124Y-13321984D01*
X10132458Y-13521984D02*
X10113410Y-13512460D01*
X10113410Y-13512460D02*
X10103886Y-13493412D01*
X10103886Y-13493412D02*
X10103886Y-13321984D01*
X10361029Y-13521984D02*
X10361029Y-13321984D01*
X10361029Y-13321984D02*
X10427696Y-13464841D01*
X10427696Y-13464841D02*
X10494363Y-13321984D01*
X10494363Y-13321984D02*
X10494363Y-13521984D01*
X10675315Y-13521984D02*
X10675315Y-13417222D01*
X10675315Y-13417222D02*
X10665791Y-13398174D01*
X10665791Y-13398174D02*
X10646744Y-13388650D01*
X10646744Y-13388650D02*
X10608648Y-13388650D01*
X10608648Y-13388650D02*
X10589601Y-13398174D01*
X10675315Y-13512460D02*
X10656267Y-13521984D01*
X10656267Y-13521984D02*
X10608648Y-13521984D01*
X10608648Y-13521984D02*
X10589601Y-13512460D01*
X10589601Y-13512460D02*
X10580077Y-13493412D01*
X10580077Y-13493412D02*
X10580077Y-13474365D01*
X10580077Y-13474365D02*
X10589601Y-13455317D01*
X10589601Y-13455317D02*
X10608648Y-13445793D01*
X10608648Y-13445793D02*
X10656267Y-13445793D01*
X10656267Y-13445793D02*
X10675315Y-13436269D01*
X10770553Y-13388650D02*
X10770553Y-13588650D01*
X10770553Y-13398174D02*
X10789601Y-13388650D01*
X10789601Y-13388650D02*
X10827696Y-13388650D01*
X10827696Y-13388650D02*
X10846744Y-13398174D01*
X10846744Y-13398174D02*
X10856267Y-13407698D01*
X10856267Y-13407698D02*
X10865791Y-13426746D01*
X10865791Y-13426746D02*
X10865791Y-13483888D01*
X10865791Y-13483888D02*
X10856267Y-13502936D01*
X10856267Y-13502936D02*
X10846744Y-13512460D01*
X10846744Y-13512460D02*
X10827696Y-13521984D01*
X10827696Y-13521984D02*
X10789601Y-13521984D01*
X10789601Y-13521984D02*
X10770553Y-13512460D01*
X10951505Y-13502936D02*
X10961029Y-13512460D01*
X10961029Y-13512460D02*
X10951505Y-13521984D01*
X10951505Y-13521984D02*
X10941982Y-13512460D01*
X10941982Y-13512460D02*
X10951505Y-13502936D01*
X10951505Y-13502936D02*
X10951505Y-13521984D01*
X10951505Y-13398174D02*
X10961029Y-13407698D01*
X10961029Y-13407698D02*
X10951505Y-13417222D01*
X10951505Y-13417222D02*
X10941982Y-13407698D01*
X10941982Y-13407698D02*
X10951505Y-13398174D01*
X10951505Y-13398174D02*
X10951505Y-13417222D01*
D12*
X9289300Y-13835500D02*
X9319300Y-13865500D01*
X9319300Y-13835500D02*
X9289300Y-13865500D01*
D11*
X9618172Y-13741984D02*
X9637220Y-13741984D01*
X9637220Y-13741984D02*
X9656267Y-13751508D01*
X9656267Y-13751508D02*
X9665791Y-13761031D01*
X9665791Y-13761031D02*
X9675315Y-13780079D01*
X9675315Y-13780079D02*
X9684839Y-13818174D01*
X9684839Y-13818174D02*
X9684839Y-13865793D01*
X9684839Y-13865793D02*
X9675315Y-13903888D01*
X9675315Y-13903888D02*
X9665791Y-13922936D01*
X9665791Y-13922936D02*
X9656267Y-13932460D01*
X9656267Y-13932460D02*
X9637220Y-13941984D01*
X9637220Y-13941984D02*
X9618172Y-13941984D01*
X9618172Y-13941984D02*
X9599124Y-13932460D01*
X9599124Y-13932460D02*
X9589601Y-13922936D01*
X9589601Y-13922936D02*
X9580077Y-13903888D01*
X9580077Y-13903888D02*
X9570553Y-13865793D01*
X9570553Y-13865793D02*
X9570553Y-13818174D01*
X9570553Y-13818174D02*
X9580077Y-13780079D01*
X9580077Y-13780079D02*
X9589601Y-13761031D01*
X9589601Y-13761031D02*
X9599124Y-13751508D01*
X9599124Y-13751508D02*
X9618172Y-13741984D01*
X9770553Y-13922936D02*
X9780077Y-13932460D01*
X9780077Y-13932460D02*
X9770553Y-13941984D01*
X9770553Y-13941984D02*
X9761029Y-13932460D01*
X9761029Y-13932460D02*
X9770553Y-13922936D01*
X9770553Y-13922936D02*
X9770553Y-13941984D01*
X9846744Y-13741984D02*
X9970553Y-13741984D01*
X9970553Y-13741984D02*
X9903886Y-13818174D01*
X9903886Y-13818174D02*
X9932458Y-13818174D01*
X9932458Y-13818174D02*
X9951505Y-13827698D01*
X9951505Y-13827698D02*
X9961029Y-13837222D01*
X9961029Y-13837222D02*
X9970553Y-13856269D01*
X9970553Y-13856269D02*
X9970553Y-13903888D01*
X9970553Y-13903888D02*
X9961029Y-13922936D01*
X9961029Y-13922936D02*
X9951505Y-13932460D01*
X9951505Y-13932460D02*
X9932458Y-13941984D01*
X9932458Y-13941984D02*
X9875315Y-13941984D01*
X9875315Y-13941984D02*
X9856267Y-13932460D01*
X9856267Y-13932460D02*
X9846744Y-13922936D01*
X10094363Y-13741984D02*
X10113410Y-13741984D01*
X10113410Y-13741984D02*
X10132458Y-13751508D01*
X10132458Y-13751508D02*
X10141982Y-13761031D01*
X10141982Y-13761031D02*
X10151505Y-13780079D01*
X10151505Y-13780079D02*
X10161029Y-13818174D01*
X10161029Y-13818174D02*
X10161029Y-13865793D01*
X10161029Y-13865793D02*
X10151505Y-13903888D01*
X10151505Y-13903888D02*
X10141982Y-13922936D01*
X10141982Y-13922936D02*
X10132458Y-13932460D01*
X10132458Y-13932460D02*
X10113410Y-13941984D01*
X10113410Y-13941984D02*
X10094363Y-13941984D01*
X10094363Y-13941984D02*
X10075315Y-13932460D01*
X10075315Y-13932460D02*
X10065791Y-13922936D01*
X10065791Y-13922936D02*
X10056267Y-13903888D01*
X10056267Y-13903888D02*
X10046744Y-13865793D01*
X10046744Y-13865793D02*
X10046744Y-13818174D01*
X10046744Y-13818174D02*
X10056267Y-13780079D01*
X10056267Y-13780079D02*
X10065791Y-13761031D01*
X10065791Y-13761031D02*
X10075315Y-13751508D01*
X10075315Y-13751508D02*
X10094363Y-13741984D01*
X10284839Y-13741984D02*
X10303886Y-13741984D01*
X10303886Y-13741984D02*
X10322934Y-13751508D01*
X10322934Y-13751508D02*
X10332458Y-13761031D01*
X10332458Y-13761031D02*
X10341982Y-13780079D01*
X10341982Y-13780079D02*
X10351505Y-13818174D01*
X10351505Y-13818174D02*
X10351505Y-13865793D01*
X10351505Y-13865793D02*
X10341982Y-13903888D01*
X10341982Y-13903888D02*
X10332458Y-13922936D01*
X10332458Y-13922936D02*
X10322934Y-13932460D01*
X10322934Y-13932460D02*
X10303886Y-13941984D01*
X10303886Y-13941984D02*
X10284839Y-13941984D01*
X10284839Y-13941984D02*
X10265791Y-13932460D01*
X10265791Y-13932460D02*
X10256267Y-13922936D01*
X10256267Y-13922936D02*
X10246744Y-13903888D01*
X10246744Y-13903888D02*
X10237220Y-13865793D01*
X10237220Y-13865793D02*
X10237220Y-13818174D01*
X10237220Y-13818174D02*
X10246744Y-13780079D01*
X10246744Y-13780079D02*
X10256267Y-13761031D01*
X10256267Y-13761031D02*
X10265791Y-13751508D01*
X10265791Y-13751508D02*
X10284839Y-13741984D01*
X10437220Y-13941984D02*
X10437220Y-13808650D01*
X10437220Y-13827698D02*
X10446744Y-13818174D01*
X10446744Y-13818174D02*
X10465791Y-13808650D01*
X10465791Y-13808650D02*
X10494363Y-13808650D01*
X10494363Y-13808650D02*
X10513410Y-13818174D01*
X10513410Y-13818174D02*
X10522934Y-13837222D01*
X10522934Y-13837222D02*
X10522934Y-13941984D01*
X10522934Y-13837222D02*
X10532458Y-13818174D01*
X10532458Y-13818174D02*
X10551505Y-13808650D01*
X10551505Y-13808650D02*
X10580077Y-13808650D01*
X10580077Y-13808650D02*
X10599125Y-13818174D01*
X10599125Y-13818174D02*
X10608648Y-13837222D01*
X10608648Y-13837222D02*
X10608648Y-13941984D01*
X10703886Y-13941984D02*
X10703886Y-13808650D01*
X10703886Y-13827698D02*
X10713410Y-13818174D01*
X10713410Y-13818174D02*
X10732458Y-13808650D01*
X10732458Y-13808650D02*
X10761029Y-13808650D01*
X10761029Y-13808650D02*
X10780077Y-13818174D01*
X10780077Y-13818174D02*
X10789601Y-13837222D01*
X10789601Y-13837222D02*
X10789601Y-13941984D01*
X10789601Y-13837222D02*
X10799125Y-13818174D01*
X10799125Y-13818174D02*
X10818172Y-13808650D01*
X10818172Y-13808650D02*
X10846744Y-13808650D01*
X10846744Y-13808650D02*
X10865791Y-13818174D01*
X10865791Y-13818174D02*
X10875315Y-13837222D01*
X10875315Y-13837222D02*
X10875315Y-13941984D01*
X11265791Y-13732460D02*
X11094363Y-13989603D01*
X11522934Y-13741984D02*
X11541982Y-13741984D01*
X11541982Y-13741984D02*
X11561029Y-13751508D01*
X11561029Y-13751508D02*
X11570553Y-13761031D01*
X11570553Y-13761031D02*
X11580077Y-13780079D01*
X11580077Y-13780079D02*
X11589601Y-13818174D01*
X11589601Y-13818174D02*
X11589601Y-13865793D01*
X11589601Y-13865793D02*
X11580077Y-13903888D01*
X11580077Y-13903888D02*
X11570553Y-13922936D01*
X11570553Y-13922936D02*
X11561029Y-13932460D01*
X11561029Y-13932460D02*
X11541982Y-13941984D01*
X11541982Y-13941984D02*
X11522934Y-13941984D01*
X11522934Y-13941984D02*
X11503886Y-13932460D01*
X11503886Y-13932460D02*
X11494363Y-13922936D01*
X11494363Y-13922936D02*
X11484839Y-13903888D01*
X11484839Y-13903888D02*
X11475315Y-13865793D01*
X11475315Y-13865793D02*
X11475315Y-13818174D01*
X11475315Y-13818174D02*
X11484839Y-13780079D01*
X11484839Y-13780079D02*
X11494363Y-13761031D01*
X11494363Y-13761031D02*
X11503886Y-13751508D01*
X11503886Y-13751508D02*
X11522934Y-13741984D01*
X11675315Y-13922936D02*
X11684839Y-13932460D01*
X11684839Y-13932460D02*
X11675315Y-13941984D01*
X11675315Y-13941984D02*
X11665791Y-13932460D01*
X11665791Y-13932460D02*
X11675315Y-13922936D01*
X11675315Y-13922936D02*
X11675315Y-13941984D01*
X11808648Y-13741984D02*
X11827696Y-13741984D01*
X11827696Y-13741984D02*
X11846744Y-13751508D01*
X11846744Y-13751508D02*
X11856267Y-13761031D01*
X11856267Y-13761031D02*
X11865791Y-13780079D01*
X11865791Y-13780079D02*
X11875315Y-13818174D01*
X11875315Y-13818174D02*
X11875315Y-13865793D01*
X11875315Y-13865793D02*
X11865791Y-13903888D01*
X11865791Y-13903888D02*
X11856267Y-13922936D01*
X11856267Y-13922936D02*
X11846744Y-13932460D01*
X11846744Y-13932460D02*
X11827696Y-13941984D01*
X11827696Y-13941984D02*
X11808648Y-13941984D01*
X11808648Y-13941984D02*
X11789601Y-13932460D01*
X11789601Y-13932460D02*
X11780077Y-13922936D01*
X11780077Y-13922936D02*
X11770553Y-13903888D01*
X11770553Y-13903888D02*
X11761029Y-13865793D01*
X11761029Y-13865793D02*
X11761029Y-13818174D01*
X11761029Y-13818174D02*
X11770553Y-13780079D01*
X11770553Y-13780079D02*
X11780077Y-13761031D01*
X11780077Y-13761031D02*
X11789601Y-13751508D01*
X11789601Y-13751508D02*
X11808648Y-13741984D01*
X12065791Y-13941984D02*
X11951506Y-13941984D01*
X12008648Y-13941984D02*
X12008648Y-13741984D01*
X12008648Y-13741984D02*
X11989601Y-13770555D01*
X11989601Y-13770555D02*
X11970553Y-13789603D01*
X11970553Y-13789603D02*
X11951506Y-13799127D01*
X12256267Y-13941984D02*
X12141982Y-13941984D01*
X12199125Y-13941984D02*
X12199125Y-13741984D01*
X12199125Y-13741984D02*
X12180077Y-13770555D01*
X12180077Y-13770555D02*
X12161029Y-13789603D01*
X12161029Y-13789603D02*
X12141982Y-13799127D01*
X12370553Y-13827698D02*
X12351506Y-13818174D01*
X12351506Y-13818174D02*
X12341982Y-13808650D01*
X12341982Y-13808650D02*
X12332458Y-13789603D01*
X12332458Y-13789603D02*
X12332458Y-13780079D01*
X12332458Y-13780079D02*
X12341982Y-13761031D01*
X12341982Y-13761031D02*
X12351506Y-13751508D01*
X12351506Y-13751508D02*
X12370553Y-13741984D01*
X12370553Y-13741984D02*
X12408648Y-13741984D01*
X12408648Y-13741984D02*
X12427696Y-13751508D01*
X12427696Y-13751508D02*
X12437220Y-13761031D01*
X12437220Y-13761031D02*
X12446744Y-13780079D01*
X12446744Y-13780079D02*
X12446744Y-13789603D01*
X12446744Y-13789603D02*
X12437220Y-13808650D01*
X12437220Y-13808650D02*
X12427696Y-13818174D01*
X12427696Y-13818174D02*
X12408648Y-13827698D01*
X12408648Y-13827698D02*
X12370553Y-13827698D01*
X12370553Y-13827698D02*
X12351506Y-13837222D01*
X12351506Y-13837222D02*
X12341982Y-13846746D01*
X12341982Y-13846746D02*
X12332458Y-13865793D01*
X12332458Y-13865793D02*
X12332458Y-13903888D01*
X12332458Y-13903888D02*
X12341982Y-13922936D01*
X12341982Y-13922936D02*
X12351506Y-13932460D01*
X12351506Y-13932460D02*
X12370553Y-13941984D01*
X12370553Y-13941984D02*
X12408648Y-13941984D01*
X12408648Y-13941984D02*
X12427696Y-13932460D01*
X12427696Y-13932460D02*
X12437220Y-13922936D01*
X12437220Y-13922936D02*
X12446744Y-13903888D01*
X12446744Y-13903888D02*
X12446744Y-13865793D01*
X12446744Y-13865793D02*
X12437220Y-13846746D01*
X12437220Y-13846746D02*
X12427696Y-13837222D01*
X12427696Y-13837222D02*
X12408648Y-13827698D01*
X12522934Y-13741984D02*
X12522934Y-13780079D01*
X12599125Y-13741984D02*
X12599125Y-13780079D01*
X12894363Y-14018174D02*
X12884839Y-14008650D01*
X12884839Y-14008650D02*
X12865791Y-13980079D01*
X12865791Y-13980079D02*
X12856268Y-13961031D01*
X12856268Y-13961031D02*
X12846744Y-13932460D01*
X12846744Y-13932460D02*
X12837220Y-13884841D01*
X12837220Y-13884841D02*
X12837220Y-13846746D01*
X12837220Y-13846746D02*
X12846744Y-13799127D01*
X12846744Y-13799127D02*
X12856268Y-13770555D01*
X12856268Y-13770555D02*
X12865791Y-13751508D01*
X12865791Y-13751508D02*
X12884839Y-13722936D01*
X12884839Y-13722936D02*
X12894363Y-13713412D01*
X13065791Y-13741984D02*
X12970553Y-13741984D01*
X12970553Y-13741984D02*
X12961029Y-13837222D01*
X12961029Y-13837222D02*
X12970553Y-13827698D01*
X12970553Y-13827698D02*
X12989601Y-13818174D01*
X12989601Y-13818174D02*
X13037220Y-13818174D01*
X13037220Y-13818174D02*
X13056268Y-13827698D01*
X13056268Y-13827698D02*
X13065791Y-13837222D01*
X13065791Y-13837222D02*
X13075315Y-13856269D01*
X13075315Y-13856269D02*
X13075315Y-13903888D01*
X13075315Y-13903888D02*
X13065791Y-13922936D01*
X13065791Y-13922936D02*
X13056268Y-13932460D01*
X13056268Y-13932460D02*
X13037220Y-13941984D01*
X13037220Y-13941984D02*
X12989601Y-13941984D01*
X12989601Y-13941984D02*
X12970553Y-13932460D01*
X12970553Y-13932460D02*
X12961029Y-13922936D01*
X13256268Y-13741984D02*
X13161029Y-13741984D01*
X13161029Y-13741984D02*
X13151506Y-13837222D01*
X13151506Y-13837222D02*
X13161029Y-13827698D01*
X13161029Y-13827698D02*
X13180077Y-13818174D01*
X13180077Y-13818174D02*
X13227696Y-13818174D01*
X13227696Y-13818174D02*
X13246744Y-13827698D01*
X13246744Y-13827698D02*
X13256268Y-13837222D01*
X13256268Y-13837222D02*
X13265791Y-13856269D01*
X13265791Y-13856269D02*
X13265791Y-13903888D01*
X13265791Y-13903888D02*
X13256268Y-13922936D01*
X13256268Y-13922936D02*
X13246744Y-13932460D01*
X13246744Y-13932460D02*
X13227696Y-13941984D01*
X13227696Y-13941984D02*
X13180077Y-13941984D01*
X13180077Y-13941984D02*
X13161029Y-13932460D01*
X13161029Y-13932460D02*
X13151506Y-13922936D01*
X13503887Y-13941984D02*
X13503887Y-13741984D01*
X13589601Y-13941984D02*
X13589601Y-13837222D01*
X13589601Y-13837222D02*
X13580077Y-13818174D01*
X13580077Y-13818174D02*
X13561030Y-13808650D01*
X13561030Y-13808650D02*
X13532458Y-13808650D01*
X13532458Y-13808650D02*
X13513410Y-13818174D01*
X13513410Y-13818174D02*
X13503887Y-13827698D01*
X13713410Y-13941984D02*
X13694363Y-13932460D01*
X13694363Y-13932460D02*
X13684839Y-13922936D01*
X13684839Y-13922936D02*
X13675315Y-13903888D01*
X13675315Y-13903888D02*
X13675315Y-13846746D01*
X13675315Y-13846746D02*
X13684839Y-13827698D01*
X13684839Y-13827698D02*
X13694363Y-13818174D01*
X13694363Y-13818174D02*
X13713410Y-13808650D01*
X13713410Y-13808650D02*
X13741982Y-13808650D01*
X13741982Y-13808650D02*
X13761030Y-13818174D01*
X13761030Y-13818174D02*
X13770553Y-13827698D01*
X13770553Y-13827698D02*
X13780077Y-13846746D01*
X13780077Y-13846746D02*
X13780077Y-13903888D01*
X13780077Y-13903888D02*
X13770553Y-13922936D01*
X13770553Y-13922936D02*
X13761030Y-13932460D01*
X13761030Y-13932460D02*
X13741982Y-13941984D01*
X13741982Y-13941984D02*
X13713410Y-13941984D01*
X13894363Y-13941984D02*
X13875315Y-13932460D01*
X13875315Y-13932460D02*
X13865791Y-13913412D01*
X13865791Y-13913412D02*
X13865791Y-13741984D01*
X14046744Y-13932460D02*
X14027696Y-13941984D01*
X14027696Y-13941984D02*
X13989601Y-13941984D01*
X13989601Y-13941984D02*
X13970553Y-13932460D01*
X13970553Y-13932460D02*
X13961030Y-13913412D01*
X13961030Y-13913412D02*
X13961030Y-13837222D01*
X13961030Y-13837222D02*
X13970553Y-13818174D01*
X13970553Y-13818174D02*
X13989601Y-13808650D01*
X13989601Y-13808650D02*
X14027696Y-13808650D01*
X14027696Y-13808650D02*
X14046744Y-13818174D01*
X14046744Y-13818174D02*
X14056268Y-13837222D01*
X14056268Y-13837222D02*
X14056268Y-13856269D01*
X14056268Y-13856269D02*
X13961030Y-13875317D01*
X14132458Y-13932460D02*
X14151506Y-13941984D01*
X14151506Y-13941984D02*
X14189601Y-13941984D01*
X14189601Y-13941984D02*
X14208649Y-13932460D01*
X14208649Y-13932460D02*
X14218172Y-13913412D01*
X14218172Y-13913412D02*
X14218172Y-13903888D01*
X14218172Y-13903888D02*
X14208649Y-13884841D01*
X14208649Y-13884841D02*
X14189601Y-13875317D01*
X14189601Y-13875317D02*
X14161030Y-13875317D01*
X14161030Y-13875317D02*
X14141982Y-13865793D01*
X14141982Y-13865793D02*
X14132458Y-13846746D01*
X14132458Y-13846746D02*
X14132458Y-13837222D01*
X14132458Y-13837222D02*
X14141982Y-13818174D01*
X14141982Y-13818174D02*
X14161030Y-13808650D01*
X14161030Y-13808650D02*
X14189601Y-13808650D01*
X14189601Y-13808650D02*
X14208649Y-13818174D01*
X14284839Y-14018174D02*
X14294363Y-14008650D01*
X14294363Y-14008650D02*
X14313411Y-13980079D01*
X14313411Y-13980079D02*
X14322934Y-13961031D01*
X14322934Y-13961031D02*
X14332458Y-13932460D01*
X14332458Y-13932460D02*
X14341982Y-13884841D01*
X14341982Y-13884841D02*
X14341982Y-13846746D01*
X14341982Y-13846746D02*
X14332458Y-13799127D01*
X14332458Y-13799127D02*
X14322934Y-13770555D01*
X14322934Y-13770555D02*
X14313411Y-13751508D01*
X14313411Y-13751508D02*
X14294363Y-13722936D01*
X14294363Y-13722936D02*
X14284839Y-13713412D01*
D12*
X9319300Y-14114500D02*
G75*
G02*
X9269300Y-14114500I-25000J0D01*
G01*
X9269300Y-14114500D02*
G75*
G02*
X9319300Y-14114500I25000J0D01*
G01*
D11*
X9618172Y-14005984D02*
X9637220Y-14005984D01*
X9637220Y-14005984D02*
X9656267Y-14015508D01*
X9656267Y-14015508D02*
X9665791Y-14025031D01*
X9665791Y-14025031D02*
X9675315Y-14044079D01*
X9675315Y-14044079D02*
X9684839Y-14082174D01*
X9684839Y-14082174D02*
X9684839Y-14129793D01*
X9684839Y-14129793D02*
X9675315Y-14167888D01*
X9675315Y-14167888D02*
X9665791Y-14186936D01*
X9665791Y-14186936D02*
X9656267Y-14196460D01*
X9656267Y-14196460D02*
X9637220Y-14205984D01*
X9637220Y-14205984D02*
X9618172Y-14205984D01*
X9618172Y-14205984D02*
X9599124Y-14196460D01*
X9599124Y-14196460D02*
X9589601Y-14186936D01*
X9589601Y-14186936D02*
X9580077Y-14167888D01*
X9580077Y-14167888D02*
X9570553Y-14129793D01*
X9570553Y-14129793D02*
X9570553Y-14082174D01*
X9570553Y-14082174D02*
X9580077Y-14044079D01*
X9580077Y-14044079D02*
X9589601Y-14025031D01*
X9589601Y-14025031D02*
X9599124Y-14015508D01*
X9599124Y-14015508D02*
X9618172Y-14005984D01*
X9770553Y-14186936D02*
X9780077Y-14196460D01*
X9780077Y-14196460D02*
X9770553Y-14205984D01*
X9770553Y-14205984D02*
X9761029Y-14196460D01*
X9761029Y-14196460D02*
X9770553Y-14186936D01*
X9770553Y-14186936D02*
X9770553Y-14205984D01*
X9961029Y-14005984D02*
X9865791Y-14005984D01*
X9865791Y-14005984D02*
X9856267Y-14101222D01*
X9856267Y-14101222D02*
X9865791Y-14091698D01*
X9865791Y-14091698D02*
X9884839Y-14082174D01*
X9884839Y-14082174D02*
X9932458Y-14082174D01*
X9932458Y-14082174D02*
X9951505Y-14091698D01*
X9951505Y-14091698D02*
X9961029Y-14101222D01*
X9961029Y-14101222D02*
X9970553Y-14120269D01*
X9970553Y-14120269D02*
X9970553Y-14167888D01*
X9970553Y-14167888D02*
X9961029Y-14186936D01*
X9961029Y-14186936D02*
X9951505Y-14196460D01*
X9951505Y-14196460D02*
X9932458Y-14205984D01*
X9932458Y-14205984D02*
X9884839Y-14205984D01*
X9884839Y-14205984D02*
X9865791Y-14196460D01*
X9865791Y-14196460D02*
X9856267Y-14186936D01*
X10094363Y-14005984D02*
X10113410Y-14005984D01*
X10113410Y-14005984D02*
X10132458Y-14015508D01*
X10132458Y-14015508D02*
X10141982Y-14025031D01*
X10141982Y-14025031D02*
X10151505Y-14044079D01*
X10151505Y-14044079D02*
X10161029Y-14082174D01*
X10161029Y-14082174D02*
X10161029Y-14129793D01*
X10161029Y-14129793D02*
X10151505Y-14167888D01*
X10151505Y-14167888D02*
X10141982Y-14186936D01*
X10141982Y-14186936D02*
X10132458Y-14196460D01*
X10132458Y-14196460D02*
X10113410Y-14205984D01*
X10113410Y-14205984D02*
X10094363Y-14205984D01*
X10094363Y-14205984D02*
X10075315Y-14196460D01*
X10075315Y-14196460D02*
X10065791Y-14186936D01*
X10065791Y-14186936D02*
X10056267Y-14167888D01*
X10056267Y-14167888D02*
X10046744Y-14129793D01*
X10046744Y-14129793D02*
X10046744Y-14082174D01*
X10046744Y-14082174D02*
X10056267Y-14044079D01*
X10056267Y-14044079D02*
X10065791Y-14025031D01*
X10065791Y-14025031D02*
X10075315Y-14015508D01*
X10075315Y-14015508D02*
X10094363Y-14005984D01*
X10284839Y-14005984D02*
X10303886Y-14005984D01*
X10303886Y-14005984D02*
X10322934Y-14015508D01*
X10322934Y-14015508D02*
X10332458Y-14025031D01*
X10332458Y-14025031D02*
X10341982Y-14044079D01*
X10341982Y-14044079D02*
X10351505Y-14082174D01*
X10351505Y-14082174D02*
X10351505Y-14129793D01*
X10351505Y-14129793D02*
X10341982Y-14167888D01*
X10341982Y-14167888D02*
X10332458Y-14186936D01*
X10332458Y-14186936D02*
X10322934Y-14196460D01*
X10322934Y-14196460D02*
X10303886Y-14205984D01*
X10303886Y-14205984D02*
X10284839Y-14205984D01*
X10284839Y-14205984D02*
X10265791Y-14196460D01*
X10265791Y-14196460D02*
X10256267Y-14186936D01*
X10256267Y-14186936D02*
X10246744Y-14167888D01*
X10246744Y-14167888D02*
X10237220Y-14129793D01*
X10237220Y-14129793D02*
X10237220Y-14082174D01*
X10237220Y-14082174D02*
X10246744Y-14044079D01*
X10246744Y-14044079D02*
X10256267Y-14025031D01*
X10256267Y-14025031D02*
X10265791Y-14015508D01*
X10265791Y-14015508D02*
X10284839Y-14005984D01*
X10437220Y-14205984D02*
X10437220Y-14072650D01*
X10437220Y-14091698D02*
X10446744Y-14082174D01*
X10446744Y-14082174D02*
X10465791Y-14072650D01*
X10465791Y-14072650D02*
X10494363Y-14072650D01*
X10494363Y-14072650D02*
X10513410Y-14082174D01*
X10513410Y-14082174D02*
X10522934Y-14101222D01*
X10522934Y-14101222D02*
X10522934Y-14205984D01*
X10522934Y-14101222D02*
X10532458Y-14082174D01*
X10532458Y-14082174D02*
X10551505Y-14072650D01*
X10551505Y-14072650D02*
X10580077Y-14072650D01*
X10580077Y-14072650D02*
X10599125Y-14082174D01*
X10599125Y-14082174D02*
X10608648Y-14101222D01*
X10608648Y-14101222D02*
X10608648Y-14205984D01*
X10703886Y-14205984D02*
X10703886Y-14072650D01*
X10703886Y-14091698D02*
X10713410Y-14082174D01*
X10713410Y-14082174D02*
X10732458Y-14072650D01*
X10732458Y-14072650D02*
X10761029Y-14072650D01*
X10761029Y-14072650D02*
X10780077Y-14082174D01*
X10780077Y-14082174D02*
X10789601Y-14101222D01*
X10789601Y-14101222D02*
X10789601Y-14205984D01*
X10789601Y-14101222D02*
X10799125Y-14082174D01*
X10799125Y-14082174D02*
X10818172Y-14072650D01*
X10818172Y-14072650D02*
X10846744Y-14072650D01*
X10846744Y-14072650D02*
X10865791Y-14082174D01*
X10865791Y-14082174D02*
X10875315Y-14101222D01*
X10875315Y-14101222D02*
X10875315Y-14205984D01*
X11265791Y-13996460D02*
X11094363Y-14253603D01*
X11522934Y-14005984D02*
X11541982Y-14005984D01*
X11541982Y-14005984D02*
X11561029Y-14015508D01*
X11561029Y-14015508D02*
X11570553Y-14025031D01*
X11570553Y-14025031D02*
X11580077Y-14044079D01*
X11580077Y-14044079D02*
X11589601Y-14082174D01*
X11589601Y-14082174D02*
X11589601Y-14129793D01*
X11589601Y-14129793D02*
X11580077Y-14167888D01*
X11580077Y-14167888D02*
X11570553Y-14186936D01*
X11570553Y-14186936D02*
X11561029Y-14196460D01*
X11561029Y-14196460D02*
X11541982Y-14205984D01*
X11541982Y-14205984D02*
X11522934Y-14205984D01*
X11522934Y-14205984D02*
X11503886Y-14196460D01*
X11503886Y-14196460D02*
X11494363Y-14186936D01*
X11494363Y-14186936D02*
X11484839Y-14167888D01*
X11484839Y-14167888D02*
X11475315Y-14129793D01*
X11475315Y-14129793D02*
X11475315Y-14082174D01*
X11475315Y-14082174D02*
X11484839Y-14044079D01*
X11484839Y-14044079D02*
X11494363Y-14025031D01*
X11494363Y-14025031D02*
X11503886Y-14015508D01*
X11503886Y-14015508D02*
X11522934Y-14005984D01*
X11675315Y-14186936D02*
X11684839Y-14196460D01*
X11684839Y-14196460D02*
X11675315Y-14205984D01*
X11675315Y-14205984D02*
X11665791Y-14196460D01*
X11665791Y-14196460D02*
X11675315Y-14186936D01*
X11675315Y-14186936D02*
X11675315Y-14205984D01*
X11808648Y-14005984D02*
X11827696Y-14005984D01*
X11827696Y-14005984D02*
X11846744Y-14015508D01*
X11846744Y-14015508D02*
X11856267Y-14025031D01*
X11856267Y-14025031D02*
X11865791Y-14044079D01*
X11865791Y-14044079D02*
X11875315Y-14082174D01*
X11875315Y-14082174D02*
X11875315Y-14129793D01*
X11875315Y-14129793D02*
X11865791Y-14167888D01*
X11865791Y-14167888D02*
X11856267Y-14186936D01*
X11856267Y-14186936D02*
X11846744Y-14196460D01*
X11846744Y-14196460D02*
X11827696Y-14205984D01*
X11827696Y-14205984D02*
X11808648Y-14205984D01*
X11808648Y-14205984D02*
X11789601Y-14196460D01*
X11789601Y-14196460D02*
X11780077Y-14186936D01*
X11780077Y-14186936D02*
X11770553Y-14167888D01*
X11770553Y-14167888D02*
X11761029Y-14129793D01*
X11761029Y-14129793D02*
X11761029Y-14082174D01*
X11761029Y-14082174D02*
X11770553Y-14044079D01*
X11770553Y-14044079D02*
X11780077Y-14025031D01*
X11780077Y-14025031D02*
X11789601Y-14015508D01*
X11789601Y-14015508D02*
X11808648Y-14005984D01*
X12065791Y-14205984D02*
X11951506Y-14205984D01*
X12008648Y-14205984D02*
X12008648Y-14005984D01*
X12008648Y-14005984D02*
X11989601Y-14034555D01*
X11989601Y-14034555D02*
X11970553Y-14053603D01*
X11970553Y-14053603D02*
X11951506Y-14063127D01*
X12161029Y-14205984D02*
X12199125Y-14205984D01*
X12199125Y-14205984D02*
X12218172Y-14196460D01*
X12218172Y-14196460D02*
X12227696Y-14186936D01*
X12227696Y-14186936D02*
X12246744Y-14158365D01*
X12246744Y-14158365D02*
X12256267Y-14120269D01*
X12256267Y-14120269D02*
X12256267Y-14044079D01*
X12256267Y-14044079D02*
X12246744Y-14025031D01*
X12246744Y-14025031D02*
X12237220Y-14015508D01*
X12237220Y-14015508D02*
X12218172Y-14005984D01*
X12218172Y-14005984D02*
X12180077Y-14005984D01*
X12180077Y-14005984D02*
X12161029Y-14015508D01*
X12161029Y-14015508D02*
X12151506Y-14025031D01*
X12151506Y-14025031D02*
X12141982Y-14044079D01*
X12141982Y-14044079D02*
X12141982Y-14091698D01*
X12141982Y-14091698D02*
X12151506Y-14110746D01*
X12151506Y-14110746D02*
X12161029Y-14120269D01*
X12161029Y-14120269D02*
X12180077Y-14129793D01*
X12180077Y-14129793D02*
X12218172Y-14129793D01*
X12218172Y-14129793D02*
X12237220Y-14120269D01*
X12237220Y-14120269D02*
X12246744Y-14110746D01*
X12246744Y-14110746D02*
X12256267Y-14091698D01*
X12322934Y-14005984D02*
X12456267Y-14005984D01*
X12456267Y-14005984D02*
X12370553Y-14205984D01*
X12522934Y-14005984D02*
X12522934Y-14044079D01*
X12599125Y-14005984D02*
X12599125Y-14044079D01*
X12894363Y-14282174D02*
X12884839Y-14272650D01*
X12884839Y-14272650D02*
X12865791Y-14244079D01*
X12865791Y-14244079D02*
X12856268Y-14225031D01*
X12856268Y-14225031D02*
X12846744Y-14196460D01*
X12846744Y-14196460D02*
X12837220Y-14148841D01*
X12837220Y-14148841D02*
X12837220Y-14110746D01*
X12837220Y-14110746D02*
X12846744Y-14063127D01*
X12846744Y-14063127D02*
X12856268Y-14034555D01*
X12856268Y-14034555D02*
X12865791Y-14015508D01*
X12865791Y-14015508D02*
X12884839Y-13986936D01*
X12884839Y-13986936D02*
X12894363Y-13977412D01*
X12951506Y-14005984D02*
X13075315Y-14005984D01*
X13075315Y-14005984D02*
X13008648Y-14082174D01*
X13008648Y-14082174D02*
X13037220Y-14082174D01*
X13037220Y-14082174D02*
X13056268Y-14091698D01*
X13056268Y-14091698D02*
X13065791Y-14101222D01*
X13065791Y-14101222D02*
X13075315Y-14120269D01*
X13075315Y-14120269D02*
X13075315Y-14167888D01*
X13075315Y-14167888D02*
X13065791Y-14186936D01*
X13065791Y-14186936D02*
X13056268Y-14196460D01*
X13056268Y-14196460D02*
X13037220Y-14205984D01*
X13037220Y-14205984D02*
X12980077Y-14205984D01*
X12980077Y-14205984D02*
X12961029Y-14196460D01*
X12961029Y-14196460D02*
X12951506Y-14186936D01*
X13151506Y-14025031D02*
X13161029Y-14015508D01*
X13161029Y-14015508D02*
X13180077Y-14005984D01*
X13180077Y-14005984D02*
X13227696Y-14005984D01*
X13227696Y-14005984D02*
X13246744Y-14015508D01*
X13246744Y-14015508D02*
X13256268Y-14025031D01*
X13256268Y-14025031D02*
X13265791Y-14044079D01*
X13265791Y-14044079D02*
X13265791Y-14063127D01*
X13265791Y-14063127D02*
X13256268Y-14091698D01*
X13256268Y-14091698D02*
X13141982Y-14205984D01*
X13141982Y-14205984D02*
X13265791Y-14205984D01*
X13503887Y-14205984D02*
X13503887Y-14005984D01*
X13589601Y-14205984D02*
X13589601Y-14101222D01*
X13589601Y-14101222D02*
X13580077Y-14082174D01*
X13580077Y-14082174D02*
X13561030Y-14072650D01*
X13561030Y-14072650D02*
X13532458Y-14072650D01*
X13532458Y-14072650D02*
X13513410Y-14082174D01*
X13513410Y-14082174D02*
X13503887Y-14091698D01*
X13713410Y-14205984D02*
X13694363Y-14196460D01*
X13694363Y-14196460D02*
X13684839Y-14186936D01*
X13684839Y-14186936D02*
X13675315Y-14167888D01*
X13675315Y-14167888D02*
X13675315Y-14110746D01*
X13675315Y-14110746D02*
X13684839Y-14091698D01*
X13684839Y-14091698D02*
X13694363Y-14082174D01*
X13694363Y-14082174D02*
X13713410Y-14072650D01*
X13713410Y-14072650D02*
X13741982Y-14072650D01*
X13741982Y-14072650D02*
X13761030Y-14082174D01*
X13761030Y-14082174D02*
X13770553Y-14091698D01*
X13770553Y-14091698D02*
X13780077Y-14110746D01*
X13780077Y-14110746D02*
X13780077Y-14167888D01*
X13780077Y-14167888D02*
X13770553Y-14186936D01*
X13770553Y-14186936D02*
X13761030Y-14196460D01*
X13761030Y-14196460D02*
X13741982Y-14205984D01*
X13741982Y-14205984D02*
X13713410Y-14205984D01*
X13894363Y-14205984D02*
X13875315Y-14196460D01*
X13875315Y-14196460D02*
X13865791Y-14177412D01*
X13865791Y-14177412D02*
X13865791Y-14005984D01*
X14046744Y-14196460D02*
X14027696Y-14205984D01*
X14027696Y-14205984D02*
X13989601Y-14205984D01*
X13989601Y-14205984D02*
X13970553Y-14196460D01*
X13970553Y-14196460D02*
X13961030Y-14177412D01*
X13961030Y-14177412D02*
X13961030Y-14101222D01*
X13961030Y-14101222D02*
X13970553Y-14082174D01*
X13970553Y-14082174D02*
X13989601Y-14072650D01*
X13989601Y-14072650D02*
X14027696Y-14072650D01*
X14027696Y-14072650D02*
X14046744Y-14082174D01*
X14046744Y-14082174D02*
X14056268Y-14101222D01*
X14056268Y-14101222D02*
X14056268Y-14120269D01*
X14056268Y-14120269D02*
X13961030Y-14139317D01*
X14132458Y-14196460D02*
X14151506Y-14205984D01*
X14151506Y-14205984D02*
X14189601Y-14205984D01*
X14189601Y-14205984D02*
X14208649Y-14196460D01*
X14208649Y-14196460D02*
X14218172Y-14177412D01*
X14218172Y-14177412D02*
X14218172Y-14167888D01*
X14218172Y-14167888D02*
X14208649Y-14148841D01*
X14208649Y-14148841D02*
X14189601Y-14139317D01*
X14189601Y-14139317D02*
X14161030Y-14139317D01*
X14161030Y-14139317D02*
X14141982Y-14129793D01*
X14141982Y-14129793D02*
X14132458Y-14110746D01*
X14132458Y-14110746D02*
X14132458Y-14101222D01*
X14132458Y-14101222D02*
X14141982Y-14082174D01*
X14141982Y-14082174D02*
X14161030Y-14072650D01*
X14161030Y-14072650D02*
X14189601Y-14072650D01*
X14189601Y-14072650D02*
X14208649Y-14082174D01*
X14284839Y-14282174D02*
X14294363Y-14272650D01*
X14294363Y-14272650D02*
X14313411Y-14244079D01*
X14313411Y-14244079D02*
X14322934Y-14225031D01*
X14322934Y-14225031D02*
X14332458Y-14196460D01*
X14332458Y-14196460D02*
X14341982Y-14148841D01*
X14341982Y-14148841D02*
X14341982Y-14110746D01*
X14341982Y-14110746D02*
X14332458Y-14063127D01*
X14332458Y-14063127D02*
X14322934Y-14034555D01*
X14322934Y-14034555D02*
X14313411Y-14015508D01*
X14313411Y-14015508D02*
X14294363Y-13986936D01*
X14294363Y-13986936D02*
X14284839Y-13977412D01*
D12*
X9291360Y-14350560D02*
X9291360Y-14406440D01*
X9263420Y-14378500D02*
X9319300Y-14378500D01*
D11*
X9618172Y-14269984D02*
X9637220Y-14269984D01*
X9637220Y-14269984D02*
X9656267Y-14279508D01*
X9656267Y-14279508D02*
X9665791Y-14289031D01*
X9665791Y-14289031D02*
X9675315Y-14308079D01*
X9675315Y-14308079D02*
X9684839Y-14346174D01*
X9684839Y-14346174D02*
X9684839Y-14393793D01*
X9684839Y-14393793D02*
X9675315Y-14431888D01*
X9675315Y-14431888D02*
X9665791Y-14450936D01*
X9665791Y-14450936D02*
X9656267Y-14460460D01*
X9656267Y-14460460D02*
X9637220Y-14469984D01*
X9637220Y-14469984D02*
X9618172Y-14469984D01*
X9618172Y-14469984D02*
X9599124Y-14460460D01*
X9599124Y-14460460D02*
X9589601Y-14450936D01*
X9589601Y-14450936D02*
X9580077Y-14431888D01*
X9580077Y-14431888D02*
X9570553Y-14393793D01*
X9570553Y-14393793D02*
X9570553Y-14346174D01*
X9570553Y-14346174D02*
X9580077Y-14308079D01*
X9580077Y-14308079D02*
X9589601Y-14289031D01*
X9589601Y-14289031D02*
X9599124Y-14279508D01*
X9599124Y-14279508D02*
X9618172Y-14269984D01*
X9770553Y-14450936D02*
X9780077Y-14460460D01*
X9780077Y-14460460D02*
X9770553Y-14469984D01*
X9770553Y-14469984D02*
X9761029Y-14460460D01*
X9761029Y-14460460D02*
X9770553Y-14450936D01*
X9770553Y-14450936D02*
X9770553Y-14469984D01*
X9961029Y-14269984D02*
X9865791Y-14269984D01*
X9865791Y-14269984D02*
X9856267Y-14365222D01*
X9856267Y-14365222D02*
X9865791Y-14355698D01*
X9865791Y-14355698D02*
X9884839Y-14346174D01*
X9884839Y-14346174D02*
X9932458Y-14346174D01*
X9932458Y-14346174D02*
X9951505Y-14355698D01*
X9951505Y-14355698D02*
X9961029Y-14365222D01*
X9961029Y-14365222D02*
X9970553Y-14384269D01*
X9970553Y-14384269D02*
X9970553Y-14431888D01*
X9970553Y-14431888D02*
X9961029Y-14450936D01*
X9961029Y-14450936D02*
X9951505Y-14460460D01*
X9951505Y-14460460D02*
X9932458Y-14469984D01*
X9932458Y-14469984D02*
X9884839Y-14469984D01*
X9884839Y-14469984D02*
X9865791Y-14460460D01*
X9865791Y-14460460D02*
X9856267Y-14450936D01*
X10151505Y-14269984D02*
X10056267Y-14269984D01*
X10056267Y-14269984D02*
X10046744Y-14365222D01*
X10046744Y-14365222D02*
X10056267Y-14355698D01*
X10056267Y-14355698D02*
X10075315Y-14346174D01*
X10075315Y-14346174D02*
X10122934Y-14346174D01*
X10122934Y-14346174D02*
X10141982Y-14355698D01*
X10141982Y-14355698D02*
X10151505Y-14365222D01*
X10151505Y-14365222D02*
X10161029Y-14384269D01*
X10161029Y-14384269D02*
X10161029Y-14431888D01*
X10161029Y-14431888D02*
X10151505Y-14450936D01*
X10151505Y-14450936D02*
X10141982Y-14460460D01*
X10141982Y-14460460D02*
X10122934Y-14469984D01*
X10122934Y-14469984D02*
X10075315Y-14469984D01*
X10075315Y-14469984D02*
X10056267Y-14460460D01*
X10056267Y-14460460D02*
X10046744Y-14450936D01*
X10256267Y-14469984D02*
X10294363Y-14469984D01*
X10294363Y-14469984D02*
X10313410Y-14460460D01*
X10313410Y-14460460D02*
X10322934Y-14450936D01*
X10322934Y-14450936D02*
X10341982Y-14422365D01*
X10341982Y-14422365D02*
X10351505Y-14384269D01*
X10351505Y-14384269D02*
X10351505Y-14308079D01*
X10351505Y-14308079D02*
X10341982Y-14289031D01*
X10341982Y-14289031D02*
X10332458Y-14279508D01*
X10332458Y-14279508D02*
X10313410Y-14269984D01*
X10313410Y-14269984D02*
X10275315Y-14269984D01*
X10275315Y-14269984D02*
X10256267Y-14279508D01*
X10256267Y-14279508D02*
X10246744Y-14289031D01*
X10246744Y-14289031D02*
X10237220Y-14308079D01*
X10237220Y-14308079D02*
X10237220Y-14355698D01*
X10237220Y-14355698D02*
X10246744Y-14374746D01*
X10246744Y-14374746D02*
X10256267Y-14384269D01*
X10256267Y-14384269D02*
X10275315Y-14393793D01*
X10275315Y-14393793D02*
X10313410Y-14393793D01*
X10313410Y-14393793D02*
X10332458Y-14384269D01*
X10332458Y-14384269D02*
X10341982Y-14374746D01*
X10341982Y-14374746D02*
X10351505Y-14355698D01*
X10437220Y-14469984D02*
X10437220Y-14336650D01*
X10437220Y-14355698D02*
X10446744Y-14346174D01*
X10446744Y-14346174D02*
X10465791Y-14336650D01*
X10465791Y-14336650D02*
X10494363Y-14336650D01*
X10494363Y-14336650D02*
X10513410Y-14346174D01*
X10513410Y-14346174D02*
X10522934Y-14365222D01*
X10522934Y-14365222D02*
X10522934Y-14469984D01*
X10522934Y-14365222D02*
X10532458Y-14346174D01*
X10532458Y-14346174D02*
X10551505Y-14336650D01*
X10551505Y-14336650D02*
X10580077Y-14336650D01*
X10580077Y-14336650D02*
X10599125Y-14346174D01*
X10599125Y-14346174D02*
X10608648Y-14365222D01*
X10608648Y-14365222D02*
X10608648Y-14469984D01*
X10703886Y-14469984D02*
X10703886Y-14336650D01*
X10703886Y-14355698D02*
X10713410Y-14346174D01*
X10713410Y-14346174D02*
X10732458Y-14336650D01*
X10732458Y-14336650D02*
X10761029Y-14336650D01*
X10761029Y-14336650D02*
X10780077Y-14346174D01*
X10780077Y-14346174D02*
X10789601Y-14365222D01*
X10789601Y-14365222D02*
X10789601Y-14469984D01*
X10789601Y-14365222D02*
X10799125Y-14346174D01*
X10799125Y-14346174D02*
X10818172Y-14336650D01*
X10818172Y-14336650D02*
X10846744Y-14336650D01*
X10846744Y-14336650D02*
X10865791Y-14346174D01*
X10865791Y-14346174D02*
X10875315Y-14365222D01*
X10875315Y-14365222D02*
X10875315Y-14469984D01*
X11265791Y-14260460D02*
X11094363Y-14517603D01*
X11522934Y-14269984D02*
X11541982Y-14269984D01*
X11541982Y-14269984D02*
X11561029Y-14279508D01*
X11561029Y-14279508D02*
X11570553Y-14289031D01*
X11570553Y-14289031D02*
X11580077Y-14308079D01*
X11580077Y-14308079D02*
X11589601Y-14346174D01*
X11589601Y-14346174D02*
X11589601Y-14393793D01*
X11589601Y-14393793D02*
X11580077Y-14431888D01*
X11580077Y-14431888D02*
X11570553Y-14450936D01*
X11570553Y-14450936D02*
X11561029Y-14460460D01*
X11561029Y-14460460D02*
X11541982Y-14469984D01*
X11541982Y-14469984D02*
X11522934Y-14469984D01*
X11522934Y-14469984D02*
X11503886Y-14460460D01*
X11503886Y-14460460D02*
X11494363Y-14450936D01*
X11494363Y-14450936D02*
X11484839Y-14431888D01*
X11484839Y-14431888D02*
X11475315Y-14393793D01*
X11475315Y-14393793D02*
X11475315Y-14346174D01*
X11475315Y-14346174D02*
X11484839Y-14308079D01*
X11484839Y-14308079D02*
X11494363Y-14289031D01*
X11494363Y-14289031D02*
X11503886Y-14279508D01*
X11503886Y-14279508D02*
X11522934Y-14269984D01*
X11675315Y-14450936D02*
X11684839Y-14460460D01*
X11684839Y-14460460D02*
X11675315Y-14469984D01*
X11675315Y-14469984D02*
X11665791Y-14460460D01*
X11665791Y-14460460D02*
X11675315Y-14450936D01*
X11675315Y-14450936D02*
X11675315Y-14469984D01*
X11808648Y-14269984D02*
X11827696Y-14269984D01*
X11827696Y-14269984D02*
X11846744Y-14279508D01*
X11846744Y-14279508D02*
X11856267Y-14289031D01*
X11856267Y-14289031D02*
X11865791Y-14308079D01*
X11865791Y-14308079D02*
X11875315Y-14346174D01*
X11875315Y-14346174D02*
X11875315Y-14393793D01*
X11875315Y-14393793D02*
X11865791Y-14431888D01*
X11865791Y-14431888D02*
X11856267Y-14450936D01*
X11856267Y-14450936D02*
X11846744Y-14460460D01*
X11846744Y-14460460D02*
X11827696Y-14469984D01*
X11827696Y-14469984D02*
X11808648Y-14469984D01*
X11808648Y-14469984D02*
X11789601Y-14460460D01*
X11789601Y-14460460D02*
X11780077Y-14450936D01*
X11780077Y-14450936D02*
X11770553Y-14431888D01*
X11770553Y-14431888D02*
X11761029Y-14393793D01*
X11761029Y-14393793D02*
X11761029Y-14346174D01*
X11761029Y-14346174D02*
X11770553Y-14308079D01*
X11770553Y-14308079D02*
X11780077Y-14289031D01*
X11780077Y-14289031D02*
X11789601Y-14279508D01*
X11789601Y-14279508D02*
X11808648Y-14269984D01*
X11951506Y-14289031D02*
X11961029Y-14279508D01*
X11961029Y-14279508D02*
X11980077Y-14269984D01*
X11980077Y-14269984D02*
X12027696Y-14269984D01*
X12027696Y-14269984D02*
X12046744Y-14279508D01*
X12046744Y-14279508D02*
X12056267Y-14289031D01*
X12056267Y-14289031D02*
X12065791Y-14308079D01*
X12065791Y-14308079D02*
X12065791Y-14327127D01*
X12065791Y-14327127D02*
X12056267Y-14355698D01*
X12056267Y-14355698D02*
X11941982Y-14469984D01*
X11941982Y-14469984D02*
X12065791Y-14469984D01*
X12141982Y-14289031D02*
X12151506Y-14279508D01*
X12151506Y-14279508D02*
X12170553Y-14269984D01*
X12170553Y-14269984D02*
X12218172Y-14269984D01*
X12218172Y-14269984D02*
X12237220Y-14279508D01*
X12237220Y-14279508D02*
X12246744Y-14289031D01*
X12246744Y-14289031D02*
X12256267Y-14308079D01*
X12256267Y-14308079D02*
X12256267Y-14327127D01*
X12256267Y-14327127D02*
X12246744Y-14355698D01*
X12246744Y-14355698D02*
X12132458Y-14469984D01*
X12132458Y-14469984D02*
X12256267Y-14469984D01*
X12380077Y-14269984D02*
X12399125Y-14269984D01*
X12399125Y-14269984D02*
X12418172Y-14279508D01*
X12418172Y-14279508D02*
X12427696Y-14289031D01*
X12427696Y-14289031D02*
X12437220Y-14308079D01*
X12437220Y-14308079D02*
X12446744Y-14346174D01*
X12446744Y-14346174D02*
X12446744Y-14393793D01*
X12446744Y-14393793D02*
X12437220Y-14431888D01*
X12437220Y-14431888D02*
X12427696Y-14450936D01*
X12427696Y-14450936D02*
X12418172Y-14460460D01*
X12418172Y-14460460D02*
X12399125Y-14469984D01*
X12399125Y-14469984D02*
X12380077Y-14469984D01*
X12380077Y-14469984D02*
X12361029Y-14460460D01*
X12361029Y-14460460D02*
X12351506Y-14450936D01*
X12351506Y-14450936D02*
X12341982Y-14431888D01*
X12341982Y-14431888D02*
X12332458Y-14393793D01*
X12332458Y-14393793D02*
X12332458Y-14346174D01*
X12332458Y-14346174D02*
X12341982Y-14308079D01*
X12341982Y-14308079D02*
X12351506Y-14289031D01*
X12351506Y-14289031D02*
X12361029Y-14279508D01*
X12361029Y-14279508D02*
X12380077Y-14269984D01*
X12522934Y-14269984D02*
X12522934Y-14308079D01*
X12599125Y-14269984D02*
X12599125Y-14308079D01*
X12894363Y-14546174D02*
X12884839Y-14536650D01*
X12884839Y-14536650D02*
X12865791Y-14508079D01*
X12865791Y-14508079D02*
X12856268Y-14489031D01*
X12856268Y-14489031D02*
X12846744Y-14460460D01*
X12846744Y-14460460D02*
X12837220Y-14412841D01*
X12837220Y-14412841D02*
X12837220Y-14374746D01*
X12837220Y-14374746D02*
X12846744Y-14327127D01*
X12846744Y-14327127D02*
X12856268Y-14298555D01*
X12856268Y-14298555D02*
X12865791Y-14279508D01*
X12865791Y-14279508D02*
X12884839Y-14250936D01*
X12884839Y-14250936D02*
X12894363Y-14241412D01*
X13075315Y-14469984D02*
X12961029Y-14469984D01*
X13018172Y-14469984D02*
X13018172Y-14269984D01*
X13018172Y-14269984D02*
X12999125Y-14298555D01*
X12999125Y-14298555D02*
X12980077Y-14317603D01*
X12980077Y-14317603D02*
X12961029Y-14327127D01*
X13313410Y-14469984D02*
X13313410Y-14269984D01*
X13399125Y-14469984D02*
X13399125Y-14365222D01*
X13399125Y-14365222D02*
X13389601Y-14346174D01*
X13389601Y-14346174D02*
X13370553Y-14336650D01*
X13370553Y-14336650D02*
X13341982Y-14336650D01*
X13341982Y-14336650D02*
X13322934Y-14346174D01*
X13322934Y-14346174D02*
X13313410Y-14355698D01*
X13522934Y-14469984D02*
X13503887Y-14460460D01*
X13503887Y-14460460D02*
X13494363Y-14450936D01*
X13494363Y-14450936D02*
X13484839Y-14431888D01*
X13484839Y-14431888D02*
X13484839Y-14374746D01*
X13484839Y-14374746D02*
X13494363Y-14355698D01*
X13494363Y-14355698D02*
X13503887Y-14346174D01*
X13503887Y-14346174D02*
X13522934Y-14336650D01*
X13522934Y-14336650D02*
X13551506Y-14336650D01*
X13551506Y-14336650D02*
X13570553Y-14346174D01*
X13570553Y-14346174D02*
X13580077Y-14355698D01*
X13580077Y-14355698D02*
X13589601Y-14374746D01*
X13589601Y-14374746D02*
X13589601Y-14431888D01*
X13589601Y-14431888D02*
X13580077Y-14450936D01*
X13580077Y-14450936D02*
X13570553Y-14460460D01*
X13570553Y-14460460D02*
X13551506Y-14469984D01*
X13551506Y-14469984D02*
X13522934Y-14469984D01*
X13703887Y-14469984D02*
X13684839Y-14460460D01*
X13684839Y-14460460D02*
X13675315Y-14441412D01*
X13675315Y-14441412D02*
X13675315Y-14269984D01*
X13856268Y-14460460D02*
X13837220Y-14469984D01*
X13837220Y-14469984D02*
X13799125Y-14469984D01*
X13799125Y-14469984D02*
X13780077Y-14460460D01*
X13780077Y-14460460D02*
X13770553Y-14441412D01*
X13770553Y-14441412D02*
X13770553Y-14365222D01*
X13770553Y-14365222D02*
X13780077Y-14346174D01*
X13780077Y-14346174D02*
X13799125Y-14336650D01*
X13799125Y-14336650D02*
X13837220Y-14336650D01*
X13837220Y-14336650D02*
X13856268Y-14346174D01*
X13856268Y-14346174D02*
X13865791Y-14365222D01*
X13865791Y-14365222D02*
X13865791Y-14384269D01*
X13865791Y-14384269D02*
X13770553Y-14403317D01*
X13932458Y-14546174D02*
X13941982Y-14536650D01*
X13941982Y-14536650D02*
X13961030Y-14508079D01*
X13961030Y-14508079D02*
X13970553Y-14489031D01*
X13970553Y-14489031D02*
X13980077Y-14460460D01*
X13980077Y-14460460D02*
X13989601Y-14412841D01*
X13989601Y-14412841D02*
X13989601Y-14374746D01*
X13989601Y-14374746D02*
X13980077Y-14327127D01*
X13980077Y-14327127D02*
X13970553Y-14298555D01*
X13970553Y-14298555D02*
X13961030Y-14279508D01*
X13961030Y-14279508D02*
X13941982Y-14250936D01*
X13941982Y-14250936D02*
X13932458Y-14241412D01*
D12*
X9307585Y-14670784D02*
X9307585Y-14614215D01*
X9251016Y-14614215D01*
X9251016Y-14670784D01*
X9307585Y-14670784D01*
D11*
X9618172Y-14533984D02*
X9637220Y-14533984D01*
X9637220Y-14533984D02*
X9656267Y-14543508D01*
X9656267Y-14543508D02*
X9665791Y-14553031D01*
X9665791Y-14553031D02*
X9675315Y-14572079D01*
X9675315Y-14572079D02*
X9684839Y-14610174D01*
X9684839Y-14610174D02*
X9684839Y-14657793D01*
X9684839Y-14657793D02*
X9675315Y-14695888D01*
X9675315Y-14695888D02*
X9665791Y-14714936D01*
X9665791Y-14714936D02*
X9656267Y-14724460D01*
X9656267Y-14724460D02*
X9637220Y-14733984D01*
X9637220Y-14733984D02*
X9618172Y-14733984D01*
X9618172Y-14733984D02*
X9599124Y-14724460D01*
X9599124Y-14724460D02*
X9589601Y-14714936D01*
X9589601Y-14714936D02*
X9580077Y-14695888D01*
X9580077Y-14695888D02*
X9570553Y-14657793D01*
X9570553Y-14657793D02*
X9570553Y-14610174D01*
X9570553Y-14610174D02*
X9580077Y-14572079D01*
X9580077Y-14572079D02*
X9589601Y-14553031D01*
X9589601Y-14553031D02*
X9599124Y-14543508D01*
X9599124Y-14543508D02*
X9618172Y-14533984D01*
X9770553Y-14714936D02*
X9780077Y-14724460D01*
X9780077Y-14724460D02*
X9770553Y-14733984D01*
X9770553Y-14733984D02*
X9761029Y-14724460D01*
X9761029Y-14724460D02*
X9770553Y-14714936D01*
X9770553Y-14714936D02*
X9770553Y-14733984D01*
X9894363Y-14619698D02*
X9875315Y-14610174D01*
X9875315Y-14610174D02*
X9865791Y-14600650D01*
X9865791Y-14600650D02*
X9856267Y-14581603D01*
X9856267Y-14581603D02*
X9856267Y-14572079D01*
X9856267Y-14572079D02*
X9865791Y-14553031D01*
X9865791Y-14553031D02*
X9875315Y-14543508D01*
X9875315Y-14543508D02*
X9894363Y-14533984D01*
X9894363Y-14533984D02*
X9932458Y-14533984D01*
X9932458Y-14533984D02*
X9951505Y-14543508D01*
X9951505Y-14543508D02*
X9961029Y-14553031D01*
X9961029Y-14553031D02*
X9970553Y-14572079D01*
X9970553Y-14572079D02*
X9970553Y-14581603D01*
X9970553Y-14581603D02*
X9961029Y-14600650D01*
X9961029Y-14600650D02*
X9951505Y-14610174D01*
X9951505Y-14610174D02*
X9932458Y-14619698D01*
X9932458Y-14619698D02*
X9894363Y-14619698D01*
X9894363Y-14619698D02*
X9875315Y-14629222D01*
X9875315Y-14629222D02*
X9865791Y-14638746D01*
X9865791Y-14638746D02*
X9856267Y-14657793D01*
X9856267Y-14657793D02*
X9856267Y-14695888D01*
X9856267Y-14695888D02*
X9865791Y-14714936D01*
X9865791Y-14714936D02*
X9875315Y-14724460D01*
X9875315Y-14724460D02*
X9894363Y-14733984D01*
X9894363Y-14733984D02*
X9932458Y-14733984D01*
X9932458Y-14733984D02*
X9951505Y-14724460D01*
X9951505Y-14724460D02*
X9961029Y-14714936D01*
X9961029Y-14714936D02*
X9970553Y-14695888D01*
X9970553Y-14695888D02*
X9970553Y-14657793D01*
X9970553Y-14657793D02*
X9961029Y-14638746D01*
X9961029Y-14638746D02*
X9951505Y-14629222D01*
X9951505Y-14629222D02*
X9932458Y-14619698D01*
X10094363Y-14533984D02*
X10113410Y-14533984D01*
X10113410Y-14533984D02*
X10132458Y-14543508D01*
X10132458Y-14543508D02*
X10141982Y-14553031D01*
X10141982Y-14553031D02*
X10151505Y-14572079D01*
X10151505Y-14572079D02*
X10161029Y-14610174D01*
X10161029Y-14610174D02*
X10161029Y-14657793D01*
X10161029Y-14657793D02*
X10151505Y-14695888D01*
X10151505Y-14695888D02*
X10141982Y-14714936D01*
X10141982Y-14714936D02*
X10132458Y-14724460D01*
X10132458Y-14724460D02*
X10113410Y-14733984D01*
X10113410Y-14733984D02*
X10094363Y-14733984D01*
X10094363Y-14733984D02*
X10075315Y-14724460D01*
X10075315Y-14724460D02*
X10065791Y-14714936D01*
X10065791Y-14714936D02*
X10056267Y-14695888D01*
X10056267Y-14695888D02*
X10046744Y-14657793D01*
X10046744Y-14657793D02*
X10046744Y-14610174D01*
X10046744Y-14610174D02*
X10056267Y-14572079D01*
X10056267Y-14572079D02*
X10065791Y-14553031D01*
X10065791Y-14553031D02*
X10075315Y-14543508D01*
X10075315Y-14543508D02*
X10094363Y-14533984D01*
X10284839Y-14533984D02*
X10303886Y-14533984D01*
X10303886Y-14533984D02*
X10322934Y-14543508D01*
X10322934Y-14543508D02*
X10332458Y-14553031D01*
X10332458Y-14553031D02*
X10341982Y-14572079D01*
X10341982Y-14572079D02*
X10351505Y-14610174D01*
X10351505Y-14610174D02*
X10351505Y-14657793D01*
X10351505Y-14657793D02*
X10341982Y-14695888D01*
X10341982Y-14695888D02*
X10332458Y-14714936D01*
X10332458Y-14714936D02*
X10322934Y-14724460D01*
X10322934Y-14724460D02*
X10303886Y-14733984D01*
X10303886Y-14733984D02*
X10284839Y-14733984D01*
X10284839Y-14733984D02*
X10265791Y-14724460D01*
X10265791Y-14724460D02*
X10256267Y-14714936D01*
X10256267Y-14714936D02*
X10246744Y-14695888D01*
X10246744Y-14695888D02*
X10237220Y-14657793D01*
X10237220Y-14657793D02*
X10237220Y-14610174D01*
X10237220Y-14610174D02*
X10246744Y-14572079D01*
X10246744Y-14572079D02*
X10256267Y-14553031D01*
X10256267Y-14553031D02*
X10265791Y-14543508D01*
X10265791Y-14543508D02*
X10284839Y-14533984D01*
X10437220Y-14733984D02*
X10437220Y-14600650D01*
X10437220Y-14619698D02*
X10446744Y-14610174D01*
X10446744Y-14610174D02*
X10465791Y-14600650D01*
X10465791Y-14600650D02*
X10494363Y-14600650D01*
X10494363Y-14600650D02*
X10513410Y-14610174D01*
X10513410Y-14610174D02*
X10522934Y-14629222D01*
X10522934Y-14629222D02*
X10522934Y-14733984D01*
X10522934Y-14629222D02*
X10532458Y-14610174D01*
X10532458Y-14610174D02*
X10551505Y-14600650D01*
X10551505Y-14600650D02*
X10580077Y-14600650D01*
X10580077Y-14600650D02*
X10599125Y-14610174D01*
X10599125Y-14610174D02*
X10608648Y-14629222D01*
X10608648Y-14629222D02*
X10608648Y-14733984D01*
X10703886Y-14733984D02*
X10703886Y-14600650D01*
X10703886Y-14619698D02*
X10713410Y-14610174D01*
X10713410Y-14610174D02*
X10732458Y-14600650D01*
X10732458Y-14600650D02*
X10761029Y-14600650D01*
X10761029Y-14600650D02*
X10780077Y-14610174D01*
X10780077Y-14610174D02*
X10789601Y-14629222D01*
X10789601Y-14629222D02*
X10789601Y-14733984D01*
X10789601Y-14629222D02*
X10799125Y-14610174D01*
X10799125Y-14610174D02*
X10818172Y-14600650D01*
X10818172Y-14600650D02*
X10846744Y-14600650D01*
X10846744Y-14600650D02*
X10865791Y-14610174D01*
X10865791Y-14610174D02*
X10875315Y-14629222D01*
X10875315Y-14629222D02*
X10875315Y-14733984D01*
X11265791Y-14524460D02*
X11094363Y-14781603D01*
X11522934Y-14533984D02*
X11541982Y-14533984D01*
X11541982Y-14533984D02*
X11561029Y-14543508D01*
X11561029Y-14543508D02*
X11570553Y-14553031D01*
X11570553Y-14553031D02*
X11580077Y-14572079D01*
X11580077Y-14572079D02*
X11589601Y-14610174D01*
X11589601Y-14610174D02*
X11589601Y-14657793D01*
X11589601Y-14657793D02*
X11580077Y-14695888D01*
X11580077Y-14695888D02*
X11570553Y-14714936D01*
X11570553Y-14714936D02*
X11561029Y-14724460D01*
X11561029Y-14724460D02*
X11541982Y-14733984D01*
X11541982Y-14733984D02*
X11522934Y-14733984D01*
X11522934Y-14733984D02*
X11503886Y-14724460D01*
X11503886Y-14724460D02*
X11494363Y-14714936D01*
X11494363Y-14714936D02*
X11484839Y-14695888D01*
X11484839Y-14695888D02*
X11475315Y-14657793D01*
X11475315Y-14657793D02*
X11475315Y-14610174D01*
X11475315Y-14610174D02*
X11484839Y-14572079D01*
X11484839Y-14572079D02*
X11494363Y-14553031D01*
X11494363Y-14553031D02*
X11503886Y-14543508D01*
X11503886Y-14543508D02*
X11522934Y-14533984D01*
X11675315Y-14714936D02*
X11684839Y-14724460D01*
X11684839Y-14724460D02*
X11675315Y-14733984D01*
X11675315Y-14733984D02*
X11665791Y-14724460D01*
X11665791Y-14724460D02*
X11675315Y-14714936D01*
X11675315Y-14714936D02*
X11675315Y-14733984D01*
X11808648Y-14533984D02*
X11827696Y-14533984D01*
X11827696Y-14533984D02*
X11846744Y-14543508D01*
X11846744Y-14543508D02*
X11856267Y-14553031D01*
X11856267Y-14553031D02*
X11865791Y-14572079D01*
X11865791Y-14572079D02*
X11875315Y-14610174D01*
X11875315Y-14610174D02*
X11875315Y-14657793D01*
X11875315Y-14657793D02*
X11865791Y-14695888D01*
X11865791Y-14695888D02*
X11856267Y-14714936D01*
X11856267Y-14714936D02*
X11846744Y-14724460D01*
X11846744Y-14724460D02*
X11827696Y-14733984D01*
X11827696Y-14733984D02*
X11808648Y-14733984D01*
X11808648Y-14733984D02*
X11789601Y-14724460D01*
X11789601Y-14724460D02*
X11780077Y-14714936D01*
X11780077Y-14714936D02*
X11770553Y-14695888D01*
X11770553Y-14695888D02*
X11761029Y-14657793D01*
X11761029Y-14657793D02*
X11761029Y-14610174D01*
X11761029Y-14610174D02*
X11770553Y-14572079D01*
X11770553Y-14572079D02*
X11780077Y-14553031D01*
X11780077Y-14553031D02*
X11789601Y-14543508D01*
X11789601Y-14543508D02*
X11808648Y-14533984D01*
X11941982Y-14533984D02*
X12065791Y-14533984D01*
X12065791Y-14533984D02*
X11999125Y-14610174D01*
X11999125Y-14610174D02*
X12027696Y-14610174D01*
X12027696Y-14610174D02*
X12046744Y-14619698D01*
X12046744Y-14619698D02*
X12056267Y-14629222D01*
X12056267Y-14629222D02*
X12065791Y-14648269D01*
X12065791Y-14648269D02*
X12065791Y-14695888D01*
X12065791Y-14695888D02*
X12056267Y-14714936D01*
X12056267Y-14714936D02*
X12046744Y-14724460D01*
X12046744Y-14724460D02*
X12027696Y-14733984D01*
X12027696Y-14733984D02*
X11970553Y-14733984D01*
X11970553Y-14733984D02*
X11951506Y-14724460D01*
X11951506Y-14724460D02*
X11941982Y-14714936D01*
X12256267Y-14733984D02*
X12141982Y-14733984D01*
X12199125Y-14733984D02*
X12199125Y-14533984D01*
X12199125Y-14533984D02*
X12180077Y-14562555D01*
X12180077Y-14562555D02*
X12161029Y-14581603D01*
X12161029Y-14581603D02*
X12141982Y-14591127D01*
X12437220Y-14533984D02*
X12341982Y-14533984D01*
X12341982Y-14533984D02*
X12332458Y-14629222D01*
X12332458Y-14629222D02*
X12341982Y-14619698D01*
X12341982Y-14619698D02*
X12361029Y-14610174D01*
X12361029Y-14610174D02*
X12408648Y-14610174D01*
X12408648Y-14610174D02*
X12427696Y-14619698D01*
X12427696Y-14619698D02*
X12437220Y-14629222D01*
X12437220Y-14629222D02*
X12446744Y-14648269D01*
X12446744Y-14648269D02*
X12446744Y-14695888D01*
X12446744Y-14695888D02*
X12437220Y-14714936D01*
X12437220Y-14714936D02*
X12427696Y-14724460D01*
X12427696Y-14724460D02*
X12408648Y-14733984D01*
X12408648Y-14733984D02*
X12361029Y-14733984D01*
X12361029Y-14733984D02*
X12341982Y-14724460D01*
X12341982Y-14724460D02*
X12332458Y-14714936D01*
X12522934Y-14533984D02*
X12522934Y-14572079D01*
X12599125Y-14533984D02*
X12599125Y-14572079D01*
X12894363Y-14810174D02*
X12884839Y-14800650D01*
X12884839Y-14800650D02*
X12865791Y-14772079D01*
X12865791Y-14772079D02*
X12856268Y-14753031D01*
X12856268Y-14753031D02*
X12846744Y-14724460D01*
X12846744Y-14724460D02*
X12837220Y-14676841D01*
X12837220Y-14676841D02*
X12837220Y-14638746D01*
X12837220Y-14638746D02*
X12846744Y-14591127D01*
X12846744Y-14591127D02*
X12856268Y-14562555D01*
X12856268Y-14562555D02*
X12865791Y-14543508D01*
X12865791Y-14543508D02*
X12884839Y-14514936D01*
X12884839Y-14514936D02*
X12894363Y-14505412D01*
X12999125Y-14619698D02*
X12980077Y-14610174D01*
X12980077Y-14610174D02*
X12970553Y-14600650D01*
X12970553Y-14600650D02*
X12961029Y-14581603D01*
X12961029Y-14581603D02*
X12961029Y-14572079D01*
X12961029Y-14572079D02*
X12970553Y-14553031D01*
X12970553Y-14553031D02*
X12980077Y-14543508D01*
X12980077Y-14543508D02*
X12999125Y-14533984D01*
X12999125Y-14533984D02*
X13037220Y-14533984D01*
X13037220Y-14533984D02*
X13056268Y-14543508D01*
X13056268Y-14543508D02*
X13065791Y-14553031D01*
X13065791Y-14553031D02*
X13075315Y-14572079D01*
X13075315Y-14572079D02*
X13075315Y-14581603D01*
X13075315Y-14581603D02*
X13065791Y-14600650D01*
X13065791Y-14600650D02*
X13056268Y-14610174D01*
X13056268Y-14610174D02*
X13037220Y-14619698D01*
X13037220Y-14619698D02*
X12999125Y-14619698D01*
X12999125Y-14619698D02*
X12980077Y-14629222D01*
X12980077Y-14629222D02*
X12970553Y-14638746D01*
X12970553Y-14638746D02*
X12961029Y-14657793D01*
X12961029Y-14657793D02*
X12961029Y-14695888D01*
X12961029Y-14695888D02*
X12970553Y-14714936D01*
X12970553Y-14714936D02*
X12980077Y-14724460D01*
X12980077Y-14724460D02*
X12999125Y-14733984D01*
X12999125Y-14733984D02*
X13037220Y-14733984D01*
X13037220Y-14733984D02*
X13056268Y-14724460D01*
X13056268Y-14724460D02*
X13065791Y-14714936D01*
X13065791Y-14714936D02*
X13075315Y-14695888D01*
X13075315Y-14695888D02*
X13075315Y-14657793D01*
X13075315Y-14657793D02*
X13065791Y-14638746D01*
X13065791Y-14638746D02*
X13056268Y-14629222D01*
X13056268Y-14629222D02*
X13037220Y-14619698D01*
X13189601Y-14619698D02*
X13170553Y-14610174D01*
X13170553Y-14610174D02*
X13161029Y-14600650D01*
X13161029Y-14600650D02*
X13151506Y-14581603D01*
X13151506Y-14581603D02*
X13151506Y-14572079D01*
X13151506Y-14572079D02*
X13161029Y-14553031D01*
X13161029Y-14553031D02*
X13170553Y-14543508D01*
X13170553Y-14543508D02*
X13189601Y-14533984D01*
X13189601Y-14533984D02*
X13227696Y-14533984D01*
X13227696Y-14533984D02*
X13246744Y-14543508D01*
X13246744Y-14543508D02*
X13256268Y-14553031D01*
X13256268Y-14553031D02*
X13265791Y-14572079D01*
X13265791Y-14572079D02*
X13265791Y-14581603D01*
X13265791Y-14581603D02*
X13256268Y-14600650D01*
X13256268Y-14600650D02*
X13246744Y-14610174D01*
X13246744Y-14610174D02*
X13227696Y-14619698D01*
X13227696Y-14619698D02*
X13189601Y-14619698D01*
X13189601Y-14619698D02*
X13170553Y-14629222D01*
X13170553Y-14629222D02*
X13161029Y-14638746D01*
X13161029Y-14638746D02*
X13151506Y-14657793D01*
X13151506Y-14657793D02*
X13151506Y-14695888D01*
X13151506Y-14695888D02*
X13161029Y-14714936D01*
X13161029Y-14714936D02*
X13170553Y-14724460D01*
X13170553Y-14724460D02*
X13189601Y-14733984D01*
X13189601Y-14733984D02*
X13227696Y-14733984D01*
X13227696Y-14733984D02*
X13246744Y-14724460D01*
X13246744Y-14724460D02*
X13256268Y-14714936D01*
X13256268Y-14714936D02*
X13265791Y-14695888D01*
X13265791Y-14695888D02*
X13265791Y-14657793D01*
X13265791Y-14657793D02*
X13256268Y-14638746D01*
X13256268Y-14638746D02*
X13246744Y-14629222D01*
X13246744Y-14629222D02*
X13227696Y-14619698D01*
X13503887Y-14733984D02*
X13503887Y-14533984D01*
X13589601Y-14733984D02*
X13589601Y-14629222D01*
X13589601Y-14629222D02*
X13580077Y-14610174D01*
X13580077Y-14610174D02*
X13561030Y-14600650D01*
X13561030Y-14600650D02*
X13532458Y-14600650D01*
X13532458Y-14600650D02*
X13513410Y-14610174D01*
X13513410Y-14610174D02*
X13503887Y-14619698D01*
X13713410Y-14733984D02*
X13694363Y-14724460D01*
X13694363Y-14724460D02*
X13684839Y-14714936D01*
X13684839Y-14714936D02*
X13675315Y-14695888D01*
X13675315Y-14695888D02*
X13675315Y-14638746D01*
X13675315Y-14638746D02*
X13684839Y-14619698D01*
X13684839Y-14619698D02*
X13694363Y-14610174D01*
X13694363Y-14610174D02*
X13713410Y-14600650D01*
X13713410Y-14600650D02*
X13741982Y-14600650D01*
X13741982Y-14600650D02*
X13761030Y-14610174D01*
X13761030Y-14610174D02*
X13770553Y-14619698D01*
X13770553Y-14619698D02*
X13780077Y-14638746D01*
X13780077Y-14638746D02*
X13780077Y-14695888D01*
X13780077Y-14695888D02*
X13770553Y-14714936D01*
X13770553Y-14714936D02*
X13761030Y-14724460D01*
X13761030Y-14724460D02*
X13741982Y-14733984D01*
X13741982Y-14733984D02*
X13713410Y-14733984D01*
X13894363Y-14733984D02*
X13875315Y-14724460D01*
X13875315Y-14724460D02*
X13865791Y-14705412D01*
X13865791Y-14705412D02*
X13865791Y-14533984D01*
X14046744Y-14724460D02*
X14027696Y-14733984D01*
X14027696Y-14733984D02*
X13989601Y-14733984D01*
X13989601Y-14733984D02*
X13970553Y-14724460D01*
X13970553Y-14724460D02*
X13961030Y-14705412D01*
X13961030Y-14705412D02*
X13961030Y-14629222D01*
X13961030Y-14629222D02*
X13970553Y-14610174D01*
X13970553Y-14610174D02*
X13989601Y-14600650D01*
X13989601Y-14600650D02*
X14027696Y-14600650D01*
X14027696Y-14600650D02*
X14046744Y-14610174D01*
X14046744Y-14610174D02*
X14056268Y-14629222D01*
X14056268Y-14629222D02*
X14056268Y-14648269D01*
X14056268Y-14648269D02*
X13961030Y-14667317D01*
X14132458Y-14724460D02*
X14151506Y-14733984D01*
X14151506Y-14733984D02*
X14189601Y-14733984D01*
X14189601Y-14733984D02*
X14208649Y-14724460D01*
X14208649Y-14724460D02*
X14218172Y-14705412D01*
X14218172Y-14705412D02*
X14218172Y-14695888D01*
X14218172Y-14695888D02*
X14208649Y-14676841D01*
X14208649Y-14676841D02*
X14189601Y-14667317D01*
X14189601Y-14667317D02*
X14161030Y-14667317D01*
X14161030Y-14667317D02*
X14141982Y-14657793D01*
X14141982Y-14657793D02*
X14132458Y-14638746D01*
X14132458Y-14638746D02*
X14132458Y-14629222D01*
X14132458Y-14629222D02*
X14141982Y-14610174D01*
X14141982Y-14610174D02*
X14161030Y-14600650D01*
X14161030Y-14600650D02*
X14189601Y-14600650D01*
X14189601Y-14600650D02*
X14208649Y-14610174D01*
X14284839Y-14810174D02*
X14294363Y-14800650D01*
X14294363Y-14800650D02*
X14313411Y-14772079D01*
X14313411Y-14772079D02*
X14322934Y-14753031D01*
X14322934Y-14753031D02*
X14332458Y-14724460D01*
X14332458Y-14724460D02*
X14341982Y-14676841D01*
X14341982Y-14676841D02*
X14341982Y-14638746D01*
X14341982Y-14638746D02*
X14332458Y-14591127D01*
X14332458Y-14591127D02*
X14322934Y-14562555D01*
X14322934Y-14562555D02*
X14313411Y-14543508D01*
X14313411Y-14543508D02*
X14294363Y-14514936D01*
X14294363Y-14514936D02*
X14284839Y-14505412D01*
D12*
X9274300Y-14951500D02*
X9319300Y-14906500D01*
X9274300Y-14861500D01*
X9229300Y-14906500D01*
X9274300Y-14951500D01*
D11*
X9618172Y-14797984D02*
X9637220Y-14797984D01*
X9637220Y-14797984D02*
X9656267Y-14807508D01*
X9656267Y-14807508D02*
X9665791Y-14817031D01*
X9665791Y-14817031D02*
X9675315Y-14836079D01*
X9675315Y-14836079D02*
X9684839Y-14874174D01*
X9684839Y-14874174D02*
X9684839Y-14921793D01*
X9684839Y-14921793D02*
X9675315Y-14959888D01*
X9675315Y-14959888D02*
X9665791Y-14978936D01*
X9665791Y-14978936D02*
X9656267Y-14988460D01*
X9656267Y-14988460D02*
X9637220Y-14997984D01*
X9637220Y-14997984D02*
X9618172Y-14997984D01*
X9618172Y-14997984D02*
X9599124Y-14988460D01*
X9599124Y-14988460D02*
X9589601Y-14978936D01*
X9589601Y-14978936D02*
X9580077Y-14959888D01*
X9580077Y-14959888D02*
X9570553Y-14921793D01*
X9570553Y-14921793D02*
X9570553Y-14874174D01*
X9570553Y-14874174D02*
X9580077Y-14836079D01*
X9580077Y-14836079D02*
X9589601Y-14817031D01*
X9589601Y-14817031D02*
X9599124Y-14807508D01*
X9599124Y-14807508D02*
X9618172Y-14797984D01*
X9770553Y-14978936D02*
X9780077Y-14988460D01*
X9780077Y-14988460D02*
X9770553Y-14997984D01*
X9770553Y-14997984D02*
X9761029Y-14988460D01*
X9761029Y-14988460D02*
X9770553Y-14978936D01*
X9770553Y-14978936D02*
X9770553Y-14997984D01*
X9875315Y-14997984D02*
X9913410Y-14997984D01*
X9913410Y-14997984D02*
X9932458Y-14988460D01*
X9932458Y-14988460D02*
X9941982Y-14978936D01*
X9941982Y-14978936D02*
X9961029Y-14950365D01*
X9961029Y-14950365D02*
X9970553Y-14912269D01*
X9970553Y-14912269D02*
X9970553Y-14836079D01*
X9970553Y-14836079D02*
X9961029Y-14817031D01*
X9961029Y-14817031D02*
X9951505Y-14807508D01*
X9951505Y-14807508D02*
X9932458Y-14797984D01*
X9932458Y-14797984D02*
X9894363Y-14797984D01*
X9894363Y-14797984D02*
X9875315Y-14807508D01*
X9875315Y-14807508D02*
X9865791Y-14817031D01*
X9865791Y-14817031D02*
X9856267Y-14836079D01*
X9856267Y-14836079D02*
X9856267Y-14883698D01*
X9856267Y-14883698D02*
X9865791Y-14902746D01*
X9865791Y-14902746D02*
X9875315Y-14912269D01*
X9875315Y-14912269D02*
X9894363Y-14921793D01*
X9894363Y-14921793D02*
X9932458Y-14921793D01*
X9932458Y-14921793D02*
X9951505Y-14912269D01*
X9951505Y-14912269D02*
X9961029Y-14902746D01*
X9961029Y-14902746D02*
X9970553Y-14883698D01*
X10094363Y-14797984D02*
X10113410Y-14797984D01*
X10113410Y-14797984D02*
X10132458Y-14807508D01*
X10132458Y-14807508D02*
X10141982Y-14817031D01*
X10141982Y-14817031D02*
X10151505Y-14836079D01*
X10151505Y-14836079D02*
X10161029Y-14874174D01*
X10161029Y-14874174D02*
X10161029Y-14921793D01*
X10161029Y-14921793D02*
X10151505Y-14959888D01*
X10151505Y-14959888D02*
X10141982Y-14978936D01*
X10141982Y-14978936D02*
X10132458Y-14988460D01*
X10132458Y-14988460D02*
X10113410Y-14997984D01*
X10113410Y-14997984D02*
X10094363Y-14997984D01*
X10094363Y-14997984D02*
X10075315Y-14988460D01*
X10075315Y-14988460D02*
X10065791Y-14978936D01*
X10065791Y-14978936D02*
X10056267Y-14959888D01*
X10056267Y-14959888D02*
X10046744Y-14921793D01*
X10046744Y-14921793D02*
X10046744Y-14874174D01*
X10046744Y-14874174D02*
X10056267Y-14836079D01*
X10056267Y-14836079D02*
X10065791Y-14817031D01*
X10065791Y-14817031D02*
X10075315Y-14807508D01*
X10075315Y-14807508D02*
X10094363Y-14797984D01*
X10284839Y-14797984D02*
X10303886Y-14797984D01*
X10303886Y-14797984D02*
X10322934Y-14807508D01*
X10322934Y-14807508D02*
X10332458Y-14817031D01*
X10332458Y-14817031D02*
X10341982Y-14836079D01*
X10341982Y-14836079D02*
X10351505Y-14874174D01*
X10351505Y-14874174D02*
X10351505Y-14921793D01*
X10351505Y-14921793D02*
X10341982Y-14959888D01*
X10341982Y-14959888D02*
X10332458Y-14978936D01*
X10332458Y-14978936D02*
X10322934Y-14988460D01*
X10322934Y-14988460D02*
X10303886Y-14997984D01*
X10303886Y-14997984D02*
X10284839Y-14997984D01*
X10284839Y-14997984D02*
X10265791Y-14988460D01*
X10265791Y-14988460D02*
X10256267Y-14978936D01*
X10256267Y-14978936D02*
X10246744Y-14959888D01*
X10246744Y-14959888D02*
X10237220Y-14921793D01*
X10237220Y-14921793D02*
X10237220Y-14874174D01*
X10237220Y-14874174D02*
X10246744Y-14836079D01*
X10246744Y-14836079D02*
X10256267Y-14817031D01*
X10256267Y-14817031D02*
X10265791Y-14807508D01*
X10265791Y-14807508D02*
X10284839Y-14797984D01*
X10437220Y-14997984D02*
X10437220Y-14864650D01*
X10437220Y-14883698D02*
X10446744Y-14874174D01*
X10446744Y-14874174D02*
X10465791Y-14864650D01*
X10465791Y-14864650D02*
X10494363Y-14864650D01*
X10494363Y-14864650D02*
X10513410Y-14874174D01*
X10513410Y-14874174D02*
X10522934Y-14893222D01*
X10522934Y-14893222D02*
X10522934Y-14997984D01*
X10522934Y-14893222D02*
X10532458Y-14874174D01*
X10532458Y-14874174D02*
X10551505Y-14864650D01*
X10551505Y-14864650D02*
X10580077Y-14864650D01*
X10580077Y-14864650D02*
X10599125Y-14874174D01*
X10599125Y-14874174D02*
X10608648Y-14893222D01*
X10608648Y-14893222D02*
X10608648Y-14997984D01*
X10703886Y-14997984D02*
X10703886Y-14864650D01*
X10703886Y-14883698D02*
X10713410Y-14874174D01*
X10713410Y-14874174D02*
X10732458Y-14864650D01*
X10732458Y-14864650D02*
X10761029Y-14864650D01*
X10761029Y-14864650D02*
X10780077Y-14874174D01*
X10780077Y-14874174D02*
X10789601Y-14893222D01*
X10789601Y-14893222D02*
X10789601Y-14997984D01*
X10789601Y-14893222D02*
X10799125Y-14874174D01*
X10799125Y-14874174D02*
X10818172Y-14864650D01*
X10818172Y-14864650D02*
X10846744Y-14864650D01*
X10846744Y-14864650D02*
X10865791Y-14874174D01*
X10865791Y-14874174D02*
X10875315Y-14893222D01*
X10875315Y-14893222D02*
X10875315Y-14997984D01*
X11265791Y-14788460D02*
X11094363Y-15045603D01*
X11522934Y-14797984D02*
X11541982Y-14797984D01*
X11541982Y-14797984D02*
X11561029Y-14807508D01*
X11561029Y-14807508D02*
X11570553Y-14817031D01*
X11570553Y-14817031D02*
X11580077Y-14836079D01*
X11580077Y-14836079D02*
X11589601Y-14874174D01*
X11589601Y-14874174D02*
X11589601Y-14921793D01*
X11589601Y-14921793D02*
X11580077Y-14959888D01*
X11580077Y-14959888D02*
X11570553Y-14978936D01*
X11570553Y-14978936D02*
X11561029Y-14988460D01*
X11561029Y-14988460D02*
X11541982Y-14997984D01*
X11541982Y-14997984D02*
X11522934Y-14997984D01*
X11522934Y-14997984D02*
X11503886Y-14988460D01*
X11503886Y-14988460D02*
X11494363Y-14978936D01*
X11494363Y-14978936D02*
X11484839Y-14959888D01*
X11484839Y-14959888D02*
X11475315Y-14921793D01*
X11475315Y-14921793D02*
X11475315Y-14874174D01*
X11475315Y-14874174D02*
X11484839Y-14836079D01*
X11484839Y-14836079D02*
X11494363Y-14817031D01*
X11494363Y-14817031D02*
X11503886Y-14807508D01*
X11503886Y-14807508D02*
X11522934Y-14797984D01*
X11675315Y-14978936D02*
X11684839Y-14988460D01*
X11684839Y-14988460D02*
X11675315Y-14997984D01*
X11675315Y-14997984D02*
X11665791Y-14988460D01*
X11665791Y-14988460D02*
X11675315Y-14978936D01*
X11675315Y-14978936D02*
X11675315Y-14997984D01*
X11808648Y-14797984D02*
X11827696Y-14797984D01*
X11827696Y-14797984D02*
X11846744Y-14807508D01*
X11846744Y-14807508D02*
X11856267Y-14817031D01*
X11856267Y-14817031D02*
X11865791Y-14836079D01*
X11865791Y-14836079D02*
X11875315Y-14874174D01*
X11875315Y-14874174D02*
X11875315Y-14921793D01*
X11875315Y-14921793D02*
X11865791Y-14959888D01*
X11865791Y-14959888D02*
X11856267Y-14978936D01*
X11856267Y-14978936D02*
X11846744Y-14988460D01*
X11846744Y-14988460D02*
X11827696Y-14997984D01*
X11827696Y-14997984D02*
X11808648Y-14997984D01*
X11808648Y-14997984D02*
X11789601Y-14988460D01*
X11789601Y-14988460D02*
X11780077Y-14978936D01*
X11780077Y-14978936D02*
X11770553Y-14959888D01*
X11770553Y-14959888D02*
X11761029Y-14921793D01*
X11761029Y-14921793D02*
X11761029Y-14874174D01*
X11761029Y-14874174D02*
X11770553Y-14836079D01*
X11770553Y-14836079D02*
X11780077Y-14817031D01*
X11780077Y-14817031D02*
X11789601Y-14807508D01*
X11789601Y-14807508D02*
X11808648Y-14797984D01*
X11941982Y-14797984D02*
X12065791Y-14797984D01*
X12065791Y-14797984D02*
X11999125Y-14874174D01*
X11999125Y-14874174D02*
X12027696Y-14874174D01*
X12027696Y-14874174D02*
X12046744Y-14883698D01*
X12046744Y-14883698D02*
X12056267Y-14893222D01*
X12056267Y-14893222D02*
X12065791Y-14912269D01*
X12065791Y-14912269D02*
X12065791Y-14959888D01*
X12065791Y-14959888D02*
X12056267Y-14978936D01*
X12056267Y-14978936D02*
X12046744Y-14988460D01*
X12046744Y-14988460D02*
X12027696Y-14997984D01*
X12027696Y-14997984D02*
X11970553Y-14997984D01*
X11970553Y-14997984D02*
X11951506Y-14988460D01*
X11951506Y-14988460D02*
X11941982Y-14978936D01*
X12246744Y-14797984D02*
X12151506Y-14797984D01*
X12151506Y-14797984D02*
X12141982Y-14893222D01*
X12141982Y-14893222D02*
X12151506Y-14883698D01*
X12151506Y-14883698D02*
X12170553Y-14874174D01*
X12170553Y-14874174D02*
X12218172Y-14874174D01*
X12218172Y-14874174D02*
X12237220Y-14883698D01*
X12237220Y-14883698D02*
X12246744Y-14893222D01*
X12246744Y-14893222D02*
X12256267Y-14912269D01*
X12256267Y-14912269D02*
X12256267Y-14959888D01*
X12256267Y-14959888D02*
X12246744Y-14978936D01*
X12246744Y-14978936D02*
X12237220Y-14988460D01*
X12237220Y-14988460D02*
X12218172Y-14997984D01*
X12218172Y-14997984D02*
X12170553Y-14997984D01*
X12170553Y-14997984D02*
X12151506Y-14988460D01*
X12151506Y-14988460D02*
X12141982Y-14978936D01*
X12427696Y-14864650D02*
X12427696Y-14997984D01*
X12380077Y-14788460D02*
X12332458Y-14931317D01*
X12332458Y-14931317D02*
X12456267Y-14931317D01*
X12522934Y-14797984D02*
X12522934Y-14836079D01*
X12599125Y-14797984D02*
X12599125Y-14836079D01*
X12894363Y-15074174D02*
X12884839Y-15064650D01*
X12884839Y-15064650D02*
X12865791Y-15036079D01*
X12865791Y-15036079D02*
X12856268Y-15017031D01*
X12856268Y-15017031D02*
X12846744Y-14988460D01*
X12846744Y-14988460D02*
X12837220Y-14940841D01*
X12837220Y-14940841D02*
X12837220Y-14902746D01*
X12837220Y-14902746D02*
X12846744Y-14855127D01*
X12846744Y-14855127D02*
X12856268Y-14826555D01*
X12856268Y-14826555D02*
X12865791Y-14807508D01*
X12865791Y-14807508D02*
X12884839Y-14778936D01*
X12884839Y-14778936D02*
X12894363Y-14769412D01*
X13056268Y-14864650D02*
X13056268Y-14997984D01*
X13008648Y-14788460D02*
X12961029Y-14931317D01*
X12961029Y-14931317D02*
X13084839Y-14931317D01*
X13313410Y-14997984D02*
X13313410Y-14797984D01*
X13399125Y-14997984D02*
X13399125Y-14893222D01*
X13399125Y-14893222D02*
X13389601Y-14874174D01*
X13389601Y-14874174D02*
X13370553Y-14864650D01*
X13370553Y-14864650D02*
X13341982Y-14864650D01*
X13341982Y-14864650D02*
X13322934Y-14874174D01*
X13322934Y-14874174D02*
X13313410Y-14883698D01*
X13522934Y-14997984D02*
X13503887Y-14988460D01*
X13503887Y-14988460D02*
X13494363Y-14978936D01*
X13494363Y-14978936D02*
X13484839Y-14959888D01*
X13484839Y-14959888D02*
X13484839Y-14902746D01*
X13484839Y-14902746D02*
X13494363Y-14883698D01*
X13494363Y-14883698D02*
X13503887Y-14874174D01*
X13503887Y-14874174D02*
X13522934Y-14864650D01*
X13522934Y-14864650D02*
X13551506Y-14864650D01*
X13551506Y-14864650D02*
X13570553Y-14874174D01*
X13570553Y-14874174D02*
X13580077Y-14883698D01*
X13580077Y-14883698D02*
X13589601Y-14902746D01*
X13589601Y-14902746D02*
X13589601Y-14959888D01*
X13589601Y-14959888D02*
X13580077Y-14978936D01*
X13580077Y-14978936D02*
X13570553Y-14988460D01*
X13570553Y-14988460D02*
X13551506Y-14997984D01*
X13551506Y-14997984D02*
X13522934Y-14997984D01*
X13703887Y-14997984D02*
X13684839Y-14988460D01*
X13684839Y-14988460D02*
X13675315Y-14969412D01*
X13675315Y-14969412D02*
X13675315Y-14797984D01*
X13856268Y-14988460D02*
X13837220Y-14997984D01*
X13837220Y-14997984D02*
X13799125Y-14997984D01*
X13799125Y-14997984D02*
X13780077Y-14988460D01*
X13780077Y-14988460D02*
X13770553Y-14969412D01*
X13770553Y-14969412D02*
X13770553Y-14893222D01*
X13770553Y-14893222D02*
X13780077Y-14874174D01*
X13780077Y-14874174D02*
X13799125Y-14864650D01*
X13799125Y-14864650D02*
X13837220Y-14864650D01*
X13837220Y-14864650D02*
X13856268Y-14874174D01*
X13856268Y-14874174D02*
X13865791Y-14893222D01*
X13865791Y-14893222D02*
X13865791Y-14912269D01*
X13865791Y-14912269D02*
X13770553Y-14931317D01*
X13941982Y-14988460D02*
X13961030Y-14997984D01*
X13961030Y-14997984D02*
X13999125Y-14997984D01*
X13999125Y-14997984D02*
X14018172Y-14988460D01*
X14018172Y-14988460D02*
X14027696Y-14969412D01*
X14027696Y-14969412D02*
X14027696Y-14959888D01*
X14027696Y-14959888D02*
X14018172Y-14940841D01*
X14018172Y-14940841D02*
X13999125Y-14931317D01*
X13999125Y-14931317D02*
X13970553Y-14931317D01*
X13970553Y-14931317D02*
X13951506Y-14921793D01*
X13951506Y-14921793D02*
X13941982Y-14902746D01*
X13941982Y-14902746D02*
X13941982Y-14893222D01*
X13941982Y-14893222D02*
X13951506Y-14874174D01*
X13951506Y-14874174D02*
X13970553Y-14864650D01*
X13970553Y-14864650D02*
X13999125Y-14864650D01*
X13999125Y-14864650D02*
X14018172Y-14874174D01*
X14094363Y-15074174D02*
X14103887Y-15064650D01*
X14103887Y-15064650D02*
X14122934Y-15036079D01*
X14122934Y-15036079D02*
X14132458Y-15017031D01*
X14132458Y-15017031D02*
X14141982Y-14988460D01*
X14141982Y-14988460D02*
X14151506Y-14940841D01*
X14151506Y-14940841D02*
X14151506Y-14902746D01*
X14151506Y-14902746D02*
X14141982Y-14855127D01*
X14141982Y-14855127D02*
X14132458Y-14826555D01*
X14132458Y-14826555D02*
X14122934Y-14807508D01*
X14122934Y-14807508D02*
X14103887Y-14778936D01*
X14103887Y-14778936D02*
X14094363Y-14769412D01*
D12*
X9219300Y-15120500D02*
X9319300Y-15220500D01*
X9319300Y-15120500D02*
X9219300Y-15220500D01*
X9319300Y-15170500D02*
G75*
G02*
X9219300Y-15170500I-50000J0D01*
G01*
X9219300Y-15170500D02*
G75*
G02*
X9319300Y-15170500I50000J0D01*
G01*
D11*
X9684839Y-15261984D02*
X9570553Y-15261984D01*
X9627696Y-15261984D02*
X9627696Y-15061984D01*
X9627696Y-15061984D02*
X9608648Y-15090555D01*
X9608648Y-15090555D02*
X9589601Y-15109603D01*
X9589601Y-15109603D02*
X9570553Y-15119127D01*
X9770553Y-15242936D02*
X9780077Y-15252460D01*
X9780077Y-15252460D02*
X9770553Y-15261984D01*
X9770553Y-15261984D02*
X9761029Y-15252460D01*
X9761029Y-15252460D02*
X9770553Y-15242936D01*
X9770553Y-15242936D02*
X9770553Y-15261984D01*
X9903886Y-15061984D02*
X9922934Y-15061984D01*
X9922934Y-15061984D02*
X9941982Y-15071508D01*
X9941982Y-15071508D02*
X9951505Y-15081031D01*
X9951505Y-15081031D02*
X9961029Y-15100079D01*
X9961029Y-15100079D02*
X9970553Y-15138174D01*
X9970553Y-15138174D02*
X9970553Y-15185793D01*
X9970553Y-15185793D02*
X9961029Y-15223888D01*
X9961029Y-15223888D02*
X9951505Y-15242936D01*
X9951505Y-15242936D02*
X9941982Y-15252460D01*
X9941982Y-15252460D02*
X9922934Y-15261984D01*
X9922934Y-15261984D02*
X9903886Y-15261984D01*
X9903886Y-15261984D02*
X9884839Y-15252460D01*
X9884839Y-15252460D02*
X9875315Y-15242936D01*
X9875315Y-15242936D02*
X9865791Y-15223888D01*
X9865791Y-15223888D02*
X9856267Y-15185793D01*
X9856267Y-15185793D02*
X9856267Y-15138174D01*
X9856267Y-15138174D02*
X9865791Y-15100079D01*
X9865791Y-15100079D02*
X9875315Y-15081031D01*
X9875315Y-15081031D02*
X9884839Y-15071508D01*
X9884839Y-15071508D02*
X9903886Y-15061984D01*
X10094363Y-15061984D02*
X10113410Y-15061984D01*
X10113410Y-15061984D02*
X10132458Y-15071508D01*
X10132458Y-15071508D02*
X10141982Y-15081031D01*
X10141982Y-15081031D02*
X10151505Y-15100079D01*
X10151505Y-15100079D02*
X10161029Y-15138174D01*
X10161029Y-15138174D02*
X10161029Y-15185793D01*
X10161029Y-15185793D02*
X10151505Y-15223888D01*
X10151505Y-15223888D02*
X10141982Y-15242936D01*
X10141982Y-15242936D02*
X10132458Y-15252460D01*
X10132458Y-15252460D02*
X10113410Y-15261984D01*
X10113410Y-15261984D02*
X10094363Y-15261984D01*
X10094363Y-15261984D02*
X10075315Y-15252460D01*
X10075315Y-15252460D02*
X10065791Y-15242936D01*
X10065791Y-15242936D02*
X10056267Y-15223888D01*
X10056267Y-15223888D02*
X10046744Y-15185793D01*
X10046744Y-15185793D02*
X10046744Y-15138174D01*
X10046744Y-15138174D02*
X10056267Y-15100079D01*
X10056267Y-15100079D02*
X10065791Y-15081031D01*
X10065791Y-15081031D02*
X10075315Y-15071508D01*
X10075315Y-15071508D02*
X10094363Y-15061984D01*
X10284839Y-15061984D02*
X10303886Y-15061984D01*
X10303886Y-15061984D02*
X10322934Y-15071508D01*
X10322934Y-15071508D02*
X10332458Y-15081031D01*
X10332458Y-15081031D02*
X10341982Y-15100079D01*
X10341982Y-15100079D02*
X10351505Y-15138174D01*
X10351505Y-15138174D02*
X10351505Y-15185793D01*
X10351505Y-15185793D02*
X10341982Y-15223888D01*
X10341982Y-15223888D02*
X10332458Y-15242936D01*
X10332458Y-15242936D02*
X10322934Y-15252460D01*
X10322934Y-15252460D02*
X10303886Y-15261984D01*
X10303886Y-15261984D02*
X10284839Y-15261984D01*
X10284839Y-15261984D02*
X10265791Y-15252460D01*
X10265791Y-15252460D02*
X10256267Y-15242936D01*
X10256267Y-15242936D02*
X10246744Y-15223888D01*
X10246744Y-15223888D02*
X10237220Y-15185793D01*
X10237220Y-15185793D02*
X10237220Y-15138174D01*
X10237220Y-15138174D02*
X10246744Y-15100079D01*
X10246744Y-15100079D02*
X10256267Y-15081031D01*
X10256267Y-15081031D02*
X10265791Y-15071508D01*
X10265791Y-15071508D02*
X10284839Y-15061984D01*
X10437220Y-15261984D02*
X10437220Y-15128650D01*
X10437220Y-15147698D02*
X10446744Y-15138174D01*
X10446744Y-15138174D02*
X10465791Y-15128650D01*
X10465791Y-15128650D02*
X10494363Y-15128650D01*
X10494363Y-15128650D02*
X10513410Y-15138174D01*
X10513410Y-15138174D02*
X10522934Y-15157222D01*
X10522934Y-15157222D02*
X10522934Y-15261984D01*
X10522934Y-15157222D02*
X10532458Y-15138174D01*
X10532458Y-15138174D02*
X10551505Y-15128650D01*
X10551505Y-15128650D02*
X10580077Y-15128650D01*
X10580077Y-15128650D02*
X10599125Y-15138174D01*
X10599125Y-15138174D02*
X10608648Y-15157222D01*
X10608648Y-15157222D02*
X10608648Y-15261984D01*
X10703886Y-15261984D02*
X10703886Y-15128650D01*
X10703886Y-15147698D02*
X10713410Y-15138174D01*
X10713410Y-15138174D02*
X10732458Y-15128650D01*
X10732458Y-15128650D02*
X10761029Y-15128650D01*
X10761029Y-15128650D02*
X10780077Y-15138174D01*
X10780077Y-15138174D02*
X10789601Y-15157222D01*
X10789601Y-15157222D02*
X10789601Y-15261984D01*
X10789601Y-15157222D02*
X10799125Y-15138174D01*
X10799125Y-15138174D02*
X10818172Y-15128650D01*
X10818172Y-15128650D02*
X10846744Y-15128650D01*
X10846744Y-15128650D02*
X10865791Y-15138174D01*
X10865791Y-15138174D02*
X10875315Y-15157222D01*
X10875315Y-15157222D02*
X10875315Y-15261984D01*
X11265791Y-15052460D02*
X11094363Y-15309603D01*
X11522934Y-15061984D02*
X11541982Y-15061984D01*
X11541982Y-15061984D02*
X11561029Y-15071508D01*
X11561029Y-15071508D02*
X11570553Y-15081031D01*
X11570553Y-15081031D02*
X11580077Y-15100079D01*
X11580077Y-15100079D02*
X11589601Y-15138174D01*
X11589601Y-15138174D02*
X11589601Y-15185793D01*
X11589601Y-15185793D02*
X11580077Y-15223888D01*
X11580077Y-15223888D02*
X11570553Y-15242936D01*
X11570553Y-15242936D02*
X11561029Y-15252460D01*
X11561029Y-15252460D02*
X11541982Y-15261984D01*
X11541982Y-15261984D02*
X11522934Y-15261984D01*
X11522934Y-15261984D02*
X11503886Y-15252460D01*
X11503886Y-15252460D02*
X11494363Y-15242936D01*
X11494363Y-15242936D02*
X11484839Y-15223888D01*
X11484839Y-15223888D02*
X11475315Y-15185793D01*
X11475315Y-15185793D02*
X11475315Y-15138174D01*
X11475315Y-15138174D02*
X11484839Y-15100079D01*
X11484839Y-15100079D02*
X11494363Y-15081031D01*
X11494363Y-15081031D02*
X11503886Y-15071508D01*
X11503886Y-15071508D02*
X11522934Y-15061984D01*
X11675315Y-15242936D02*
X11684839Y-15252460D01*
X11684839Y-15252460D02*
X11675315Y-15261984D01*
X11675315Y-15261984D02*
X11665791Y-15252460D01*
X11665791Y-15252460D02*
X11675315Y-15242936D01*
X11675315Y-15242936D02*
X11675315Y-15261984D01*
X11808648Y-15061984D02*
X11827696Y-15061984D01*
X11827696Y-15061984D02*
X11846744Y-15071508D01*
X11846744Y-15071508D02*
X11856267Y-15081031D01*
X11856267Y-15081031D02*
X11865791Y-15100079D01*
X11865791Y-15100079D02*
X11875315Y-15138174D01*
X11875315Y-15138174D02*
X11875315Y-15185793D01*
X11875315Y-15185793D02*
X11865791Y-15223888D01*
X11865791Y-15223888D02*
X11856267Y-15242936D01*
X11856267Y-15242936D02*
X11846744Y-15252460D01*
X11846744Y-15252460D02*
X11827696Y-15261984D01*
X11827696Y-15261984D02*
X11808648Y-15261984D01*
X11808648Y-15261984D02*
X11789601Y-15252460D01*
X11789601Y-15252460D02*
X11780077Y-15242936D01*
X11780077Y-15242936D02*
X11770553Y-15223888D01*
X11770553Y-15223888D02*
X11761029Y-15185793D01*
X11761029Y-15185793D02*
X11761029Y-15138174D01*
X11761029Y-15138174D02*
X11770553Y-15100079D01*
X11770553Y-15100079D02*
X11780077Y-15081031D01*
X11780077Y-15081031D02*
X11789601Y-15071508D01*
X11789601Y-15071508D02*
X11808648Y-15061984D01*
X11941982Y-15061984D02*
X12065791Y-15061984D01*
X12065791Y-15061984D02*
X11999125Y-15138174D01*
X11999125Y-15138174D02*
X12027696Y-15138174D01*
X12027696Y-15138174D02*
X12046744Y-15147698D01*
X12046744Y-15147698D02*
X12056267Y-15157222D01*
X12056267Y-15157222D02*
X12065791Y-15176269D01*
X12065791Y-15176269D02*
X12065791Y-15223888D01*
X12065791Y-15223888D02*
X12056267Y-15242936D01*
X12056267Y-15242936D02*
X12046744Y-15252460D01*
X12046744Y-15252460D02*
X12027696Y-15261984D01*
X12027696Y-15261984D02*
X11970553Y-15261984D01*
X11970553Y-15261984D02*
X11951506Y-15252460D01*
X11951506Y-15252460D02*
X11941982Y-15242936D01*
X12161029Y-15261984D02*
X12199125Y-15261984D01*
X12199125Y-15261984D02*
X12218172Y-15252460D01*
X12218172Y-15252460D02*
X12227696Y-15242936D01*
X12227696Y-15242936D02*
X12246744Y-15214365D01*
X12246744Y-15214365D02*
X12256267Y-15176269D01*
X12256267Y-15176269D02*
X12256267Y-15100079D01*
X12256267Y-15100079D02*
X12246744Y-15081031D01*
X12246744Y-15081031D02*
X12237220Y-15071508D01*
X12237220Y-15071508D02*
X12218172Y-15061984D01*
X12218172Y-15061984D02*
X12180077Y-15061984D01*
X12180077Y-15061984D02*
X12161029Y-15071508D01*
X12161029Y-15071508D02*
X12151506Y-15081031D01*
X12151506Y-15081031D02*
X12141982Y-15100079D01*
X12141982Y-15100079D02*
X12141982Y-15147698D01*
X12141982Y-15147698D02*
X12151506Y-15166746D01*
X12151506Y-15166746D02*
X12161029Y-15176269D01*
X12161029Y-15176269D02*
X12180077Y-15185793D01*
X12180077Y-15185793D02*
X12218172Y-15185793D01*
X12218172Y-15185793D02*
X12237220Y-15176269D01*
X12237220Y-15176269D02*
X12246744Y-15166746D01*
X12246744Y-15166746D02*
X12256267Y-15147698D01*
X12427696Y-15128650D02*
X12427696Y-15261984D01*
X12380077Y-15052460D02*
X12332458Y-15195317D01*
X12332458Y-15195317D02*
X12456267Y-15195317D01*
X12522934Y-15061984D02*
X12522934Y-15100079D01*
X12599125Y-15061984D02*
X12599125Y-15100079D01*
X12894363Y-15338174D02*
X12884839Y-15328650D01*
X12884839Y-15328650D02*
X12865791Y-15300079D01*
X12865791Y-15300079D02*
X12856268Y-15281031D01*
X12856268Y-15281031D02*
X12846744Y-15252460D01*
X12846744Y-15252460D02*
X12837220Y-15204841D01*
X12837220Y-15204841D02*
X12837220Y-15166746D01*
X12837220Y-15166746D02*
X12846744Y-15119127D01*
X12846744Y-15119127D02*
X12856268Y-15090555D01*
X12856268Y-15090555D02*
X12865791Y-15071508D01*
X12865791Y-15071508D02*
X12884839Y-15042936D01*
X12884839Y-15042936D02*
X12894363Y-15033412D01*
X13075315Y-15261984D02*
X12961029Y-15261984D01*
X13018172Y-15261984D02*
X13018172Y-15061984D01*
X13018172Y-15061984D02*
X12999125Y-15090555D01*
X12999125Y-15090555D02*
X12980077Y-15109603D01*
X12980077Y-15109603D02*
X12961029Y-15119127D01*
X13141982Y-15061984D02*
X13275315Y-15061984D01*
X13275315Y-15061984D02*
X13189601Y-15261984D01*
X13503887Y-15261984D02*
X13503887Y-15061984D01*
X13589601Y-15261984D02*
X13589601Y-15157222D01*
X13589601Y-15157222D02*
X13580077Y-15138174D01*
X13580077Y-15138174D02*
X13561030Y-15128650D01*
X13561030Y-15128650D02*
X13532458Y-15128650D01*
X13532458Y-15128650D02*
X13513410Y-15138174D01*
X13513410Y-15138174D02*
X13503887Y-15147698D01*
X13713410Y-15261984D02*
X13694363Y-15252460D01*
X13694363Y-15252460D02*
X13684839Y-15242936D01*
X13684839Y-15242936D02*
X13675315Y-15223888D01*
X13675315Y-15223888D02*
X13675315Y-15166746D01*
X13675315Y-15166746D02*
X13684839Y-15147698D01*
X13684839Y-15147698D02*
X13694363Y-15138174D01*
X13694363Y-15138174D02*
X13713410Y-15128650D01*
X13713410Y-15128650D02*
X13741982Y-15128650D01*
X13741982Y-15128650D02*
X13761030Y-15138174D01*
X13761030Y-15138174D02*
X13770553Y-15147698D01*
X13770553Y-15147698D02*
X13780077Y-15166746D01*
X13780077Y-15166746D02*
X13780077Y-15223888D01*
X13780077Y-15223888D02*
X13770553Y-15242936D01*
X13770553Y-15242936D02*
X13761030Y-15252460D01*
X13761030Y-15252460D02*
X13741982Y-15261984D01*
X13741982Y-15261984D02*
X13713410Y-15261984D01*
X13894363Y-15261984D02*
X13875315Y-15252460D01*
X13875315Y-15252460D02*
X13865791Y-15233412D01*
X13865791Y-15233412D02*
X13865791Y-15061984D01*
X14046744Y-15252460D02*
X14027696Y-15261984D01*
X14027696Y-15261984D02*
X13989601Y-15261984D01*
X13989601Y-15261984D02*
X13970553Y-15252460D01*
X13970553Y-15252460D02*
X13961030Y-15233412D01*
X13961030Y-15233412D02*
X13961030Y-15157222D01*
X13961030Y-15157222D02*
X13970553Y-15138174D01*
X13970553Y-15138174D02*
X13989601Y-15128650D01*
X13989601Y-15128650D02*
X14027696Y-15128650D01*
X14027696Y-15128650D02*
X14046744Y-15138174D01*
X14046744Y-15138174D02*
X14056268Y-15157222D01*
X14056268Y-15157222D02*
X14056268Y-15176269D01*
X14056268Y-15176269D02*
X13961030Y-15195317D01*
X14132458Y-15252460D02*
X14151506Y-15261984D01*
X14151506Y-15261984D02*
X14189601Y-15261984D01*
X14189601Y-15261984D02*
X14208649Y-15252460D01*
X14208649Y-15252460D02*
X14218172Y-15233412D01*
X14218172Y-15233412D02*
X14218172Y-15223888D01*
X14218172Y-15223888D02*
X14208649Y-15204841D01*
X14208649Y-15204841D02*
X14189601Y-15195317D01*
X14189601Y-15195317D02*
X14161030Y-15195317D01*
X14161030Y-15195317D02*
X14141982Y-15185793D01*
X14141982Y-15185793D02*
X14132458Y-15166746D01*
X14132458Y-15166746D02*
X14132458Y-15157222D01*
X14132458Y-15157222D02*
X14141982Y-15138174D01*
X14141982Y-15138174D02*
X14161030Y-15128650D01*
X14161030Y-15128650D02*
X14189601Y-15128650D01*
X14189601Y-15128650D02*
X14208649Y-15138174D01*
X14284839Y-15338174D02*
X14294363Y-15328650D01*
X14294363Y-15328650D02*
X14313411Y-15300079D01*
X14313411Y-15300079D02*
X14322934Y-15281031D01*
X14322934Y-15281031D02*
X14332458Y-15252460D01*
X14332458Y-15252460D02*
X14341982Y-15204841D01*
X14341982Y-15204841D02*
X14341982Y-15166746D01*
X14341982Y-15166746D02*
X14332458Y-15119127D01*
X14332458Y-15119127D02*
X14322934Y-15090555D01*
X14322934Y-15090555D02*
X14313411Y-15071508D01*
X14313411Y-15071508D02*
X14294363Y-15042936D01*
X14294363Y-15042936D02*
X14284839Y-15033412D01*
D13*
X9199300Y-15374500D02*
X9319300Y-15494500D01*
X9319300Y-15374500D02*
X9199300Y-15494500D01*
X9259300Y-15374500D02*
X9259300Y-15494500D01*
X9199300Y-15434500D02*
X9319300Y-15434500D01*
D11*
X9684839Y-15525984D02*
X9570553Y-15525984D01*
X9627696Y-15525984D02*
X9627696Y-15325984D01*
X9627696Y-15325984D02*
X9608648Y-15354555D01*
X9608648Y-15354555D02*
X9589601Y-15373603D01*
X9589601Y-15373603D02*
X9570553Y-15383127D01*
X9770553Y-15506936D02*
X9780077Y-15516460D01*
X9780077Y-15516460D02*
X9770553Y-15525984D01*
X9770553Y-15525984D02*
X9761029Y-15516460D01*
X9761029Y-15516460D02*
X9770553Y-15506936D01*
X9770553Y-15506936D02*
X9770553Y-15525984D01*
X9856267Y-15345031D02*
X9865791Y-15335508D01*
X9865791Y-15335508D02*
X9884839Y-15325984D01*
X9884839Y-15325984D02*
X9932458Y-15325984D01*
X9932458Y-15325984D02*
X9951505Y-15335508D01*
X9951505Y-15335508D02*
X9961029Y-15345031D01*
X9961029Y-15345031D02*
X9970553Y-15364079D01*
X9970553Y-15364079D02*
X9970553Y-15383127D01*
X9970553Y-15383127D02*
X9961029Y-15411698D01*
X9961029Y-15411698D02*
X9846744Y-15525984D01*
X9846744Y-15525984D02*
X9970553Y-15525984D01*
X10094363Y-15325984D02*
X10113410Y-15325984D01*
X10113410Y-15325984D02*
X10132458Y-15335508D01*
X10132458Y-15335508D02*
X10141982Y-15345031D01*
X10141982Y-15345031D02*
X10151505Y-15364079D01*
X10151505Y-15364079D02*
X10161029Y-15402174D01*
X10161029Y-15402174D02*
X10161029Y-15449793D01*
X10161029Y-15449793D02*
X10151505Y-15487888D01*
X10151505Y-15487888D02*
X10141982Y-15506936D01*
X10141982Y-15506936D02*
X10132458Y-15516460D01*
X10132458Y-15516460D02*
X10113410Y-15525984D01*
X10113410Y-15525984D02*
X10094363Y-15525984D01*
X10094363Y-15525984D02*
X10075315Y-15516460D01*
X10075315Y-15516460D02*
X10065791Y-15506936D01*
X10065791Y-15506936D02*
X10056267Y-15487888D01*
X10056267Y-15487888D02*
X10046744Y-15449793D01*
X10046744Y-15449793D02*
X10046744Y-15402174D01*
X10046744Y-15402174D02*
X10056267Y-15364079D01*
X10056267Y-15364079D02*
X10065791Y-15345031D01*
X10065791Y-15345031D02*
X10075315Y-15335508D01*
X10075315Y-15335508D02*
X10094363Y-15325984D01*
X10284839Y-15325984D02*
X10303886Y-15325984D01*
X10303886Y-15325984D02*
X10322934Y-15335508D01*
X10322934Y-15335508D02*
X10332458Y-15345031D01*
X10332458Y-15345031D02*
X10341982Y-15364079D01*
X10341982Y-15364079D02*
X10351505Y-15402174D01*
X10351505Y-15402174D02*
X10351505Y-15449793D01*
X10351505Y-15449793D02*
X10341982Y-15487888D01*
X10341982Y-15487888D02*
X10332458Y-15506936D01*
X10332458Y-15506936D02*
X10322934Y-15516460D01*
X10322934Y-15516460D02*
X10303886Y-15525984D01*
X10303886Y-15525984D02*
X10284839Y-15525984D01*
X10284839Y-15525984D02*
X10265791Y-15516460D01*
X10265791Y-15516460D02*
X10256267Y-15506936D01*
X10256267Y-15506936D02*
X10246744Y-15487888D01*
X10246744Y-15487888D02*
X10237220Y-15449793D01*
X10237220Y-15449793D02*
X10237220Y-15402174D01*
X10237220Y-15402174D02*
X10246744Y-15364079D01*
X10246744Y-15364079D02*
X10256267Y-15345031D01*
X10256267Y-15345031D02*
X10265791Y-15335508D01*
X10265791Y-15335508D02*
X10284839Y-15325984D01*
X10437220Y-15525984D02*
X10437220Y-15392650D01*
X10437220Y-15411698D02*
X10446744Y-15402174D01*
X10446744Y-15402174D02*
X10465791Y-15392650D01*
X10465791Y-15392650D02*
X10494363Y-15392650D01*
X10494363Y-15392650D02*
X10513410Y-15402174D01*
X10513410Y-15402174D02*
X10522934Y-15421222D01*
X10522934Y-15421222D02*
X10522934Y-15525984D01*
X10522934Y-15421222D02*
X10532458Y-15402174D01*
X10532458Y-15402174D02*
X10551505Y-15392650D01*
X10551505Y-15392650D02*
X10580077Y-15392650D01*
X10580077Y-15392650D02*
X10599125Y-15402174D01*
X10599125Y-15402174D02*
X10608648Y-15421222D01*
X10608648Y-15421222D02*
X10608648Y-15525984D01*
X10703886Y-15525984D02*
X10703886Y-15392650D01*
X10703886Y-15411698D02*
X10713410Y-15402174D01*
X10713410Y-15402174D02*
X10732458Y-15392650D01*
X10732458Y-15392650D02*
X10761029Y-15392650D01*
X10761029Y-15392650D02*
X10780077Y-15402174D01*
X10780077Y-15402174D02*
X10789601Y-15421222D01*
X10789601Y-15421222D02*
X10789601Y-15525984D01*
X10789601Y-15421222D02*
X10799125Y-15402174D01*
X10799125Y-15402174D02*
X10818172Y-15392650D01*
X10818172Y-15392650D02*
X10846744Y-15392650D01*
X10846744Y-15392650D02*
X10865791Y-15402174D01*
X10865791Y-15402174D02*
X10875315Y-15421222D01*
X10875315Y-15421222D02*
X10875315Y-15525984D01*
X11265791Y-15316460D02*
X11094363Y-15573603D01*
X11522934Y-15325984D02*
X11541982Y-15325984D01*
X11541982Y-15325984D02*
X11561029Y-15335508D01*
X11561029Y-15335508D02*
X11570553Y-15345031D01*
X11570553Y-15345031D02*
X11580077Y-15364079D01*
X11580077Y-15364079D02*
X11589601Y-15402174D01*
X11589601Y-15402174D02*
X11589601Y-15449793D01*
X11589601Y-15449793D02*
X11580077Y-15487888D01*
X11580077Y-15487888D02*
X11570553Y-15506936D01*
X11570553Y-15506936D02*
X11561029Y-15516460D01*
X11561029Y-15516460D02*
X11541982Y-15525984D01*
X11541982Y-15525984D02*
X11522934Y-15525984D01*
X11522934Y-15525984D02*
X11503886Y-15516460D01*
X11503886Y-15516460D02*
X11494363Y-15506936D01*
X11494363Y-15506936D02*
X11484839Y-15487888D01*
X11484839Y-15487888D02*
X11475315Y-15449793D01*
X11475315Y-15449793D02*
X11475315Y-15402174D01*
X11475315Y-15402174D02*
X11484839Y-15364079D01*
X11484839Y-15364079D02*
X11494363Y-15345031D01*
X11494363Y-15345031D02*
X11503886Y-15335508D01*
X11503886Y-15335508D02*
X11522934Y-15325984D01*
X11675315Y-15506936D02*
X11684839Y-15516460D01*
X11684839Y-15516460D02*
X11675315Y-15525984D01*
X11675315Y-15525984D02*
X11665791Y-15516460D01*
X11665791Y-15516460D02*
X11675315Y-15506936D01*
X11675315Y-15506936D02*
X11675315Y-15525984D01*
X11808648Y-15325984D02*
X11827696Y-15325984D01*
X11827696Y-15325984D02*
X11846744Y-15335508D01*
X11846744Y-15335508D02*
X11856267Y-15345031D01*
X11856267Y-15345031D02*
X11865791Y-15364079D01*
X11865791Y-15364079D02*
X11875315Y-15402174D01*
X11875315Y-15402174D02*
X11875315Y-15449793D01*
X11875315Y-15449793D02*
X11865791Y-15487888D01*
X11865791Y-15487888D02*
X11856267Y-15506936D01*
X11856267Y-15506936D02*
X11846744Y-15516460D01*
X11846744Y-15516460D02*
X11827696Y-15525984D01*
X11827696Y-15525984D02*
X11808648Y-15525984D01*
X11808648Y-15525984D02*
X11789601Y-15516460D01*
X11789601Y-15516460D02*
X11780077Y-15506936D01*
X11780077Y-15506936D02*
X11770553Y-15487888D01*
X11770553Y-15487888D02*
X11761029Y-15449793D01*
X11761029Y-15449793D02*
X11761029Y-15402174D01*
X11761029Y-15402174D02*
X11770553Y-15364079D01*
X11770553Y-15364079D02*
X11780077Y-15345031D01*
X11780077Y-15345031D02*
X11789601Y-15335508D01*
X11789601Y-15335508D02*
X11808648Y-15325984D01*
X12046744Y-15392650D02*
X12046744Y-15525984D01*
X11999125Y-15316460D02*
X11951506Y-15459317D01*
X11951506Y-15459317D02*
X12075315Y-15459317D01*
X12132458Y-15325984D02*
X12265791Y-15325984D01*
X12265791Y-15325984D02*
X12180077Y-15525984D01*
X12332458Y-15345031D02*
X12341982Y-15335508D01*
X12341982Y-15335508D02*
X12361029Y-15325984D01*
X12361029Y-15325984D02*
X12408648Y-15325984D01*
X12408648Y-15325984D02*
X12427696Y-15335508D01*
X12427696Y-15335508D02*
X12437220Y-15345031D01*
X12437220Y-15345031D02*
X12446744Y-15364079D01*
X12446744Y-15364079D02*
X12446744Y-15383127D01*
X12446744Y-15383127D02*
X12437220Y-15411698D01*
X12437220Y-15411698D02*
X12322934Y-15525984D01*
X12322934Y-15525984D02*
X12446744Y-15525984D01*
X12522934Y-15325984D02*
X12522934Y-15364079D01*
X12599125Y-15325984D02*
X12599125Y-15364079D01*
X12894363Y-15602174D02*
X12884839Y-15592650D01*
X12884839Y-15592650D02*
X12865791Y-15564079D01*
X12865791Y-15564079D02*
X12856268Y-15545031D01*
X12856268Y-15545031D02*
X12846744Y-15516460D01*
X12846744Y-15516460D02*
X12837220Y-15468841D01*
X12837220Y-15468841D02*
X12837220Y-15430746D01*
X12837220Y-15430746D02*
X12846744Y-15383127D01*
X12846744Y-15383127D02*
X12856268Y-15354555D01*
X12856268Y-15354555D02*
X12865791Y-15335508D01*
X12865791Y-15335508D02*
X12884839Y-15306936D01*
X12884839Y-15306936D02*
X12894363Y-15297412D01*
X13056268Y-15392650D02*
X13056268Y-15525984D01*
X13008648Y-15316460D02*
X12961029Y-15459317D01*
X12961029Y-15459317D02*
X13084839Y-15459317D01*
X13313410Y-15525984D02*
X13313410Y-15325984D01*
X13399125Y-15525984D02*
X13399125Y-15421222D01*
X13399125Y-15421222D02*
X13389601Y-15402174D01*
X13389601Y-15402174D02*
X13370553Y-15392650D01*
X13370553Y-15392650D02*
X13341982Y-15392650D01*
X13341982Y-15392650D02*
X13322934Y-15402174D01*
X13322934Y-15402174D02*
X13313410Y-15411698D01*
X13522934Y-15525984D02*
X13503887Y-15516460D01*
X13503887Y-15516460D02*
X13494363Y-15506936D01*
X13494363Y-15506936D02*
X13484839Y-15487888D01*
X13484839Y-15487888D02*
X13484839Y-15430746D01*
X13484839Y-15430746D02*
X13494363Y-15411698D01*
X13494363Y-15411698D02*
X13503887Y-15402174D01*
X13503887Y-15402174D02*
X13522934Y-15392650D01*
X13522934Y-15392650D02*
X13551506Y-15392650D01*
X13551506Y-15392650D02*
X13570553Y-15402174D01*
X13570553Y-15402174D02*
X13580077Y-15411698D01*
X13580077Y-15411698D02*
X13589601Y-15430746D01*
X13589601Y-15430746D02*
X13589601Y-15487888D01*
X13589601Y-15487888D02*
X13580077Y-15506936D01*
X13580077Y-15506936D02*
X13570553Y-15516460D01*
X13570553Y-15516460D02*
X13551506Y-15525984D01*
X13551506Y-15525984D02*
X13522934Y-15525984D01*
X13703887Y-15525984D02*
X13684839Y-15516460D01*
X13684839Y-15516460D02*
X13675315Y-15497412D01*
X13675315Y-15497412D02*
X13675315Y-15325984D01*
X13856268Y-15516460D02*
X13837220Y-15525984D01*
X13837220Y-15525984D02*
X13799125Y-15525984D01*
X13799125Y-15525984D02*
X13780077Y-15516460D01*
X13780077Y-15516460D02*
X13770553Y-15497412D01*
X13770553Y-15497412D02*
X13770553Y-15421222D01*
X13770553Y-15421222D02*
X13780077Y-15402174D01*
X13780077Y-15402174D02*
X13799125Y-15392650D01*
X13799125Y-15392650D02*
X13837220Y-15392650D01*
X13837220Y-15392650D02*
X13856268Y-15402174D01*
X13856268Y-15402174D02*
X13865791Y-15421222D01*
X13865791Y-15421222D02*
X13865791Y-15440269D01*
X13865791Y-15440269D02*
X13770553Y-15459317D01*
X13941982Y-15516460D02*
X13961030Y-15525984D01*
X13961030Y-15525984D02*
X13999125Y-15525984D01*
X13999125Y-15525984D02*
X14018172Y-15516460D01*
X14018172Y-15516460D02*
X14027696Y-15497412D01*
X14027696Y-15497412D02*
X14027696Y-15487888D01*
X14027696Y-15487888D02*
X14018172Y-15468841D01*
X14018172Y-15468841D02*
X13999125Y-15459317D01*
X13999125Y-15459317D02*
X13970553Y-15459317D01*
X13970553Y-15459317D02*
X13951506Y-15449793D01*
X13951506Y-15449793D02*
X13941982Y-15430746D01*
X13941982Y-15430746D02*
X13941982Y-15421222D01*
X13941982Y-15421222D02*
X13951506Y-15402174D01*
X13951506Y-15402174D02*
X13970553Y-15392650D01*
X13970553Y-15392650D02*
X13999125Y-15392650D01*
X13999125Y-15392650D02*
X14018172Y-15402174D01*
X14094363Y-15602174D02*
X14103887Y-15592650D01*
X14103887Y-15592650D02*
X14122934Y-15564079D01*
X14122934Y-15564079D02*
X14132458Y-15545031D01*
X14132458Y-15545031D02*
X14141982Y-15516460D01*
X14141982Y-15516460D02*
X14151506Y-15468841D01*
X14151506Y-15468841D02*
X14151506Y-15430746D01*
X14151506Y-15430746D02*
X14141982Y-15383127D01*
X14141982Y-15383127D02*
X14132458Y-15354555D01*
X14132458Y-15354555D02*
X14122934Y-15335508D01*
X14122934Y-15335508D02*
X14103887Y-15306936D01*
X14103887Y-15306936D02*
X14094363Y-15297412D01*
X9119300Y-15598500D02*
X9319300Y-15798500D01*
X9319300Y-15598500D02*
X9119300Y-15798500D01*
X9290011Y-15769211D02*
X9290011Y-15627789D01*
X9148589Y-15627789D01*
X9148589Y-15769211D01*
X9290011Y-15769211D01*
X9570553Y-15609031D02*
X9580077Y-15599508D01*
X9580077Y-15599508D02*
X9599124Y-15589984D01*
X9599124Y-15589984D02*
X9646744Y-15589984D01*
X9646744Y-15589984D02*
X9665791Y-15599508D01*
X9665791Y-15599508D02*
X9675315Y-15609031D01*
X9675315Y-15609031D02*
X9684839Y-15628079D01*
X9684839Y-15628079D02*
X9684839Y-15647127D01*
X9684839Y-15647127D02*
X9675315Y-15675698D01*
X9675315Y-15675698D02*
X9561029Y-15789984D01*
X9561029Y-15789984D02*
X9684839Y-15789984D01*
X9770553Y-15770936D02*
X9780077Y-15780460D01*
X9780077Y-15780460D02*
X9770553Y-15789984D01*
X9770553Y-15789984D02*
X9761029Y-15780460D01*
X9761029Y-15780460D02*
X9770553Y-15770936D01*
X9770553Y-15770936D02*
X9770553Y-15789984D01*
X9961029Y-15589984D02*
X9865791Y-15589984D01*
X9865791Y-15589984D02*
X9856267Y-15685222D01*
X9856267Y-15685222D02*
X9865791Y-15675698D01*
X9865791Y-15675698D02*
X9884839Y-15666174D01*
X9884839Y-15666174D02*
X9932458Y-15666174D01*
X9932458Y-15666174D02*
X9951505Y-15675698D01*
X9951505Y-15675698D02*
X9961029Y-15685222D01*
X9961029Y-15685222D02*
X9970553Y-15704269D01*
X9970553Y-15704269D02*
X9970553Y-15751888D01*
X9970553Y-15751888D02*
X9961029Y-15770936D01*
X9961029Y-15770936D02*
X9951505Y-15780460D01*
X9951505Y-15780460D02*
X9932458Y-15789984D01*
X9932458Y-15789984D02*
X9884839Y-15789984D01*
X9884839Y-15789984D02*
X9865791Y-15780460D01*
X9865791Y-15780460D02*
X9856267Y-15770936D01*
X10094363Y-15589984D02*
X10113410Y-15589984D01*
X10113410Y-15589984D02*
X10132458Y-15599508D01*
X10132458Y-15599508D02*
X10141982Y-15609031D01*
X10141982Y-15609031D02*
X10151505Y-15628079D01*
X10151505Y-15628079D02*
X10161029Y-15666174D01*
X10161029Y-15666174D02*
X10161029Y-15713793D01*
X10161029Y-15713793D02*
X10151505Y-15751888D01*
X10151505Y-15751888D02*
X10141982Y-15770936D01*
X10141982Y-15770936D02*
X10132458Y-15780460D01*
X10132458Y-15780460D02*
X10113410Y-15789984D01*
X10113410Y-15789984D02*
X10094363Y-15789984D01*
X10094363Y-15789984D02*
X10075315Y-15780460D01*
X10075315Y-15780460D02*
X10065791Y-15770936D01*
X10065791Y-15770936D02*
X10056267Y-15751888D01*
X10056267Y-15751888D02*
X10046744Y-15713793D01*
X10046744Y-15713793D02*
X10046744Y-15666174D01*
X10046744Y-15666174D02*
X10056267Y-15628079D01*
X10056267Y-15628079D02*
X10065791Y-15609031D01*
X10065791Y-15609031D02*
X10075315Y-15599508D01*
X10075315Y-15599508D02*
X10094363Y-15589984D01*
X10284839Y-15589984D02*
X10303886Y-15589984D01*
X10303886Y-15589984D02*
X10322934Y-15599508D01*
X10322934Y-15599508D02*
X10332458Y-15609031D01*
X10332458Y-15609031D02*
X10341982Y-15628079D01*
X10341982Y-15628079D02*
X10351505Y-15666174D01*
X10351505Y-15666174D02*
X10351505Y-15713793D01*
X10351505Y-15713793D02*
X10341982Y-15751888D01*
X10341982Y-15751888D02*
X10332458Y-15770936D01*
X10332458Y-15770936D02*
X10322934Y-15780460D01*
X10322934Y-15780460D02*
X10303886Y-15789984D01*
X10303886Y-15789984D02*
X10284839Y-15789984D01*
X10284839Y-15789984D02*
X10265791Y-15780460D01*
X10265791Y-15780460D02*
X10256267Y-15770936D01*
X10256267Y-15770936D02*
X10246744Y-15751888D01*
X10246744Y-15751888D02*
X10237220Y-15713793D01*
X10237220Y-15713793D02*
X10237220Y-15666174D01*
X10237220Y-15666174D02*
X10246744Y-15628079D01*
X10246744Y-15628079D02*
X10256267Y-15609031D01*
X10256267Y-15609031D02*
X10265791Y-15599508D01*
X10265791Y-15599508D02*
X10284839Y-15589984D01*
X10437220Y-15789984D02*
X10437220Y-15656650D01*
X10437220Y-15675698D02*
X10446744Y-15666174D01*
X10446744Y-15666174D02*
X10465791Y-15656650D01*
X10465791Y-15656650D02*
X10494363Y-15656650D01*
X10494363Y-15656650D02*
X10513410Y-15666174D01*
X10513410Y-15666174D02*
X10522934Y-15685222D01*
X10522934Y-15685222D02*
X10522934Y-15789984D01*
X10522934Y-15685222D02*
X10532458Y-15666174D01*
X10532458Y-15666174D02*
X10551505Y-15656650D01*
X10551505Y-15656650D02*
X10580077Y-15656650D01*
X10580077Y-15656650D02*
X10599125Y-15666174D01*
X10599125Y-15666174D02*
X10608648Y-15685222D01*
X10608648Y-15685222D02*
X10608648Y-15789984D01*
X10703886Y-15789984D02*
X10703886Y-15656650D01*
X10703886Y-15675698D02*
X10713410Y-15666174D01*
X10713410Y-15666174D02*
X10732458Y-15656650D01*
X10732458Y-15656650D02*
X10761029Y-15656650D01*
X10761029Y-15656650D02*
X10780077Y-15666174D01*
X10780077Y-15666174D02*
X10789601Y-15685222D01*
X10789601Y-15685222D02*
X10789601Y-15789984D01*
X10789601Y-15685222D02*
X10799125Y-15666174D01*
X10799125Y-15666174D02*
X10818172Y-15656650D01*
X10818172Y-15656650D02*
X10846744Y-15656650D01*
X10846744Y-15656650D02*
X10865791Y-15666174D01*
X10865791Y-15666174D02*
X10875315Y-15685222D01*
X10875315Y-15685222D02*
X10875315Y-15789984D01*
X11265791Y-15580460D02*
X11094363Y-15837603D01*
X11522934Y-15589984D02*
X11541982Y-15589984D01*
X11541982Y-15589984D02*
X11561029Y-15599508D01*
X11561029Y-15599508D02*
X11570553Y-15609031D01*
X11570553Y-15609031D02*
X11580077Y-15628079D01*
X11580077Y-15628079D02*
X11589601Y-15666174D01*
X11589601Y-15666174D02*
X11589601Y-15713793D01*
X11589601Y-15713793D02*
X11580077Y-15751888D01*
X11580077Y-15751888D02*
X11570553Y-15770936D01*
X11570553Y-15770936D02*
X11561029Y-15780460D01*
X11561029Y-15780460D02*
X11541982Y-15789984D01*
X11541982Y-15789984D02*
X11522934Y-15789984D01*
X11522934Y-15789984D02*
X11503886Y-15780460D01*
X11503886Y-15780460D02*
X11494363Y-15770936D01*
X11494363Y-15770936D02*
X11484839Y-15751888D01*
X11484839Y-15751888D02*
X11475315Y-15713793D01*
X11475315Y-15713793D02*
X11475315Y-15666174D01*
X11475315Y-15666174D02*
X11484839Y-15628079D01*
X11484839Y-15628079D02*
X11494363Y-15609031D01*
X11494363Y-15609031D02*
X11503886Y-15599508D01*
X11503886Y-15599508D02*
X11522934Y-15589984D01*
X11675315Y-15770936D02*
X11684839Y-15780460D01*
X11684839Y-15780460D02*
X11675315Y-15789984D01*
X11675315Y-15789984D02*
X11665791Y-15780460D01*
X11665791Y-15780460D02*
X11675315Y-15770936D01*
X11675315Y-15770936D02*
X11675315Y-15789984D01*
X11808648Y-15589984D02*
X11827696Y-15589984D01*
X11827696Y-15589984D02*
X11846744Y-15599508D01*
X11846744Y-15599508D02*
X11856267Y-15609031D01*
X11856267Y-15609031D02*
X11865791Y-15628079D01*
X11865791Y-15628079D02*
X11875315Y-15666174D01*
X11875315Y-15666174D02*
X11875315Y-15713793D01*
X11875315Y-15713793D02*
X11865791Y-15751888D01*
X11865791Y-15751888D02*
X11856267Y-15770936D01*
X11856267Y-15770936D02*
X11846744Y-15780460D01*
X11846744Y-15780460D02*
X11827696Y-15789984D01*
X11827696Y-15789984D02*
X11808648Y-15789984D01*
X11808648Y-15789984D02*
X11789601Y-15780460D01*
X11789601Y-15780460D02*
X11780077Y-15770936D01*
X11780077Y-15770936D02*
X11770553Y-15751888D01*
X11770553Y-15751888D02*
X11761029Y-15713793D01*
X11761029Y-15713793D02*
X11761029Y-15666174D01*
X11761029Y-15666174D02*
X11770553Y-15628079D01*
X11770553Y-15628079D02*
X11780077Y-15609031D01*
X11780077Y-15609031D02*
X11789601Y-15599508D01*
X11789601Y-15599508D02*
X11808648Y-15589984D01*
X11970553Y-15789984D02*
X12008648Y-15789984D01*
X12008648Y-15789984D02*
X12027696Y-15780460D01*
X12027696Y-15780460D02*
X12037220Y-15770936D01*
X12037220Y-15770936D02*
X12056267Y-15742365D01*
X12056267Y-15742365D02*
X12065791Y-15704269D01*
X12065791Y-15704269D02*
X12065791Y-15628079D01*
X12065791Y-15628079D02*
X12056267Y-15609031D01*
X12056267Y-15609031D02*
X12046744Y-15599508D01*
X12046744Y-15599508D02*
X12027696Y-15589984D01*
X12027696Y-15589984D02*
X11989601Y-15589984D01*
X11989601Y-15589984D02*
X11970553Y-15599508D01*
X11970553Y-15599508D02*
X11961029Y-15609031D01*
X11961029Y-15609031D02*
X11951506Y-15628079D01*
X11951506Y-15628079D02*
X11951506Y-15675698D01*
X11951506Y-15675698D02*
X11961029Y-15694746D01*
X11961029Y-15694746D02*
X11970553Y-15704269D01*
X11970553Y-15704269D02*
X11989601Y-15713793D01*
X11989601Y-15713793D02*
X12027696Y-15713793D01*
X12027696Y-15713793D02*
X12046744Y-15704269D01*
X12046744Y-15704269D02*
X12056267Y-15694746D01*
X12056267Y-15694746D02*
X12065791Y-15675698D01*
X12180077Y-15675698D02*
X12161029Y-15666174D01*
X12161029Y-15666174D02*
X12151506Y-15656650D01*
X12151506Y-15656650D02*
X12141982Y-15637603D01*
X12141982Y-15637603D02*
X12141982Y-15628079D01*
X12141982Y-15628079D02*
X12151506Y-15609031D01*
X12151506Y-15609031D02*
X12161029Y-15599508D01*
X12161029Y-15599508D02*
X12180077Y-15589984D01*
X12180077Y-15589984D02*
X12218172Y-15589984D01*
X12218172Y-15589984D02*
X12237220Y-15599508D01*
X12237220Y-15599508D02*
X12246744Y-15609031D01*
X12246744Y-15609031D02*
X12256267Y-15628079D01*
X12256267Y-15628079D02*
X12256267Y-15637603D01*
X12256267Y-15637603D02*
X12246744Y-15656650D01*
X12246744Y-15656650D02*
X12237220Y-15666174D01*
X12237220Y-15666174D02*
X12218172Y-15675698D01*
X12218172Y-15675698D02*
X12180077Y-15675698D01*
X12180077Y-15675698D02*
X12161029Y-15685222D01*
X12161029Y-15685222D02*
X12151506Y-15694746D01*
X12151506Y-15694746D02*
X12141982Y-15713793D01*
X12141982Y-15713793D02*
X12141982Y-15751888D01*
X12141982Y-15751888D02*
X12151506Y-15770936D01*
X12151506Y-15770936D02*
X12161029Y-15780460D01*
X12161029Y-15780460D02*
X12180077Y-15789984D01*
X12180077Y-15789984D02*
X12218172Y-15789984D01*
X12218172Y-15789984D02*
X12237220Y-15780460D01*
X12237220Y-15780460D02*
X12246744Y-15770936D01*
X12246744Y-15770936D02*
X12256267Y-15751888D01*
X12256267Y-15751888D02*
X12256267Y-15713793D01*
X12256267Y-15713793D02*
X12246744Y-15694746D01*
X12246744Y-15694746D02*
X12237220Y-15685222D01*
X12237220Y-15685222D02*
X12218172Y-15675698D01*
X12427696Y-15656650D02*
X12427696Y-15789984D01*
X12380077Y-15580460D02*
X12332458Y-15723317D01*
X12332458Y-15723317D02*
X12456267Y-15723317D01*
X12522934Y-15589984D02*
X12522934Y-15628079D01*
X12599125Y-15589984D02*
X12599125Y-15628079D01*
X12894363Y-15866174D02*
X12884839Y-15856650D01*
X12884839Y-15856650D02*
X12865791Y-15828079D01*
X12865791Y-15828079D02*
X12856268Y-15809031D01*
X12856268Y-15809031D02*
X12846744Y-15780460D01*
X12846744Y-15780460D02*
X12837220Y-15732841D01*
X12837220Y-15732841D02*
X12837220Y-15694746D01*
X12837220Y-15694746D02*
X12846744Y-15647127D01*
X12846744Y-15647127D02*
X12856268Y-15618555D01*
X12856268Y-15618555D02*
X12865791Y-15599508D01*
X12865791Y-15599508D02*
X12884839Y-15570936D01*
X12884839Y-15570936D02*
X12894363Y-15561412D01*
X13056268Y-15656650D02*
X13056268Y-15789984D01*
X13008648Y-15580460D02*
X12961029Y-15723317D01*
X12961029Y-15723317D02*
X13084839Y-15723317D01*
X13313410Y-15789984D02*
X13313410Y-15589984D01*
X13399125Y-15789984D02*
X13399125Y-15685222D01*
X13399125Y-15685222D02*
X13389601Y-15666174D01*
X13389601Y-15666174D02*
X13370553Y-15656650D01*
X13370553Y-15656650D02*
X13341982Y-15656650D01*
X13341982Y-15656650D02*
X13322934Y-15666174D01*
X13322934Y-15666174D02*
X13313410Y-15675698D01*
X13522934Y-15789984D02*
X13503887Y-15780460D01*
X13503887Y-15780460D02*
X13494363Y-15770936D01*
X13494363Y-15770936D02*
X13484839Y-15751888D01*
X13484839Y-15751888D02*
X13484839Y-15694746D01*
X13484839Y-15694746D02*
X13494363Y-15675698D01*
X13494363Y-15675698D02*
X13503887Y-15666174D01*
X13503887Y-15666174D02*
X13522934Y-15656650D01*
X13522934Y-15656650D02*
X13551506Y-15656650D01*
X13551506Y-15656650D02*
X13570553Y-15666174D01*
X13570553Y-15666174D02*
X13580077Y-15675698D01*
X13580077Y-15675698D02*
X13589601Y-15694746D01*
X13589601Y-15694746D02*
X13589601Y-15751888D01*
X13589601Y-15751888D02*
X13580077Y-15770936D01*
X13580077Y-15770936D02*
X13570553Y-15780460D01*
X13570553Y-15780460D02*
X13551506Y-15789984D01*
X13551506Y-15789984D02*
X13522934Y-15789984D01*
X13703887Y-15789984D02*
X13684839Y-15780460D01*
X13684839Y-15780460D02*
X13675315Y-15761412D01*
X13675315Y-15761412D02*
X13675315Y-15589984D01*
X13856268Y-15780460D02*
X13837220Y-15789984D01*
X13837220Y-15789984D02*
X13799125Y-15789984D01*
X13799125Y-15789984D02*
X13780077Y-15780460D01*
X13780077Y-15780460D02*
X13770553Y-15761412D01*
X13770553Y-15761412D02*
X13770553Y-15685222D01*
X13770553Y-15685222D02*
X13780077Y-15666174D01*
X13780077Y-15666174D02*
X13799125Y-15656650D01*
X13799125Y-15656650D02*
X13837220Y-15656650D01*
X13837220Y-15656650D02*
X13856268Y-15666174D01*
X13856268Y-15666174D02*
X13865791Y-15685222D01*
X13865791Y-15685222D02*
X13865791Y-15704269D01*
X13865791Y-15704269D02*
X13770553Y-15723317D01*
X13941982Y-15780460D02*
X13961030Y-15789984D01*
X13961030Y-15789984D02*
X13999125Y-15789984D01*
X13999125Y-15789984D02*
X14018172Y-15780460D01*
X14018172Y-15780460D02*
X14027696Y-15761412D01*
X14027696Y-15761412D02*
X14027696Y-15751888D01*
X14027696Y-15751888D02*
X14018172Y-15732841D01*
X14018172Y-15732841D02*
X13999125Y-15723317D01*
X13999125Y-15723317D02*
X13970553Y-15723317D01*
X13970553Y-15723317D02*
X13951506Y-15713793D01*
X13951506Y-15713793D02*
X13941982Y-15694746D01*
X13941982Y-15694746D02*
X13941982Y-15685222D01*
X13941982Y-15685222D02*
X13951506Y-15666174D01*
X13951506Y-15666174D02*
X13970553Y-15656650D01*
X13970553Y-15656650D02*
X13999125Y-15656650D01*
X13999125Y-15656650D02*
X14018172Y-15666174D01*
X14094363Y-15866174D02*
X14103887Y-15856650D01*
X14103887Y-15856650D02*
X14122934Y-15828079D01*
X14122934Y-15828079D02*
X14132458Y-15809031D01*
X14132458Y-15809031D02*
X14141982Y-15780460D01*
X14141982Y-15780460D02*
X14151506Y-15732841D01*
X14151506Y-15732841D02*
X14151506Y-15694746D01*
X14151506Y-15694746D02*
X14141982Y-15647127D01*
X14141982Y-15647127D02*
X14132458Y-15618555D01*
X14132458Y-15618555D02*
X14122934Y-15599508D01*
X14122934Y-15599508D02*
X14103887Y-15570936D01*
X14103887Y-15570936D02*
X14094363Y-15561412D01*
M02*
