M48
; DRILL file {KiCad 8.0.2} date 2024-07-26T13:42:37+0200
; FORMAT={-:-/ absolute / metric / decimal}
; #@! TF.CreationDate,2024-07-26T13:42:37+02:00
; #@! TF.GenerationSoftware,Kicad,Pcbnew,8.0.2
; #@! TF.FileFunction,Plated,1,2,PTH
FMAT,2
METRIC
; #@! TA.AperFunction,Plated,PTH,ViaDrill
T1C0.300
; #@! TA.AperFunction,Plated,PTH,ComponentDrill
T2C0.500
; #@! TA.AperFunction,Plated,PTH,ComponentDrill
T3C0.559
; #@! TA.AperFunction,Plated,PTH,ComponentDrill
T4C0.800
; #@! TA.AperFunction,Plated,PTH,ComponentDrill
T5C0.900
; #@! TA.AperFunction,Plated,PTH,ComponentDrill
T6C1.000
; #@! TA.AperFunction,Plated,PTH,ComponentDrill
T7C1.200
; #@! TA.AperFunction,Plated,PTH,ComponentDrill
T8C2.500
%
G90
G05
T1
X98.806Y-125.73
X99.568Y-88.392
X109.474Y-129.54
X114.3Y-129.54
X118.618Y-114.554
X119.38Y-129.54
X120.973Y-120.973
X121.92Y-121.92
X123.698Y-82.042
X124.968Y-127.0
X124.968Y-129.54
X125.222Y-76.708
X129.032Y-76.2
X129.54Y-127.0
X129.54Y-129.54
X132.588Y-88.9
X132.588Y-91.44
X133.858Y-118.364
X133.858Y-121.412
X134.366Y-127.254
X134.874Y-105.664
X137.653Y-124.714
X137.668Y-118.11
X138.049Y-129.938
X138.557Y-126.382
X138.684Y-105.664
X139.319Y-120.032
X139.954Y-97.282
X140.081Y-127.906
X140.462Y-76.2
X140.589Y-118.254
X140.716Y-98.552
X141.224Y-86.36
X141.859Y-120.032
X143.383Y-118.254
X144.653Y-120.032
X145.923Y-118.254
X147.066Y-75.692
X147.066Y-113.792
X147.193Y-120.032
X148.717Y-118.254
X149.987Y-120.032
X150.114Y-88.392
X150.241Y-127.144
X151.511Y-124.096
X151.511Y-125.366
X151.892Y-118.11
X152.273Y-129.43
X153.162Y-98.044
X154.051Y-125.366
X154.178Y-113.284
X154.178Y-114.554
X154.559Y-118.0
X154.559Y-121.556
X157.48Y-115.316
T2
X94.589Y-128.834
X95.138Y-127.508
X95.138Y-130.16
X95.209Y-72.192
X95.758Y-70.866
X95.758Y-73.518
X96.464Y-126.959
X96.464Y-130.709
X97.084Y-70.317
X97.084Y-74.067
X97.79Y-127.508
X97.79Y-130.16
X98.339Y-128.834
X98.41Y-70.866
X98.41Y-73.518
X98.959Y-72.192
X154.335Y-72.487
X154.391Y-128.58
X154.884Y-71.161
X154.884Y-73.813
X154.94Y-127.254
X154.94Y-129.906
X156.21Y-70.612
X156.21Y-74.362
X156.266Y-126.705
X156.266Y-130.455
X157.536Y-71.161
X157.536Y-73.813
X157.592Y-127.254
X157.592Y-129.906
X158.085Y-72.487
X158.141Y-128.58
T3
X145.288Y-128.016
T4
X101.596Y-124.457
X101.596Y-126.997
X101.596Y-129.537
X101.6Y-76.2
X101.6Y-78.74
X101.6Y-81.28
X101.6Y-83.82
X101.6Y-86.36
X101.6Y-88.9
X101.6Y-91.44
X101.6Y-93.98
X101.6Y-96.52
X101.6Y-99.06
X101.6Y-101.6
X101.6Y-104.14
X101.6Y-106.68
X101.6Y-109.22
X101.6Y-111.76
X101.6Y-114.3
X101.6Y-116.84
X101.6Y-119.38
X101.6Y-121.92
X104.136Y-124.457
X104.136Y-126.997
X104.136Y-129.537
X104.14Y-76.2
X104.14Y-78.74
X104.14Y-81.28
X104.14Y-83.82
X104.14Y-86.36
X104.14Y-88.9
X104.14Y-91.44
X104.14Y-93.98
X104.14Y-96.52
X104.14Y-99.06
X104.14Y-101.6
X104.14Y-104.14
X104.14Y-106.68
X104.14Y-109.22
X104.14Y-111.76
X104.14Y-114.3
X104.14Y-116.84
X104.14Y-119.38
X104.14Y-121.92
X106.626Y-124.477
X106.626Y-127.017
X106.626Y-129.557
X106.63Y-76.22
X106.63Y-78.76
X106.63Y-81.3
X106.63Y-83.84
X106.63Y-86.38
X106.63Y-88.92
X106.63Y-91.46
X106.63Y-94.0
X106.63Y-96.54
X106.63Y-99.08
X106.63Y-101.62
X106.63Y-104.16
X106.63Y-106.7
X106.63Y-109.24
X106.63Y-111.78
X106.63Y-114.32
X106.63Y-116.86
X106.63Y-119.4
X106.63Y-121.94
X127.0Y-76.2
X127.0Y-78.74
X127.0Y-81.28
X127.0Y-83.82
X127.0Y-86.36
X127.0Y-88.9
X127.0Y-91.44
X127.0Y-93.98
X127.0Y-96.52
X127.0Y-99.06
X127.0Y-101.6
X127.0Y-104.14
X127.0Y-106.68
X127.0Y-109.22
X127.0Y-111.76
X127.0Y-114.3
X127.0Y-116.84
X127.0Y-119.38
X127.0Y-121.92
X127.0Y-124.46
X127.0Y-127.0
X127.0Y-129.54
T5
X96.52Y-79.502
X96.52Y-82.042
X96.52Y-104.648
X96.52Y-107.188
T6
X111.76Y-93.726
X111.76Y-96.266
X111.76Y-98.806
X111.76Y-101.346
X111.76Y-103.886
X111.76Y-106.426
X111.76Y-108.966
X111.76Y-111.506
X111.76Y-114.046
X136.652Y-94.488
X139.192Y-94.488
X141.732Y-94.488
X144.272Y-94.488
X146.812Y-94.488
X149.352Y-94.488
X151.892Y-94.488
X154.432Y-94.488
T7
X96.486Y-86.106
X96.486Y-98.806
X96.52Y-110.998
X96.52Y-123.698
T8
X96.464Y-128.834
X97.084Y-72.192
X156.21Y-72.487
X156.266Y-128.58
M30
