%TF.GenerationSoftware,KiCad,Pcbnew,8.0.2*%
%TF.CreationDate,2024-07-26T13:42:35+02:00*%
%TF.ProjectId,e07-900m10s-breakout,6530372d-3930-4306-9d31-30732d627265,rev?*%
%TF.SameCoordinates,Original*%
%TF.FileFunction,Drillmap*%
%TF.FilePolarity,Positive*%
%FSLAX45Y45*%
G04 Gerber Fmt 4.5, Leading zero omitted, Abs format (unit mm)*
G04 Created by KiCad (PCBNEW 8.0.2) date 2024-07-26 13:42:35*
%MOMM*%
%LPD*%
G01*
G04 APERTURE LIST*
%ADD10C,0.050000*%
%ADD11C,0.200000*%
G04 APERTURE END LIST*
D10*
X9321800Y-6883400D02*
X15976600Y-6883400D01*
X15976600Y-13208000D01*
X9321800Y-13208000D01*
X9321800Y-6883400D01*
D11*
X9580077Y-13521984D02*
X9580077Y-13321984D01*
X9580077Y-13321984D02*
X9627696Y-13321984D01*
X9627696Y-13321984D02*
X9656267Y-13331508D01*
X9656267Y-13331508D02*
X9675315Y-13350555D01*
X9675315Y-13350555D02*
X9684839Y-13369603D01*
X9684839Y-13369603D02*
X9694363Y-13407698D01*
X9694363Y-13407698D02*
X9694363Y-13436269D01*
X9694363Y-13436269D02*
X9684839Y-13474365D01*
X9684839Y-13474365D02*
X9675315Y-13493412D01*
X9675315Y-13493412D02*
X9656267Y-13512460D01*
X9656267Y-13512460D02*
X9627696Y-13521984D01*
X9627696Y-13521984D02*
X9580077Y-13521984D01*
X9780077Y-13521984D02*
X9780077Y-13388650D01*
X9780077Y-13426746D02*
X9789601Y-13407698D01*
X9789601Y-13407698D02*
X9799124Y-13398174D01*
X9799124Y-13398174D02*
X9818172Y-13388650D01*
X9818172Y-13388650D02*
X9837220Y-13388650D01*
X9903886Y-13521984D02*
X9903886Y-13388650D01*
X9903886Y-13321984D02*
X9894363Y-13331508D01*
X9894363Y-13331508D02*
X9903886Y-13341031D01*
X9903886Y-13341031D02*
X9913410Y-13331508D01*
X9913410Y-13331508D02*
X9903886Y-13321984D01*
X9903886Y-13321984D02*
X9903886Y-13341031D01*
X10027696Y-13521984D02*
X10008648Y-13512460D01*
X10008648Y-13512460D02*
X9999124Y-13493412D01*
X9999124Y-13493412D02*
X9999124Y-13321984D01*
X10132458Y-13521984D02*
X10113410Y-13512460D01*
X10113410Y-13512460D02*
X10103886Y-13493412D01*
X10103886Y-13493412D02*
X10103886Y-13321984D01*
X10361029Y-13521984D02*
X10361029Y-13321984D01*
X10361029Y-13321984D02*
X10427696Y-13464841D01*
X10427696Y-13464841D02*
X10494363Y-13321984D01*
X10494363Y-13321984D02*
X10494363Y-13521984D01*
X10675315Y-13521984D02*
X10675315Y-13417222D01*
X10675315Y-13417222D02*
X10665791Y-13398174D01*
X10665791Y-13398174D02*
X10646744Y-13388650D01*
X10646744Y-13388650D02*
X10608648Y-13388650D01*
X10608648Y-13388650D02*
X10589601Y-13398174D01*
X10675315Y-13512460D02*
X10656267Y-13521984D01*
X10656267Y-13521984D02*
X10608648Y-13521984D01*
X10608648Y-13521984D02*
X10589601Y-13512460D01*
X10589601Y-13512460D02*
X10580077Y-13493412D01*
X10580077Y-13493412D02*
X10580077Y-13474365D01*
X10580077Y-13474365D02*
X10589601Y-13455317D01*
X10589601Y-13455317D02*
X10608648Y-13445793D01*
X10608648Y-13445793D02*
X10656267Y-13445793D01*
X10656267Y-13445793D02*
X10675315Y-13436269D01*
X10770553Y-13388650D02*
X10770553Y-13588650D01*
X10770553Y-13398174D02*
X10789601Y-13388650D01*
X10789601Y-13388650D02*
X10827696Y-13388650D01*
X10827696Y-13388650D02*
X10846744Y-13398174D01*
X10846744Y-13398174D02*
X10856267Y-13407698D01*
X10856267Y-13407698D02*
X10865791Y-13426746D01*
X10865791Y-13426746D02*
X10865791Y-13483888D01*
X10865791Y-13483888D02*
X10856267Y-13502936D01*
X10856267Y-13502936D02*
X10846744Y-13512460D01*
X10846744Y-13512460D02*
X10827696Y-13521984D01*
X10827696Y-13521984D02*
X10789601Y-13521984D01*
X10789601Y-13521984D02*
X10770553Y-13512460D01*
X10951505Y-13502936D02*
X10961029Y-13512460D01*
X10961029Y-13512460D02*
X10951505Y-13521984D01*
X10951505Y-13521984D02*
X10941982Y-13512460D01*
X10941982Y-13512460D02*
X10951505Y-13502936D01*
X10951505Y-13502936D02*
X10951505Y-13521984D01*
X10951505Y-13398174D02*
X10961029Y-13407698D01*
X10961029Y-13407698D02*
X10951505Y-13417222D01*
X10951505Y-13417222D02*
X10941982Y-13407698D01*
X10941982Y-13407698D02*
X10951505Y-13398174D01*
X10951505Y-13398174D02*
X10951505Y-13417222D01*
M02*
